%TF.GenerationSoftware,KiCad,Pcbnew,(6.0.9)*%
%TF.CreationDate,2022-12-01T11:48:01+01:00*%
%TF.ProjectId,bed_occupacy_sensor,6265645f-6f63-4637-9570-6163795f7365,rev?*%
%TF.SameCoordinates,Original*%
%TF.FileFunction,Legend,Top*%
%TF.FilePolarity,Positive*%
%FSLAX46Y46*%
G04 Gerber Fmt 4.6, Leading zero omitted, Abs format (unit mm)*
G04 Created by KiCad (PCBNEW (6.0.9)) date 2022-12-01 11:48:01*
%MOMM*%
%LPD*%
G01*
G04 APERTURE LIST*
%ADD10C,0.150000*%
%ADD11C,0.120000*%
%ADD12C,0.100000*%
G04 APERTURE END LIST*
D10*
%TO.C,J1*%
X110582380Y-56833333D02*
X111296666Y-56833333D01*
X111439523Y-56880952D01*
X111534761Y-56976190D01*
X111582380Y-57119047D01*
X111582380Y-57214285D01*
X111582380Y-55833333D02*
X111582380Y-56404761D01*
X111582380Y-56119047D02*
X110582380Y-56119047D01*
X110725238Y-56214285D01*
X110820476Y-56309523D01*
X110868095Y-56404761D01*
%TO.C,U1*%
X150312380Y-80557619D02*
X149836190Y-80890952D01*
X150312380Y-81129047D02*
X149312380Y-81129047D01*
X149312380Y-80748095D01*
X149360000Y-80652857D01*
X149407619Y-80605238D01*
X149502857Y-80557619D01*
X149645714Y-80557619D01*
X149740952Y-80605238D01*
X149788571Y-80652857D01*
X149836190Y-80748095D01*
X149836190Y-81129047D01*
X150264761Y-80176666D02*
X150312380Y-80033809D01*
X150312380Y-79795714D01*
X150264761Y-79700476D01*
X150217142Y-79652857D01*
X150121904Y-79605238D01*
X150026666Y-79605238D01*
X149931428Y-79652857D01*
X149883809Y-79700476D01*
X149836190Y-79795714D01*
X149788571Y-79986190D01*
X149740952Y-80081428D01*
X149693333Y-80129047D01*
X149598095Y-80176666D01*
X149502857Y-80176666D01*
X149407619Y-80129047D01*
X149360000Y-80081428D01*
X149312380Y-79986190D01*
X149312380Y-79748095D01*
X149360000Y-79605238D01*
X149312380Y-79319523D02*
X149312380Y-78748095D01*
X150312380Y-79033809D02*
X149312380Y-79033809D01*
%TO.C,R2*%
X136993333Y-66322380D02*
X136660000Y-65846190D01*
X136421904Y-66322380D02*
X136421904Y-65322380D01*
X136802857Y-65322380D01*
X136898095Y-65370000D01*
X136945714Y-65417619D01*
X136993333Y-65512857D01*
X136993333Y-65655714D01*
X136945714Y-65750952D01*
X136898095Y-65798571D01*
X136802857Y-65846190D01*
X136421904Y-65846190D01*
X137374285Y-65417619D02*
X137421904Y-65370000D01*
X137517142Y-65322380D01*
X137755238Y-65322380D01*
X137850476Y-65370000D01*
X137898095Y-65417619D01*
X137945714Y-65512857D01*
X137945714Y-65608095D01*
X137898095Y-65750952D01*
X137326666Y-66322380D01*
X137945714Y-66322380D01*
%TO.C,R1*%
X136993333Y-73942380D02*
X136660000Y-73466190D01*
X136421904Y-73942380D02*
X136421904Y-72942380D01*
X136802857Y-72942380D01*
X136898095Y-72990000D01*
X136945714Y-73037619D01*
X136993333Y-73132857D01*
X136993333Y-73275714D01*
X136945714Y-73370952D01*
X136898095Y-73418571D01*
X136802857Y-73466190D01*
X136421904Y-73466190D01*
X137945714Y-73942380D02*
X137374285Y-73942380D01*
X137660000Y-73942380D02*
X137660000Y-72942380D01*
X137564761Y-73085238D01*
X137469523Y-73180476D01*
X137374285Y-73228095D01*
%TO.C,G\u002A\u002A\u002A*%
G36*
X137311434Y-84625449D02*
G01*
X137384346Y-84707163D01*
X137425332Y-84898713D01*
X137443452Y-85245393D01*
X137447763Y-85792496D01*
X137447783Y-85859508D01*
X137447783Y-87110739D01*
X139449754Y-87110739D01*
X139950246Y-87110739D01*
X141952217Y-87110739D01*
X141952217Y-86510148D01*
X141922615Y-86123552D01*
X141847659Y-85833471D01*
X141802069Y-85759409D01*
X141595803Y-85677518D01*
X141208054Y-85624316D01*
X140801084Y-85609261D01*
X139950246Y-85609261D01*
X139950246Y-87110739D01*
X139449754Y-87110739D01*
X139449754Y-85108769D01*
X140644111Y-85108769D01*
X141209056Y-85113863D01*
X141584012Y-85137354D01*
X141829164Y-85191550D01*
X142004695Y-85288763D01*
X142145589Y-85415889D01*
X142283343Y-85570655D01*
X142372378Y-85740927D01*
X142423237Y-85982546D01*
X142446464Y-86351358D01*
X142452604Y-86903205D01*
X142452710Y-87042490D01*
X142449597Y-87630082D01*
X142434676Y-88011603D01*
X142399574Y-88231203D01*
X142335918Y-88333034D01*
X142235333Y-88361246D01*
X142202463Y-88361971D01*
X142019291Y-88302982D01*
X141954799Y-88083498D01*
X141952217Y-87986601D01*
X141952217Y-87611232D01*
X137447783Y-87611232D01*
X137447783Y-87986601D01*
X137408458Y-88261360D01*
X137262135Y-88358098D01*
X137197537Y-88361971D01*
X137101360Y-88349671D01*
X137033592Y-88287991D01*
X136989276Y-88139755D01*
X136963456Y-87867790D01*
X136951175Y-87434920D01*
X136947477Y-86803972D01*
X136947291Y-86485123D01*
X136948931Y-85763796D01*
X136957155Y-85255535D01*
X136976920Y-84923167D01*
X137013182Y-84729517D01*
X137070898Y-84637411D01*
X137155024Y-84609674D01*
X137197537Y-84608276D01*
X137311434Y-84625449D01*
G37*
G36*
X137926848Y-85566092D02*
G01*
X138288074Y-85379166D01*
X138662762Y-85397121D01*
X138980987Y-85588893D01*
X139172827Y-85923416D01*
X139199508Y-86131494D01*
X139094285Y-86494506D01*
X138828928Y-86744814D01*
X138478900Y-86853255D01*
X138119665Y-86790671D01*
X137905107Y-86631675D01*
X137725251Y-86275501D01*
X137728590Y-86146010D01*
X138239469Y-86146010D01*
X138330730Y-86320419D01*
X138448769Y-86360000D01*
X138609244Y-86268856D01*
X138643191Y-86223975D01*
X138657808Y-86033153D01*
X138525425Y-85905128D01*
X138343846Y-85920587D01*
X138309523Y-85948704D01*
X138239469Y-86146010D01*
X137728590Y-86146010D01*
X137735341Y-85884224D01*
X137926848Y-85566092D01*
G37*
D11*
%TO.C,J1*%
X100490000Y-66620000D02*
X100240000Y-66120000D01*
X97840000Y-55770000D02*
X97840000Y-66120000D01*
X100440000Y-66620000D02*
X100490000Y-66620000D01*
X105340000Y-66620000D02*
X110440000Y-66620000D01*
X110440000Y-66620000D02*
X110440000Y-55770000D01*
X110440000Y-55770000D02*
X97840000Y-55770000D01*
X100240000Y-66120000D02*
X105640000Y-66120000D01*
X98790000Y-66120000D02*
X98540000Y-66620000D01*
X105640000Y-66120000D02*
X105340000Y-66620000D01*
X97840000Y-66120000D02*
X98790000Y-66120000D01*
X98540000Y-66620000D02*
X100440000Y-66620000D01*
%TO.C,U1*%
X149860000Y-63500000D02*
X152400000Y-63500000D01*
X149860000Y-73660000D02*
X149860000Y-63500000D01*
X152400000Y-73660000D02*
X149860000Y-73660000D01*
X158750000Y-63500000D02*
X152400000Y-63500000D01*
X158750000Y-73660000D02*
X158750000Y-63500000D01*
X152400000Y-73660000D02*
X158750000Y-73660000D01*
X152400000Y-81280000D02*
X152400000Y-53340000D01*
G36*
X151130000Y-82550000D02*
G01*
X148590000Y-82550000D01*
X148590000Y-81280000D01*
X151130000Y-81280000D01*
X151130000Y-82550000D01*
G37*
D12*
X151130000Y-82550000D02*
X148590000Y-82550000D01*
X148590000Y-81280000D01*
X151130000Y-81280000D01*
X151130000Y-82550000D01*
D11*
X147320000Y-83820000D02*
X147320000Y-81280000D01*
X118110000Y-83820000D02*
X147320000Y-83820000D01*
X118110000Y-53340000D02*
X152400000Y-53340000D01*
X115570000Y-81280000D02*
X115570000Y-80010000D01*
X115570000Y-81280000D02*
X118110000Y-83820000D01*
X115570000Y-55880000D02*
X118110000Y-53340000D01*
X115570000Y-55880000D02*
X115570000Y-80010000D01*
X147320000Y-81280000D02*
X152400000Y-81280000D01*
%TO.C,R2*%
X133890000Y-62130000D02*
X133890000Y-64870000D01*
X130580000Y-63500000D02*
X133890000Y-63500000D01*
X133890000Y-64870000D02*
X140430000Y-64870000D01*
X140430000Y-62130000D02*
X133890000Y-62130000D01*
X140430000Y-64870000D02*
X140430000Y-62130000D01*
X143740000Y-63500000D02*
X140430000Y-63500000D01*
%TO.C,R1*%
X133890000Y-69750000D02*
X133890000Y-72490000D01*
X130580000Y-71120000D02*
X133890000Y-71120000D01*
X133890000Y-72490000D02*
X140430000Y-72490000D01*
X140430000Y-69750000D02*
X133890000Y-69750000D01*
X140430000Y-72490000D02*
X140430000Y-69750000D01*
X143740000Y-71120000D02*
X140430000Y-71120000D01*
%TO.C,J2*%
X100490000Y-81860000D02*
X100240000Y-81360000D01*
X97840000Y-71010000D02*
X97840000Y-81360000D01*
X100440000Y-81860000D02*
X100490000Y-81860000D01*
X105340000Y-81860000D02*
X110440000Y-81860000D01*
X110440000Y-81860000D02*
X110440000Y-71010000D01*
X110440000Y-71010000D02*
X97840000Y-71010000D01*
X100240000Y-81360000D02*
X105640000Y-81360000D01*
X98790000Y-81360000D02*
X98540000Y-81860000D01*
X105640000Y-81360000D02*
X105340000Y-81860000D01*
X97840000Y-81360000D02*
X98790000Y-81360000D01*
X98540000Y-81860000D02*
X100440000Y-81860000D01*
%TD*%
M02*
