%TF.GenerationSoftware,KiCad,Pcbnew,(6.0.9)*%
%TF.CreationDate,2022-12-01T11:48:01+01:00*%
%TF.ProjectId,bed_occupacy_sensor,6265645f-6f63-4637-9570-6163795f7365,rev?*%
%TF.SameCoordinates,Original*%
%TF.FileFunction,Soldermask,Top*%
%TF.FilePolarity,Negative*%
%FSLAX46Y46*%
G04 Gerber Fmt 4.6, Leading zero omitted, Abs format (unit mm)*
G04 Created by KiCad (PCBNEW (6.0.9)) date 2022-12-01 11:48:01*
%MOMM*%
%LPD*%
G01*
G04 APERTURE LIST*
%ADD10O,3.960000X1.980000*%
%ADD11R,3.960000X1.980000*%
%ADD12C,1.400000*%
%ADD13C,1.600000*%
%ADD14O,1.600000X1.600000*%
%ADD15C,2.100000*%
G04 APERTURE END LIST*
D10*
%TO.C,J1*%
X104140000Y-63420000D03*
D11*
X104140000Y-58420000D03*
%TD*%
D12*
%TO.C,U1*%
X146050000Y-54610000D03*
X146050000Y-57150000D03*
X143510000Y-54610000D03*
X143510000Y-57150000D03*
X140970000Y-54610000D03*
X140970000Y-57150000D03*
X138430000Y-54610000D03*
X138430000Y-57150000D03*
X135890000Y-54610000D03*
X135890000Y-57150000D03*
X133350000Y-54610000D03*
X133350000Y-57150000D03*
X130810000Y-54610000D03*
X130810000Y-57150000D03*
X128270000Y-54610000D03*
X128270000Y-57150000D03*
X125730000Y-54610000D03*
X125730000Y-57150000D03*
X123190000Y-54610000D03*
X123190000Y-57150000D03*
X146050000Y-80010000D03*
X146050000Y-82550000D03*
X143510000Y-80010000D03*
X143510000Y-82550000D03*
X140970000Y-80010000D03*
X140970000Y-82550000D03*
X138430000Y-80010000D03*
X138430000Y-82550000D03*
X135890000Y-80010000D03*
X135890000Y-82550000D03*
X133350000Y-80010000D03*
X133350000Y-82550000D03*
X130810000Y-80010000D03*
X130810000Y-82550000D03*
X128270000Y-80010000D03*
X128270000Y-82550000D03*
X125730000Y-80010000D03*
X125730000Y-82550000D03*
X123190000Y-82550000D03*
X123190000Y-80010000D03*
%TD*%
D13*
%TO.C,R2*%
X144780000Y-63500000D03*
D14*
X129540000Y-63500000D03*
%TD*%
D13*
%TO.C,R1*%
X144780000Y-71120000D03*
D14*
X129540000Y-71120000D03*
%TD*%
D15*
%TO.C,REF\u002A\u002A*%
X96520000Y-86360000D03*
%TD*%
%TO.C,REF\u002A\u002A*%
X154940000Y-86360000D03*
%TD*%
%TO.C,REF\u002A\u002A*%
X154940000Y-50800000D03*
%TD*%
%TO.C,REF\u002A\u002A*%
X96520000Y-50800000D03*
%TD*%
D10*
%TO.C,J2*%
X104140000Y-78660000D03*
D11*
X104140000Y-73660000D03*
%TD*%
M02*
