%TF.GenerationSoftware,KiCad,Pcbnew,(6.0.9)*%
%TF.CreationDate,2022-12-01T11:48:01+01:00*%
%TF.ProjectId,bed_occupacy_sensor,6265645f-6f63-4637-9570-6163795f7365,rev?*%
%TF.SameCoordinates,Original*%
%TF.FileFunction,Copper,L2,Bot*%
%TF.FilePolarity,Positive*%
%FSLAX46Y46*%
G04 Gerber Fmt 4.6, Leading zero omitted, Abs format (unit mm)*
G04 Created by KiCad (PCBNEW (6.0.9)) date 2022-12-01 11:48:01*
%MOMM*%
%LPD*%
G01*
G04 APERTURE LIST*
%TA.AperFunction,NonConductor*%
%ADD10C,0.200000*%
%TD*%
%TA.AperFunction,ComponentPad*%
%ADD11O,3.960000X1.980000*%
%TD*%
%TA.AperFunction,ComponentPad*%
%ADD12R,3.960000X1.980000*%
%TD*%
%TA.AperFunction,ComponentPad*%
%ADD13C,1.400000*%
%TD*%
%TA.AperFunction,ComponentPad*%
%ADD14C,1.600000*%
%TD*%
%TA.AperFunction,ComponentPad*%
%ADD15O,1.600000X1.600000*%
%TD*%
G04 APERTURE END LIST*
D10*
X157480000Y-48260000D02*
X93980000Y-48260000D01*
X93980000Y-88900000D02*
X157480000Y-88900000D01*
X157480000Y-88900000D02*
X157480000Y-48260000D01*
X93980000Y-48260000D02*
X93980000Y-88900000D01*
D11*
%TO.P,J1,2,Pin_2*%
%TO.N,Net-(U1-Pad22)*%
X104140000Y-63420000D03*
D12*
%TO.P,J1,1,Pin_1*%
%TO.N,Net-(J1-Pad1)*%
X104140000Y-58420000D03*
%TD*%
D13*
%TO.P,U1,40,CLK*%
%TO.N,unconnected-(U1-Pad40)*%
X146050000Y-54610000D03*
%TO.P,U1,39,SD0*%
%TO.N,unconnected-(U1-Pad39)*%
X146050000Y-57150000D03*
%TO.P,U1,38,SD1*%
%TO.N,unconnected-(U1-Pad38)*%
X143510000Y-54610000D03*
%TO.P,U1,37,TD0*%
%TO.N,unconnected-(U1-Pad37)*%
X143510000Y-57150000D03*
%TO.P,U1,36,IO_02*%
%TO.N,unconnected-(U1-Pad36)*%
X140970000Y-54610000D03*
%TO.P,U1,35,VCC_(USB)*%
%TO.N,unconnected-(U1-Pad35)*%
X140970000Y-57150000D03*
%TO.P,U1,34,IO_00*%
%TO.N,unconnected-(U1-Pad34)*%
X138430000Y-54610000D03*
%TO.P,U1,33,GND*%
%TO.N,unconnected-(U1-Pad33)*%
X138430000Y-57150000D03*
%TO.P,U1,32,IO_04*%
%TO.N,unconnected-(U1-Pad32)*%
X135890000Y-54610000D03*
%TO.P,U1,31,IO_16/D4*%
%TO.N,unconnected-(U1-Pad31)*%
X135890000Y-57150000D03*
%TO.P,U1,30,IO_12/TDI*%
%TO.N,unconnected-(U1-Pad30)*%
X133350000Y-54610000D03*
%TO.P,U1,29,IO_17/D3*%
%TO.N,unconnected-(U1-Pad29)*%
X133350000Y-57150000D03*
%TO.P,U1,28,IO_32*%
%TO.N,unconnected-(U1-Pad28)*%
X130810000Y-54610000D03*
%TO.P,U1,27,IO_21/D2/SDA*%
%TO.N,unconnected-(U1-Pad27)*%
X130810000Y-57150000D03*
%TO.P,U1,26,IO_25*%
%TO.N,unconnected-(U1-Pad26)*%
X128270000Y-54610000D03*
%TO.P,U1,25,IO_22/D1/SCL*%
%TO.N,unconnected-(U1-Pad25)*%
X128270000Y-57150000D03*
%TO.P,U1,24,IO_27*%
%TO.N,unconnected-(U1-Pad24)*%
X125730000Y-54610000D03*
%TO.P,U1,23,RXD*%
%TO.N,unconnected-(U1-Pad23)*%
X125730000Y-57150000D03*
%TO.P,U1,22,GND*%
%TO.N,Net-(U1-Pad22)*%
X123190000Y-54610000D03*
%TO.P,U1,21,TXD*%
%TO.N,unconnected-(U1-Pad21)*%
X123190000Y-57150000D03*
%TO.P,U1,20,IO_10/SD3*%
%TO.N,unconnected-(U1-Pad20)*%
X146050000Y-80010000D03*
%TO.P,U1,19,CMD*%
%TO.N,unconnected-(U1-Pad19)*%
X146050000Y-82550000D03*
%TO.P,U1,18,IO_13/TCK*%
%TO.N,unconnected-(U1-Pad18)*%
X143510000Y-80010000D03*
%TO.P,U1,17,IO_09/SD2*%
%TO.N,unconnected-(U1-Pad17)*%
X143510000Y-82550000D03*
%TO.P,U1,16,3V3*%
%TO.N,Net-(R1-Pad1)*%
X140970000Y-80010000D03*
%TO.P,U1,15,NC*%
%TO.N,unconnected-(U1-Pad15)*%
X140970000Y-82550000D03*
%TO.P,U1,14,IO_05/D8*%
%TO.N,unconnected-(U1-Pad14)*%
X138430000Y-80010000D03*
%TO.P,U1,13,IO_14/TMS*%
%TO.N,unconnected-(U1-Pad13)*%
X138430000Y-82550000D03*
%TO.P,U1,12,IO_23/D7*%
%TO.N,unconnected-(U1-Pad12)*%
X135890000Y-80010000D03*
%TO.P,U1,11,IO_34*%
%TO.N,Net-(J1-Pad1)*%
X135890000Y-82550000D03*
%TO.P,U1,10,IO_19/D6*%
%TO.N,unconnected-(U1-Pad10)*%
X133350000Y-80010000D03*
%TO.P,U1,9,IO_33*%
%TO.N,unconnected-(U1-Pad9)*%
X133350000Y-82550000D03*
%TO.P,U1,8,IO_18/D5*%
%TO.N,unconnected-(U1-Pad8)*%
X130810000Y-80010000D03*
%TO.P,U1,7,IO_35*%
%TO.N,Net-(J2-Pad1)*%
X130810000Y-82550000D03*
%TO.P,U1,6,IO_26/D0*%
%TO.N,unconnected-(U1-Pad6)*%
X128270000Y-80010000D03*
%TO.P,U1,5,IO_39/SVN*%
%TO.N,unconnected-(U1-Pad5)*%
X128270000Y-82550000D03*
%TO.P,U1,4,IO_36/SVP/A0*%
%TO.N,unconnected-(U1-Pad4)*%
X125730000Y-80010000D03*
%TO.P,U1,3,NC*%
%TO.N,unconnected-(U1-Pad3)*%
X125730000Y-82550000D03*
%TO.P,U1,1,GND*%
%TO.N,unconnected-(U1-Pad1)*%
X123190000Y-82550000D03*
%TO.P,U1,2,RST*%
%TO.N,unconnected-(U1-Pad2)*%
X123190000Y-80010000D03*
%TD*%
D14*
%TO.P,R2,1*%
%TO.N,Net-(R1-Pad1)*%
X144780000Y-63500000D03*
D15*
%TO.P,R2,2*%
%TO.N,Net-(J1-Pad1)*%
X129540000Y-63500000D03*
%TD*%
D14*
%TO.P,R1,1*%
%TO.N,Net-(R1-Pad1)*%
X144780000Y-71120000D03*
D15*
%TO.P,R1,2*%
%TO.N,Net-(J2-Pad1)*%
X129540000Y-71120000D03*
%TD*%
D11*
%TO.P,J2,2,Pin_2*%
%TO.N,Net-(U1-Pad22)*%
X104140000Y-78660000D03*
D12*
%TO.P,J2,1,Pin_1*%
%TO.N,Net-(J2-Pad1)*%
X104140000Y-73660000D03*
%TD*%
M02*
