M48
; DRILL file {KiCad (6.0.9)} date Sun Dec 25 09:43:07 2022
; FORMAT={-:-/ absolute / inch / decimal}
; #@! TF.CreationDate,2022-12-25T09:43:07+01:00
; #@! TF.GenerationSoftware,Kicad,Pcbnew,(6.0.9)
; #@! TF.FileFunction,Plated,1,2,PTH
FMAT,2
INCH
; #@! TA.AperFunction,Plated,PTH,ComponentDrill
T1C0.0315
; #@! TA.AperFunction,Plated,PTH,ComponentDrill
T2C0.0520
%
G90
G05
T1
X6.9028Y-3.7028
X6.9028Y-3.8028
X6.9028Y-3.9028
X6.9028Y-4.0028
X6.9028Y-4.1028
X6.9028Y-4.2028
X6.9028Y-4.3028
X6.9028Y-4.4028
X6.9028Y-4.5028
X6.9028Y-4.6028
X7.0028Y-3.7028
X7.0028Y-3.8028
X7.0028Y-3.9028
X7.0028Y-4.0028
X7.0028Y-4.1028
X7.0028Y-4.2028
X7.0028Y-4.3028
X7.0028Y-4.4028
X7.0028Y-4.5028
X7.0028Y-4.6028
X7.2835Y-3.8732
X7.2835Y-4.4732
X7.5835Y-3.8732
X7.5835Y-4.4732
X7.9028Y-3.7028
X7.9028Y-3.8028
X7.9028Y-3.9028
X7.9028Y-4.0028
X7.9028Y-4.1028
X7.9028Y-4.2028
X7.9028Y-4.3028
X7.9028Y-4.4028
X7.9028Y-4.5028
X7.9028Y-4.6028
X8.0028Y-3.7028
X8.0028Y-3.8028
X8.0028Y-3.9028
X8.0028Y-4.0028
X8.0028Y-4.1028
X8.0028Y-4.2028
X8.0028Y-4.3028
X8.0028Y-4.4028
X8.0028Y-4.5028
X8.0028Y-4.6028
T2
X6.4835Y-3.8732
X6.4835Y-4.0701
X6.4835Y-4.3732
X6.4835Y-4.5701
T0
M30
