%TF.GenerationSoftware,KiCad,Pcbnew,(6.0.9)*%
%TF.CreationDate,2022-12-29T11:35:17+01:00*%
%TF.ProjectId,bed_occupacy_sensor,6265645f-6f63-4637-9570-6163795f7365,rev?*%
%TF.SameCoordinates,Original*%
%TF.FileFunction,Drillmap*%
%TF.FilePolarity,Positive*%
%FSLAX45Y45*%
G04 Gerber Fmt 4.5, Leading zero omitted, Abs format (unit mm)*
G04 Created by KiCad (PCBNEW (6.0.9)) date 2022-12-29 11:35:17*
%MOMM*%
%LPD*%
G01*
G04 APERTURE LIST*
%ADD10C,0.100000*%
%ADD11C,0.200000*%
G04 APERTURE END LIST*
D10*
X20100000Y-9100000D02*
X15800000Y-9100000D01*
X15800000Y-9100000D02*
X15800000Y-12200000D01*
X15800000Y-12200000D02*
X20100000Y-12200000D01*
X20100000Y-12200000D02*
X20100000Y-9100000D01*
X15202000Y-12852500D02*
X15202000Y-12852500D01*
X15202000Y-12852500D02*
X15202000Y-12852500D01*
X15202000Y-12852500D02*
X15202000Y-12852500D01*
X15202000Y-12852500D02*
X15202000Y-12852500D01*
D11*
X15454619Y-13167976D02*
X15454619Y-12967976D01*
X15502238Y-12967976D01*
X15530809Y-12977500D01*
X15549857Y-12996548D01*
X15559381Y-13015595D01*
X15568905Y-13053690D01*
X15568905Y-13082262D01*
X15559381Y-13120357D01*
X15549857Y-13139405D01*
X15530809Y-13158452D01*
X15502238Y-13167976D01*
X15454619Y-13167976D01*
X15654619Y-13167976D02*
X15654619Y-13034643D01*
X15654619Y-13072738D02*
X15664143Y-13053690D01*
X15673667Y-13044167D01*
X15692714Y-13034643D01*
X15711762Y-13034643D01*
X15778428Y-13167976D02*
X15778428Y-13034643D01*
X15778428Y-12967976D02*
X15768905Y-12977500D01*
X15778428Y-12987024D01*
X15787952Y-12977500D01*
X15778428Y-12967976D01*
X15778428Y-12987024D01*
X15902238Y-13167976D02*
X15883190Y-13158452D01*
X15873667Y-13139405D01*
X15873667Y-12967976D01*
X16007000Y-13167976D02*
X15987952Y-13158452D01*
X15978428Y-13139405D01*
X15978428Y-12967976D01*
X16235571Y-13167976D02*
X16235571Y-12967976D01*
X16302238Y-13110833D01*
X16368905Y-12967976D01*
X16368905Y-13167976D01*
X16549857Y-13167976D02*
X16549857Y-13063214D01*
X16540333Y-13044167D01*
X16521286Y-13034643D01*
X16483190Y-13034643D01*
X16464143Y-13044167D01*
X16549857Y-13158452D02*
X16530809Y-13167976D01*
X16483190Y-13167976D01*
X16464143Y-13158452D01*
X16454619Y-13139405D01*
X16454619Y-13120357D01*
X16464143Y-13101309D01*
X16483190Y-13091786D01*
X16530809Y-13091786D01*
X16549857Y-13082262D01*
X16645095Y-13034643D02*
X16645095Y-13234643D01*
X16645095Y-13044167D02*
X16664143Y-13034643D01*
X16702238Y-13034643D01*
X16721286Y-13044167D01*
X16730809Y-13053690D01*
X16740333Y-13072738D01*
X16740333Y-13129881D01*
X16730809Y-13148928D01*
X16721286Y-13158452D01*
X16702238Y-13167976D01*
X16664143Y-13167976D01*
X16645095Y-13158452D01*
X16826048Y-13148928D02*
X16835571Y-13158452D01*
X16826048Y-13167976D01*
X16816524Y-13158452D01*
X16826048Y-13148928D01*
X16826048Y-13167976D01*
X16826048Y-13044167D02*
X16835571Y-13053690D01*
X16826048Y-13063214D01*
X16816524Y-13053690D01*
X16826048Y-13044167D01*
X16826048Y-13063214D01*
M02*
