%TF.GenerationSoftware,KiCad,Pcbnew,(6.0.9)*%
%TF.CreationDate,2022-12-25T09:43:15+01:00*%
%TF.ProjectId,bed_occupacy_sensor,6265645f-6f63-4637-9570-6163795f7365,rev?*%
%TF.SameCoordinates,Original*%
%TF.FileFunction,Legend,Top*%
%TF.FilePolarity,Positive*%
%FSLAX46Y46*%
G04 Gerber Fmt 4.6, Leading zero omitted, Abs format (unit mm)*
G04 Created by KiCad (PCBNEW (6.0.9)) date 2022-12-25 09:43:15*
%MOMM*%
%LPD*%
G01*
G04 APERTURE LIST*
%ADD10C,0.300000*%
%ADD11C,0.150000*%
%ADD12C,0.120000*%
%ADD13C,0.100000*%
G04 APERTURE END LIST*
D10*
X179678406Y-95235048D02*
X180178406Y-95235048D01*
X180392692Y-96020762D02*
X179678406Y-96020762D01*
X179678406Y-94520762D01*
X180392692Y-94520762D01*
X180964120Y-95949333D02*
X181178406Y-96020762D01*
X181535549Y-96020762D01*
X181678406Y-95949333D01*
X181749835Y-95877905D01*
X181821263Y-95735048D01*
X181821263Y-95592191D01*
X181749835Y-95449333D01*
X181678406Y-95377905D01*
X181535549Y-95306476D01*
X181249835Y-95235048D01*
X181106977Y-95163619D01*
X181035549Y-95092191D01*
X180964120Y-94949333D01*
X180964120Y-94806476D01*
X181035549Y-94663619D01*
X181106977Y-94592191D01*
X181249835Y-94520762D01*
X181606977Y-94520762D01*
X181821263Y-94592191D01*
X182464120Y-96020762D02*
X182464120Y-94520762D01*
X183035549Y-94520762D01*
X183178406Y-94592191D01*
X183249835Y-94663619D01*
X183321263Y-94806476D01*
X183321263Y-95020762D01*
X183249835Y-95163619D01*
X183178406Y-95235048D01*
X183035549Y-95306476D01*
X182464120Y-95306476D01*
X183821263Y-94520762D02*
X184749835Y-94520762D01*
X184249835Y-95092191D01*
X184464120Y-95092191D01*
X184606977Y-95163619D01*
X184678406Y-95235048D01*
X184749835Y-95377905D01*
X184749835Y-95735048D01*
X184678406Y-95877905D01*
X184606977Y-95949333D01*
X184464120Y-96020762D01*
X184035549Y-96020762D01*
X183892692Y-95949333D01*
X183821263Y-95877905D01*
X185321263Y-94663619D02*
X185392692Y-94592191D01*
X185535549Y-94520762D01*
X185892692Y-94520762D01*
X186035549Y-94592191D01*
X186106977Y-94663619D01*
X186178406Y-94806476D01*
X186178406Y-94949333D01*
X186106977Y-95163619D01*
X185249835Y-96020762D01*
X186178406Y-96020762D01*
X189035549Y-94449333D02*
X187749835Y-96377905D01*
X190678406Y-96020762D02*
X190678406Y-94520762D01*
X191035549Y-94520762D01*
X191249835Y-94592191D01*
X191392692Y-94735048D01*
X191464120Y-94877905D01*
X191535549Y-95163619D01*
X191535549Y-95377905D01*
X191464120Y-95663619D01*
X191392692Y-95806476D01*
X191249835Y-95949333D01*
X191035549Y-96020762D01*
X190678406Y-96020762D01*
X192964120Y-96020762D02*
X192106977Y-96020762D01*
X192535549Y-96020762D02*
X192535549Y-94520762D01*
X192392692Y-94735048D01*
X192249835Y-94877905D01*
X192106977Y-94949333D01*
X194749835Y-96020762D02*
X194749835Y-95020762D01*
X194749835Y-95163619D02*
X194821263Y-95092191D01*
X194964120Y-95020762D01*
X195178406Y-95020762D01*
X195321263Y-95092191D01*
X195392692Y-95235048D01*
X195392692Y-96020762D01*
X195392692Y-95235048D02*
X195464120Y-95092191D01*
X195606977Y-95020762D01*
X195821263Y-95020762D01*
X195964120Y-95092191D01*
X196035549Y-95235048D01*
X196035549Y-96020762D01*
X196749835Y-96020762D02*
X196749835Y-95020762D01*
X196749835Y-94520762D02*
X196678406Y-94592191D01*
X196749835Y-94663619D01*
X196821263Y-94592191D01*
X196749835Y-94520762D01*
X196749835Y-94663619D01*
X197464120Y-95020762D02*
X197464120Y-96020762D01*
X197464120Y-95163619D02*
X197535549Y-95092191D01*
X197678406Y-95020762D01*
X197892692Y-95020762D01*
X198035549Y-95092191D01*
X198106977Y-95235048D01*
X198106977Y-96020762D01*
X198821263Y-96020762D02*
X198821263Y-95020762D01*
X198821263Y-94520762D02*
X198749835Y-94592191D01*
X198821263Y-94663619D01*
X198892692Y-94592191D01*
X198821263Y-94520762D01*
X198821263Y-94663619D01*
X183892857Y-120178571D02*
X183892857Y-121392857D01*
X183964285Y-121535714D01*
X184035714Y-121607142D01*
X184178571Y-121678571D01*
X184464285Y-121678571D01*
X184607142Y-121607142D01*
X184678571Y-121535714D01*
X184750000Y-121392857D01*
X184750000Y-120178571D01*
X185392857Y-121607142D02*
X185607142Y-121678571D01*
X185964285Y-121678571D01*
X186107142Y-121607142D01*
X186178571Y-121535714D01*
X186250000Y-121392857D01*
X186250000Y-121250000D01*
X186178571Y-121107142D01*
X186107142Y-121035714D01*
X185964285Y-120964285D01*
X185678571Y-120892857D01*
X185535714Y-120821428D01*
X185464285Y-120750000D01*
X185392857Y-120607142D01*
X185392857Y-120464285D01*
X185464285Y-120321428D01*
X185535714Y-120250000D01*
X185678571Y-120178571D01*
X186035714Y-120178571D01*
X186250000Y-120250000D01*
X187392857Y-120892857D02*
X187607142Y-120964285D01*
X187678571Y-121035714D01*
X187750000Y-121178571D01*
X187750000Y-121392857D01*
X187678571Y-121535714D01*
X187607142Y-121607142D01*
X187464285Y-121678571D01*
X186892857Y-121678571D01*
X186892857Y-120178571D01*
X187392857Y-120178571D01*
X187535714Y-120250000D01*
X187607142Y-120321428D01*
X187678571Y-120464285D01*
X187678571Y-120607142D01*
X187607142Y-120750000D01*
X187535714Y-120821428D01*
X187392857Y-120892857D01*
X186892857Y-120892857D01*
X188392857Y-121107142D02*
X189535714Y-121107142D01*
X190178571Y-121607142D02*
X190321428Y-121678571D01*
X190607142Y-121678571D01*
X190750000Y-121607142D01*
X190821428Y-121464285D01*
X190821428Y-121392857D01*
X190750000Y-121250000D01*
X190607142Y-121178571D01*
X190392857Y-121178571D01*
X190250000Y-121107142D01*
X190178571Y-120964285D01*
X190178571Y-120892857D01*
X190250000Y-120750000D01*
X190392857Y-120678571D01*
X190607142Y-120678571D01*
X190750000Y-120750000D01*
X191464285Y-121678571D02*
X191464285Y-120678571D01*
X191464285Y-120178571D02*
X191392857Y-120250000D01*
X191464285Y-120321428D01*
X191535714Y-120250000D01*
X191464285Y-120178571D01*
X191464285Y-120321428D01*
X192821428Y-121678571D02*
X192821428Y-120178571D01*
X192821428Y-121607142D02*
X192678571Y-121678571D01*
X192392857Y-121678571D01*
X192250000Y-121607142D01*
X192178571Y-121535714D01*
X192107142Y-121392857D01*
X192107142Y-120964285D01*
X192178571Y-120821428D01*
X192250000Y-120750000D01*
X192392857Y-120678571D01*
X192678571Y-120678571D01*
X192821428Y-120750000D01*
X194107142Y-121607142D02*
X193964285Y-121678571D01*
X193678571Y-121678571D01*
X193535714Y-121607142D01*
X193464285Y-121464285D01*
X193464285Y-120892857D01*
X193535714Y-120750000D01*
X193678571Y-120678571D01*
X193964285Y-120678571D01*
X194107142Y-120750000D01*
X194178571Y-120892857D01*
X194178571Y-121035714D01*
X193464285Y-121178571D01*
D11*
X175764637Y-124493941D02*
X175978922Y-124565369D01*
X176050351Y-124636798D01*
X176121779Y-124779655D01*
X176121779Y-124993941D01*
X176050351Y-125136798D01*
X175978922Y-125208226D01*
X175836065Y-125279655D01*
X175264637Y-125279655D01*
X175264637Y-123779655D01*
X175764637Y-123779655D01*
X175907494Y-123851084D01*
X175978922Y-123922512D01*
X176050351Y-124065369D01*
X176050351Y-124208226D01*
X175978922Y-124351084D01*
X175907494Y-124422512D01*
X175764637Y-124493941D01*
X175264637Y-124493941D01*
X177336065Y-125208226D02*
X177193208Y-125279655D01*
X176907494Y-125279655D01*
X176764637Y-125208226D01*
X176693208Y-125065369D01*
X176693208Y-124493941D01*
X176764637Y-124351084D01*
X176907494Y-124279655D01*
X177193208Y-124279655D01*
X177336065Y-124351084D01*
X177407494Y-124493941D01*
X177407494Y-124636798D01*
X176693208Y-124779655D01*
X178693208Y-125279655D02*
X178693208Y-123779655D01*
X178693208Y-125208226D02*
X178550351Y-125279655D01*
X178264637Y-125279655D01*
X178121779Y-125208226D01*
X178050351Y-125136798D01*
X177978922Y-124993941D01*
X177978922Y-124565369D01*
X178050351Y-124422512D01*
X178121779Y-124351084D01*
X178264637Y-124279655D01*
X178550351Y-124279655D01*
X178693208Y-124351084D01*
X180836065Y-123779655D02*
X181121779Y-123779655D01*
X181264637Y-123851084D01*
X181407494Y-123993941D01*
X181478922Y-124279655D01*
X181478922Y-124779655D01*
X181407494Y-125065369D01*
X181264637Y-125208226D01*
X181121779Y-125279655D01*
X180836065Y-125279655D01*
X180693208Y-125208226D01*
X180550351Y-125065369D01*
X180478922Y-124779655D01*
X180478922Y-124279655D01*
X180550351Y-123993941D01*
X180693208Y-123851084D01*
X180836065Y-123779655D01*
X182764637Y-125208226D02*
X182621779Y-125279655D01*
X182336065Y-125279655D01*
X182193208Y-125208226D01*
X182121779Y-125136798D01*
X182050351Y-124993941D01*
X182050351Y-124565369D01*
X182121779Y-124422512D01*
X182193208Y-124351084D01*
X182336065Y-124279655D01*
X182621779Y-124279655D01*
X182764637Y-124351084D01*
X184050351Y-125208226D02*
X183907494Y-125279655D01*
X183621779Y-125279655D01*
X183478922Y-125208226D01*
X183407494Y-125136798D01*
X183336065Y-124993941D01*
X183336065Y-124565369D01*
X183407494Y-124422512D01*
X183478922Y-124351084D01*
X183621779Y-124279655D01*
X183907494Y-124279655D01*
X184050351Y-124351084D01*
X185336065Y-124279655D02*
X185336065Y-125279655D01*
X184693208Y-124279655D02*
X184693208Y-125065369D01*
X184764637Y-125208226D01*
X184907494Y-125279655D01*
X185121779Y-125279655D01*
X185264637Y-125208226D01*
X185336065Y-125136798D01*
X186050351Y-124279655D02*
X186050351Y-125779655D01*
X186050351Y-124351084D02*
X186193208Y-124279655D01*
X186478922Y-124279655D01*
X186621779Y-124351084D01*
X186693208Y-124422512D01*
X186764637Y-124565369D01*
X186764637Y-124993941D01*
X186693208Y-125136798D01*
X186621779Y-125208226D01*
X186478922Y-125279655D01*
X186193208Y-125279655D01*
X186050351Y-125208226D01*
X188050351Y-125279655D02*
X188050351Y-124493941D01*
X187978922Y-124351084D01*
X187836065Y-124279655D01*
X187550351Y-124279655D01*
X187407494Y-124351084D01*
X188050351Y-125208226D02*
X187907494Y-125279655D01*
X187550351Y-125279655D01*
X187407494Y-125208226D01*
X187336065Y-125065369D01*
X187336065Y-124922512D01*
X187407494Y-124779655D01*
X187550351Y-124708226D01*
X187907494Y-124708226D01*
X188050351Y-124636798D01*
X188764637Y-124279655D02*
X188764637Y-125279655D01*
X188764637Y-124422512D02*
X188836065Y-124351084D01*
X188978922Y-124279655D01*
X189193208Y-124279655D01*
X189336065Y-124351084D01*
X189407494Y-124493941D01*
X189407494Y-125279655D01*
X190764637Y-125208226D02*
X190621779Y-125279655D01*
X190336065Y-125279655D01*
X190193208Y-125208226D01*
X190121779Y-125136798D01*
X190050351Y-124993941D01*
X190050351Y-124565369D01*
X190121779Y-124422512D01*
X190193208Y-124351084D01*
X190336065Y-124279655D01*
X190621779Y-124279655D01*
X190764637Y-124351084D01*
X191264637Y-124279655D02*
X191621779Y-125279655D01*
X191978922Y-124279655D02*
X191621779Y-125279655D01*
X191478922Y-125636798D01*
X191407494Y-125708226D01*
X191264637Y-125779655D01*
X193621779Y-125208226D02*
X193836065Y-125279655D01*
X194193208Y-125279655D01*
X194336065Y-125208226D01*
X194407494Y-125136798D01*
X194478922Y-124993941D01*
X194478922Y-124851084D01*
X194407494Y-124708226D01*
X194336065Y-124636798D01*
X194193208Y-124565369D01*
X193907494Y-124493941D01*
X193764637Y-124422512D01*
X193693208Y-124351084D01*
X193621779Y-124208226D01*
X193621779Y-124065369D01*
X193693208Y-123922512D01*
X193764637Y-123851084D01*
X193907494Y-123779655D01*
X194264637Y-123779655D01*
X194478922Y-123851084D01*
X195693208Y-125208226D02*
X195550351Y-125279655D01*
X195264637Y-125279655D01*
X195121779Y-125208226D01*
X195050351Y-125065369D01*
X195050351Y-124493941D01*
X195121779Y-124351084D01*
X195264637Y-124279655D01*
X195550351Y-124279655D01*
X195693208Y-124351084D01*
X195764637Y-124493941D01*
X195764637Y-124636798D01*
X195050351Y-124779655D01*
X196407494Y-124279655D02*
X196407494Y-125279655D01*
X196407494Y-124422512D02*
X196478922Y-124351084D01*
X196621779Y-124279655D01*
X196836065Y-124279655D01*
X196978922Y-124351084D01*
X197050351Y-124493941D01*
X197050351Y-125279655D01*
X197693208Y-125208226D02*
X197836065Y-125279655D01*
X198121779Y-125279655D01*
X198264637Y-125208226D01*
X198336065Y-125065369D01*
X198336065Y-124993941D01*
X198264637Y-124851084D01*
X198121779Y-124779655D01*
X197907494Y-124779655D01*
X197764637Y-124708226D01*
X197693208Y-124565369D01*
X197693208Y-124493941D01*
X197764637Y-124351084D01*
X197907494Y-124279655D01*
X198121779Y-124279655D01*
X198264637Y-124351084D01*
X199193208Y-125279655D02*
X199050351Y-125208226D01*
X198978922Y-125136798D01*
X198907494Y-124993941D01*
X198907494Y-124565369D01*
X198978922Y-124422512D01*
X199050351Y-124351084D01*
X199193208Y-124279655D01*
X199407494Y-124279655D01*
X199550351Y-124351084D01*
X199621779Y-124422512D01*
X199693208Y-124565369D01*
X199693208Y-124993941D01*
X199621779Y-125136798D01*
X199550351Y-125208226D01*
X199407494Y-125279655D01*
X199193208Y-125279655D01*
X200336065Y-125279655D02*
X200336065Y-124279655D01*
X200336065Y-124565369D02*
X200407494Y-124422512D01*
X200478922Y-124351084D01*
X200621779Y-124279655D01*
X200764637Y-124279655D01*
X202264637Y-124279655D02*
X202621779Y-125279655D01*
X202978922Y-124279655D01*
X204336065Y-125279655D02*
X203478922Y-125279655D01*
X203907494Y-125279655D02*
X203907494Y-123779655D01*
X203764637Y-123993941D01*
X203621779Y-124136798D01*
X203478922Y-124208226D01*
%TO.C,R1*%
X183082380Y-106166666D02*
X182606190Y-106500000D01*
X183082380Y-106738095D02*
X182082380Y-106738095D01*
X182082380Y-106357142D01*
X182130000Y-106261904D01*
X182177619Y-106214285D01*
X182272857Y-106166666D01*
X182415714Y-106166666D01*
X182510952Y-106214285D01*
X182558571Y-106261904D01*
X182606190Y-106357142D01*
X182606190Y-106738095D01*
X183082380Y-105214285D02*
X183082380Y-105785714D01*
X183082380Y-105500000D02*
X182082380Y-105500000D01*
X182225238Y-105595238D01*
X182320476Y-105690476D01*
X182368095Y-105785714D01*
%TO.C,R2*%
X190702380Y-106166666D02*
X190226190Y-106500000D01*
X190702380Y-106738095D02*
X189702380Y-106738095D01*
X189702380Y-106357142D01*
X189750000Y-106261904D01*
X189797619Y-106214285D01*
X189892857Y-106166666D01*
X190035714Y-106166666D01*
X190130952Y-106214285D01*
X190178571Y-106261904D01*
X190226190Y-106357142D01*
X190226190Y-106738095D01*
X189797619Y-105785714D02*
X189750000Y-105738095D01*
X189702380Y-105642857D01*
X189702380Y-105404761D01*
X189750000Y-105309523D01*
X189797619Y-105261904D01*
X189892857Y-105214285D01*
X189988095Y-105214285D01*
X190130952Y-105261904D01*
X190702380Y-105833333D01*
X190702380Y-105214285D01*
%TO.C,J1*%
X162989523Y-94535858D02*
X162656190Y-94535858D01*
X162656190Y-95059667D02*
X162656190Y-94059667D01*
X163132380Y-94059667D01*
X163465714Y-95012048D02*
X163608571Y-95059667D01*
X163846666Y-95059667D01*
X163941904Y-95012048D01*
X163989523Y-94964429D01*
X164037142Y-94869191D01*
X164037142Y-94773953D01*
X163989523Y-94678715D01*
X163941904Y-94631096D01*
X163846666Y-94583477D01*
X163656190Y-94535858D01*
X163560952Y-94488239D01*
X163513333Y-94440620D01*
X163465714Y-94345382D01*
X163465714Y-94250144D01*
X163513333Y-94154906D01*
X163560952Y-94107287D01*
X163656190Y-94059667D01*
X163894285Y-94059667D01*
X164037142Y-94107287D01*
X165037142Y-95059667D02*
X164703809Y-94583477D01*
X164465714Y-95059667D02*
X164465714Y-94059667D01*
X164846666Y-94059667D01*
X164941904Y-94107287D01*
X164989523Y-94154906D01*
X165037142Y-94250144D01*
X165037142Y-94393001D01*
X164989523Y-94488239D01*
X164941904Y-94535858D01*
X164846666Y-94583477D01*
X164465714Y-94583477D01*
X165227619Y-95154906D02*
X165989523Y-95154906D01*
X166180000Y-94154906D02*
X166227619Y-94107287D01*
X166322857Y-94059667D01*
X166560952Y-94059667D01*
X166656190Y-94107287D01*
X166703809Y-94154906D01*
X166751428Y-94250144D01*
X166751428Y-94345382D01*
X166703809Y-94488239D01*
X166132380Y-95059667D01*
X166751428Y-95059667D01*
%TO.C,J2*%
X162885420Y-120511060D02*
X162552087Y-120511060D01*
X162552087Y-121034869D02*
X162552087Y-120034869D01*
X163028277Y-120034869D01*
X163361611Y-120987250D02*
X163504468Y-121034869D01*
X163742563Y-121034869D01*
X163837801Y-120987250D01*
X163885420Y-120939631D01*
X163933039Y-120844393D01*
X163933039Y-120749155D01*
X163885420Y-120653917D01*
X163837801Y-120606298D01*
X163742563Y-120558679D01*
X163552087Y-120511060D01*
X163456849Y-120463441D01*
X163409230Y-120415822D01*
X163361611Y-120320584D01*
X163361611Y-120225346D01*
X163409230Y-120130108D01*
X163456849Y-120082489D01*
X163552087Y-120034869D01*
X163790182Y-120034869D01*
X163933039Y-120082489D01*
X164933039Y-121034869D02*
X164599706Y-120558679D01*
X164361611Y-121034869D02*
X164361611Y-120034869D01*
X164742563Y-120034869D01*
X164837801Y-120082489D01*
X164885420Y-120130108D01*
X164933039Y-120225346D01*
X164933039Y-120368203D01*
X164885420Y-120463441D01*
X164837801Y-120511060D01*
X164742563Y-120558679D01*
X164361611Y-120558679D01*
X165123516Y-121130108D02*
X165885420Y-121130108D01*
X166647325Y-121034869D02*
X166075897Y-121034869D01*
X166361611Y-121034869D02*
X166361611Y-120034869D01*
X166266373Y-120177727D01*
X166171135Y-120272965D01*
X166075897Y-120320584D01*
D12*
%TO.C,U1*%
X176600000Y-118180000D02*
X176600000Y-123260000D01*
X174060000Y-92780000D02*
X174060000Y-118180000D01*
X176600000Y-123260000D02*
X204540000Y-123260000D01*
X174060000Y-118180000D02*
X176600000Y-118180000D01*
X204540000Y-92780000D02*
X204540000Y-123260000D01*
G36*
X176600000Y-121990000D02*
G01*
X175330000Y-121990000D01*
X175330000Y-119450000D01*
X176600000Y-119450000D01*
X176600000Y-121990000D01*
G37*
D13*
X176600000Y-121990000D02*
X175330000Y-121990000D01*
X175330000Y-119450000D01*
X176600000Y-119450000D01*
X176600000Y-121990000D01*
%TO.C,G\u002A\u002A\u002A*%
G36*
X170033320Y-122524450D02*
G01*
X170394546Y-122337524D01*
X170769234Y-122355479D01*
X171087459Y-122547251D01*
X171279299Y-122881774D01*
X171305980Y-123089852D01*
X171200757Y-123452864D01*
X170935400Y-123703172D01*
X170585372Y-123811613D01*
X170226137Y-123749029D01*
X170011579Y-123590033D01*
X169831723Y-123233859D01*
X169835062Y-123104368D01*
X170345941Y-123104368D01*
X170437202Y-123278777D01*
X170555241Y-123318358D01*
X170715716Y-123227214D01*
X170749663Y-123182333D01*
X170764280Y-122991511D01*
X170631897Y-122863486D01*
X170450318Y-122878945D01*
X170415995Y-122907062D01*
X170345941Y-123104368D01*
X169835062Y-123104368D01*
X169841813Y-122842582D01*
X170033320Y-122524450D01*
G37*
G36*
X169417906Y-121583807D02*
G01*
X169490818Y-121665521D01*
X169531804Y-121857071D01*
X169549924Y-122203751D01*
X169554235Y-122750854D01*
X169554255Y-122817866D01*
X169554255Y-124069097D01*
X171556226Y-124069097D01*
X172056718Y-124069097D01*
X174058689Y-124069097D01*
X174058689Y-123468506D01*
X174029087Y-123081910D01*
X173954131Y-122791829D01*
X173908541Y-122717767D01*
X173702275Y-122635876D01*
X173314526Y-122582674D01*
X172907556Y-122567619D01*
X172056718Y-122567619D01*
X172056718Y-124069097D01*
X171556226Y-124069097D01*
X171556226Y-122067127D01*
X172750583Y-122067127D01*
X173315528Y-122072221D01*
X173690484Y-122095712D01*
X173935636Y-122149908D01*
X174111167Y-122247121D01*
X174252061Y-122374247D01*
X174389815Y-122529013D01*
X174478850Y-122699285D01*
X174529709Y-122940904D01*
X174552936Y-123309716D01*
X174559076Y-123861563D01*
X174559182Y-124000848D01*
X174556069Y-124588440D01*
X174541148Y-124969961D01*
X174506046Y-125189561D01*
X174442390Y-125291392D01*
X174341805Y-125319604D01*
X174308935Y-125320329D01*
X174125763Y-125261340D01*
X174061271Y-125041856D01*
X174058689Y-124944959D01*
X174058689Y-124569590D01*
X169554255Y-124569590D01*
X169554255Y-124944959D01*
X169514930Y-125219718D01*
X169368607Y-125316456D01*
X169304009Y-125320329D01*
X169207832Y-125308029D01*
X169140064Y-125246349D01*
X169095748Y-125098113D01*
X169069928Y-124826148D01*
X169057647Y-124393278D01*
X169053949Y-123762330D01*
X169053763Y-123443481D01*
X169055403Y-122722154D01*
X169063627Y-122213893D01*
X169083392Y-121881525D01*
X169119654Y-121687875D01*
X169177370Y-121595769D01*
X169261496Y-121568032D01*
X169304009Y-121566634D01*
X169417906Y-121583807D01*
G37*
D12*
%TO.C,R1*%
X185000000Y-112580000D02*
X185000000Y-109270000D01*
X186370000Y-102730000D02*
X183630000Y-102730000D01*
X183630000Y-102730000D02*
X183630000Y-109270000D01*
X185000000Y-99420000D02*
X185000000Y-102730000D01*
X186370000Y-109270000D02*
X186370000Y-102730000D01*
X183630000Y-109270000D02*
X186370000Y-109270000D01*
%TO.C,R2*%
X193990000Y-102730000D02*
X191250000Y-102730000D01*
X191250000Y-102730000D02*
X191250000Y-109270000D01*
X191250000Y-109270000D02*
X193990000Y-109270000D01*
X193990000Y-109270000D02*
X193990000Y-102730000D01*
X192620000Y-99420000D02*
X192620000Y-102730000D01*
X192620000Y-112580000D02*
X192620000Y-109270000D01*
%TO.C,J1*%
X159330000Y-106080000D02*
X159080000Y-106580000D01*
X158380000Y-106080000D02*
X159330000Y-106080000D01*
X160980000Y-106580000D02*
X161030000Y-106580000D01*
X170980000Y-95730000D02*
X158380000Y-95730000D01*
X161030000Y-106580000D02*
X160780000Y-106080000D01*
X170980000Y-106580000D02*
X170980000Y-95730000D01*
X158380000Y-95730000D02*
X158380000Y-106080000D01*
X166180000Y-106080000D02*
X165880000Y-106580000D01*
X165880000Y-106580000D02*
X170980000Y-106580000D01*
X160780000Y-106080000D02*
X166180000Y-106080000D01*
X159080000Y-106580000D02*
X160980000Y-106580000D01*
%TO.C,J2*%
X166180000Y-118780000D02*
X165880000Y-119280000D01*
X160780000Y-118780000D02*
X166180000Y-118780000D01*
X170980000Y-108430000D02*
X158380000Y-108430000D01*
X159080000Y-119280000D02*
X160980000Y-119280000D01*
X165880000Y-119280000D02*
X170980000Y-119280000D01*
X161030000Y-119280000D02*
X160780000Y-118780000D01*
X158380000Y-118780000D02*
X159330000Y-118780000D01*
X160980000Y-119280000D02*
X161030000Y-119280000D01*
X158380000Y-108430000D02*
X158380000Y-118780000D01*
X170980000Y-119280000D02*
X170980000Y-108430000D01*
X159330000Y-118780000D02*
X159080000Y-119280000D01*
%TD*%
M02*
