M48
; DRILL file {KiCad (6.0.9)} date Thu Dec 29 11:35:16 2022
; FORMAT={-:-/ absolute / inch / decimal}
; #@! TF.CreationDate,2022-12-29T11:35:16+01:00
; #@! TF.GenerationSoftware,Kicad,Pcbnew,(6.0.9)
; #@! TF.FileFunction,Plated,1,2,PTH
FMAT,2
INCH
; #@! TA.AperFunction,Plated,PTH,ComponentDrill
T1C0.0315
; #@! TA.AperFunction,Plated,PTH,ComponentDrill
T2C0.0520
%
G90
G05
T1
X6.941Y-3.6439
X6.941Y-3.7439
X6.941Y-4.6439
X6.941Y-4.7439
X7.041Y-3.6439
X7.041Y-3.7439
X7.041Y-4.6439
X7.041Y-4.7439
X7.1016Y-4.0357
X7.1016Y-4.3307
X7.141Y-3.6439
X7.141Y-3.7439
X7.141Y-4.6439
X7.141Y-4.7439
X7.241Y-3.6439
X7.241Y-3.7439
X7.241Y-4.6439
X7.241Y-4.7439
X7.341Y-3.6439
X7.341Y-3.7439
X7.341Y-4.6439
X7.341Y-4.7439
X7.441Y-3.6439
X7.441Y-3.7439
X7.441Y-4.6439
X7.441Y-4.7439
X7.541Y-3.6439
X7.541Y-3.7439
X7.541Y-4.6439
X7.541Y-4.7439
X7.641Y-3.6439
X7.641Y-3.7439
X7.641Y-4.6439
X7.641Y-4.7439
X7.7016Y-4.0357
X7.7016Y-4.3307
X7.741Y-3.6439
X7.741Y-3.7439
X7.741Y-4.6439
X7.741Y-4.7439
X7.841Y-3.6439
X7.841Y-3.7439
X7.841Y-4.6439
X7.841Y-4.7439
T2
X6.5748Y-3.8478
X6.5748Y-4.0447
X6.5748Y-4.3006
X6.5748Y-4.4974
T0
M30
