%TF.GenerationSoftware,KiCad,Pcbnew,(6.0.9)*%
%TF.CreationDate,2022-12-29T11:35:20+01:00*%
%TF.ProjectId,bed_occupacy_sensor,6265645f-6f63-4637-9570-6163795f7365,rev?*%
%TF.SameCoordinates,Original*%
%TF.FileFunction,Legend,Top*%
%TF.FilePolarity,Positive*%
%FSLAX46Y46*%
G04 Gerber Fmt 4.6, Leading zero omitted, Abs format (unit mm)*
G04 Created by KiCad (PCBNEW (6.0.9)) date 2022-12-29 11:35:20*
%MOMM*%
%LPD*%
G01*
G04 APERTURE LIST*
%ADD10C,0.250000*%
%ADD11C,0.300000*%
%ADD12C,0.150000*%
%ADD13C,0.120000*%
G04 APERTURE END LIST*
D10*
X170329364Y-108680322D02*
X170234126Y-108632702D01*
X170091269Y-108632702D01*
X169948411Y-108680322D01*
X169853173Y-108775560D01*
X169805554Y-108870798D01*
X169757935Y-109061274D01*
X169757935Y-109204131D01*
X169805554Y-109394607D01*
X169853173Y-109489845D01*
X169948411Y-109585083D01*
X170091269Y-109632702D01*
X170186507Y-109632702D01*
X170329364Y-109585083D01*
X170376983Y-109537464D01*
X170376983Y-109204131D01*
X170186507Y-109204131D01*
X170805554Y-109632702D02*
X170805554Y-108632702D01*
X171376983Y-109632702D01*
X171376983Y-108632702D01*
X171853173Y-109632702D02*
X171853173Y-108632702D01*
X172091269Y-108632702D01*
X172234126Y-108680322D01*
X172329364Y-108775560D01*
X172376983Y-108870798D01*
X172424602Y-109061274D01*
X172424602Y-109204131D01*
X172376983Y-109394607D01*
X172329364Y-109489845D01*
X172234126Y-109585083D01*
X172091269Y-109632702D01*
X171853173Y-109632702D01*
X170238095Y-97500000D02*
X170142857Y-97452380D01*
X170000000Y-97452380D01*
X169857142Y-97500000D01*
X169761904Y-97595238D01*
X169714285Y-97690476D01*
X169666666Y-97880952D01*
X169666666Y-98023809D01*
X169714285Y-98214285D01*
X169761904Y-98309523D01*
X169857142Y-98404761D01*
X170000000Y-98452380D01*
X170095238Y-98452380D01*
X170238095Y-98404761D01*
X170285714Y-98357142D01*
X170285714Y-98023809D01*
X170095238Y-98023809D01*
X170714285Y-98452380D02*
X170714285Y-97452380D01*
X171285714Y-98452380D01*
X171285714Y-97452380D01*
X171761904Y-98452380D02*
X171761904Y-97452380D01*
X172000000Y-97452380D01*
X172142857Y-97500000D01*
X172238095Y-97595238D01*
X172285714Y-97690476D01*
X172333333Y-97880952D01*
X172333333Y-98023809D01*
X172285714Y-98214285D01*
X172238095Y-98309523D01*
X172142857Y-98404761D01*
X172000000Y-98452380D01*
X171761904Y-98452380D01*
D11*
X176821428Y-101892857D02*
X175607142Y-101892857D01*
X175464285Y-101964285D01*
X175392857Y-102035714D01*
X175321428Y-102178571D01*
X175321428Y-102464285D01*
X175392857Y-102607142D01*
X175464285Y-102678571D01*
X175607142Y-102750000D01*
X176821428Y-102750000D01*
X175392857Y-103392857D02*
X175321428Y-103607142D01*
X175321428Y-103964285D01*
X175392857Y-104107142D01*
X175464285Y-104178571D01*
X175607142Y-104250000D01*
X175750000Y-104250000D01*
X175892857Y-104178571D01*
X175964285Y-104107142D01*
X176035714Y-103964285D01*
X176107142Y-103678571D01*
X176178571Y-103535714D01*
X176250000Y-103464285D01*
X176392857Y-103392857D01*
X176535714Y-103392857D01*
X176678571Y-103464285D01*
X176750000Y-103535714D01*
X176821428Y-103678571D01*
X176821428Y-104035714D01*
X176750000Y-104250000D01*
X176107142Y-105392857D02*
X176035714Y-105607142D01*
X175964285Y-105678571D01*
X175821428Y-105750000D01*
X175607142Y-105750000D01*
X175464285Y-105678571D01*
X175392857Y-105607142D01*
X175321428Y-105464285D01*
X175321428Y-104892857D01*
X176821428Y-104892857D01*
X176821428Y-105392857D01*
X176750000Y-105535714D01*
X176678571Y-105607142D01*
X176535714Y-105678571D01*
X176392857Y-105678571D01*
X176250000Y-105607142D01*
X176178571Y-105535714D01*
X176107142Y-105392857D01*
X176107142Y-104892857D01*
X175892857Y-106392857D02*
X175892857Y-107535714D01*
X175392857Y-108178571D02*
X175321428Y-108321428D01*
X175321428Y-108607142D01*
X175392857Y-108750000D01*
X175535714Y-108821428D01*
X175607142Y-108821428D01*
X175750000Y-108750000D01*
X175821428Y-108607142D01*
X175821428Y-108392857D01*
X175892857Y-108250000D01*
X176035714Y-108178571D01*
X176107142Y-108178571D01*
X176250000Y-108250000D01*
X176321428Y-108392857D01*
X176321428Y-108607142D01*
X176250000Y-108750000D01*
X175321428Y-109464285D02*
X176321428Y-109464285D01*
X176821428Y-109464285D02*
X176750000Y-109392857D01*
X176678571Y-109464285D01*
X176750000Y-109535714D01*
X176821428Y-109464285D01*
X176678571Y-109464285D01*
X175321428Y-110821428D02*
X176821428Y-110821428D01*
X175392857Y-110821428D02*
X175321428Y-110678571D01*
X175321428Y-110392857D01*
X175392857Y-110250000D01*
X175464285Y-110178571D01*
X175607142Y-110107142D01*
X176035714Y-110107142D01*
X176178571Y-110178571D01*
X176250000Y-110250000D01*
X176321428Y-110392857D01*
X176321428Y-110678571D01*
X176250000Y-110821428D01*
X175392857Y-112107142D02*
X175321428Y-111964285D01*
X175321428Y-111678571D01*
X175392857Y-111535714D01*
X175535714Y-111464285D01*
X176107142Y-111464285D01*
X176250000Y-111535714D01*
X176321428Y-111678571D01*
X176321428Y-111964285D01*
X176250000Y-112107142D01*
X176107142Y-112178571D01*
X175964285Y-112178571D01*
X175821428Y-111464285D01*
D12*
X158926930Y-92899550D02*
X159041216Y-92937645D01*
X159079311Y-92975740D01*
X159117406Y-93051931D01*
X159117406Y-93166216D01*
X159079311Y-93242407D01*
X159041216Y-93280502D01*
X158965025Y-93318597D01*
X158660263Y-93318597D01*
X158660263Y-92518597D01*
X158926930Y-92518597D01*
X159003120Y-92556693D01*
X159041216Y-92594788D01*
X159079311Y-92670978D01*
X159079311Y-92747169D01*
X159041216Y-92823359D01*
X159003120Y-92861454D01*
X158926930Y-92899550D01*
X158660263Y-92899550D01*
X159765025Y-93280502D02*
X159688835Y-93318597D01*
X159536454Y-93318597D01*
X159460263Y-93280502D01*
X159422168Y-93204312D01*
X159422168Y-92899550D01*
X159460263Y-92823359D01*
X159536454Y-92785264D01*
X159688835Y-92785264D01*
X159765025Y-92823359D01*
X159803120Y-92899550D01*
X159803120Y-92975740D01*
X159422168Y-93051931D01*
X160488835Y-93318597D02*
X160488835Y-92518597D01*
X160488835Y-93280502D02*
X160412644Y-93318597D01*
X160260263Y-93318597D01*
X160184073Y-93280502D01*
X160145977Y-93242407D01*
X160107882Y-93166216D01*
X160107882Y-92937645D01*
X160145977Y-92861454D01*
X160184073Y-92823359D01*
X160260263Y-92785264D01*
X160412644Y-92785264D01*
X160488835Y-92823359D01*
X161631692Y-92518597D02*
X161784073Y-92518597D01*
X161860263Y-92556693D01*
X161936454Y-92632883D01*
X161974549Y-92785264D01*
X161974549Y-93051931D01*
X161936454Y-93204312D01*
X161860263Y-93280502D01*
X161784073Y-93318597D01*
X161631692Y-93318597D01*
X161555501Y-93280502D01*
X161479311Y-93204312D01*
X161441216Y-93051931D01*
X161441216Y-92785264D01*
X161479311Y-92632883D01*
X161555501Y-92556693D01*
X161631692Y-92518597D01*
X162660263Y-93280502D02*
X162584073Y-93318597D01*
X162431692Y-93318597D01*
X162355501Y-93280502D01*
X162317406Y-93242407D01*
X162279311Y-93166216D01*
X162279311Y-92937645D01*
X162317406Y-92861454D01*
X162355501Y-92823359D01*
X162431692Y-92785264D01*
X162584073Y-92785264D01*
X162660263Y-92823359D01*
X163345977Y-93280502D02*
X163269787Y-93318597D01*
X163117406Y-93318597D01*
X163041216Y-93280502D01*
X163003120Y-93242407D01*
X162965025Y-93166216D01*
X162965025Y-92937645D01*
X163003120Y-92861454D01*
X163041216Y-92823359D01*
X163117406Y-92785264D01*
X163269787Y-92785264D01*
X163345977Y-92823359D01*
X164031692Y-92785264D02*
X164031692Y-93318597D01*
X163688835Y-92785264D02*
X163688835Y-93204312D01*
X163726930Y-93280502D01*
X163803120Y-93318597D01*
X163917406Y-93318597D01*
X163993597Y-93280502D01*
X164031692Y-93242407D01*
X164412644Y-92785264D02*
X164412644Y-93585264D01*
X164412644Y-92823359D02*
X164488835Y-92785264D01*
X164641216Y-92785264D01*
X164717406Y-92823359D01*
X164755501Y-92861454D01*
X164793597Y-92937645D01*
X164793597Y-93166216D01*
X164755501Y-93242407D01*
X164717406Y-93280502D01*
X164641216Y-93318597D01*
X164488835Y-93318597D01*
X164412644Y-93280502D01*
X165479311Y-93318597D02*
X165479311Y-92899550D01*
X165441216Y-92823359D01*
X165365025Y-92785264D01*
X165212644Y-92785264D01*
X165136454Y-92823359D01*
X165479311Y-93280502D02*
X165403120Y-93318597D01*
X165212644Y-93318597D01*
X165136454Y-93280502D01*
X165098358Y-93204312D01*
X165098358Y-93128121D01*
X165136454Y-93051931D01*
X165212644Y-93013835D01*
X165403120Y-93013835D01*
X165479311Y-92975740D01*
X165860263Y-92785264D02*
X165860263Y-93318597D01*
X165860263Y-92861454D02*
X165898358Y-92823359D01*
X165974549Y-92785264D01*
X166088835Y-92785264D01*
X166165025Y-92823359D01*
X166203120Y-92899550D01*
X166203120Y-93318597D01*
X166926930Y-93280502D02*
X166850739Y-93318597D01*
X166698358Y-93318597D01*
X166622168Y-93280502D01*
X166584073Y-93242407D01*
X166545977Y-93166216D01*
X166545977Y-92937645D01*
X166584073Y-92861454D01*
X166622168Y-92823359D01*
X166698358Y-92785264D01*
X166850739Y-92785264D01*
X166926930Y-92823359D01*
X167193597Y-92785264D02*
X167384073Y-93318597D01*
X167574549Y-92785264D02*
X167384073Y-93318597D01*
X167307882Y-93509073D01*
X167269787Y-93547169D01*
X167193597Y-93585264D01*
X168450739Y-93280502D02*
X168565025Y-93318597D01*
X168755501Y-93318597D01*
X168831692Y-93280502D01*
X168869787Y-93242407D01*
X168907882Y-93166216D01*
X168907882Y-93090026D01*
X168869787Y-93013835D01*
X168831692Y-92975740D01*
X168755501Y-92937645D01*
X168603120Y-92899550D01*
X168526930Y-92861454D01*
X168488835Y-92823359D01*
X168450739Y-92747169D01*
X168450739Y-92670978D01*
X168488835Y-92594788D01*
X168526930Y-92556693D01*
X168603120Y-92518597D01*
X168793597Y-92518597D01*
X168907882Y-92556693D01*
X169555501Y-93280502D02*
X169479311Y-93318597D01*
X169326930Y-93318597D01*
X169250739Y-93280502D01*
X169212644Y-93204312D01*
X169212644Y-92899550D01*
X169250739Y-92823359D01*
X169326930Y-92785264D01*
X169479311Y-92785264D01*
X169555501Y-92823359D01*
X169593597Y-92899550D01*
X169593597Y-92975740D01*
X169212644Y-93051931D01*
X169936454Y-92785264D02*
X169936454Y-93318597D01*
X169936454Y-92861454D02*
X169974549Y-92823359D01*
X170050739Y-92785264D01*
X170165025Y-92785264D01*
X170241216Y-92823359D01*
X170279311Y-92899550D01*
X170279311Y-93318597D01*
X170622168Y-93280502D02*
X170698358Y-93318597D01*
X170850739Y-93318597D01*
X170926930Y-93280502D01*
X170965025Y-93204312D01*
X170965025Y-93166216D01*
X170926930Y-93090026D01*
X170850739Y-93051931D01*
X170736454Y-93051931D01*
X170660263Y-93013835D01*
X170622168Y-92937645D01*
X170622168Y-92899550D01*
X170660263Y-92823359D01*
X170736454Y-92785264D01*
X170850739Y-92785264D01*
X170926930Y-92823359D01*
X171422168Y-93318597D02*
X171345977Y-93280502D01*
X171307882Y-93242407D01*
X171269787Y-93166216D01*
X171269787Y-92937645D01*
X171307882Y-92861454D01*
X171345977Y-92823359D01*
X171422168Y-92785264D01*
X171536454Y-92785264D01*
X171612644Y-92823359D01*
X171650739Y-92861454D01*
X171688835Y-92937645D01*
X171688835Y-93166216D01*
X171650739Y-93242407D01*
X171612644Y-93280502D01*
X171536454Y-93318597D01*
X171422168Y-93318597D01*
X172031692Y-93318597D02*
X172031692Y-92785264D01*
X172031692Y-92937645D02*
X172069787Y-92861454D01*
X172107882Y-92823359D01*
X172184073Y-92785264D01*
X172260263Y-92785264D01*
X173060263Y-92785264D02*
X173250739Y-93318597D01*
X173441216Y-92785264D01*
X173707882Y-92594788D02*
X173745977Y-92556693D01*
X173822168Y-92518597D01*
X174012644Y-92518597D01*
X174088835Y-92556693D01*
X174126930Y-92594788D01*
X174165025Y-92670978D01*
X174165025Y-92747169D01*
X174126930Y-92861454D01*
X173669787Y-93318597D01*
X174165025Y-93318597D01*
D11*
X198107142Y-96944578D02*
X198107142Y-97444578D01*
X197321428Y-97658864D02*
X197321428Y-96944578D01*
X198821428Y-96944578D01*
X198821428Y-97658864D01*
X197392857Y-98230292D02*
X197321428Y-98444578D01*
X197321428Y-98801721D01*
X197392857Y-98944578D01*
X197464285Y-99016007D01*
X197607142Y-99087435D01*
X197750000Y-99087435D01*
X197892857Y-99016007D01*
X197964285Y-98944578D01*
X198035714Y-98801721D01*
X198107142Y-98516007D01*
X198178571Y-98373149D01*
X198250000Y-98301721D01*
X198392857Y-98230292D01*
X198535714Y-98230292D01*
X198678571Y-98301721D01*
X198750000Y-98373149D01*
X198821428Y-98516007D01*
X198821428Y-98873149D01*
X198750000Y-99087435D01*
X197321428Y-99730292D02*
X198821428Y-99730292D01*
X198821428Y-100301721D01*
X198750000Y-100444578D01*
X198678571Y-100516007D01*
X198535714Y-100587435D01*
X198321428Y-100587435D01*
X198178571Y-100516007D01*
X198107142Y-100444578D01*
X198035714Y-100301721D01*
X198035714Y-99730292D01*
X198821428Y-101087435D02*
X198821428Y-102016007D01*
X198250000Y-101516007D01*
X198250000Y-101730292D01*
X198178571Y-101873149D01*
X198107142Y-101944578D01*
X197964285Y-102016007D01*
X197607142Y-102016007D01*
X197464285Y-101944578D01*
X197392857Y-101873149D01*
X197321428Y-101730292D01*
X197321428Y-101301721D01*
X197392857Y-101158864D01*
X197464285Y-101087435D01*
X198678571Y-102587435D02*
X198750000Y-102658864D01*
X198821428Y-102801721D01*
X198821428Y-103158864D01*
X198750000Y-103301721D01*
X198678571Y-103373149D01*
X198535714Y-103444578D01*
X198392857Y-103444578D01*
X198178571Y-103373149D01*
X197321428Y-102516007D01*
X197321428Y-103444578D01*
X198892857Y-106301721D02*
X196964285Y-105016007D01*
X197321428Y-107944578D02*
X198821428Y-107944578D01*
X198821428Y-108301721D01*
X198750000Y-108516007D01*
X198607142Y-108658864D01*
X198464285Y-108730292D01*
X198178571Y-108801721D01*
X197964285Y-108801721D01*
X197678571Y-108730292D01*
X197535714Y-108658864D01*
X197392857Y-108516007D01*
X197321428Y-108301721D01*
X197321428Y-107944578D01*
X197321428Y-110230292D02*
X197321428Y-109373149D01*
X197321428Y-109801721D02*
X198821428Y-109801721D01*
X198607142Y-109658864D01*
X198464285Y-109516007D01*
X198392857Y-109373149D01*
X197321428Y-112016007D02*
X198321428Y-112016007D01*
X198178571Y-112016007D02*
X198250000Y-112087435D01*
X198321428Y-112230292D01*
X198321428Y-112444578D01*
X198250000Y-112587435D01*
X198107142Y-112658864D01*
X197321428Y-112658864D01*
X198107142Y-112658864D02*
X198250000Y-112730292D01*
X198321428Y-112873149D01*
X198321428Y-113087435D01*
X198250000Y-113230292D01*
X198107142Y-113301721D01*
X197321428Y-113301721D01*
X197321428Y-114016007D02*
X198321428Y-114016007D01*
X198821428Y-114016007D02*
X198750000Y-113944578D01*
X198678571Y-114016007D01*
X198750000Y-114087435D01*
X198821428Y-114016007D01*
X198678571Y-114016007D01*
X198321428Y-114730292D02*
X197321428Y-114730292D01*
X198178571Y-114730292D02*
X198250000Y-114801721D01*
X198321428Y-114944578D01*
X198321428Y-115158864D01*
X198250000Y-115301721D01*
X198107142Y-115373149D01*
X197321428Y-115373149D01*
X197321428Y-116087435D02*
X198321428Y-116087435D01*
X198821428Y-116087435D02*
X198750000Y-116016007D01*
X198678571Y-116087435D01*
X198750000Y-116158864D01*
X198821428Y-116087435D01*
X198678571Y-116087435D01*
D12*
%TO.C,R2*%
X187833333Y-112822380D02*
X187500000Y-112346190D01*
X187261904Y-112822380D02*
X187261904Y-111822380D01*
X187642857Y-111822380D01*
X187738095Y-111870000D01*
X187785714Y-111917619D01*
X187833333Y-112012857D01*
X187833333Y-112155714D01*
X187785714Y-112250952D01*
X187738095Y-112298571D01*
X187642857Y-112346190D01*
X187261904Y-112346190D01*
X188214285Y-111917619D02*
X188261904Y-111870000D01*
X188357142Y-111822380D01*
X188595238Y-111822380D01*
X188690476Y-111870000D01*
X188738095Y-111917619D01*
X188785714Y-112012857D01*
X188785714Y-112108095D01*
X188738095Y-112250952D01*
X188166666Y-112822380D01*
X188785714Y-112822380D01*
%TO.C,J1*%
X158928571Y-101950476D02*
X158928571Y-102283809D01*
X159452380Y-102283809D02*
X158452380Y-102283809D01*
X158452380Y-101807619D01*
X159404761Y-101474285D02*
X159452380Y-101331428D01*
X159452380Y-101093333D01*
X159404761Y-100998095D01*
X159357142Y-100950476D01*
X159261904Y-100902857D01*
X159166666Y-100902857D01*
X159071428Y-100950476D01*
X159023809Y-100998095D01*
X158976190Y-101093333D01*
X158928571Y-101283809D01*
X158880952Y-101379047D01*
X158833333Y-101426666D01*
X158738095Y-101474285D01*
X158642857Y-101474285D01*
X158547619Y-101426666D01*
X158500000Y-101379047D01*
X158452380Y-101283809D01*
X158452380Y-101045714D01*
X158500000Y-100902857D01*
X159452380Y-99902857D02*
X158976190Y-100236190D01*
X159452380Y-100474285D02*
X158452380Y-100474285D01*
X158452380Y-100093333D01*
X158500000Y-99998095D01*
X158547619Y-99950476D01*
X158642857Y-99902857D01*
X158785714Y-99902857D01*
X158880952Y-99950476D01*
X158928571Y-99998095D01*
X158976190Y-100093333D01*
X158976190Y-100474285D01*
X159547619Y-99712380D02*
X159547619Y-98950476D01*
X158547619Y-98760000D02*
X158500000Y-98712380D01*
X158452380Y-98617142D01*
X158452380Y-98379047D01*
X158500000Y-98283809D01*
X158547619Y-98236190D01*
X158642857Y-98188571D01*
X158738095Y-98188571D01*
X158880952Y-98236190D01*
X159452380Y-98807619D01*
X159452380Y-98188571D01*
%TO.C,J2*%
X158928571Y-112925476D02*
X158928571Y-113258809D01*
X159452380Y-113258809D02*
X158452380Y-113258809D01*
X158452380Y-112782619D01*
X159404761Y-112449285D02*
X159452380Y-112306428D01*
X159452380Y-112068333D01*
X159404761Y-111973095D01*
X159357142Y-111925476D01*
X159261904Y-111877857D01*
X159166666Y-111877857D01*
X159071428Y-111925476D01*
X159023809Y-111973095D01*
X158976190Y-112068333D01*
X158928571Y-112258809D01*
X158880952Y-112354047D01*
X158833333Y-112401666D01*
X158738095Y-112449285D01*
X158642857Y-112449285D01*
X158547619Y-112401666D01*
X158500000Y-112354047D01*
X158452380Y-112258809D01*
X158452380Y-112020714D01*
X158500000Y-111877857D01*
X159452380Y-110877857D02*
X158976190Y-111211190D01*
X159452380Y-111449285D02*
X158452380Y-111449285D01*
X158452380Y-111068333D01*
X158500000Y-110973095D01*
X158547619Y-110925476D01*
X158642857Y-110877857D01*
X158785714Y-110877857D01*
X158880952Y-110925476D01*
X158928571Y-110973095D01*
X158976190Y-111068333D01*
X158976190Y-111449285D01*
X159547619Y-110687380D02*
X159547619Y-109925476D01*
X159452380Y-109163571D02*
X159452380Y-109735000D01*
X159452380Y-109449285D02*
X158452380Y-109449285D01*
X158595238Y-109544523D01*
X158690476Y-109639761D01*
X158738095Y-109735000D01*
%TO.C,R1*%
X187833333Y-105329917D02*
X187500000Y-104853727D01*
X187261904Y-105329917D02*
X187261904Y-104329917D01*
X187642857Y-104329917D01*
X187738095Y-104377537D01*
X187785714Y-104425156D01*
X187833333Y-104520394D01*
X187833333Y-104663251D01*
X187785714Y-104758489D01*
X187738095Y-104806108D01*
X187642857Y-104853727D01*
X187261904Y-104853727D01*
X188785714Y-105329917D02*
X188214285Y-105329917D01*
X188500000Y-105329917D02*
X188500000Y-104329917D01*
X188404761Y-104472775D01*
X188309523Y-104568013D01*
X188214285Y-104615632D01*
%TO.C,G\u002A\u002A\u002A*%
G36*
X164374712Y-120509003D02*
G01*
X164374712Y-121282887D01*
X163600828Y-121282887D01*
X163600828Y-121172333D01*
X163711383Y-121172333D01*
X164264157Y-121172333D01*
X164264157Y-120619558D01*
X163711383Y-120619558D01*
X163711383Y-121172333D01*
X163600828Y-121172333D01*
X163600828Y-120509003D01*
X164374712Y-120509003D01*
G37*
G36*
X164816932Y-120895945D02*
G01*
X164814915Y-120988566D01*
X164806055Y-121038613D01*
X164786138Y-121058729D01*
X164761655Y-121061778D01*
X164725490Y-121071049D01*
X164709507Y-121108520D01*
X164706377Y-121172333D01*
X164706377Y-121282887D01*
X164485267Y-121282887D01*
X164485267Y-121061778D01*
X164706377Y-121061778D01*
X164706377Y-120951223D01*
X164701742Y-120878894D01*
X164683006Y-120846927D01*
X164651100Y-120840668D01*
X164604907Y-120860211D01*
X164595822Y-120895945D01*
X164576279Y-120942138D01*
X164540545Y-120951223D01*
X164504380Y-120941952D01*
X164488397Y-120904480D01*
X164485267Y-120840668D01*
X164485267Y-120730113D01*
X164816932Y-120730113D01*
X164816932Y-120895945D01*
G37*
G36*
X166696366Y-120840668D02*
G01*
X166624037Y-120845303D01*
X166592070Y-120864039D01*
X166585811Y-120895945D01*
X166605355Y-120942138D01*
X166641089Y-120951223D01*
X166687282Y-120970766D01*
X166696366Y-121006500D01*
X166676823Y-121052693D01*
X166641089Y-121061778D01*
X166594896Y-121042234D01*
X166585811Y-121006500D01*
X166566268Y-120960307D01*
X166530534Y-120951223D01*
X166484341Y-120970766D01*
X166475256Y-121006500D01*
X166465985Y-121042665D01*
X166428513Y-121058648D01*
X166364701Y-121061778D01*
X166292372Y-121057142D01*
X166260406Y-121038406D01*
X166254146Y-121006500D01*
X166234603Y-120960307D01*
X166198869Y-120951223D01*
X166162704Y-120960494D01*
X166146721Y-120997966D01*
X166143591Y-121061778D01*
X166148227Y-121134107D01*
X166166963Y-121166073D01*
X166198869Y-121172333D01*
X166245062Y-121191876D01*
X166254146Y-121227610D01*
X166234603Y-121273803D01*
X166198869Y-121282887D01*
X166152676Y-121263344D01*
X166143591Y-121227610D01*
X166124048Y-121181417D01*
X166088314Y-121172333D01*
X166052149Y-121163062D01*
X166036166Y-121125590D01*
X166033036Y-121061778D01*
X166037672Y-120989449D01*
X166056408Y-120957482D01*
X166088314Y-120951223D01*
X166134507Y-120931679D01*
X166143591Y-120895945D01*
X166163135Y-120849752D01*
X166198869Y-120840668D01*
X166245062Y-120860211D01*
X166254146Y-120895945D01*
X166263417Y-120932110D01*
X166300889Y-120948093D01*
X166364701Y-120951223D01*
X166475256Y-120951223D01*
X166475256Y-120674835D01*
X166585811Y-120674835D01*
X166605355Y-120721028D01*
X166641089Y-120730113D01*
X166806921Y-120730113D01*
X167138586Y-120730113D01*
X167138586Y-120398448D01*
X166806921Y-120398448D01*
X166806921Y-120730113D01*
X166641089Y-120730113D01*
X166687282Y-120710569D01*
X166696366Y-120674835D01*
X166676823Y-120628642D01*
X166641089Y-120619558D01*
X166594896Y-120639101D01*
X166585811Y-120674835D01*
X166475256Y-120674835D01*
X166475256Y-120509003D01*
X166585811Y-120509003D01*
X166658140Y-120504367D01*
X166690107Y-120485631D01*
X166696366Y-120453725D01*
X166690315Y-120422852D01*
X166663735Y-120406169D01*
X166603984Y-120399464D01*
X166530534Y-120398448D01*
X166437913Y-120396431D01*
X166387866Y-120387571D01*
X166367750Y-120367654D01*
X166364701Y-120343170D01*
X166345158Y-120296978D01*
X166309424Y-120287893D01*
X166273259Y-120297164D01*
X166257276Y-120334636D01*
X166254146Y-120398448D01*
X166258782Y-120470777D01*
X166277518Y-120502744D01*
X166309424Y-120509003D01*
X166355617Y-120528546D01*
X166364701Y-120564280D01*
X166345158Y-120610473D01*
X166309424Y-120619558D01*
X166263231Y-120639101D01*
X166254146Y-120674835D01*
X166234603Y-120721028D01*
X166198869Y-120730113D01*
X166152676Y-120710569D01*
X166143591Y-120674835D01*
X166124048Y-120628642D01*
X166088314Y-120619558D01*
X166042121Y-120639101D01*
X166033036Y-120674835D01*
X166013493Y-120721028D01*
X165977759Y-120730113D01*
X165941594Y-120739384D01*
X165925611Y-120776856D01*
X165922482Y-120840668D01*
X165922482Y-120951223D01*
X165701372Y-120951223D01*
X165701372Y-120730113D01*
X165811927Y-120730113D01*
X165884256Y-120725477D01*
X165916222Y-120706741D01*
X165922482Y-120674835D01*
X165942025Y-120628642D01*
X165977759Y-120619558D01*
X166013924Y-120610287D01*
X166029907Y-120572815D01*
X166030326Y-120564280D01*
X166143591Y-120564280D01*
X166163135Y-120610473D01*
X166198869Y-120619558D01*
X166245062Y-120600014D01*
X166254146Y-120564280D01*
X166234603Y-120518087D01*
X166198869Y-120509003D01*
X166152676Y-120528546D01*
X166143591Y-120564280D01*
X166030326Y-120564280D01*
X166033036Y-120509003D01*
X166037672Y-120436674D01*
X166056408Y-120404707D01*
X166088314Y-120398448D01*
X166113473Y-120394655D01*
X166129579Y-120376605D01*
X166138632Y-120334293D01*
X166142635Y-120257714D01*
X166143268Y-120177338D01*
X166364701Y-120177338D01*
X166369337Y-120249667D01*
X166388073Y-120281634D01*
X166419979Y-120287893D01*
X166456143Y-120278622D01*
X166472127Y-120241150D01*
X166475256Y-120177338D01*
X166479892Y-120105009D01*
X166498628Y-120073042D01*
X166530534Y-120066783D01*
X166576727Y-120086327D01*
X166585811Y-120122061D01*
X166605355Y-120168253D01*
X166641089Y-120177338D01*
X166687282Y-120196882D01*
X166696366Y-120232615D01*
X166715910Y-120278808D01*
X166751644Y-120287893D01*
X166797836Y-120268349D01*
X166806921Y-120232615D01*
X166787378Y-120186423D01*
X166751644Y-120177338D01*
X166705451Y-120157794D01*
X166696366Y-120122061D01*
X166705637Y-120085896D01*
X166743109Y-120069913D01*
X166806921Y-120066783D01*
X166879250Y-120062148D01*
X166911217Y-120043412D01*
X166917476Y-120011506D01*
X166911425Y-119980632D01*
X166884845Y-119963949D01*
X166825094Y-119957244D01*
X166751644Y-119956228D01*
X166659023Y-119954211D01*
X166608975Y-119945351D01*
X166588860Y-119925434D01*
X166585811Y-119900951D01*
X166566268Y-119854758D01*
X166530534Y-119845673D01*
X166494369Y-119854944D01*
X166478386Y-119892416D01*
X166475256Y-119956228D01*
X166470621Y-120028557D01*
X166451885Y-120060524D01*
X166419979Y-120066783D01*
X166383814Y-120076054D01*
X166367831Y-120113526D01*
X166364701Y-120177338D01*
X166143268Y-120177338D01*
X166143587Y-120136863D01*
X166143591Y-120122061D01*
X166144350Y-119996266D01*
X166147960Y-119915738D01*
X166156422Y-119870470D01*
X166171738Y-119850458D01*
X166195908Y-119845696D01*
X166198869Y-119845673D01*
X166235033Y-119854944D01*
X166251017Y-119892416D01*
X166254146Y-119956228D01*
X166258782Y-120028557D01*
X166277518Y-120060524D01*
X166309424Y-120066783D01*
X166345588Y-120057512D01*
X166361572Y-120020040D01*
X166364701Y-119956228D01*
X166369337Y-119883899D01*
X166388073Y-119851932D01*
X166419979Y-119845673D01*
X166466172Y-119826130D01*
X166475256Y-119790396D01*
X166696366Y-119790396D01*
X166715910Y-119836588D01*
X166751644Y-119845673D01*
X166797836Y-119826130D01*
X166806921Y-119790396D01*
X166787378Y-119744203D01*
X166751644Y-119735118D01*
X166705451Y-119754662D01*
X166696366Y-119790396D01*
X166475256Y-119790396D01*
X166470640Y-119762854D01*
X166449379Y-119746348D01*
X166400353Y-119738097D01*
X166312444Y-119735322D01*
X166254146Y-119735118D01*
X166143980Y-119733964D01*
X166077955Y-119728649D01*
X166044951Y-119716392D01*
X166033850Y-119694415D01*
X166033036Y-119679841D01*
X166052580Y-119633648D01*
X166088314Y-119624563D01*
X166134507Y-119605020D01*
X166143591Y-119569286D01*
X166134320Y-119533121D01*
X166096849Y-119517138D01*
X166033036Y-119514008D01*
X165922482Y-119514008D01*
X165922482Y-119679841D01*
X165924498Y-119772461D01*
X165933359Y-119822509D01*
X165953276Y-119842624D01*
X165977759Y-119845673D01*
X166023952Y-119865217D01*
X166033036Y-119900951D01*
X166013493Y-119947143D01*
X165977759Y-119956228D01*
X165931566Y-119936685D01*
X165922482Y-119900951D01*
X165902938Y-119854758D01*
X165867204Y-119845673D01*
X165821011Y-119865217D01*
X165811927Y-119900951D01*
X165802656Y-119937115D01*
X165765184Y-119953098D01*
X165701372Y-119956228D01*
X165629043Y-119951593D01*
X165597076Y-119932857D01*
X165590817Y-119900951D01*
X165571273Y-119854758D01*
X165535539Y-119845673D01*
X165489346Y-119826130D01*
X165480262Y-119790396D01*
X165486313Y-119759522D01*
X165512893Y-119742840D01*
X165572644Y-119736134D01*
X165646094Y-119735118D01*
X165738715Y-119733101D01*
X165788762Y-119724241D01*
X165808878Y-119704324D01*
X165811927Y-119679841D01*
X165802656Y-119643676D01*
X165765184Y-119627693D01*
X165701372Y-119624563D01*
X165629043Y-119619928D01*
X165597076Y-119601192D01*
X165590817Y-119569286D01*
X165571273Y-119523093D01*
X165535539Y-119514008D01*
X165489346Y-119494465D01*
X165480262Y-119458731D01*
X165460718Y-119412538D01*
X165424984Y-119403453D01*
X165388820Y-119412724D01*
X165372836Y-119450196D01*
X165369707Y-119514008D01*
X165365071Y-119586337D01*
X165346335Y-119618304D01*
X165314429Y-119624563D01*
X165283556Y-119618512D01*
X165266873Y-119591932D01*
X165260168Y-119532181D01*
X165259152Y-119458731D01*
X165257135Y-119366110D01*
X165248275Y-119316063D01*
X165228358Y-119295947D01*
X165203874Y-119292898D01*
X165180540Y-119296152D01*
X165164892Y-119312021D01*
X165155402Y-119349666D01*
X165150545Y-119418245D01*
X165148793Y-119526921D01*
X165148597Y-119624563D01*
X165149139Y-119764568D01*
X165151784Y-119858459D01*
X165158058Y-119915396D01*
X165169488Y-119944539D01*
X165187601Y-119955049D01*
X165203874Y-119956228D01*
X165240039Y-119946957D01*
X165256022Y-119909485D01*
X165259152Y-119845673D01*
X165263787Y-119773344D01*
X165282523Y-119741377D01*
X165314429Y-119735118D01*
X165336303Y-119737989D01*
X165351495Y-119752263D01*
X165361216Y-119786437D01*
X165366682Y-119849004D01*
X165369106Y-119948460D01*
X165369700Y-120093300D01*
X165369707Y-120122061D01*
X165370117Y-120275180D01*
X165372156Y-120381518D01*
X165377038Y-120449570D01*
X165385976Y-120487830D01*
X165400184Y-120504795D01*
X165420876Y-120508957D01*
X165424984Y-120509003D01*
X165452526Y-120504387D01*
X165469032Y-120483125D01*
X165477283Y-120434099D01*
X165480058Y-120346190D01*
X165480262Y-120287893D01*
X165481416Y-120177726D01*
X165486731Y-120111701D01*
X165498988Y-120078698D01*
X165520965Y-120067597D01*
X165535539Y-120066783D01*
X165571704Y-120076054D01*
X165587687Y-120113526D01*
X165590817Y-120177338D01*
X165595452Y-120249667D01*
X165614188Y-120281634D01*
X165646094Y-120287893D01*
X165692287Y-120307436D01*
X165701372Y-120343170D01*
X165720915Y-120389363D01*
X165756649Y-120398448D01*
X165802842Y-120378904D01*
X165811927Y-120343170D01*
X165831470Y-120296978D01*
X165867204Y-120287893D01*
X165913397Y-120268349D01*
X165922482Y-120232615D01*
X165902938Y-120186423D01*
X165867204Y-120177338D01*
X165821011Y-120157794D01*
X165811927Y-120122061D01*
X165831470Y-120075868D01*
X165867204Y-120066783D01*
X165913397Y-120086327D01*
X165922482Y-120122061D01*
X165942025Y-120168253D01*
X165977759Y-120177338D01*
X166023952Y-120196882D01*
X166033036Y-120232615D01*
X166013493Y-120278808D01*
X165977759Y-120287893D01*
X165931566Y-120307436D01*
X165922482Y-120343170D01*
X165902938Y-120389363D01*
X165867204Y-120398448D01*
X165831040Y-120407719D01*
X165815056Y-120445191D01*
X165811927Y-120509003D01*
X165807291Y-120581332D01*
X165788555Y-120613299D01*
X165756649Y-120619558D01*
X165720485Y-120610287D01*
X165704501Y-120572815D01*
X165701372Y-120509003D01*
X165696736Y-120436674D01*
X165678000Y-120404707D01*
X165646094Y-120398448D01*
X165618553Y-120403064D01*
X165602046Y-120424325D01*
X165593795Y-120473351D01*
X165591020Y-120561260D01*
X165590817Y-120619558D01*
X165589663Y-120729724D01*
X165584347Y-120795750D01*
X165572091Y-120828753D01*
X165550114Y-120839854D01*
X165535539Y-120840668D01*
X165489346Y-120821124D01*
X165480262Y-120785390D01*
X165460718Y-120739197D01*
X165424984Y-120730113D01*
X165378791Y-120749656D01*
X165369707Y-120785390D01*
X165350163Y-120831583D01*
X165314429Y-120840668D01*
X165268236Y-120860211D01*
X165259152Y-120895945D01*
X165278695Y-120942138D01*
X165314429Y-120951223D01*
X165345303Y-120957273D01*
X165361985Y-120983854D01*
X165368691Y-121043605D01*
X165369707Y-121117055D01*
X165369707Y-121282887D01*
X165203874Y-121282887D01*
X165111254Y-121280871D01*
X165061206Y-121272010D01*
X165041091Y-121252093D01*
X165038042Y-121227610D01*
X165057585Y-121181417D01*
X165093319Y-121172333D01*
X165124193Y-121166282D01*
X165140875Y-121139701D01*
X165147581Y-121079950D01*
X165148597Y-121006500D01*
X165148597Y-120840668D01*
X164927487Y-120840668D01*
X164927487Y-120730113D01*
X164922851Y-120657784D01*
X164904116Y-120625817D01*
X164872210Y-120619558D01*
X164836045Y-120610287D01*
X164820062Y-120572815D01*
X164819643Y-120564280D01*
X164927487Y-120564280D01*
X164947031Y-120610473D01*
X164982764Y-120619558D01*
X165028957Y-120639101D01*
X165038042Y-120674835D01*
X165057585Y-120721028D01*
X165093319Y-120730113D01*
X165139512Y-120710569D01*
X165148597Y-120674835D01*
X165157868Y-120638671D01*
X165195340Y-120622687D01*
X165259152Y-120619558D01*
X165331481Y-120614922D01*
X165363448Y-120596186D01*
X165369707Y-120564280D01*
X165365091Y-120536739D01*
X165343829Y-120520232D01*
X165294803Y-120511981D01*
X165206894Y-120509206D01*
X165148597Y-120509003D01*
X165038430Y-120510157D01*
X164972405Y-120515472D01*
X164939401Y-120527729D01*
X164928301Y-120549706D01*
X164927487Y-120564280D01*
X164819643Y-120564280D01*
X164816932Y-120509003D01*
X164816932Y-120398448D01*
X164706377Y-120398448D01*
X164634048Y-120403083D01*
X164602081Y-120421819D01*
X164595822Y-120453725D01*
X164576279Y-120499918D01*
X164540545Y-120509003D01*
X164504380Y-120499732D01*
X164488397Y-120462260D01*
X164485267Y-120398448D01*
X164480632Y-120326119D01*
X164461896Y-120294152D01*
X164429990Y-120287893D01*
X164383797Y-120307436D01*
X164374712Y-120343170D01*
X164355169Y-120389363D01*
X164319435Y-120398448D01*
X164273242Y-120378904D01*
X164264157Y-120343170D01*
X164283701Y-120296978D01*
X164319435Y-120287893D01*
X164365628Y-120268349D01*
X164374712Y-120232615D01*
X164368661Y-120201742D01*
X164342081Y-120185059D01*
X164282330Y-120178354D01*
X164208880Y-120177338D01*
X164043047Y-120177338D01*
X164043047Y-120398448D01*
X163932492Y-120398448D01*
X163860163Y-120393812D01*
X163828197Y-120375076D01*
X163821937Y-120343170D01*
X163841481Y-120296978D01*
X163877215Y-120287893D01*
X163923408Y-120268349D01*
X163932492Y-120232615D01*
X163923221Y-120196451D01*
X163885750Y-120180468D01*
X163821937Y-120177338D01*
X163711383Y-120177338D01*
X163711383Y-120287893D01*
X163706747Y-120360222D01*
X163688011Y-120392189D01*
X163656105Y-120398448D01*
X163628563Y-120393832D01*
X163612057Y-120372570D01*
X163603806Y-120323545D01*
X163601031Y-120235635D01*
X163600828Y-120177338D01*
X163601982Y-120067172D01*
X163607297Y-120001146D01*
X163619553Y-119968143D01*
X163641531Y-119957042D01*
X163656105Y-119956228D01*
X163702298Y-119936685D01*
X163711383Y-119900951D01*
X163691839Y-119854758D01*
X163656105Y-119845673D01*
X163619941Y-119836402D01*
X163603957Y-119798930D01*
X163600828Y-119735118D01*
X163711383Y-119735118D01*
X163716018Y-119807447D01*
X163734754Y-119839414D01*
X163766660Y-119845673D01*
X163802825Y-119854944D01*
X163818808Y-119892416D01*
X163821937Y-119956228D01*
X163826573Y-120028557D01*
X163845309Y-120060524D01*
X163877215Y-120066783D01*
X163923408Y-120086327D01*
X163932492Y-120122061D01*
X163952036Y-120168253D01*
X163987770Y-120177338D01*
X164033963Y-120157794D01*
X164043047Y-120122061D01*
X164023504Y-120075868D01*
X163987770Y-120066783D01*
X163941577Y-120047239D01*
X163932492Y-120011506D01*
X163941763Y-119975341D01*
X163979235Y-119959358D01*
X164043047Y-119956228D01*
X164115376Y-119960864D01*
X164147343Y-119979600D01*
X164153602Y-120011506D01*
X164162873Y-120047670D01*
X164200345Y-120063653D01*
X164264157Y-120066783D01*
X164336486Y-120071419D01*
X164368453Y-120090154D01*
X164374712Y-120122061D01*
X164394256Y-120168253D01*
X164429990Y-120177338D01*
X164476183Y-120157794D01*
X164485267Y-120122061D01*
X164494538Y-120085896D01*
X164532010Y-120069913D01*
X164595822Y-120066783D01*
X164668151Y-120071419D01*
X164700118Y-120090154D01*
X164706377Y-120122061D01*
X164686834Y-120168253D01*
X164651100Y-120177338D01*
X164604907Y-120196882D01*
X164595822Y-120232615D01*
X164605093Y-120268780D01*
X164642565Y-120284763D01*
X164706377Y-120287893D01*
X164778706Y-120292528D01*
X164810673Y-120311264D01*
X164816932Y-120343170D01*
X164822983Y-120374044D01*
X164849563Y-120390726D01*
X164909314Y-120397432D01*
X164982764Y-120398448D01*
X165075385Y-120396431D01*
X165125433Y-120387571D01*
X165145548Y-120367654D01*
X165148597Y-120343170D01*
X165168140Y-120296978D01*
X165203874Y-120287893D01*
X165240039Y-120278622D01*
X165256022Y-120241150D01*
X165259152Y-120177338D01*
X165254516Y-120105009D01*
X165235780Y-120073042D01*
X165203874Y-120066783D01*
X165157682Y-120086327D01*
X165148597Y-120122061D01*
X165139326Y-120158225D01*
X165101854Y-120174208D01*
X165038042Y-120177338D01*
X164965713Y-120181973D01*
X164933746Y-120200709D01*
X164927487Y-120232615D01*
X164907943Y-120278808D01*
X164872210Y-120287893D01*
X164836045Y-120278622D01*
X164820062Y-120241150D01*
X164816932Y-120177338D01*
X164816932Y-120066783D01*
X164927487Y-120066783D01*
X164999816Y-120062148D01*
X165031783Y-120043412D01*
X165038042Y-120011506D01*
X165028771Y-119975341D01*
X164991299Y-119959358D01*
X164927487Y-119956228D01*
X164816932Y-119956228D01*
X164816932Y-119790396D01*
X164818949Y-119697775D01*
X164827809Y-119647727D01*
X164847726Y-119627612D01*
X164872210Y-119624563D01*
X164918402Y-119644107D01*
X164927487Y-119679841D01*
X164947031Y-119726034D01*
X164982764Y-119735118D01*
X165028957Y-119715575D01*
X165038042Y-119679841D01*
X165018498Y-119633648D01*
X164982764Y-119624563D01*
X164936572Y-119605020D01*
X164927487Y-119569286D01*
X164947031Y-119523093D01*
X164982764Y-119514008D01*
X165018929Y-119504737D01*
X165034912Y-119467265D01*
X165038042Y-119403453D01*
X165033406Y-119331124D01*
X165014670Y-119299158D01*
X164982764Y-119292898D01*
X164936572Y-119273355D01*
X164927487Y-119237621D01*
X165369707Y-119237621D01*
X165375758Y-119268494D01*
X165402338Y-119285177D01*
X165462089Y-119291882D01*
X165535539Y-119292898D01*
X165628160Y-119294915D01*
X165678207Y-119303775D01*
X165698323Y-119323692D01*
X165701372Y-119348176D01*
X165681828Y-119394369D01*
X165646094Y-119403453D01*
X165599901Y-119422997D01*
X165590817Y-119458731D01*
X165610360Y-119504924D01*
X165646094Y-119514008D01*
X165692287Y-119494465D01*
X165701372Y-119458731D01*
X165720915Y-119412538D01*
X165756649Y-119403453D01*
X165802842Y-119422997D01*
X165811927Y-119458731D01*
X165831470Y-119504924D01*
X165867204Y-119514008D01*
X165913397Y-119494465D01*
X165922482Y-119458731D01*
X165931753Y-119422566D01*
X165969224Y-119406583D01*
X166033036Y-119403453D01*
X166105366Y-119408089D01*
X166137332Y-119426825D01*
X166143591Y-119458731D01*
X166163135Y-119504924D01*
X166198869Y-119514008D01*
X166245062Y-119533552D01*
X166254146Y-119569286D01*
X166263417Y-119605450D01*
X166300889Y-119621434D01*
X166364701Y-119624563D01*
X166437030Y-119629199D01*
X166468997Y-119647935D01*
X166475256Y-119679841D01*
X166494800Y-119726034D01*
X166530534Y-119735118D01*
X166576727Y-119715575D01*
X166585811Y-119679841D01*
X166590427Y-119652299D01*
X166611689Y-119635793D01*
X166660715Y-119627542D01*
X166748624Y-119624767D01*
X166806921Y-119624563D01*
X166917088Y-119625717D01*
X166983113Y-119631033D01*
X167016117Y-119643289D01*
X167027217Y-119665266D01*
X167028031Y-119679841D01*
X167008488Y-119726034D01*
X166972754Y-119735118D01*
X166926561Y-119754662D01*
X166917476Y-119790396D01*
X166937020Y-119836588D01*
X166972754Y-119845673D01*
X167018946Y-119865217D01*
X167028031Y-119900951D01*
X167047575Y-119947143D01*
X167083309Y-119956228D01*
X167129501Y-119975772D01*
X167138586Y-120011506D01*
X167119042Y-120057698D01*
X167083309Y-120066783D01*
X167037116Y-120086327D01*
X167028031Y-120122061D01*
X167008488Y-120168253D01*
X166972754Y-120177338D01*
X166926561Y-120196882D01*
X166917476Y-120232615D01*
X166937020Y-120278808D01*
X166972754Y-120287893D01*
X167018946Y-120268349D01*
X167028031Y-120232615D01*
X167047575Y-120186423D01*
X167083309Y-120177338D01*
X167129501Y-120157794D01*
X167138586Y-120122061D01*
X167158130Y-120075868D01*
X167193863Y-120066783D01*
X167230028Y-120076054D01*
X167246011Y-120113526D01*
X167249141Y-120177338D01*
X167253776Y-120249667D01*
X167272512Y-120281634D01*
X167304418Y-120287893D01*
X167350611Y-120307436D01*
X167359696Y-120343170D01*
X167368967Y-120379335D01*
X167406439Y-120395318D01*
X167470251Y-120398448D01*
X167542580Y-120393812D01*
X167574547Y-120375076D01*
X167580806Y-120343170D01*
X167571535Y-120307006D01*
X167534063Y-120291023D01*
X167470251Y-120287893D01*
X167397922Y-120283257D01*
X167365955Y-120264521D01*
X167359696Y-120232615D01*
X167368967Y-120196451D01*
X167406439Y-120180468D01*
X167470251Y-120177338D01*
X167542580Y-120172702D01*
X167574547Y-120153967D01*
X167580806Y-120122061D01*
X167561262Y-120075868D01*
X167525528Y-120066783D01*
X167479335Y-120047239D01*
X167470251Y-120011506D01*
X167489794Y-119965313D01*
X167525528Y-119956228D01*
X167571721Y-119936685D01*
X167580806Y-119900951D01*
X167561262Y-119854758D01*
X167525528Y-119845673D01*
X167479335Y-119865217D01*
X167470251Y-119900951D01*
X167450707Y-119947143D01*
X167414973Y-119956228D01*
X167368781Y-119936685D01*
X167359696Y-119900951D01*
X167340152Y-119854758D01*
X167304418Y-119845673D01*
X167258226Y-119826130D01*
X167249141Y-119790396D01*
X167268684Y-119744203D01*
X167304418Y-119735118D01*
X167350611Y-119715575D01*
X167359696Y-119679841D01*
X167350425Y-119643676D01*
X167312953Y-119627693D01*
X167249141Y-119624563D01*
X167176812Y-119619928D01*
X167144845Y-119601192D01*
X167138586Y-119569286D01*
X167144637Y-119538412D01*
X167171217Y-119521730D01*
X167230968Y-119515025D01*
X167304418Y-119514008D01*
X167397039Y-119511991D01*
X167447087Y-119503131D01*
X167467202Y-119483214D01*
X167470251Y-119458731D01*
X167489794Y-119412538D01*
X167525528Y-119403453D01*
X167550687Y-119399660D01*
X167566793Y-119381610D01*
X167575846Y-119339298D01*
X167579849Y-119262719D01*
X167580801Y-119141868D01*
X167580806Y-119127066D01*
X167580047Y-119001272D01*
X167576437Y-118920743D01*
X167567975Y-118875475D01*
X167552659Y-118855463D01*
X167528489Y-118850701D01*
X167525528Y-118850679D01*
X167479335Y-118831135D01*
X167470251Y-118795401D01*
X167489794Y-118749208D01*
X167525528Y-118740124D01*
X167571721Y-118720580D01*
X167580806Y-118684846D01*
X167561262Y-118638653D01*
X167525528Y-118629569D01*
X167494655Y-118623518D01*
X167477972Y-118596938D01*
X167471267Y-118537186D01*
X167470251Y-118463736D01*
X167468234Y-118371115D01*
X167459374Y-118321068D01*
X167439457Y-118300953D01*
X167414973Y-118297904D01*
X167378809Y-118307175D01*
X167362826Y-118344647D01*
X167359696Y-118408459D01*
X167355060Y-118480788D01*
X167336324Y-118512754D01*
X167304418Y-118519014D01*
X167258226Y-118538557D01*
X167249141Y-118574291D01*
X167268684Y-118620484D01*
X167304418Y-118629569D01*
X167340583Y-118638840D01*
X167356566Y-118676312D01*
X167359696Y-118740124D01*
X167355060Y-118812453D01*
X167336324Y-118844419D01*
X167304418Y-118850679D01*
X167258226Y-118870222D01*
X167249141Y-118905956D01*
X167229597Y-118952149D01*
X167193863Y-118961234D01*
X167147671Y-118980777D01*
X167138586Y-119016511D01*
X167119042Y-119062704D01*
X167083309Y-119071788D01*
X167047144Y-119062517D01*
X167031161Y-119025046D01*
X167028031Y-118961234D01*
X167028031Y-118850679D01*
X166806921Y-118850679D01*
X166806921Y-118684846D01*
X166917476Y-118684846D01*
X166926747Y-118721011D01*
X166964219Y-118736994D01*
X167028031Y-118740124D01*
X167138586Y-118740124D01*
X167138586Y-118629569D01*
X167133950Y-118557240D01*
X167115215Y-118525273D01*
X167083309Y-118519014D01*
X167037116Y-118538557D01*
X167028031Y-118574291D01*
X167008488Y-118620484D01*
X166972754Y-118629569D01*
X166926561Y-118649112D01*
X166917476Y-118684846D01*
X166806921Y-118684846D01*
X166806921Y-118629569D01*
X166641089Y-118629569D01*
X166548468Y-118631586D01*
X166498421Y-118640446D01*
X166478305Y-118660363D01*
X166475256Y-118684846D01*
X166455713Y-118731039D01*
X166419979Y-118740124D01*
X166392437Y-118735507D01*
X166375931Y-118714246D01*
X166367680Y-118665220D01*
X166364905Y-118577311D01*
X166364701Y-118519014D01*
X166365855Y-118408847D01*
X166371171Y-118342822D01*
X166383427Y-118309818D01*
X166405404Y-118298717D01*
X166419979Y-118297904D01*
X166456143Y-118307175D01*
X166472127Y-118344647D01*
X166475256Y-118408459D01*
X166479892Y-118480788D01*
X166498628Y-118512754D01*
X166530534Y-118519014D01*
X166561407Y-118512963D01*
X166578090Y-118486383D01*
X166584795Y-118426632D01*
X166585811Y-118353181D01*
X166583794Y-118260561D01*
X166574934Y-118210513D01*
X166555017Y-118190398D01*
X166530534Y-118187349D01*
X166484341Y-118167805D01*
X166475256Y-118132071D01*
X166455713Y-118085879D01*
X166419979Y-118076794D01*
X166373786Y-118057250D01*
X166364701Y-118021516D01*
X166384245Y-117975324D01*
X166419979Y-117966239D01*
X166466172Y-117946695D01*
X166475256Y-117910961D01*
X166585811Y-117910961D01*
X166605355Y-117957154D01*
X166641089Y-117966239D01*
X166687282Y-117946695D01*
X166696366Y-117910961D01*
X166676823Y-117864769D01*
X166641089Y-117855684D01*
X166594896Y-117875228D01*
X166585811Y-117910961D01*
X166475256Y-117910961D01*
X166455713Y-117864769D01*
X166419979Y-117855684D01*
X166373786Y-117875228D01*
X166364701Y-117910961D01*
X166345158Y-117957154D01*
X166309424Y-117966239D01*
X166263231Y-117985783D01*
X166254146Y-118021516D01*
X166234603Y-118067709D01*
X166198869Y-118076794D01*
X166152676Y-118057250D01*
X166143591Y-118021516D01*
X166124048Y-117975324D01*
X166088314Y-117966239D01*
X166042121Y-117946695D01*
X166033036Y-117910961D01*
X166013493Y-117864769D01*
X165977759Y-117855684D01*
X165946885Y-117849633D01*
X165930203Y-117823053D01*
X165923498Y-117763302D01*
X165922482Y-117689852D01*
X165924498Y-117597231D01*
X165933359Y-117547183D01*
X165953276Y-117527068D01*
X165977759Y-117524019D01*
X166023952Y-117504476D01*
X166033036Y-117468742D01*
X166013493Y-117422549D01*
X165977759Y-117413464D01*
X165931566Y-117433008D01*
X165922482Y-117468742D01*
X165902938Y-117514935D01*
X165867204Y-117524019D01*
X165821011Y-117504476D01*
X165811927Y-117468742D01*
X165792383Y-117422549D01*
X165756649Y-117413464D01*
X165720485Y-117422735D01*
X165704501Y-117460207D01*
X165701372Y-117524019D01*
X165706007Y-117596348D01*
X165724743Y-117628315D01*
X165756649Y-117634574D01*
X165792814Y-117643845D01*
X165808797Y-117681317D01*
X165811927Y-117745129D01*
X165816562Y-117817458D01*
X165835298Y-117849425D01*
X165867204Y-117855684D01*
X165913397Y-117875228D01*
X165922482Y-117910961D01*
X165942025Y-117957154D01*
X165977759Y-117966239D01*
X166013924Y-117975510D01*
X166029907Y-118012982D01*
X166033036Y-118076794D01*
X166033036Y-118187349D01*
X165811927Y-118187349D01*
X165811927Y-118297904D01*
X165816562Y-118370233D01*
X165835298Y-118402200D01*
X165867204Y-118408459D01*
X165913397Y-118428002D01*
X165922482Y-118463736D01*
X165942025Y-118509929D01*
X165977759Y-118519014D01*
X166023952Y-118538557D01*
X166033036Y-118574291D01*
X166023765Y-118610456D01*
X165986294Y-118626439D01*
X165922482Y-118629569D01*
X165811927Y-118629569D01*
X165811927Y-118795401D01*
X165809910Y-118888022D01*
X165801050Y-118938069D01*
X165781133Y-118958185D01*
X165756649Y-118961234D01*
X165710456Y-118980777D01*
X165701372Y-119016511D01*
X165681828Y-119062704D01*
X165646094Y-119071788D01*
X165599901Y-119091332D01*
X165590817Y-119127066D01*
X165581546Y-119163230D01*
X165544074Y-119179214D01*
X165480262Y-119182343D01*
X165407933Y-119186979D01*
X165375966Y-119205715D01*
X165369707Y-119237621D01*
X164927487Y-119237621D01*
X164933538Y-119206747D01*
X164960118Y-119190065D01*
X165019869Y-119183360D01*
X165093319Y-119182343D01*
X165259152Y-119182343D01*
X165259152Y-119071788D01*
X165263787Y-118999459D01*
X165282523Y-118967493D01*
X165314429Y-118961234D01*
X165360622Y-118980777D01*
X165369707Y-119016511D01*
X165389250Y-119062704D01*
X165424984Y-119071788D01*
X165471177Y-119052245D01*
X165480262Y-119016511D01*
X165499805Y-118970318D01*
X165535539Y-118961234D01*
X165581732Y-118941690D01*
X165590817Y-118905956D01*
X165610360Y-118859763D01*
X165646094Y-118850679D01*
X165692287Y-118831135D01*
X165701372Y-118795401D01*
X165681828Y-118749208D01*
X165646094Y-118740124D01*
X165599901Y-118720580D01*
X165590817Y-118684846D01*
X165581546Y-118648682D01*
X165544074Y-118632698D01*
X165480262Y-118629569D01*
X165407933Y-118624933D01*
X165375966Y-118606197D01*
X165369707Y-118574291D01*
X165350163Y-118528098D01*
X165314429Y-118519014D01*
X165268236Y-118538557D01*
X165259152Y-118574291D01*
X165249881Y-118610456D01*
X165212409Y-118626439D01*
X165148597Y-118629569D01*
X165076268Y-118624933D01*
X165044301Y-118606197D01*
X165038042Y-118574291D01*
X165057585Y-118528098D01*
X165093319Y-118519014D01*
X165124193Y-118512963D01*
X165140875Y-118486383D01*
X165147581Y-118426632D01*
X165148597Y-118353181D01*
X165148597Y-118187349D01*
X164927487Y-118187349D01*
X164927487Y-118021516D01*
X164929504Y-117928896D01*
X164938364Y-117878848D01*
X164958281Y-117858733D01*
X164982764Y-117855684D01*
X165018929Y-117864955D01*
X165034912Y-117902427D01*
X165038042Y-117966239D01*
X165042677Y-118038568D01*
X165061413Y-118070535D01*
X165093319Y-118076794D01*
X165129484Y-118067523D01*
X165145467Y-118030051D01*
X165148597Y-117966239D01*
X165143961Y-117893910D01*
X165125225Y-117861943D01*
X165093319Y-117855684D01*
X165047127Y-117836140D01*
X165038042Y-117800407D01*
X165018498Y-117754214D01*
X164982764Y-117745129D01*
X164936572Y-117764673D01*
X164927487Y-117800407D01*
X164907943Y-117846599D01*
X164872210Y-117855684D01*
X164826017Y-117836140D01*
X164816932Y-117800407D01*
X164797388Y-117754214D01*
X164761655Y-117745129D01*
X164715462Y-117764673D01*
X164706377Y-117800407D01*
X164686834Y-117846599D01*
X164651100Y-117855684D01*
X164604907Y-117875228D01*
X164595822Y-117910961D01*
X164615366Y-117957154D01*
X164651100Y-117966239D01*
X164687264Y-117975510D01*
X164703247Y-118012982D01*
X164706377Y-118076794D01*
X164711013Y-118149123D01*
X164729749Y-118181090D01*
X164761655Y-118187349D01*
X164797819Y-118196620D01*
X164813802Y-118234092D01*
X164816932Y-118297904D01*
X164812297Y-118370233D01*
X164793561Y-118402200D01*
X164761655Y-118408459D01*
X164725490Y-118417730D01*
X164709507Y-118455202D01*
X164706377Y-118519014D01*
X164711013Y-118591343D01*
X164729749Y-118623309D01*
X164761655Y-118629569D01*
X164797819Y-118638840D01*
X164813802Y-118676312D01*
X164816932Y-118740124D01*
X164812297Y-118812453D01*
X164793561Y-118844419D01*
X164761655Y-118850679D01*
X164715462Y-118831135D01*
X164706377Y-118795401D01*
X164686834Y-118749208D01*
X164651100Y-118740124D01*
X164614935Y-118749395D01*
X164598952Y-118786867D01*
X164595822Y-118850679D01*
X164595822Y-118961234D01*
X164761655Y-118961234D01*
X164854275Y-118959217D01*
X164904323Y-118950357D01*
X164924438Y-118930439D01*
X164927487Y-118905956D01*
X164936758Y-118869792D01*
X164974230Y-118853808D01*
X165038042Y-118850679D01*
X165110371Y-118846043D01*
X165142338Y-118827307D01*
X165148597Y-118795401D01*
X165153213Y-118767859D01*
X165174474Y-118751353D01*
X165223500Y-118743102D01*
X165311409Y-118740327D01*
X165369707Y-118740124D01*
X165479873Y-118741278D01*
X165545899Y-118746593D01*
X165578902Y-118758849D01*
X165590003Y-118780827D01*
X165590817Y-118795401D01*
X165571273Y-118841594D01*
X165535539Y-118850679D01*
X165489346Y-118870222D01*
X165480262Y-118905956D01*
X165460718Y-118952149D01*
X165424984Y-118961234D01*
X165378791Y-118941690D01*
X165369707Y-118905956D01*
X165350163Y-118859763D01*
X165314429Y-118850679D01*
X165268236Y-118870222D01*
X165259152Y-118905956D01*
X165249881Y-118942121D01*
X165212409Y-118958104D01*
X165148597Y-118961234D01*
X165076268Y-118965869D01*
X165044301Y-118984605D01*
X165038042Y-119016511D01*
X165018498Y-119062704D01*
X164982764Y-119071788D01*
X164936572Y-119091332D01*
X164927487Y-119127066D01*
X164907943Y-119173259D01*
X164872210Y-119182343D01*
X164826017Y-119162800D01*
X164816932Y-119127066D01*
X164797388Y-119080873D01*
X164761655Y-119071788D01*
X164715462Y-119091332D01*
X164706377Y-119127066D01*
X164686834Y-119173259D01*
X164651100Y-119182343D01*
X164604907Y-119162800D01*
X164595822Y-119127066D01*
X164576279Y-119080873D01*
X164540545Y-119071788D01*
X164494352Y-119052245D01*
X164485267Y-119016511D01*
X164465724Y-118970318D01*
X164429990Y-118961234D01*
X164383797Y-118941690D01*
X164374712Y-118905956D01*
X164355169Y-118859763D01*
X164319435Y-118850679D01*
X164273242Y-118831135D01*
X164264157Y-118795401D01*
X164244614Y-118749208D01*
X164208880Y-118740124D01*
X164162687Y-118759667D01*
X164153602Y-118795401D01*
X164173146Y-118841594D01*
X164208880Y-118850679D01*
X164255073Y-118870222D01*
X164264157Y-118905956D01*
X164283701Y-118952149D01*
X164319435Y-118961234D01*
X164365628Y-118980777D01*
X164374712Y-119016511D01*
X164355169Y-119062704D01*
X164319435Y-119071788D01*
X164273242Y-119091332D01*
X164264157Y-119127066D01*
X164244614Y-119173259D01*
X164208880Y-119182343D01*
X164162687Y-119201887D01*
X164153602Y-119237621D01*
X164134059Y-119283814D01*
X164098325Y-119292898D01*
X164062160Y-119283627D01*
X164046177Y-119246155D01*
X164043047Y-119182343D01*
X164047683Y-119110014D01*
X164066419Y-119078048D01*
X164098325Y-119071788D01*
X164144518Y-119052245D01*
X164153602Y-119016511D01*
X164134059Y-118970318D01*
X164098325Y-118961234D01*
X164052132Y-118980777D01*
X164043047Y-119016511D01*
X164023504Y-119062704D01*
X163987770Y-119071788D01*
X163951605Y-119081059D01*
X163935622Y-119118531D01*
X163932492Y-119182343D01*
X163927857Y-119254672D01*
X163909121Y-119286639D01*
X163877215Y-119292898D01*
X163841050Y-119302169D01*
X163825067Y-119339641D01*
X163821937Y-119403453D01*
X163826573Y-119475782D01*
X163845309Y-119507749D01*
X163877215Y-119514008D01*
X163923408Y-119494465D01*
X163932492Y-119458731D01*
X163941763Y-119422566D01*
X163979235Y-119406583D01*
X164043047Y-119403453D01*
X164115376Y-119408089D01*
X164147343Y-119426825D01*
X164153602Y-119458731D01*
X164134059Y-119504924D01*
X164098325Y-119514008D01*
X164052132Y-119533552D01*
X164043047Y-119569286D01*
X164023504Y-119615479D01*
X163987770Y-119624563D01*
X163941577Y-119644107D01*
X163932492Y-119679841D01*
X163912949Y-119726034D01*
X163877215Y-119735118D01*
X163831022Y-119715575D01*
X163821937Y-119679841D01*
X163802394Y-119633648D01*
X163766660Y-119624563D01*
X163730495Y-119633834D01*
X163714512Y-119671306D01*
X163711383Y-119735118D01*
X163600828Y-119735118D01*
X163605463Y-119662789D01*
X163624199Y-119630822D01*
X163656105Y-119624563D01*
X163683647Y-119619947D01*
X163700153Y-119598686D01*
X163708404Y-119549660D01*
X163711179Y-119461751D01*
X163711383Y-119403453D01*
X163710228Y-119293287D01*
X163704913Y-119227261D01*
X163692657Y-119194258D01*
X163670679Y-119183157D01*
X163656105Y-119182343D01*
X163609912Y-119162800D01*
X163600828Y-119127066D01*
X163606878Y-119096192D01*
X163633459Y-119079510D01*
X163693210Y-119072805D01*
X163766660Y-119071788D01*
X163859281Y-119069772D01*
X163909328Y-119060911D01*
X163929444Y-119040994D01*
X163932492Y-119016511D01*
X163926442Y-118985637D01*
X163899861Y-118968955D01*
X163840110Y-118962250D01*
X163766660Y-118961234D01*
X163600828Y-118961234D01*
X163600828Y-118740124D01*
X163711383Y-118740124D01*
X163783712Y-118744759D01*
X163815678Y-118763495D01*
X163821937Y-118795401D01*
X163841481Y-118841594D01*
X163877215Y-118850679D01*
X163923408Y-118831135D01*
X163932492Y-118795401D01*
X163941763Y-118759237D01*
X163979235Y-118743253D01*
X164043047Y-118740124D01*
X164153602Y-118740124D01*
X164153602Y-118519014D01*
X164264157Y-118519014D01*
X164336486Y-118523649D01*
X164368453Y-118542385D01*
X164374712Y-118574291D01*
X164355169Y-118620484D01*
X164319435Y-118629569D01*
X164273242Y-118649112D01*
X164264157Y-118684846D01*
X164270208Y-118715720D01*
X164296788Y-118732402D01*
X164356539Y-118739107D01*
X164429990Y-118740124D01*
X164595822Y-118740124D01*
X164595822Y-118519014D01*
X164485267Y-118519014D01*
X164406225Y-118511261D01*
X164375495Y-118486853D01*
X164374712Y-118480143D01*
X164354397Y-118452984D01*
X164319435Y-118455728D01*
X164275154Y-118455095D01*
X164264157Y-118439321D01*
X164239356Y-118419408D01*
X164175855Y-118409033D01*
X164153602Y-118408459D01*
X164081273Y-118413094D01*
X164049307Y-118431830D01*
X164043047Y-118463736D01*
X164023504Y-118509929D01*
X163987770Y-118519014D01*
X163941577Y-118538557D01*
X163932492Y-118574291D01*
X163926442Y-118605165D01*
X163899861Y-118621847D01*
X163840110Y-118628552D01*
X163766660Y-118629569D01*
X163600828Y-118629569D01*
X163600828Y-118463736D01*
X163711383Y-118463736D01*
X163730926Y-118509929D01*
X163766660Y-118519014D01*
X163812853Y-118499470D01*
X163821937Y-118463736D01*
X163802394Y-118417543D01*
X163766660Y-118408459D01*
X163720467Y-118428002D01*
X163711383Y-118463736D01*
X163600828Y-118463736D01*
X163600828Y-118242626D01*
X163711383Y-118242626D01*
X163730926Y-118288819D01*
X163766660Y-118297904D01*
X163812853Y-118278360D01*
X163821937Y-118242626D01*
X163802394Y-118196434D01*
X163766660Y-118187349D01*
X163720467Y-118206892D01*
X163711383Y-118242626D01*
X163600828Y-118242626D01*
X163600828Y-118076794D01*
X163711383Y-118076794D01*
X163783712Y-118081429D01*
X163815678Y-118100165D01*
X163821937Y-118132071D01*
X163841481Y-118178264D01*
X163877215Y-118187349D01*
X163923408Y-118167805D01*
X163932492Y-118132071D01*
X163941763Y-118095907D01*
X163979235Y-118079924D01*
X164043047Y-118076794D01*
X164115376Y-118081429D01*
X164147343Y-118100165D01*
X164153602Y-118132071D01*
X164144331Y-118168236D01*
X164106859Y-118184219D01*
X164043047Y-118187349D01*
X163970718Y-118191984D01*
X163938752Y-118210720D01*
X163932492Y-118242626D01*
X163912949Y-118288819D01*
X163877215Y-118297904D01*
X163831022Y-118317447D01*
X163821937Y-118353181D01*
X163831208Y-118389346D01*
X163868680Y-118405329D01*
X163932492Y-118408459D01*
X164004821Y-118403823D01*
X164036788Y-118385087D01*
X164043047Y-118353181D01*
X164052318Y-118317017D01*
X164089790Y-118301033D01*
X164153602Y-118297904D01*
X164264157Y-118297904D01*
X164264157Y-118226181D01*
X164293035Y-118226181D01*
X164293118Y-118325507D01*
X164297183Y-118378552D01*
X164308513Y-118394309D01*
X164330388Y-118381768D01*
X164345081Y-118368804D01*
X164382574Y-118340007D01*
X164407805Y-118347231D01*
X164437864Y-118396995D01*
X164442526Y-118405978D01*
X164475596Y-118462940D01*
X164498869Y-118490816D01*
X164500769Y-118491375D01*
X164500953Y-118471145D01*
X164486240Y-118437915D01*
X164459798Y-118368742D01*
X164474215Y-118330773D01*
X164500008Y-118320659D01*
X164512861Y-118303425D01*
X164490637Y-118260651D01*
X164430437Y-118187115D01*
X164418330Y-118173529D01*
X164294273Y-118035336D01*
X164293035Y-118226181D01*
X164264157Y-118226181D01*
X164264157Y-118145891D01*
X164267721Y-118062632D01*
X164276915Y-118007417D01*
X164285830Y-117993878D01*
X164317989Y-118013060D01*
X164373592Y-118062293D01*
X164440765Y-118129101D01*
X164507633Y-118201013D01*
X164562322Y-118265555D01*
X164592957Y-118310254D01*
X164595822Y-118319502D01*
X164573539Y-118349338D01*
X164554364Y-118353181D01*
X164517583Y-118368105D01*
X164512906Y-118380820D01*
X164537203Y-118399088D01*
X164596946Y-118408220D01*
X164609641Y-118408459D01*
X164671578Y-118405112D01*
X164699103Y-118384446D01*
X164706161Y-118330526D01*
X164706377Y-118297904D01*
X164701742Y-118225575D01*
X164683006Y-118193608D01*
X164651100Y-118187349D01*
X164604907Y-118167805D01*
X164595822Y-118132071D01*
X164576279Y-118085879D01*
X164540545Y-118076794D01*
X164504380Y-118067523D01*
X164488397Y-118030051D01*
X164485267Y-117966239D01*
X164489903Y-117893910D01*
X164508639Y-117861943D01*
X164540545Y-117855684D01*
X164586737Y-117836140D01*
X164595822Y-117800407D01*
X164615366Y-117754214D01*
X164651100Y-117745129D01*
X164687264Y-117735858D01*
X164703247Y-117698386D01*
X164706377Y-117634574D01*
X164927487Y-117634574D01*
X165038042Y-117634574D01*
X165110371Y-117639210D01*
X165142338Y-117657946D01*
X165148597Y-117689852D01*
X165168140Y-117736044D01*
X165203874Y-117745129D01*
X165250067Y-117725586D01*
X165259152Y-117689852D01*
X165239608Y-117643659D01*
X165203874Y-117634574D01*
X165157682Y-117615031D01*
X165148597Y-117579297D01*
X165129053Y-117533104D01*
X165093319Y-117524019D01*
X165047127Y-117504476D01*
X165038042Y-117468742D01*
X165018498Y-117422549D01*
X164982764Y-117413464D01*
X164946600Y-117422735D01*
X164930617Y-117460207D01*
X164927487Y-117524019D01*
X164927487Y-117634574D01*
X164706377Y-117634574D01*
X164701742Y-117562245D01*
X164683006Y-117530278D01*
X164651100Y-117524019D01*
X164604907Y-117504476D01*
X164595822Y-117468742D01*
X164615366Y-117422549D01*
X164651100Y-117413464D01*
X164697292Y-117433008D01*
X164706377Y-117468742D01*
X164725921Y-117514935D01*
X164761655Y-117524019D01*
X164797819Y-117514748D01*
X164813802Y-117477276D01*
X164816932Y-117413464D01*
X164816932Y-117302909D01*
X164651100Y-117302909D01*
X164558479Y-117300892D01*
X164508431Y-117292032D01*
X164488316Y-117272115D01*
X164485267Y-117247632D01*
X164489883Y-117220090D01*
X164511145Y-117203584D01*
X164560171Y-117195333D01*
X164648080Y-117192558D01*
X164706377Y-117192354D01*
X164816544Y-117193508D01*
X164882569Y-117198824D01*
X164915573Y-117211080D01*
X164926673Y-117233057D01*
X164927487Y-117247632D01*
X164947031Y-117293825D01*
X164982764Y-117302909D01*
X165028957Y-117283366D01*
X165038042Y-117247632D01*
X165044093Y-117216758D01*
X165070673Y-117200076D01*
X165130424Y-117193371D01*
X165203874Y-117192354D01*
X165369707Y-117192354D01*
X165369707Y-117302909D01*
X165365071Y-117375238D01*
X165346335Y-117407205D01*
X165314429Y-117413464D01*
X165268236Y-117433008D01*
X165259152Y-117468742D01*
X165278695Y-117514935D01*
X165314429Y-117524019D01*
X165350594Y-117533290D01*
X165366577Y-117570762D01*
X165369707Y-117634574D01*
X165365071Y-117706903D01*
X165346335Y-117738870D01*
X165314429Y-117745129D01*
X165283556Y-117751180D01*
X165266873Y-117777760D01*
X165260168Y-117837511D01*
X165259152Y-117910961D01*
X165259152Y-118076794D01*
X165369707Y-118076794D01*
X165442036Y-118081429D01*
X165474002Y-118100165D01*
X165480262Y-118132071D01*
X165470991Y-118168236D01*
X165433519Y-118184219D01*
X165369707Y-118187349D01*
X165259152Y-118187349D01*
X165259152Y-118297904D01*
X165263787Y-118370233D01*
X165282523Y-118402200D01*
X165314429Y-118408459D01*
X165360622Y-118428002D01*
X165369707Y-118463736D01*
X165389250Y-118509929D01*
X165424984Y-118519014D01*
X165471177Y-118499470D01*
X165480262Y-118463736D01*
X165499805Y-118417543D01*
X165535539Y-118408459D01*
X165581732Y-118428002D01*
X165590817Y-118463736D01*
X165600088Y-118499901D01*
X165637560Y-118515884D01*
X165701372Y-118519014D01*
X165773701Y-118514378D01*
X165805667Y-118495642D01*
X165811927Y-118463736D01*
X165792383Y-118417543D01*
X165756649Y-118408459D01*
X165725776Y-118402408D01*
X165709093Y-118375828D01*
X165702388Y-118316077D01*
X165701372Y-118242626D01*
X165701372Y-118076794D01*
X165811927Y-118076794D01*
X165884256Y-118072158D01*
X165916222Y-118053422D01*
X165922482Y-118021516D01*
X165902938Y-117975324D01*
X165867204Y-117966239D01*
X165821011Y-117946695D01*
X165811927Y-117910961D01*
X165792383Y-117864769D01*
X165756649Y-117855684D01*
X165710456Y-117875228D01*
X165701372Y-117910961D01*
X165681828Y-117957154D01*
X165646094Y-117966239D01*
X165599901Y-117946695D01*
X165590817Y-117910961D01*
X165610360Y-117864769D01*
X165646094Y-117855684D01*
X165682259Y-117846413D01*
X165698242Y-117808941D01*
X165701372Y-117745129D01*
X165696736Y-117672800D01*
X165678000Y-117640833D01*
X165646094Y-117634574D01*
X165599901Y-117654118D01*
X165590817Y-117689852D01*
X165571273Y-117736044D01*
X165535539Y-117745129D01*
X165499375Y-117735858D01*
X165483391Y-117698386D01*
X165480262Y-117634574D01*
X165484897Y-117562245D01*
X165503633Y-117530278D01*
X165535539Y-117524019D01*
X165581732Y-117504476D01*
X165590817Y-117468742D01*
X165571273Y-117422549D01*
X165535539Y-117413464D01*
X165499375Y-117404193D01*
X165483391Y-117366721D01*
X165480262Y-117302909D01*
X165484897Y-117230580D01*
X165503633Y-117198614D01*
X165535539Y-117192354D01*
X165571704Y-117201625D01*
X165587687Y-117239097D01*
X165590817Y-117302909D01*
X165595452Y-117375238D01*
X165614188Y-117407205D01*
X165646094Y-117413464D01*
X165692287Y-117393921D01*
X165701372Y-117358187D01*
X166143591Y-117358187D01*
X166163135Y-117404380D01*
X166198869Y-117413464D01*
X166245062Y-117393921D01*
X166254146Y-117358187D01*
X166234603Y-117311994D01*
X166198869Y-117302909D01*
X166152676Y-117322453D01*
X166143591Y-117358187D01*
X165701372Y-117358187D01*
X165720915Y-117311994D01*
X165756649Y-117302909D01*
X165802842Y-117283366D01*
X165811927Y-117247632D01*
X165821198Y-117211467D01*
X165858669Y-117195484D01*
X165922482Y-117192354D01*
X165994811Y-117196990D01*
X166026777Y-117215726D01*
X166033036Y-117247632D01*
X166052580Y-117293825D01*
X166088314Y-117302909D01*
X166134507Y-117283366D01*
X166143591Y-117247632D01*
X166149642Y-117216758D01*
X166176223Y-117200076D01*
X166235974Y-117193371D01*
X166309424Y-117192354D01*
X166402045Y-117194371D01*
X166452092Y-117203231D01*
X166472208Y-117223148D01*
X166475256Y-117247632D01*
X166484527Y-117283796D01*
X166521999Y-117299780D01*
X166585811Y-117302909D01*
X166658140Y-117307545D01*
X166690107Y-117326281D01*
X166696366Y-117358187D01*
X166715910Y-117404380D01*
X166751644Y-117413464D01*
X166787808Y-117422735D01*
X166803792Y-117460207D01*
X166806921Y-117524019D01*
X166802286Y-117596348D01*
X166783550Y-117628315D01*
X166751644Y-117634574D01*
X166715479Y-117625303D01*
X166699496Y-117587831D01*
X166696366Y-117524019D01*
X166696366Y-117413464D01*
X166585811Y-117413464D01*
X166513482Y-117408829D01*
X166481516Y-117390093D01*
X166475256Y-117358187D01*
X166455713Y-117311994D01*
X166419979Y-117302909D01*
X166373786Y-117322453D01*
X166364701Y-117358187D01*
X166345158Y-117404380D01*
X166309424Y-117413464D01*
X166263231Y-117433008D01*
X166254146Y-117468742D01*
X166244875Y-117504906D01*
X166207403Y-117520890D01*
X166143591Y-117524019D01*
X166033036Y-117524019D01*
X166033036Y-117689852D01*
X166035053Y-117782472D01*
X166043914Y-117832520D01*
X166063831Y-117852635D01*
X166088314Y-117855684D01*
X166134507Y-117875228D01*
X166143591Y-117910961D01*
X166163135Y-117957154D01*
X166198869Y-117966239D01*
X166235033Y-117956968D01*
X166251017Y-117919496D01*
X166254146Y-117855684D01*
X166249511Y-117783355D01*
X166230775Y-117751388D01*
X166198869Y-117745129D01*
X166152676Y-117725586D01*
X166143591Y-117689852D01*
X166152862Y-117653687D01*
X166190334Y-117637704D01*
X166254146Y-117634574D01*
X166326475Y-117629939D01*
X166358442Y-117611203D01*
X166364701Y-117579297D01*
X166384245Y-117533104D01*
X166419979Y-117524019D01*
X166466172Y-117543563D01*
X166475256Y-117579297D01*
X166455713Y-117625489D01*
X166419979Y-117634574D01*
X166373786Y-117654118D01*
X166364701Y-117689852D01*
X166370752Y-117720725D01*
X166397332Y-117737408D01*
X166457084Y-117744113D01*
X166530534Y-117745129D01*
X166623155Y-117747146D01*
X166673202Y-117756006D01*
X166693317Y-117775923D01*
X166696366Y-117800407D01*
X166715910Y-117846599D01*
X166751644Y-117855684D01*
X166797836Y-117875228D01*
X166806921Y-117910961D01*
X166787378Y-117957154D01*
X166751644Y-117966239D01*
X166715479Y-117975510D01*
X166699496Y-118012982D01*
X166696366Y-118076794D01*
X166701002Y-118149123D01*
X166719738Y-118181090D01*
X166751644Y-118187349D01*
X166787808Y-118196620D01*
X166803792Y-118234092D01*
X166806921Y-118297904D01*
X166802286Y-118370233D01*
X166783550Y-118402200D01*
X166751644Y-118408459D01*
X166705451Y-118428002D01*
X166696366Y-118463736D01*
X166702417Y-118494610D01*
X166728997Y-118511292D01*
X166788748Y-118517997D01*
X166862199Y-118519014D01*
X166954819Y-118516997D01*
X167004867Y-118508137D01*
X167024982Y-118488220D01*
X167028031Y-118463736D01*
X167008488Y-118417543D01*
X166972754Y-118408459D01*
X166926561Y-118388915D01*
X166917476Y-118353181D01*
X166937020Y-118306988D01*
X166972754Y-118297904D01*
X167018946Y-118278360D01*
X167028031Y-118242626D01*
X167008488Y-118196434D01*
X166972754Y-118187349D01*
X166926561Y-118167805D01*
X166917476Y-118132071D01*
X166937020Y-118085879D01*
X166972754Y-118076794D01*
X167018946Y-118096337D01*
X167028031Y-118132071D01*
X167047575Y-118178264D01*
X167083309Y-118187349D01*
X167129501Y-118206892D01*
X167138586Y-118242626D01*
X167119042Y-118288819D01*
X167083309Y-118297904D01*
X167037116Y-118317447D01*
X167028031Y-118353181D01*
X167047575Y-118399374D01*
X167083309Y-118408459D01*
X167129501Y-118428002D01*
X167138586Y-118463736D01*
X167158130Y-118509929D01*
X167193863Y-118519014D01*
X167224737Y-118512963D01*
X167241420Y-118486383D01*
X167248125Y-118426632D01*
X167249141Y-118353181D01*
X167249141Y-118187349D01*
X167359696Y-118187349D01*
X167432025Y-118191984D01*
X167463992Y-118210720D01*
X167470251Y-118242626D01*
X167489794Y-118288819D01*
X167525528Y-118297904D01*
X167561693Y-118288633D01*
X167577676Y-118251161D01*
X167580806Y-118187349D01*
X167585441Y-118115020D01*
X167604177Y-118083053D01*
X167636083Y-118076794D01*
X167666957Y-118082845D01*
X167683639Y-118109425D01*
X167690345Y-118169176D01*
X167691361Y-118242626D01*
X167689344Y-118335247D01*
X167680484Y-118385295D01*
X167660567Y-118405410D01*
X167636083Y-118408459D01*
X167589890Y-118428002D01*
X167580806Y-118463736D01*
X167600349Y-118509929D01*
X167636083Y-118519014D01*
X167655735Y-118521370D01*
X167670078Y-118533442D01*
X167679948Y-118562734D01*
X167686177Y-118616751D01*
X167689599Y-118702998D01*
X167691049Y-118828979D01*
X167691360Y-119002199D01*
X167691361Y-119016511D01*
X167691361Y-119514008D01*
X167580806Y-119514008D01*
X167508477Y-119518644D01*
X167476510Y-119537380D01*
X167470251Y-119569286D01*
X167479522Y-119605450D01*
X167516994Y-119621434D01*
X167580806Y-119624563D01*
X167691361Y-119624563D01*
X167691361Y-120122061D01*
X167691099Y-120298925D01*
X167689758Y-120428016D01*
X167686503Y-120516840D01*
X167680501Y-120572901D01*
X167670918Y-120603704D01*
X167656920Y-120616752D01*
X167637674Y-120619552D01*
X167636083Y-120619558D01*
X167589890Y-120600014D01*
X167580806Y-120564280D01*
X167571535Y-120528116D01*
X167534063Y-120512132D01*
X167470251Y-120509003D01*
X167397922Y-120513638D01*
X167365955Y-120532374D01*
X167359696Y-120564280D01*
X167340152Y-120610473D01*
X167304418Y-120619558D01*
X167268254Y-120628829D01*
X167252271Y-120666301D01*
X167249141Y-120730113D01*
X167253776Y-120802442D01*
X167272512Y-120834408D01*
X167304418Y-120840668D01*
X167350611Y-120821124D01*
X167359696Y-120785390D01*
X167379239Y-120739197D01*
X167414973Y-120730113D01*
X167461166Y-120749656D01*
X167470251Y-120785390D01*
X167479522Y-120821555D01*
X167516994Y-120837538D01*
X167580806Y-120840668D01*
X167691361Y-120840668D01*
X167691361Y-121061778D01*
X167359696Y-121061778D01*
X167359696Y-121282887D01*
X167138586Y-121282887D01*
X167138586Y-120951223D01*
X167028031Y-120951223D01*
X166955702Y-120955858D01*
X166923735Y-120974594D01*
X166917476Y-121006500D01*
X166937020Y-121052693D01*
X166972754Y-121061778D01*
X167018946Y-121081321D01*
X167028031Y-121117055D01*
X167018760Y-121153220D01*
X166981288Y-121169203D01*
X166917476Y-121172333D01*
X166845147Y-121176968D01*
X166813180Y-121195704D01*
X166806921Y-121227610D01*
X166800870Y-121258484D01*
X166774290Y-121275166D01*
X166714539Y-121281871D01*
X166641089Y-121282887D01*
X166548468Y-121280871D01*
X166498421Y-121272010D01*
X166478305Y-121252093D01*
X166475256Y-121227610D01*
X166481307Y-121196736D01*
X166507887Y-121180054D01*
X166567638Y-121173349D01*
X166641089Y-121172333D01*
X166806921Y-121172333D01*
X166806921Y-120895945D01*
X167138586Y-120895945D01*
X167158130Y-120942138D01*
X167193863Y-120951223D01*
X167240056Y-120931679D01*
X167249141Y-120895945D01*
X167229597Y-120849752D01*
X167193863Y-120840668D01*
X167147671Y-120860211D01*
X167138586Y-120895945D01*
X166806921Y-120895945D01*
X166806921Y-120840668D01*
X166696366Y-120840668D01*
G37*
G36*
X165922482Y-121282887D02*
G01*
X165756649Y-121282887D01*
X165664028Y-121280871D01*
X165613981Y-121272010D01*
X165593865Y-121252093D01*
X165590817Y-121227610D01*
X165571273Y-121181417D01*
X165535539Y-121172333D01*
X165489346Y-121152789D01*
X165480262Y-121117055D01*
X165499805Y-121070862D01*
X165535539Y-121061778D01*
X165581732Y-121081321D01*
X165590817Y-121117055D01*
X165610360Y-121163248D01*
X165646094Y-121172333D01*
X165692287Y-121152789D01*
X165701372Y-121117055D01*
X165710643Y-121080891D01*
X165748115Y-121064907D01*
X165811927Y-121061778D01*
X165922482Y-121061778D01*
X165922482Y-121282887D01*
G37*
G36*
X167682276Y-121191876D02*
G01*
X167691361Y-121227610D01*
X167671817Y-121273803D01*
X167636083Y-121282887D01*
X167589890Y-121263344D01*
X167580806Y-121227610D01*
X167600349Y-121181417D01*
X167636083Y-121172333D01*
X167682276Y-121191876D01*
G37*
G36*
X165028957Y-120970766D02*
G01*
X165038042Y-121006500D01*
X165018498Y-121052693D01*
X164982764Y-121061778D01*
X164936572Y-121042234D01*
X164927487Y-121006500D01*
X164947031Y-120960307D01*
X164982764Y-120951223D01*
X165028957Y-120970766D01*
G37*
G36*
X164374712Y-117192354D02*
G01*
X164374712Y-117966239D01*
X163600828Y-117966239D01*
X163600828Y-117855684D01*
X163711383Y-117855684D01*
X164264157Y-117855684D01*
X164264157Y-117302909D01*
X163711383Y-117302909D01*
X163711383Y-117855684D01*
X163600828Y-117855684D01*
X163600828Y-117192354D01*
X164374712Y-117192354D01*
G37*
G36*
X165471177Y-117875228D02*
G01*
X165480262Y-117910961D01*
X165460718Y-117957154D01*
X165424984Y-117966239D01*
X165378791Y-117946695D01*
X165369707Y-117910961D01*
X165389250Y-117864769D01*
X165424984Y-117855684D01*
X165471177Y-117875228D01*
G37*
G36*
X167718999Y-117192354D02*
G01*
X167718999Y-117966239D01*
X166917476Y-117966239D01*
X166917476Y-117855684D01*
X167055670Y-117855684D01*
X167580806Y-117855684D01*
X167580806Y-117302909D01*
X167055670Y-117302909D01*
X167055670Y-117855684D01*
X166917476Y-117855684D01*
X166917476Y-117192354D01*
X167718999Y-117192354D01*
G37*
G36*
X164153602Y-121089416D02*
G01*
X163794299Y-121089416D01*
X163794299Y-120730113D01*
X164153602Y-120730113D01*
X164153602Y-121089416D01*
G37*
G36*
X167018946Y-120528546D02*
G01*
X167028031Y-120564280D01*
X167008488Y-120610473D01*
X166972754Y-120619558D01*
X166926561Y-120600014D01*
X166917476Y-120564280D01*
X166937020Y-120518087D01*
X166972754Y-120509003D01*
X167018946Y-120528546D01*
G37*
G36*
X164807847Y-119975772D02*
G01*
X164816932Y-120011506D01*
X164797388Y-120057698D01*
X164761655Y-120066783D01*
X164715462Y-120047239D01*
X164706377Y-120011506D01*
X164725921Y-119965313D01*
X164761655Y-119956228D01*
X164807847Y-119975772D01*
G37*
G36*
X164365628Y-119422997D02*
G01*
X164374712Y-119458731D01*
X164355169Y-119504924D01*
X164319435Y-119514008D01*
X164273242Y-119533552D01*
X164264157Y-119569286D01*
X164283701Y-119615479D01*
X164319435Y-119624563D01*
X164365628Y-119644107D01*
X164374712Y-119679841D01*
X164394256Y-119726034D01*
X164429990Y-119735118D01*
X164476183Y-119715575D01*
X164485267Y-119679841D01*
X164504811Y-119633648D01*
X164540545Y-119624563D01*
X164586737Y-119644107D01*
X164595822Y-119679841D01*
X164576279Y-119726034D01*
X164540545Y-119735118D01*
X164494352Y-119754662D01*
X164485267Y-119790396D01*
X164504811Y-119836588D01*
X164540545Y-119845673D01*
X164586737Y-119865217D01*
X164595822Y-119900951D01*
X164589771Y-119931824D01*
X164563191Y-119948507D01*
X164503440Y-119955212D01*
X164429990Y-119956228D01*
X164337369Y-119954211D01*
X164287322Y-119945351D01*
X164267206Y-119925434D01*
X164264157Y-119900951D01*
X164283701Y-119854758D01*
X164319435Y-119845673D01*
X164365628Y-119826130D01*
X164374712Y-119790396D01*
X164368661Y-119759522D01*
X164342081Y-119742840D01*
X164282330Y-119736134D01*
X164208880Y-119735118D01*
X164116259Y-119733101D01*
X164066212Y-119724241D01*
X164046096Y-119704324D01*
X164043047Y-119679841D01*
X164062591Y-119633648D01*
X164098325Y-119624563D01*
X164144518Y-119605020D01*
X164153602Y-119569286D01*
X164173146Y-119523093D01*
X164208880Y-119514008D01*
X164255073Y-119494465D01*
X164264157Y-119458731D01*
X164283701Y-119412538D01*
X164319435Y-119403453D01*
X164365628Y-119422997D01*
G37*
G36*
X164908374Y-119302169D02*
G01*
X164924357Y-119339641D01*
X164927487Y-119403453D01*
X164922851Y-119475782D01*
X164904116Y-119507749D01*
X164872210Y-119514008D01*
X164826017Y-119533552D01*
X164816932Y-119569286D01*
X164797388Y-119615479D01*
X164761655Y-119624563D01*
X164715462Y-119605020D01*
X164706377Y-119569286D01*
X164725921Y-119523093D01*
X164761655Y-119514008D01*
X164797819Y-119504737D01*
X164813802Y-119467265D01*
X164816932Y-119403453D01*
X164821568Y-119331124D01*
X164840303Y-119299158D01*
X164872210Y-119292898D01*
X164908374Y-119302169D01*
G37*
G36*
X164447041Y-119186979D02*
G01*
X164479008Y-119205715D01*
X164485267Y-119237621D01*
X164494538Y-119273785D01*
X164532010Y-119289769D01*
X164595822Y-119292898D01*
X164668151Y-119297534D01*
X164700118Y-119316270D01*
X164706377Y-119348176D01*
X164697106Y-119384340D01*
X164659634Y-119400324D01*
X164595822Y-119403453D01*
X164523493Y-119398818D01*
X164491526Y-119380082D01*
X164485267Y-119348176D01*
X164475996Y-119312011D01*
X164438524Y-119296028D01*
X164374712Y-119292898D01*
X164302383Y-119288263D01*
X164270417Y-119269527D01*
X164264157Y-119237621D01*
X164273428Y-119201456D01*
X164310900Y-119185473D01*
X164374712Y-119182343D01*
X164447041Y-119186979D01*
G37*
G36*
X165028957Y-118649112D02*
G01*
X165038042Y-118684846D01*
X165018498Y-118731039D01*
X164982764Y-118740124D01*
X164936572Y-118720580D01*
X164927487Y-118684846D01*
X164947031Y-118638653D01*
X164982764Y-118629569D01*
X165028957Y-118649112D01*
G37*
G36*
X165028957Y-118317447D02*
G01*
X165038042Y-118353181D01*
X165018498Y-118399374D01*
X164982764Y-118408459D01*
X164936572Y-118388915D01*
X164927487Y-118353181D01*
X164947031Y-118306988D01*
X164982764Y-118297904D01*
X165028957Y-118317447D01*
G37*
G36*
X164807847Y-117875228D02*
G01*
X164816932Y-117910961D01*
X164797388Y-117957154D01*
X164761655Y-117966239D01*
X164715462Y-117946695D01*
X164706377Y-117910961D01*
X164725921Y-117864769D01*
X164761655Y-117855684D01*
X164807847Y-117875228D01*
G37*
G36*
X167240056Y-119865217D02*
G01*
X167249141Y-119900951D01*
X167268684Y-119947143D01*
X167304418Y-119956228D01*
X167350611Y-119975772D01*
X167359696Y-120011506D01*
X167340152Y-120057698D01*
X167304418Y-120066783D01*
X167258226Y-120047239D01*
X167249141Y-120011506D01*
X167229597Y-119965313D01*
X167193863Y-119956228D01*
X167147671Y-119936685D01*
X167138586Y-119900951D01*
X167158130Y-119854758D01*
X167193863Y-119845673D01*
X167240056Y-119865217D01*
G37*
G36*
X166198869Y-119403453D02*
G01*
X166152676Y-119383910D01*
X166143591Y-119348176D01*
X166163135Y-119301983D01*
X166198869Y-119292898D01*
X166245062Y-119273355D01*
X166254146Y-119237621D01*
X166244875Y-119201456D01*
X166207403Y-119185473D01*
X166143591Y-119182343D01*
X166071262Y-119177708D01*
X166039296Y-119158972D01*
X166033036Y-119127066D01*
X166013493Y-119080873D01*
X165977759Y-119071788D01*
X165941594Y-119081059D01*
X165925611Y-119118531D01*
X165922482Y-119182343D01*
X165922482Y-119292898D01*
X165811927Y-119292898D01*
X165739598Y-119288263D01*
X165707631Y-119269527D01*
X165701372Y-119237621D01*
X165720915Y-119191428D01*
X165756649Y-119182343D01*
X165802842Y-119162800D01*
X165811927Y-119127066D01*
X165831470Y-119080873D01*
X165867204Y-119071788D01*
X165903369Y-119062517D01*
X165919352Y-119025046D01*
X165922482Y-118961234D01*
X165922482Y-118850679D01*
X166033036Y-118850679D01*
X166105366Y-118846043D01*
X166137332Y-118827307D01*
X166143591Y-118795401D01*
X166124048Y-118749208D01*
X166088314Y-118740124D01*
X166042121Y-118720580D01*
X166033036Y-118684846D01*
X166052580Y-118638653D01*
X166088314Y-118629569D01*
X166134507Y-118610025D01*
X166143591Y-118574291D01*
X166163135Y-118528098D01*
X166198869Y-118519014D01*
X166235033Y-118528285D01*
X166251017Y-118565757D01*
X166254146Y-118629569D01*
X166258782Y-118701898D01*
X166277518Y-118733864D01*
X166309424Y-118740124D01*
X166355617Y-118759667D01*
X166364701Y-118795401D01*
X166345158Y-118841594D01*
X166309424Y-118850679D01*
X166263231Y-118870222D01*
X166254146Y-118905956D01*
X166273690Y-118952149D01*
X166309424Y-118961234D01*
X166355617Y-118980777D01*
X166364701Y-119016511D01*
X166345158Y-119062704D01*
X166309424Y-119071788D01*
X166263231Y-119091332D01*
X166254146Y-119127066D01*
X166273690Y-119173259D01*
X166309424Y-119182343D01*
X166355617Y-119201887D01*
X166364701Y-119237621D01*
X166345158Y-119283814D01*
X166309424Y-119292898D01*
X166263231Y-119312442D01*
X166254146Y-119348176D01*
X166263417Y-119384340D01*
X166300889Y-119400324D01*
X166364701Y-119403453D01*
X166437030Y-119398818D01*
X166468997Y-119380082D01*
X166475256Y-119348176D01*
X166494800Y-119301983D01*
X166530534Y-119292898D01*
X166576727Y-119273355D01*
X166585811Y-119237621D01*
X166605355Y-119191428D01*
X166641089Y-119182343D01*
X166687282Y-119201887D01*
X166696366Y-119237621D01*
X166705637Y-119273785D01*
X166743109Y-119289769D01*
X166806921Y-119292898D01*
X166879250Y-119288263D01*
X166911217Y-119269527D01*
X166917476Y-119237621D01*
X166937020Y-119191428D01*
X166972754Y-119182343D01*
X167018946Y-119201887D01*
X167028031Y-119237621D01*
X167008488Y-119283814D01*
X166972754Y-119292898D01*
X166926561Y-119312442D01*
X166917476Y-119348176D01*
X166926747Y-119384340D01*
X166964219Y-119400324D01*
X167028031Y-119403453D01*
X167138586Y-119403453D01*
X167138586Y-119292898D01*
X167143222Y-119220569D01*
X167161957Y-119188603D01*
X167193863Y-119182343D01*
X167240056Y-119162800D01*
X167249141Y-119127066D01*
X167268684Y-119080873D01*
X167304418Y-119071788D01*
X167340583Y-119062517D01*
X167356566Y-119025046D01*
X167359696Y-118961234D01*
X167364331Y-118888904D01*
X167383067Y-118856938D01*
X167414973Y-118850679D01*
X167445847Y-118856729D01*
X167462529Y-118883310D01*
X167469235Y-118943061D01*
X167470251Y-119016511D01*
X167468234Y-119109132D01*
X167459374Y-119159179D01*
X167439457Y-119179295D01*
X167414973Y-119182343D01*
X167368781Y-119201887D01*
X167359696Y-119237621D01*
X167340152Y-119283814D01*
X167304418Y-119292898D01*
X167258226Y-119312442D01*
X167249141Y-119348176D01*
X167229597Y-119394369D01*
X167193863Y-119403453D01*
X167147671Y-119422997D01*
X167138586Y-119458731D01*
X167129315Y-119494895D01*
X167091843Y-119510879D01*
X167028031Y-119514008D01*
X166955702Y-119509373D01*
X166923735Y-119490637D01*
X166917476Y-119458731D01*
X166897933Y-119412538D01*
X166862199Y-119403453D01*
X166816006Y-119422997D01*
X166806921Y-119458731D01*
X166797650Y-119494895D01*
X166760178Y-119510879D01*
X166696366Y-119514008D01*
X166624037Y-119518644D01*
X166592070Y-119537380D01*
X166585811Y-119569286D01*
X166566268Y-119615479D01*
X166530534Y-119624563D01*
X166484341Y-119605020D01*
X166475256Y-119569286D01*
X166465985Y-119533121D01*
X166428513Y-119517138D01*
X166364701Y-119514008D01*
X166292372Y-119509373D01*
X166260406Y-119490637D01*
X166254146Y-119458731D01*
X166475256Y-119458731D01*
X166494800Y-119504924D01*
X166530534Y-119514008D01*
X166576727Y-119494465D01*
X166585811Y-119458731D01*
X166566268Y-119412538D01*
X166530534Y-119403453D01*
X166484341Y-119422997D01*
X166475256Y-119458731D01*
X166254146Y-119458731D01*
X166234603Y-119412538D01*
X166198869Y-119403453D01*
G37*
G36*
X166696366Y-118905956D02*
G01*
X166694349Y-118998577D01*
X166685489Y-119048624D01*
X166665572Y-119068740D01*
X166641089Y-119071788D01*
X166604924Y-119062517D01*
X166588941Y-119025046D01*
X166585811Y-118961234D01*
X166581176Y-118888904D01*
X166562440Y-118856938D01*
X166530534Y-118850679D01*
X166484341Y-118831135D01*
X166475256Y-118795401D01*
X166484527Y-118759237D01*
X166521999Y-118743253D01*
X166585811Y-118740124D01*
X166696366Y-118740124D01*
X166696366Y-118905956D01*
G37*
G36*
X166345588Y-118086065D02*
G01*
X166361572Y-118123537D01*
X166364701Y-118187349D01*
X166360066Y-118259678D01*
X166341330Y-118291645D01*
X166309424Y-118297904D01*
X166263231Y-118317447D01*
X166254146Y-118353181D01*
X166244875Y-118389346D01*
X166207403Y-118405329D01*
X166143591Y-118408459D01*
X166071262Y-118403823D01*
X166039296Y-118385087D01*
X166033036Y-118353181D01*
X166052580Y-118306988D01*
X166088314Y-118297904D01*
X166134507Y-118278360D01*
X166143591Y-118242626D01*
X166163135Y-118196434D01*
X166198869Y-118187349D01*
X166245062Y-118167805D01*
X166254146Y-118132071D01*
X166273690Y-118085879D01*
X166309424Y-118076794D01*
X166345588Y-118086065D01*
G37*
G36*
X164153602Y-117745129D02*
G01*
X163794299Y-117745129D01*
X163794299Y-117385825D01*
X164153602Y-117385825D01*
X164153602Y-117745129D01*
G37*
G36*
X167497890Y-117745129D02*
G01*
X167138586Y-117745129D01*
X167138586Y-117385825D01*
X167497890Y-117385825D01*
X167497890Y-117745129D01*
G37*
D13*
%TO.C,R2*%
X194580000Y-110000000D02*
X191270000Y-110000000D01*
X181420000Y-110000000D02*
X184730000Y-110000000D01*
X191270000Y-108630000D02*
X184730000Y-108630000D01*
X191270000Y-111370000D02*
X191270000Y-108630000D01*
X184730000Y-111370000D02*
X191270000Y-111370000D01*
X184730000Y-108630000D02*
X184730000Y-111370000D01*
%TO.C,J1*%
X161400000Y-105935000D02*
X163300000Y-105935000D01*
X163100000Y-105435000D02*
X168500000Y-105435000D01*
X168200000Y-105935000D02*
X173300000Y-105935000D01*
X168500000Y-105435000D02*
X168200000Y-105935000D01*
X160700000Y-95085000D02*
X160700000Y-105435000D01*
X173300000Y-105935000D02*
X173300000Y-95085000D01*
X163350000Y-105935000D02*
X163100000Y-105435000D01*
X173300000Y-95085000D02*
X160700000Y-95085000D01*
X163300000Y-105935000D02*
X163350000Y-105935000D01*
X160700000Y-105435000D02*
X161650000Y-105435000D01*
X161650000Y-105435000D02*
X161400000Y-105935000D01*
%TO.C,J2*%
X168500000Y-116935000D02*
X168200000Y-117435000D01*
X163100000Y-116935000D02*
X168500000Y-116935000D01*
X173300000Y-106585000D02*
X160700000Y-106585000D01*
X161400000Y-117435000D02*
X163300000Y-117435000D01*
X168200000Y-117435000D02*
X173300000Y-117435000D01*
X163350000Y-117435000D02*
X163100000Y-116935000D01*
X160700000Y-116935000D02*
X161650000Y-116935000D01*
X163300000Y-117435000D02*
X163350000Y-117435000D01*
X160700000Y-106585000D02*
X160700000Y-116935000D01*
X173300000Y-117435000D02*
X173300000Y-106585000D01*
X161650000Y-116935000D02*
X161400000Y-117435000D01*
%TO.C,R1*%
X191270000Y-103877537D02*
X191270000Y-101137537D01*
X191270000Y-101137537D02*
X184730000Y-101137537D01*
X181420000Y-102507537D02*
X184730000Y-102507537D01*
X184730000Y-103877537D02*
X191270000Y-103877537D01*
X184730000Y-101137537D02*
X184730000Y-103877537D01*
X194580000Y-102507537D02*
X191270000Y-102507537D01*
%TD*%
M02*
