%TF.GenerationSoftware,KiCad,Pcbnew,(6.0.9)*%
%TF.CreationDate,2022-12-29T11:35:17+01:00*%
%TF.ProjectId,bed_occupacy_sensor,6265645f-6f63-4637-9570-6163795f7365,rev?*%
%TF.SameCoordinates,Original*%
%TF.FileFunction,Drillmap*%
%TF.FilePolarity,Positive*%
%FSLAX45Y45*%
G04 Gerber Fmt 4.5, Leading zero omitted, Abs format (unit mm)*
G04 Created by KiCad (PCBNEW (6.0.9)) date 2022-12-29 11:35:17*
%MOMM*%
%LPD*%
G01*
G04 APERTURE LIST*
%ADD10C,0.100000*%
%ADD11C,0.200000*%
%ADD12C,0.080000*%
%ADD13C,0.132000*%
G04 APERTURE END LIST*
D10*
X20100000Y-9100000D02*
X15800000Y-9100000D01*
X15800000Y-9100000D02*
X15800000Y-12200000D01*
X15800000Y-12200000D02*
X20100000Y-12200000D01*
X20100000Y-12200000D02*
X20100000Y-9100000D01*
X15202000Y-12852500D02*
X15202000Y-12852500D01*
X15202000Y-12852500D02*
X15202000Y-12852500D01*
X15202000Y-12852500D02*
X15202000Y-12852500D01*
X15202000Y-12852500D02*
X15202000Y-12852500D01*
D11*
D12*
X17590071Y-9215496D02*
X17670071Y-9295496D01*
X17670071Y-9215496D02*
X17590071Y-9295496D01*
X17590071Y-9469496D02*
X17670071Y-9549496D01*
X17670071Y-9469496D02*
X17590071Y-9549496D01*
X17590071Y-11755496D02*
X17670071Y-11835496D01*
X17670071Y-11755496D02*
X17590071Y-11835496D01*
X17590071Y-12009496D02*
X17670071Y-12089496D01*
X17670071Y-12009496D02*
X17590071Y-12089496D01*
X17844071Y-9215496D02*
X17924071Y-9295496D01*
X17924071Y-9215496D02*
X17844071Y-9295496D01*
X17844071Y-9469496D02*
X17924071Y-9549496D01*
X17924071Y-9469496D02*
X17844071Y-9549496D01*
X17844071Y-11755496D02*
X17924071Y-11835496D01*
X17924071Y-11755496D02*
X17844071Y-11835496D01*
X17844071Y-12009496D02*
X17924071Y-12089496D01*
X17924071Y-12009496D02*
X17844071Y-12089496D01*
X17998000Y-10210754D02*
X18078000Y-10290754D01*
X18078000Y-10210754D02*
X17998000Y-10290754D01*
X17998000Y-10960000D02*
X18078000Y-11040000D01*
X18078000Y-10960000D02*
X17998000Y-11040000D01*
X18098071Y-9215496D02*
X18178071Y-9295496D01*
X18178071Y-9215496D02*
X18098071Y-9295496D01*
X18098071Y-9469496D02*
X18178071Y-9549496D01*
X18178071Y-9469496D02*
X18098071Y-9549496D01*
X18098071Y-11755496D02*
X18178071Y-11835496D01*
X18178071Y-11755496D02*
X18098071Y-11835496D01*
X18098071Y-12009496D02*
X18178071Y-12089496D01*
X18178071Y-12009496D02*
X18098071Y-12089496D01*
X18352071Y-9215496D02*
X18432071Y-9295496D01*
X18432071Y-9215496D02*
X18352071Y-9295496D01*
X18352071Y-9469496D02*
X18432071Y-9549496D01*
X18432071Y-9469496D02*
X18352071Y-9549496D01*
X18352071Y-11755496D02*
X18432071Y-11835496D01*
X18432071Y-11755496D02*
X18352071Y-11835496D01*
X18352071Y-12009496D02*
X18432071Y-12089496D01*
X18432071Y-12009496D02*
X18352071Y-12089496D01*
X18606071Y-9215496D02*
X18686071Y-9295496D01*
X18686071Y-9215496D02*
X18606071Y-9295496D01*
X18606071Y-9469496D02*
X18686071Y-9549496D01*
X18686071Y-9469496D02*
X18606071Y-9549496D01*
X18606071Y-11755496D02*
X18686071Y-11835496D01*
X18686071Y-11755496D02*
X18606071Y-11835496D01*
X18606071Y-12009496D02*
X18686071Y-12089496D01*
X18686071Y-12009496D02*
X18606071Y-12089496D01*
X18860071Y-9215496D02*
X18940071Y-9295496D01*
X18940071Y-9215496D02*
X18860071Y-9295496D01*
X18860071Y-9469496D02*
X18940071Y-9549496D01*
X18940071Y-9469496D02*
X18860071Y-9549496D01*
X18860071Y-11755496D02*
X18940071Y-11835496D01*
X18940071Y-11755496D02*
X18860071Y-11835496D01*
X18860071Y-12009496D02*
X18940071Y-12089496D01*
X18940071Y-12009496D02*
X18860071Y-12089496D01*
X19114071Y-9215496D02*
X19194071Y-9295496D01*
X19194071Y-9215496D02*
X19114071Y-9295496D01*
X19114071Y-9469496D02*
X19194071Y-9549496D01*
X19194071Y-9469496D02*
X19114071Y-9549496D01*
X19114071Y-11755496D02*
X19194071Y-11835496D01*
X19194071Y-11755496D02*
X19114071Y-11835496D01*
X19114071Y-12009496D02*
X19194071Y-12089496D01*
X19194071Y-12009496D02*
X19114071Y-12089496D01*
X19368071Y-9215496D02*
X19448071Y-9295496D01*
X19448071Y-9215496D02*
X19368071Y-9295496D01*
X19368071Y-9469496D02*
X19448071Y-9549496D01*
X19448071Y-9469496D02*
X19368071Y-9549496D01*
X19368071Y-11755496D02*
X19448071Y-11835496D01*
X19448071Y-11755496D02*
X19368071Y-11835496D01*
X19368071Y-12009496D02*
X19448071Y-12089496D01*
X19448071Y-12009496D02*
X19368071Y-12089496D01*
X19522000Y-10210754D02*
X19602000Y-10290754D01*
X19602000Y-10210754D02*
X19522000Y-10290754D01*
X19522000Y-10960000D02*
X19602000Y-11040000D01*
X19602000Y-10960000D02*
X19522000Y-11040000D01*
X19622071Y-9215496D02*
X19702071Y-9295496D01*
X19702071Y-9215496D02*
X19622071Y-9295496D01*
X19622071Y-9469496D02*
X19702071Y-9549496D01*
X19702071Y-9469496D02*
X19622071Y-9549496D01*
X19622071Y-11755496D02*
X19702071Y-11835496D01*
X19702071Y-11755496D02*
X19622071Y-11835496D01*
X19622071Y-12009496D02*
X19702071Y-12089496D01*
X19702071Y-12009496D02*
X19622071Y-12089496D01*
X19876071Y-9215496D02*
X19956071Y-9295496D01*
X19956071Y-9215496D02*
X19876071Y-9295496D01*
X19876071Y-9469496D02*
X19956071Y-9549496D01*
X19956071Y-9469496D02*
X19876071Y-9549496D01*
X19876071Y-11755496D02*
X19956071Y-11835496D01*
X19956071Y-11755496D02*
X19876071Y-11835496D01*
X19876071Y-12009496D02*
X19956071Y-12089496D01*
X19956071Y-12009496D02*
X19876071Y-12089496D01*
D13*
X16766000Y-9773500D02*
G75*
G03*
X16766000Y-9773500I-66000J0D01*
G01*
X16766000Y-10273500D02*
G75*
G03*
X16766000Y-10273500I-66000J0D01*
G01*
X16766000Y-10923500D02*
G75*
G03*
X16766000Y-10923500I-66000J0D01*
G01*
X16766000Y-11423500D02*
G75*
G03*
X16766000Y-11423500I-66000J0D01*
G01*
D11*
X15454619Y-13167976D02*
X15454619Y-12967976D01*
X15502238Y-12967976D01*
X15530809Y-12977500D01*
X15549857Y-12996548D01*
X15559381Y-13015595D01*
X15568905Y-13053690D01*
X15568905Y-13082262D01*
X15559381Y-13120357D01*
X15549857Y-13139405D01*
X15530809Y-13158452D01*
X15502238Y-13167976D01*
X15454619Y-13167976D01*
X15654619Y-13167976D02*
X15654619Y-13034643D01*
X15654619Y-13072738D02*
X15664143Y-13053690D01*
X15673667Y-13044167D01*
X15692714Y-13034643D01*
X15711762Y-13034643D01*
X15778428Y-13167976D02*
X15778428Y-13034643D01*
X15778428Y-12967976D02*
X15768905Y-12977500D01*
X15778428Y-12987024D01*
X15787952Y-12977500D01*
X15778428Y-12967976D01*
X15778428Y-12987024D01*
X15902238Y-13167976D02*
X15883190Y-13158452D01*
X15873667Y-13139405D01*
X15873667Y-12967976D01*
X16007000Y-13167976D02*
X15987952Y-13158452D01*
X15978428Y-13139405D01*
X15978428Y-12967976D01*
X16235571Y-13167976D02*
X16235571Y-12967976D01*
X16302238Y-13110833D01*
X16368905Y-12967976D01*
X16368905Y-13167976D01*
X16549857Y-13167976D02*
X16549857Y-13063214D01*
X16540333Y-13044167D01*
X16521286Y-13034643D01*
X16483190Y-13034643D01*
X16464143Y-13044167D01*
X16549857Y-13158452D02*
X16530809Y-13167976D01*
X16483190Y-13167976D01*
X16464143Y-13158452D01*
X16454619Y-13139405D01*
X16454619Y-13120357D01*
X16464143Y-13101309D01*
X16483190Y-13091786D01*
X16530809Y-13091786D01*
X16549857Y-13082262D01*
X16645095Y-13034643D02*
X16645095Y-13234643D01*
X16645095Y-13044167D02*
X16664143Y-13034643D01*
X16702238Y-13034643D01*
X16721286Y-13044167D01*
X16730809Y-13053690D01*
X16740333Y-13072738D01*
X16740333Y-13129881D01*
X16730809Y-13148928D01*
X16721286Y-13158452D01*
X16702238Y-13167976D01*
X16664143Y-13167976D01*
X16645095Y-13158452D01*
X16826048Y-13148928D02*
X16835571Y-13158452D01*
X16826048Y-13167976D01*
X16816524Y-13158452D01*
X16826048Y-13148928D01*
X16826048Y-13167976D01*
X16826048Y-13044167D02*
X16835571Y-13053690D01*
X16826048Y-13063214D01*
X16816524Y-13053690D01*
X16826048Y-13044167D01*
X16826048Y-13063214D01*
D12*
X15117000Y-13457500D02*
X15197000Y-13537500D01*
X15197000Y-13457500D02*
X15117000Y-13537500D01*
D11*
X15492714Y-13387976D02*
X15511762Y-13387976D01*
X15530809Y-13397500D01*
X15540333Y-13407024D01*
X15549857Y-13426071D01*
X15559381Y-13464167D01*
X15559381Y-13511786D01*
X15549857Y-13549881D01*
X15540333Y-13568928D01*
X15530809Y-13578452D01*
X15511762Y-13587976D01*
X15492714Y-13587976D01*
X15473667Y-13578452D01*
X15464143Y-13568928D01*
X15454619Y-13549881D01*
X15445095Y-13511786D01*
X15445095Y-13464167D01*
X15454619Y-13426071D01*
X15464143Y-13407024D01*
X15473667Y-13397500D01*
X15492714Y-13387976D01*
X15645095Y-13568928D02*
X15654619Y-13578452D01*
X15645095Y-13587976D01*
X15635571Y-13578452D01*
X15645095Y-13568928D01*
X15645095Y-13587976D01*
X15768905Y-13473690D02*
X15749857Y-13464167D01*
X15740333Y-13454643D01*
X15730809Y-13435595D01*
X15730809Y-13426071D01*
X15740333Y-13407024D01*
X15749857Y-13397500D01*
X15768905Y-13387976D01*
X15807000Y-13387976D01*
X15826048Y-13397500D01*
X15835571Y-13407024D01*
X15845095Y-13426071D01*
X15845095Y-13435595D01*
X15835571Y-13454643D01*
X15826048Y-13464167D01*
X15807000Y-13473690D01*
X15768905Y-13473690D01*
X15749857Y-13483214D01*
X15740333Y-13492738D01*
X15730809Y-13511786D01*
X15730809Y-13549881D01*
X15740333Y-13568928D01*
X15749857Y-13578452D01*
X15768905Y-13587976D01*
X15807000Y-13587976D01*
X15826048Y-13578452D01*
X15835571Y-13568928D01*
X15845095Y-13549881D01*
X15845095Y-13511786D01*
X15835571Y-13492738D01*
X15826048Y-13483214D01*
X15807000Y-13473690D01*
X15968905Y-13387976D02*
X15987952Y-13387976D01*
X16007000Y-13397500D01*
X16016524Y-13407024D01*
X16026048Y-13426071D01*
X16035571Y-13464167D01*
X16035571Y-13511786D01*
X16026048Y-13549881D01*
X16016524Y-13568928D01*
X16007000Y-13578452D01*
X15987952Y-13587976D01*
X15968905Y-13587976D01*
X15949857Y-13578452D01*
X15940333Y-13568928D01*
X15930809Y-13549881D01*
X15921286Y-13511786D01*
X15921286Y-13464167D01*
X15930809Y-13426071D01*
X15940333Y-13407024D01*
X15949857Y-13397500D01*
X15968905Y-13387976D01*
X16159381Y-13387976D02*
X16178428Y-13387976D01*
X16197476Y-13397500D01*
X16207000Y-13407024D01*
X16216524Y-13426071D01*
X16226048Y-13464167D01*
X16226048Y-13511786D01*
X16216524Y-13549881D01*
X16207000Y-13568928D01*
X16197476Y-13578452D01*
X16178428Y-13587976D01*
X16159381Y-13587976D01*
X16140333Y-13578452D01*
X16130809Y-13568928D01*
X16121286Y-13549881D01*
X16111762Y-13511786D01*
X16111762Y-13464167D01*
X16121286Y-13426071D01*
X16130809Y-13407024D01*
X16140333Y-13397500D01*
X16159381Y-13387976D01*
X16311762Y-13587976D02*
X16311762Y-13454643D01*
X16311762Y-13473690D02*
X16321286Y-13464167D01*
X16340333Y-13454643D01*
X16368905Y-13454643D01*
X16387952Y-13464167D01*
X16397476Y-13483214D01*
X16397476Y-13587976D01*
X16397476Y-13483214D02*
X16407000Y-13464167D01*
X16426048Y-13454643D01*
X16454619Y-13454643D01*
X16473667Y-13464167D01*
X16483190Y-13483214D01*
X16483190Y-13587976D01*
X16578428Y-13587976D02*
X16578428Y-13454643D01*
X16578428Y-13473690D02*
X16587952Y-13464167D01*
X16607000Y-13454643D01*
X16635571Y-13454643D01*
X16654619Y-13464167D01*
X16664143Y-13483214D01*
X16664143Y-13587976D01*
X16664143Y-13483214D02*
X16673667Y-13464167D01*
X16692714Y-13454643D01*
X16721286Y-13454643D01*
X16740333Y-13464167D01*
X16749857Y-13483214D01*
X16749857Y-13587976D01*
X17140333Y-13378452D02*
X16968905Y-13635595D01*
X17397476Y-13387976D02*
X17416524Y-13387976D01*
X17435571Y-13397500D01*
X17445095Y-13407024D01*
X17454619Y-13426071D01*
X17464143Y-13464167D01*
X17464143Y-13511786D01*
X17454619Y-13549881D01*
X17445095Y-13568928D01*
X17435571Y-13578452D01*
X17416524Y-13587976D01*
X17397476Y-13587976D01*
X17378429Y-13578452D01*
X17368905Y-13568928D01*
X17359381Y-13549881D01*
X17349857Y-13511786D01*
X17349857Y-13464167D01*
X17359381Y-13426071D01*
X17368905Y-13407024D01*
X17378429Y-13397500D01*
X17397476Y-13387976D01*
X17549857Y-13568928D02*
X17559381Y-13578452D01*
X17549857Y-13587976D01*
X17540333Y-13578452D01*
X17549857Y-13568928D01*
X17549857Y-13587976D01*
X17683190Y-13387976D02*
X17702238Y-13387976D01*
X17721286Y-13397500D01*
X17730810Y-13407024D01*
X17740333Y-13426071D01*
X17749857Y-13464167D01*
X17749857Y-13511786D01*
X17740333Y-13549881D01*
X17730810Y-13568928D01*
X17721286Y-13578452D01*
X17702238Y-13587976D01*
X17683190Y-13587976D01*
X17664143Y-13578452D01*
X17654619Y-13568928D01*
X17645095Y-13549881D01*
X17635571Y-13511786D01*
X17635571Y-13464167D01*
X17645095Y-13426071D01*
X17654619Y-13407024D01*
X17664143Y-13397500D01*
X17683190Y-13387976D01*
X17816524Y-13387976D02*
X17940333Y-13387976D01*
X17873667Y-13464167D01*
X17902238Y-13464167D01*
X17921286Y-13473690D01*
X17930810Y-13483214D01*
X17940333Y-13502262D01*
X17940333Y-13549881D01*
X17930810Y-13568928D01*
X17921286Y-13578452D01*
X17902238Y-13587976D01*
X17845095Y-13587976D01*
X17826048Y-13578452D01*
X17816524Y-13568928D01*
X18130810Y-13587976D02*
X18016524Y-13587976D01*
X18073667Y-13587976D02*
X18073667Y-13387976D01*
X18054619Y-13416548D01*
X18035571Y-13435595D01*
X18016524Y-13445119D01*
X18311762Y-13387976D02*
X18216524Y-13387976D01*
X18207000Y-13483214D01*
X18216524Y-13473690D01*
X18235571Y-13464167D01*
X18283190Y-13464167D01*
X18302238Y-13473690D01*
X18311762Y-13483214D01*
X18321286Y-13502262D01*
X18321286Y-13549881D01*
X18311762Y-13568928D01*
X18302238Y-13578452D01*
X18283190Y-13587976D01*
X18235571Y-13587976D01*
X18216524Y-13578452D01*
X18207000Y-13568928D01*
X18397476Y-13387976D02*
X18397476Y-13426071D01*
X18473667Y-13387976D02*
X18473667Y-13426071D01*
X18768905Y-13664167D02*
X18759381Y-13654643D01*
X18740333Y-13626071D01*
X18730810Y-13607024D01*
X18721286Y-13578452D01*
X18711762Y-13530833D01*
X18711762Y-13492738D01*
X18721286Y-13445119D01*
X18730810Y-13416548D01*
X18740333Y-13397500D01*
X18759381Y-13368928D01*
X18768905Y-13359405D01*
X18930810Y-13454643D02*
X18930810Y-13587976D01*
X18883190Y-13378452D02*
X18835571Y-13521309D01*
X18959381Y-13521309D01*
X19121286Y-13454643D02*
X19121286Y-13587976D01*
X19073667Y-13378452D02*
X19026048Y-13521309D01*
X19149857Y-13521309D01*
X19378429Y-13587976D02*
X19378429Y-13387976D01*
X19464143Y-13587976D02*
X19464143Y-13483214D01*
X19454619Y-13464167D01*
X19435571Y-13454643D01*
X19407000Y-13454643D01*
X19387952Y-13464167D01*
X19378429Y-13473690D01*
X19587952Y-13587976D02*
X19568905Y-13578452D01*
X19559381Y-13568928D01*
X19549857Y-13549881D01*
X19549857Y-13492738D01*
X19559381Y-13473690D01*
X19568905Y-13464167D01*
X19587952Y-13454643D01*
X19616524Y-13454643D01*
X19635571Y-13464167D01*
X19645095Y-13473690D01*
X19654619Y-13492738D01*
X19654619Y-13549881D01*
X19645095Y-13568928D01*
X19635571Y-13578452D01*
X19616524Y-13587976D01*
X19587952Y-13587976D01*
X19768905Y-13587976D02*
X19749857Y-13578452D01*
X19740333Y-13559405D01*
X19740333Y-13387976D01*
X19921286Y-13578452D02*
X19902238Y-13587976D01*
X19864143Y-13587976D01*
X19845095Y-13578452D01*
X19835571Y-13559405D01*
X19835571Y-13483214D01*
X19845095Y-13464167D01*
X19864143Y-13454643D01*
X19902238Y-13454643D01*
X19921286Y-13464167D01*
X19930810Y-13483214D01*
X19930810Y-13502262D01*
X19835571Y-13521309D01*
X20007000Y-13578452D02*
X20026048Y-13587976D01*
X20064143Y-13587976D01*
X20083190Y-13578452D01*
X20092714Y-13559405D01*
X20092714Y-13549881D01*
X20083190Y-13530833D01*
X20064143Y-13521309D01*
X20035571Y-13521309D01*
X20016524Y-13511786D01*
X20007000Y-13492738D01*
X20007000Y-13483214D01*
X20016524Y-13464167D01*
X20035571Y-13454643D01*
X20064143Y-13454643D01*
X20083190Y-13464167D01*
X20159381Y-13664167D02*
X20168905Y-13654643D01*
X20187952Y-13626071D01*
X20197476Y-13607024D01*
X20207000Y-13578452D01*
X20216524Y-13530833D01*
X20216524Y-13492738D01*
X20207000Y-13445119D01*
X20197476Y-13416548D01*
X20187952Y-13397500D01*
X20168905Y-13368928D01*
X20159381Y-13359405D01*
D13*
X15197000Y-13761500D02*
G75*
G03*
X15197000Y-13761500I-66000J0D01*
G01*
D11*
X15559381Y-13851976D02*
X15445095Y-13851976D01*
X15502238Y-13851976D02*
X15502238Y-13651976D01*
X15483190Y-13680548D01*
X15464143Y-13699595D01*
X15445095Y-13709119D01*
X15645095Y-13832928D02*
X15654619Y-13842452D01*
X15645095Y-13851976D01*
X15635571Y-13842452D01*
X15645095Y-13832928D01*
X15645095Y-13851976D01*
X15721286Y-13651976D02*
X15845095Y-13651976D01*
X15778428Y-13728167D01*
X15807000Y-13728167D01*
X15826048Y-13737690D01*
X15835571Y-13747214D01*
X15845095Y-13766262D01*
X15845095Y-13813881D01*
X15835571Y-13832928D01*
X15826048Y-13842452D01*
X15807000Y-13851976D01*
X15749857Y-13851976D01*
X15730809Y-13842452D01*
X15721286Y-13832928D01*
X15921286Y-13671024D02*
X15930809Y-13661500D01*
X15949857Y-13651976D01*
X15997476Y-13651976D01*
X16016524Y-13661500D01*
X16026048Y-13671024D01*
X16035571Y-13690071D01*
X16035571Y-13709119D01*
X16026048Y-13737690D01*
X15911762Y-13851976D01*
X16035571Y-13851976D01*
X16159381Y-13651976D02*
X16178428Y-13651976D01*
X16197476Y-13661500D01*
X16207000Y-13671024D01*
X16216524Y-13690071D01*
X16226048Y-13728167D01*
X16226048Y-13775786D01*
X16216524Y-13813881D01*
X16207000Y-13832928D01*
X16197476Y-13842452D01*
X16178428Y-13851976D01*
X16159381Y-13851976D01*
X16140333Y-13842452D01*
X16130809Y-13832928D01*
X16121286Y-13813881D01*
X16111762Y-13775786D01*
X16111762Y-13728167D01*
X16121286Y-13690071D01*
X16130809Y-13671024D01*
X16140333Y-13661500D01*
X16159381Y-13651976D01*
X16311762Y-13851976D02*
X16311762Y-13718643D01*
X16311762Y-13737690D02*
X16321286Y-13728167D01*
X16340333Y-13718643D01*
X16368905Y-13718643D01*
X16387952Y-13728167D01*
X16397476Y-13747214D01*
X16397476Y-13851976D01*
X16397476Y-13747214D02*
X16407000Y-13728167D01*
X16426048Y-13718643D01*
X16454619Y-13718643D01*
X16473667Y-13728167D01*
X16483190Y-13747214D01*
X16483190Y-13851976D01*
X16578428Y-13851976D02*
X16578428Y-13718643D01*
X16578428Y-13737690D02*
X16587952Y-13728167D01*
X16607000Y-13718643D01*
X16635571Y-13718643D01*
X16654619Y-13728167D01*
X16664143Y-13747214D01*
X16664143Y-13851976D01*
X16664143Y-13747214D02*
X16673667Y-13728167D01*
X16692714Y-13718643D01*
X16721286Y-13718643D01*
X16740333Y-13728167D01*
X16749857Y-13747214D01*
X16749857Y-13851976D01*
X17140333Y-13642452D02*
X16968905Y-13899595D01*
X17397476Y-13651976D02*
X17416524Y-13651976D01*
X17435571Y-13661500D01*
X17445095Y-13671024D01*
X17454619Y-13690071D01*
X17464143Y-13728167D01*
X17464143Y-13775786D01*
X17454619Y-13813881D01*
X17445095Y-13832928D01*
X17435571Y-13842452D01*
X17416524Y-13851976D01*
X17397476Y-13851976D01*
X17378429Y-13842452D01*
X17368905Y-13832928D01*
X17359381Y-13813881D01*
X17349857Y-13775786D01*
X17349857Y-13728167D01*
X17359381Y-13690071D01*
X17368905Y-13671024D01*
X17378429Y-13661500D01*
X17397476Y-13651976D01*
X17549857Y-13832928D02*
X17559381Y-13842452D01*
X17549857Y-13851976D01*
X17540333Y-13842452D01*
X17549857Y-13832928D01*
X17549857Y-13851976D01*
X17683190Y-13651976D02*
X17702238Y-13651976D01*
X17721286Y-13661500D01*
X17730810Y-13671024D01*
X17740333Y-13690071D01*
X17749857Y-13728167D01*
X17749857Y-13775786D01*
X17740333Y-13813881D01*
X17730810Y-13832928D01*
X17721286Y-13842452D01*
X17702238Y-13851976D01*
X17683190Y-13851976D01*
X17664143Y-13842452D01*
X17654619Y-13832928D01*
X17645095Y-13813881D01*
X17635571Y-13775786D01*
X17635571Y-13728167D01*
X17645095Y-13690071D01*
X17654619Y-13671024D01*
X17664143Y-13661500D01*
X17683190Y-13651976D01*
X17930810Y-13651976D02*
X17835571Y-13651976D01*
X17826048Y-13747214D01*
X17835571Y-13737690D01*
X17854619Y-13728167D01*
X17902238Y-13728167D01*
X17921286Y-13737690D01*
X17930810Y-13747214D01*
X17940333Y-13766262D01*
X17940333Y-13813881D01*
X17930810Y-13832928D01*
X17921286Y-13842452D01*
X17902238Y-13851976D01*
X17854619Y-13851976D01*
X17835571Y-13842452D01*
X17826048Y-13832928D01*
X18016524Y-13671024D02*
X18026048Y-13661500D01*
X18045095Y-13651976D01*
X18092714Y-13651976D01*
X18111762Y-13661500D01*
X18121286Y-13671024D01*
X18130810Y-13690071D01*
X18130810Y-13709119D01*
X18121286Y-13737690D01*
X18007000Y-13851976D01*
X18130810Y-13851976D01*
X18254619Y-13651976D02*
X18273667Y-13651976D01*
X18292714Y-13661500D01*
X18302238Y-13671024D01*
X18311762Y-13690071D01*
X18321286Y-13728167D01*
X18321286Y-13775786D01*
X18311762Y-13813881D01*
X18302238Y-13832928D01*
X18292714Y-13842452D01*
X18273667Y-13851976D01*
X18254619Y-13851976D01*
X18235571Y-13842452D01*
X18226048Y-13832928D01*
X18216524Y-13813881D01*
X18207000Y-13775786D01*
X18207000Y-13728167D01*
X18216524Y-13690071D01*
X18226048Y-13671024D01*
X18235571Y-13661500D01*
X18254619Y-13651976D01*
X18397476Y-13651976D02*
X18397476Y-13690071D01*
X18473667Y-13651976D02*
X18473667Y-13690071D01*
X18768905Y-13928167D02*
X18759381Y-13918643D01*
X18740333Y-13890071D01*
X18730810Y-13871024D01*
X18721286Y-13842452D01*
X18711762Y-13794833D01*
X18711762Y-13756738D01*
X18721286Y-13709119D01*
X18730810Y-13680548D01*
X18740333Y-13661500D01*
X18759381Y-13632928D01*
X18768905Y-13623405D01*
X18930810Y-13718643D02*
X18930810Y-13851976D01*
X18883190Y-13642452D02*
X18835571Y-13785309D01*
X18959381Y-13785309D01*
X19187952Y-13851976D02*
X19187952Y-13651976D01*
X19273667Y-13851976D02*
X19273667Y-13747214D01*
X19264143Y-13728167D01*
X19245095Y-13718643D01*
X19216524Y-13718643D01*
X19197476Y-13728167D01*
X19187952Y-13737690D01*
X19397476Y-13851976D02*
X19378429Y-13842452D01*
X19368905Y-13832928D01*
X19359381Y-13813881D01*
X19359381Y-13756738D01*
X19368905Y-13737690D01*
X19378429Y-13728167D01*
X19397476Y-13718643D01*
X19426048Y-13718643D01*
X19445095Y-13728167D01*
X19454619Y-13737690D01*
X19464143Y-13756738D01*
X19464143Y-13813881D01*
X19454619Y-13832928D01*
X19445095Y-13842452D01*
X19426048Y-13851976D01*
X19397476Y-13851976D01*
X19578429Y-13851976D02*
X19559381Y-13842452D01*
X19549857Y-13823405D01*
X19549857Y-13651976D01*
X19730810Y-13842452D02*
X19711762Y-13851976D01*
X19673667Y-13851976D01*
X19654619Y-13842452D01*
X19645095Y-13823405D01*
X19645095Y-13747214D01*
X19654619Y-13728167D01*
X19673667Y-13718643D01*
X19711762Y-13718643D01*
X19730810Y-13728167D01*
X19740333Y-13747214D01*
X19740333Y-13766262D01*
X19645095Y-13785309D01*
X19816524Y-13842452D02*
X19835571Y-13851976D01*
X19873667Y-13851976D01*
X19892714Y-13842452D01*
X19902238Y-13823405D01*
X19902238Y-13813881D01*
X19892714Y-13794833D01*
X19873667Y-13785309D01*
X19845095Y-13785309D01*
X19826048Y-13775786D01*
X19816524Y-13756738D01*
X19816524Y-13747214D01*
X19826048Y-13728167D01*
X19845095Y-13718643D01*
X19873667Y-13718643D01*
X19892714Y-13728167D01*
X19968905Y-13928167D02*
X19978429Y-13918643D01*
X19997476Y-13890071D01*
X20007000Y-13871024D01*
X20016524Y-13842452D01*
X20026048Y-13794833D01*
X20026048Y-13756738D01*
X20016524Y-13709119D01*
X20007000Y-13680548D01*
X19997476Y-13661500D01*
X19978429Y-13632928D01*
X19968905Y-13623405D01*
M02*
