%TF.GenerationSoftware,KiCad,Pcbnew,(6.0.9)*%
%TF.CreationDate,2022-12-29T11:35:20+01:00*%
%TF.ProjectId,bed_occupacy_sensor,6265645f-6f63-4637-9570-6163795f7365,rev?*%
%TF.SameCoordinates,Original*%
%TF.FileFunction,Copper,L2,Bot*%
%TF.FilePolarity,Positive*%
%FSLAX46Y46*%
G04 Gerber Fmt 4.6, Leading zero omitted, Abs format (unit mm)*
G04 Created by KiCad (PCBNEW (6.0.9)) date 2022-12-29 11:35:20*
%MOMM*%
%LPD*%
G01*
G04 APERTURE LIST*
%TA.AperFunction,ComponentPad*%
%ADD10O,1.600000X1.600000*%
%TD*%
%TA.AperFunction,ComponentPad*%
%ADD11C,1.600000*%
%TD*%
%TA.AperFunction,ComponentPad*%
%ADD12C,1.400000*%
%TD*%
%TA.AperFunction,ComponentPad*%
%ADD13R,3.960000X1.980000*%
%TD*%
%TA.AperFunction,ComponentPad*%
%ADD14O,3.960000X1.980000*%
%TD*%
G04 APERTURE END LIST*
D10*
%TO.P,R2,2*%
%TO.N,/SIDE_B*%
X180380000Y-110000000D03*
D11*
%TO.P,R2,1*%
%TO.N,/+3V3*%
X195620000Y-110000000D03*
%TD*%
D12*
%TO.P,U1,1,GND*%
%TO.N,GND*%
X176300707Y-120494956D03*
%TO.P,U1,2,RST*%
%TO.N,unconnected-(U1-Pad2)*%
X176300707Y-117954956D03*
%TO.P,U1,3,NC*%
%TO.N,unconnected-(U1-Pad3)*%
X178840707Y-120494956D03*
%TO.P,U1,4,IO_36/SVP/A0*%
%TO.N,unconnected-(U1-Pad4)*%
X178840707Y-117954956D03*
%TO.P,U1,5,IO_39/SVN*%
%TO.N,unconnected-(U1-Pad5)*%
X181380707Y-120494956D03*
%TO.P,U1,6,IO_26/D0*%
%TO.N,unconnected-(U1-Pad6)*%
X181380707Y-117954956D03*
%TO.P,U1,7,IO_35*%
%TO.N,/SIDE_A*%
X183920707Y-120494956D03*
%TO.P,U1,8,IO_18/D5*%
%TO.N,unconnected-(U1-Pad8)*%
X183920707Y-117954956D03*
%TO.P,U1,9,IO_33*%
%TO.N,unconnected-(U1-Pad9)*%
X186460707Y-120494956D03*
%TO.P,U1,10,IO_19/D6*%
%TO.N,unconnected-(U1-Pad10)*%
X186460707Y-117954956D03*
%TO.P,U1,11,IO_34*%
%TO.N,/SIDE_B*%
X189000707Y-120494956D03*
%TO.P,U1,12,IO_23/D7*%
%TO.N,unconnected-(U1-Pad12)*%
X189000707Y-117954956D03*
%TO.P,U1,13,IO_14/TMS*%
%TO.N,unconnected-(U1-Pad13)*%
X191540707Y-120494956D03*
%TO.P,U1,14,IO_05/D8*%
%TO.N,unconnected-(U1-Pad14)*%
X191540707Y-117954956D03*
%TO.P,U1,15,NC*%
%TO.N,unconnected-(U1-Pad15)*%
X194080707Y-120494956D03*
%TO.P,U1,16,3V3*%
%TO.N,/+3V3*%
X194080707Y-117954956D03*
%TO.P,U1,17,IO_09/SD2*%
%TO.N,unconnected-(U1-Pad17)*%
X196620707Y-120494956D03*
%TO.P,U1,18,IO_13/TCK*%
%TO.N,unconnected-(U1-Pad18)*%
X196620707Y-117954956D03*
%TO.P,U1,19,CMD*%
%TO.N,unconnected-(U1-Pad19)*%
X199160707Y-120494956D03*
%TO.P,U1,20,IO_10/SD3*%
%TO.N,unconnected-(U1-Pad20)*%
X199160707Y-117954956D03*
%TO.P,U1,21,TXD*%
%TO.N,unconnected-(U1-Pad21)*%
X176300707Y-95094956D03*
%TO.P,U1,22,GND*%
%TO.N,GND*%
X176300707Y-92554956D03*
%TO.P,U1,23,RXD*%
%TO.N,unconnected-(U1-Pad23)*%
X178840707Y-95094956D03*
%TO.P,U1,24,IO_27*%
%TO.N,unconnected-(U1-Pad24)*%
X178840707Y-92554956D03*
%TO.P,U1,25,IO_22/D1/SCL*%
%TO.N,unconnected-(U1-Pad25)*%
X181380707Y-95094956D03*
%TO.P,U1,26,IO_25*%
%TO.N,unconnected-(U1-Pad26)*%
X181380707Y-92554956D03*
%TO.P,U1,27,IO_21/D2/SDA*%
%TO.N,unconnected-(U1-Pad27)*%
X183920707Y-95094956D03*
%TO.P,U1,28,IO_32*%
%TO.N,unconnected-(U1-Pad28)*%
X183920707Y-92554956D03*
%TO.P,U1,29,IO_17/D3*%
%TO.N,unconnected-(U1-Pad29)*%
X186460707Y-95094956D03*
%TO.P,U1,30,IO_12/TDI*%
%TO.N,unconnected-(U1-Pad30)*%
X186460707Y-92554956D03*
%TO.P,U1,31,IO_16/D4*%
%TO.N,unconnected-(U1-Pad31)*%
X189000707Y-95094956D03*
%TO.P,U1,32,IO_04*%
%TO.N,unconnected-(U1-Pad32)*%
X189000707Y-92554956D03*
%TO.P,U1,33,GND*%
%TO.N,GND*%
X191540707Y-95094956D03*
%TO.P,U1,34,IO_00*%
%TO.N,unconnected-(U1-Pad34)*%
X191540707Y-92554956D03*
%TO.P,U1,35,VCC_(USB)*%
%TO.N,unconnected-(U1-Pad35)*%
X194080707Y-95094956D03*
%TO.P,U1,36,IO_02*%
%TO.N,unconnected-(U1-Pad36)*%
X194080707Y-92554956D03*
%TO.P,U1,37,TD0*%
%TO.N,unconnected-(U1-Pad37)*%
X196620707Y-95094956D03*
%TO.P,U1,38,SD1*%
%TO.N,unconnected-(U1-Pad38)*%
X196620707Y-92554956D03*
%TO.P,U1,39,SD0*%
%TO.N,unconnected-(U1-Pad39)*%
X199160707Y-95094956D03*
%TO.P,U1,40,CLK*%
%TO.N,unconnected-(U1-Pad40)*%
X199160707Y-92554956D03*
%TD*%
D13*
%TO.P,J1,1,Pin_1*%
%TO.N,GND*%
X167000000Y-97735000D03*
D14*
%TO.P,J1,2,Pin_2*%
%TO.N,/SIDE_A*%
X167000000Y-102735000D03*
%TD*%
D13*
%TO.P,J2,1,Pin_1*%
%TO.N,GND*%
X167000000Y-109235000D03*
D14*
%TO.P,J2,2,Pin_2*%
%TO.N,/SIDE_B*%
X167000000Y-114235000D03*
%TD*%
D10*
%TO.P,R1,2*%
%TO.N,/SIDE_A*%
X180380000Y-102507537D03*
D11*
%TO.P,R1,1*%
%TO.N,/+3V3*%
X195620000Y-102507537D03*
%TD*%
%TA.AperFunction,Conductor*%
%TO.N,GND*%
G36*
X175629392Y-91528502D02*
G01*
X175650366Y-91545405D01*
X176287895Y-92182934D01*
X176301839Y-92190548D01*
X176303672Y-92190417D01*
X176310287Y-92186166D01*
X176951048Y-91545405D01*
X177013360Y-91511379D01*
X177040143Y-91508500D01*
X177873896Y-91508500D01*
X177942017Y-91528502D01*
X177988510Y-91582158D01*
X177998614Y-91652432D01*
X177969120Y-91717012D01*
X177962991Y-91723595D01*
X177911406Y-91775180D01*
X177790118Y-91948398D01*
X177787797Y-91953376D01*
X177787795Y-91953379D01*
X177703074Y-92135064D01*
X177700751Y-92140046D01*
X177699329Y-92145353D01*
X177699325Y-92145364D01*
X177692154Y-92172127D01*
X177655203Y-92232749D01*
X177591342Y-92263771D01*
X177520847Y-92255342D01*
X177466101Y-92210138D01*
X177448741Y-92172126D01*
X177441615Y-92145530D01*
X177437866Y-92135233D01*
X177353186Y-91953633D01*
X177347708Y-91944145D01*
X177326396Y-91913708D01*
X177315919Y-91905333D01*
X177302471Y-91912402D01*
X176672729Y-92542144D01*
X176665115Y-92556088D01*
X176665246Y-92557921D01*
X176669497Y-92564536D01*
X177303193Y-93198232D01*
X177314968Y-93204662D01*
X177326983Y-93195366D01*
X177347708Y-93165767D01*
X177353186Y-93156279D01*
X177437866Y-92974679D01*
X177441615Y-92964382D01*
X177448741Y-92937786D01*
X177485693Y-92877163D01*
X177549553Y-92846142D01*
X177620048Y-92854570D01*
X177674795Y-92899773D01*
X177692154Y-92937785D01*
X177699325Y-92964548D01*
X177699328Y-92964556D01*
X177700751Y-92969866D01*
X177703073Y-92974847D01*
X177703074Y-92974848D01*
X177774940Y-93128964D01*
X177790118Y-93161514D01*
X177911406Y-93334732D01*
X178060931Y-93484257D01*
X178234149Y-93605545D01*
X178239127Y-93607866D01*
X178239130Y-93607868D01*
X178419799Y-93692115D01*
X178425797Y-93694912D01*
X178431105Y-93696334D01*
X178431107Y-93696335D01*
X178456911Y-93703249D01*
X178517534Y-93740201D01*
X178548555Y-93804062D01*
X178540127Y-93874556D01*
X178494924Y-93929303D01*
X178456911Y-93946663D01*
X178431107Y-93953577D01*
X178431105Y-93953578D01*
X178425797Y-93955000D01*
X178420816Y-93957322D01*
X178420815Y-93957323D01*
X178239130Y-94042044D01*
X178239127Y-94042046D01*
X178234149Y-94044367D01*
X178060931Y-94165655D01*
X177911406Y-94315180D01*
X177790118Y-94488398D01*
X177787797Y-94493376D01*
X177787795Y-94493379D01*
X177703074Y-94675064D01*
X177700751Y-94680046D01*
X177699329Y-94685354D01*
X177699328Y-94685356D01*
X177692414Y-94711160D01*
X177655462Y-94771783D01*
X177591601Y-94802804D01*
X177521107Y-94794376D01*
X177466360Y-94749173D01*
X177449000Y-94711160D01*
X177442086Y-94685356D01*
X177442085Y-94685354D01*
X177440663Y-94680046D01*
X177438340Y-94675064D01*
X177353619Y-94493379D01*
X177353617Y-94493376D01*
X177351296Y-94488398D01*
X177230008Y-94315180D01*
X177080483Y-94165655D01*
X176907265Y-94044367D01*
X176902287Y-94042046D01*
X176902284Y-94042044D01*
X176720599Y-93957323D01*
X176720598Y-93957322D01*
X176715617Y-93955000D01*
X176710310Y-93953578D01*
X176710299Y-93953574D01*
X176683536Y-93946403D01*
X176622914Y-93909452D01*
X176591892Y-93845591D01*
X176600321Y-93775096D01*
X176645525Y-93720350D01*
X176683537Y-93702990D01*
X176710133Y-93695864D01*
X176720430Y-93692115D01*
X176902030Y-93607435D01*
X176911518Y-93601957D01*
X176941955Y-93580645D01*
X176950330Y-93570168D01*
X176943261Y-93556720D01*
X176313519Y-92926978D01*
X176299575Y-92919364D01*
X176297742Y-92919495D01*
X176291127Y-92923746D01*
X175657431Y-93557442D01*
X175651001Y-93569217D01*
X175660297Y-93581232D01*
X175689896Y-93601957D01*
X175699384Y-93607435D01*
X175880984Y-93692115D01*
X175891281Y-93695864D01*
X175917877Y-93702990D01*
X175978500Y-93739942D01*
X176009521Y-93803802D01*
X176001093Y-93874297D01*
X175955890Y-93929044D01*
X175917878Y-93946403D01*
X175891115Y-93953574D01*
X175891104Y-93953578D01*
X175885797Y-93955000D01*
X175880816Y-93957322D01*
X175880815Y-93957323D01*
X175699130Y-94042044D01*
X175699127Y-94042046D01*
X175694149Y-94044367D01*
X175520931Y-94165655D01*
X175371406Y-94315180D01*
X175250118Y-94488398D01*
X175247797Y-94493376D01*
X175247795Y-94493379D01*
X175163074Y-94675064D01*
X175160751Y-94680046D01*
X175159329Y-94685354D01*
X175159328Y-94685356D01*
X175127858Y-94802804D01*
X175106021Y-94884301D01*
X175087591Y-95094956D01*
X175106021Y-95305611D01*
X175107445Y-95310924D01*
X175107445Y-95310926D01*
X175159282Y-95504382D01*
X175160751Y-95509866D01*
X175163073Y-95514847D01*
X175163074Y-95514848D01*
X175234940Y-95668964D01*
X175250118Y-95701514D01*
X175371406Y-95874732D01*
X175520931Y-96024257D01*
X175694149Y-96145545D01*
X175699127Y-96147866D01*
X175699130Y-96147868D01*
X175879799Y-96232115D01*
X175885797Y-96234912D01*
X175891105Y-96236334D01*
X175891107Y-96236335D01*
X176084737Y-96288218D01*
X176084739Y-96288218D01*
X176090052Y-96289642D01*
X176300707Y-96308072D01*
X176511362Y-96289642D01*
X176516675Y-96288218D01*
X176516677Y-96288218D01*
X176710307Y-96236335D01*
X176710309Y-96236334D01*
X176715617Y-96234912D01*
X176721615Y-96232115D01*
X176902284Y-96147868D01*
X176902287Y-96147866D01*
X176907265Y-96145545D01*
X177080483Y-96024257D01*
X177230008Y-95874732D01*
X177351296Y-95701514D01*
X177366475Y-95668964D01*
X177438340Y-95514848D01*
X177438341Y-95514847D01*
X177440663Y-95509866D01*
X177442133Y-95504382D01*
X177449000Y-95478752D01*
X177485952Y-95418129D01*
X177549813Y-95387108D01*
X177620307Y-95395536D01*
X177675054Y-95440739D01*
X177692414Y-95478752D01*
X177699282Y-95504382D01*
X177700751Y-95509866D01*
X177703073Y-95514847D01*
X177703074Y-95514848D01*
X177774940Y-95668964D01*
X177790118Y-95701514D01*
X177911406Y-95874732D01*
X178060931Y-96024257D01*
X178234149Y-96145545D01*
X178239127Y-96147866D01*
X178239130Y-96147868D01*
X178419799Y-96232115D01*
X178425797Y-96234912D01*
X178431105Y-96236334D01*
X178431107Y-96236335D01*
X178624737Y-96288218D01*
X178624739Y-96288218D01*
X178630052Y-96289642D01*
X178840707Y-96308072D01*
X179051362Y-96289642D01*
X179056675Y-96288218D01*
X179056677Y-96288218D01*
X179250307Y-96236335D01*
X179250309Y-96236334D01*
X179255617Y-96234912D01*
X179261615Y-96232115D01*
X179442284Y-96147868D01*
X179442287Y-96147866D01*
X179447265Y-96145545D01*
X179620483Y-96024257D01*
X179770008Y-95874732D01*
X179891296Y-95701514D01*
X179906475Y-95668964D01*
X179978340Y-95514848D01*
X179978341Y-95514847D01*
X179980663Y-95509866D01*
X179982133Y-95504382D01*
X179989000Y-95478752D01*
X180025952Y-95418129D01*
X180089813Y-95387108D01*
X180160307Y-95395536D01*
X180215054Y-95440739D01*
X180232414Y-95478752D01*
X180239282Y-95504382D01*
X180240751Y-95509866D01*
X180243073Y-95514847D01*
X180243074Y-95514848D01*
X180314940Y-95668964D01*
X180330118Y-95701514D01*
X180451406Y-95874732D01*
X180600931Y-96024257D01*
X180774149Y-96145545D01*
X180779127Y-96147866D01*
X180779130Y-96147868D01*
X180959799Y-96232115D01*
X180965797Y-96234912D01*
X180971105Y-96236334D01*
X180971107Y-96236335D01*
X181164737Y-96288218D01*
X181164739Y-96288218D01*
X181170052Y-96289642D01*
X181380707Y-96308072D01*
X181591362Y-96289642D01*
X181596675Y-96288218D01*
X181596677Y-96288218D01*
X181790307Y-96236335D01*
X181790309Y-96236334D01*
X181795617Y-96234912D01*
X181801615Y-96232115D01*
X181982284Y-96147868D01*
X181982287Y-96147866D01*
X181987265Y-96145545D01*
X182160483Y-96024257D01*
X182310008Y-95874732D01*
X182431296Y-95701514D01*
X182446475Y-95668964D01*
X182518340Y-95514848D01*
X182518341Y-95514847D01*
X182520663Y-95509866D01*
X182522133Y-95504382D01*
X182529000Y-95478752D01*
X182565952Y-95418129D01*
X182629813Y-95387108D01*
X182700307Y-95395536D01*
X182755054Y-95440739D01*
X182772414Y-95478752D01*
X182779282Y-95504382D01*
X182780751Y-95509866D01*
X182783073Y-95514847D01*
X182783074Y-95514848D01*
X182854940Y-95668964D01*
X182870118Y-95701514D01*
X182991406Y-95874732D01*
X183140931Y-96024257D01*
X183314149Y-96145545D01*
X183319127Y-96147866D01*
X183319130Y-96147868D01*
X183499799Y-96232115D01*
X183505797Y-96234912D01*
X183511105Y-96236334D01*
X183511107Y-96236335D01*
X183704737Y-96288218D01*
X183704739Y-96288218D01*
X183710052Y-96289642D01*
X183920707Y-96308072D01*
X184131362Y-96289642D01*
X184136675Y-96288218D01*
X184136677Y-96288218D01*
X184330307Y-96236335D01*
X184330309Y-96236334D01*
X184335617Y-96234912D01*
X184341615Y-96232115D01*
X184522284Y-96147868D01*
X184522287Y-96147866D01*
X184527265Y-96145545D01*
X184700483Y-96024257D01*
X184850008Y-95874732D01*
X184971296Y-95701514D01*
X184986475Y-95668964D01*
X185058340Y-95514848D01*
X185058341Y-95514847D01*
X185060663Y-95509866D01*
X185062133Y-95504382D01*
X185069000Y-95478752D01*
X185105952Y-95418129D01*
X185169813Y-95387108D01*
X185240307Y-95395536D01*
X185295054Y-95440739D01*
X185312414Y-95478752D01*
X185319282Y-95504382D01*
X185320751Y-95509866D01*
X185323073Y-95514847D01*
X185323074Y-95514848D01*
X185394940Y-95668964D01*
X185410118Y-95701514D01*
X185531406Y-95874732D01*
X185680931Y-96024257D01*
X185854149Y-96145545D01*
X185859127Y-96147866D01*
X185859130Y-96147868D01*
X186039799Y-96232115D01*
X186045797Y-96234912D01*
X186051105Y-96236334D01*
X186051107Y-96236335D01*
X186244737Y-96288218D01*
X186244739Y-96288218D01*
X186250052Y-96289642D01*
X186460707Y-96308072D01*
X186671362Y-96289642D01*
X186676675Y-96288218D01*
X186676677Y-96288218D01*
X186870307Y-96236335D01*
X186870309Y-96236334D01*
X186875617Y-96234912D01*
X186881615Y-96232115D01*
X187062284Y-96147868D01*
X187062287Y-96147866D01*
X187067265Y-96145545D01*
X187240483Y-96024257D01*
X187390008Y-95874732D01*
X187511296Y-95701514D01*
X187526475Y-95668964D01*
X187598340Y-95514848D01*
X187598341Y-95514847D01*
X187600663Y-95509866D01*
X187602133Y-95504382D01*
X187609000Y-95478752D01*
X187645952Y-95418129D01*
X187709813Y-95387108D01*
X187780307Y-95395536D01*
X187835054Y-95440739D01*
X187852414Y-95478752D01*
X187859282Y-95504382D01*
X187860751Y-95509866D01*
X187863073Y-95514847D01*
X187863074Y-95514848D01*
X187934940Y-95668964D01*
X187950118Y-95701514D01*
X188071406Y-95874732D01*
X188220931Y-96024257D01*
X188394149Y-96145545D01*
X188399127Y-96147866D01*
X188399130Y-96147868D01*
X188579799Y-96232115D01*
X188585797Y-96234912D01*
X188591105Y-96236334D01*
X188591107Y-96236335D01*
X188784737Y-96288218D01*
X188784739Y-96288218D01*
X188790052Y-96289642D01*
X189000707Y-96308072D01*
X189211362Y-96289642D01*
X189216675Y-96288218D01*
X189216677Y-96288218D01*
X189410307Y-96236335D01*
X189410309Y-96236334D01*
X189415617Y-96234912D01*
X189421615Y-96232115D01*
X189602284Y-96147868D01*
X189602287Y-96147866D01*
X189607265Y-96145545D01*
X189659147Y-96109217D01*
X190891001Y-96109217D01*
X190900297Y-96121232D01*
X190929896Y-96141957D01*
X190939384Y-96147435D01*
X191120984Y-96232115D01*
X191131278Y-96235863D01*
X191324829Y-96287725D01*
X191335616Y-96289627D01*
X191535232Y-96307091D01*
X191546182Y-96307091D01*
X191745798Y-96289627D01*
X191756585Y-96287725D01*
X191950136Y-96235863D01*
X191960430Y-96232115D01*
X192142030Y-96147435D01*
X192151518Y-96141957D01*
X192181955Y-96120645D01*
X192190330Y-96110168D01*
X192183261Y-96096720D01*
X191553519Y-95466978D01*
X191539575Y-95459364D01*
X191537742Y-95459495D01*
X191531127Y-95463746D01*
X190897431Y-96097442D01*
X190891001Y-96109217D01*
X189659147Y-96109217D01*
X189780483Y-96024257D01*
X189930008Y-95874732D01*
X190051296Y-95701514D01*
X190066475Y-95668964D01*
X190138340Y-95514848D01*
X190138341Y-95514847D01*
X190140663Y-95509866D01*
X190142086Y-95504556D01*
X190142089Y-95504548D01*
X190149260Y-95477785D01*
X190186211Y-95417163D01*
X190250072Y-95386141D01*
X190320567Y-95394570D01*
X190375313Y-95439774D01*
X190392673Y-95477786D01*
X190399799Y-95504382D01*
X190403548Y-95514679D01*
X190488228Y-95696279D01*
X190493706Y-95705767D01*
X190515018Y-95736204D01*
X190525495Y-95744579D01*
X190538943Y-95737510D01*
X191168685Y-95107768D01*
X191176299Y-95093824D01*
X191176168Y-95091991D01*
X191171917Y-95085376D01*
X190538221Y-94451680D01*
X190526446Y-94445250D01*
X190514431Y-94454546D01*
X190493706Y-94484145D01*
X190488228Y-94493633D01*
X190403548Y-94675233D01*
X190399799Y-94685530D01*
X190392673Y-94712126D01*
X190355721Y-94772749D01*
X190291861Y-94803770D01*
X190221366Y-94795342D01*
X190166619Y-94750139D01*
X190149260Y-94712127D01*
X190142089Y-94685364D01*
X190142085Y-94685353D01*
X190140663Y-94680046D01*
X190138340Y-94675064D01*
X190053619Y-94493379D01*
X190053617Y-94493376D01*
X190051296Y-94488398D01*
X189930008Y-94315180D01*
X189780483Y-94165655D01*
X189607265Y-94044367D01*
X189602287Y-94042046D01*
X189602284Y-94042044D01*
X189420599Y-93957323D01*
X189420598Y-93957322D01*
X189415617Y-93955000D01*
X189410309Y-93953578D01*
X189410307Y-93953577D01*
X189384503Y-93946663D01*
X189323880Y-93909711D01*
X189292859Y-93845850D01*
X189301287Y-93775356D01*
X189346490Y-93720609D01*
X189384503Y-93703249D01*
X189410307Y-93696335D01*
X189410309Y-93696334D01*
X189415617Y-93694912D01*
X189421615Y-93692115D01*
X189602284Y-93607868D01*
X189602287Y-93607866D01*
X189607265Y-93605545D01*
X189780483Y-93484257D01*
X189930008Y-93334732D01*
X190051296Y-93161514D01*
X190066475Y-93128964D01*
X190138340Y-92974848D01*
X190138341Y-92974847D01*
X190140663Y-92969866D01*
X190142133Y-92964382D01*
X190149000Y-92938752D01*
X190185952Y-92878129D01*
X190249813Y-92847108D01*
X190320307Y-92855536D01*
X190375054Y-92900739D01*
X190392414Y-92938752D01*
X190399282Y-92964382D01*
X190400751Y-92969866D01*
X190403073Y-92974847D01*
X190403074Y-92974848D01*
X190474940Y-93128964D01*
X190490118Y-93161514D01*
X190611406Y-93334732D01*
X190760931Y-93484257D01*
X190934149Y-93605545D01*
X190939127Y-93607866D01*
X190939130Y-93607868D01*
X191119799Y-93692115D01*
X191125797Y-93694912D01*
X191131104Y-93696334D01*
X191131115Y-93696338D01*
X191157878Y-93703509D01*
X191218500Y-93740460D01*
X191249522Y-93804321D01*
X191241093Y-93874816D01*
X191195889Y-93929562D01*
X191157877Y-93946922D01*
X191131281Y-93954048D01*
X191120984Y-93957797D01*
X190939384Y-94042477D01*
X190929896Y-94047955D01*
X190899459Y-94069267D01*
X190891084Y-94079744D01*
X190898153Y-94093192D01*
X191527895Y-94722934D01*
X191541839Y-94730548D01*
X191543672Y-94730417D01*
X191550287Y-94726166D01*
X192183983Y-94092470D01*
X192190413Y-94080695D01*
X192181117Y-94068680D01*
X192151518Y-94047955D01*
X192142030Y-94042477D01*
X191960430Y-93957797D01*
X191950133Y-93954048D01*
X191923537Y-93946922D01*
X191862914Y-93909970D01*
X191831893Y-93846110D01*
X191840321Y-93775615D01*
X191885524Y-93720868D01*
X191923536Y-93703509D01*
X191950299Y-93696338D01*
X191950310Y-93696334D01*
X191955617Y-93694912D01*
X191961615Y-93692115D01*
X192142284Y-93607868D01*
X192142287Y-93607866D01*
X192147265Y-93605545D01*
X192320483Y-93484257D01*
X192470008Y-93334732D01*
X192591296Y-93161514D01*
X192606475Y-93128964D01*
X192678340Y-92974848D01*
X192678341Y-92974847D01*
X192680663Y-92969866D01*
X192682133Y-92964382D01*
X192689000Y-92938752D01*
X192725952Y-92878129D01*
X192789813Y-92847108D01*
X192860307Y-92855536D01*
X192915054Y-92900739D01*
X192932414Y-92938752D01*
X192939282Y-92964382D01*
X192940751Y-92969866D01*
X192943073Y-92974847D01*
X192943074Y-92974848D01*
X193014940Y-93128964D01*
X193030118Y-93161514D01*
X193151406Y-93334732D01*
X193300931Y-93484257D01*
X193474149Y-93605545D01*
X193479127Y-93607866D01*
X193479130Y-93607868D01*
X193659799Y-93692115D01*
X193665797Y-93694912D01*
X193671105Y-93696334D01*
X193671107Y-93696335D01*
X193696911Y-93703249D01*
X193757534Y-93740201D01*
X193788555Y-93804062D01*
X193780127Y-93874556D01*
X193734924Y-93929303D01*
X193696911Y-93946663D01*
X193671107Y-93953577D01*
X193671105Y-93953578D01*
X193665797Y-93955000D01*
X193660816Y-93957322D01*
X193660815Y-93957323D01*
X193479130Y-94042044D01*
X193479127Y-94042046D01*
X193474149Y-94044367D01*
X193300931Y-94165655D01*
X193151406Y-94315180D01*
X193030118Y-94488398D01*
X193027797Y-94493376D01*
X193027795Y-94493379D01*
X192943074Y-94675064D01*
X192940751Y-94680046D01*
X192939329Y-94685353D01*
X192939325Y-94685364D01*
X192932154Y-94712127D01*
X192895203Y-94772749D01*
X192831342Y-94803771D01*
X192760847Y-94795342D01*
X192706101Y-94750138D01*
X192688741Y-94712126D01*
X192681615Y-94685530D01*
X192677866Y-94675233D01*
X192593186Y-94493633D01*
X192587708Y-94484145D01*
X192566396Y-94453708D01*
X192555919Y-94445333D01*
X192542471Y-94452402D01*
X191912729Y-95082144D01*
X191905115Y-95096088D01*
X191905246Y-95097921D01*
X191909497Y-95104536D01*
X192543193Y-95738232D01*
X192554968Y-95744662D01*
X192566983Y-95735366D01*
X192587708Y-95705767D01*
X192593186Y-95696279D01*
X192677866Y-95514679D01*
X192681615Y-95504382D01*
X192688741Y-95477786D01*
X192725693Y-95417163D01*
X192789553Y-95386142D01*
X192860048Y-95394570D01*
X192914795Y-95439773D01*
X192932154Y-95477785D01*
X192939325Y-95504548D01*
X192939328Y-95504556D01*
X192940751Y-95509866D01*
X192943073Y-95514847D01*
X192943074Y-95514848D01*
X193014940Y-95668964D01*
X193030118Y-95701514D01*
X193151406Y-95874732D01*
X193300931Y-96024257D01*
X193474149Y-96145545D01*
X193479127Y-96147866D01*
X193479130Y-96147868D01*
X193659799Y-96232115D01*
X193665797Y-96234912D01*
X193671105Y-96236334D01*
X193671107Y-96236335D01*
X193864737Y-96288218D01*
X193864739Y-96288218D01*
X193870052Y-96289642D01*
X194080707Y-96308072D01*
X194291362Y-96289642D01*
X194296675Y-96288218D01*
X194296677Y-96288218D01*
X194490307Y-96236335D01*
X194490309Y-96236334D01*
X194495617Y-96234912D01*
X194501615Y-96232115D01*
X194682284Y-96147868D01*
X194682287Y-96147866D01*
X194687265Y-96145545D01*
X194860483Y-96024257D01*
X195010008Y-95874732D01*
X195131296Y-95701514D01*
X195146475Y-95668964D01*
X195218340Y-95514848D01*
X195218341Y-95514847D01*
X195220663Y-95509866D01*
X195222133Y-95504382D01*
X195229000Y-95478752D01*
X195265952Y-95418129D01*
X195329813Y-95387108D01*
X195400307Y-95395536D01*
X195455054Y-95440739D01*
X195472414Y-95478752D01*
X195479282Y-95504382D01*
X195480751Y-95509866D01*
X195483073Y-95514847D01*
X195483074Y-95514848D01*
X195554940Y-95668964D01*
X195570118Y-95701514D01*
X195691406Y-95874732D01*
X195840931Y-96024257D01*
X196014149Y-96145545D01*
X196019127Y-96147866D01*
X196019130Y-96147868D01*
X196199799Y-96232115D01*
X196205797Y-96234912D01*
X196211105Y-96236334D01*
X196211107Y-96236335D01*
X196404737Y-96288218D01*
X196404739Y-96288218D01*
X196410052Y-96289642D01*
X196620707Y-96308072D01*
X196831362Y-96289642D01*
X196836675Y-96288218D01*
X196836677Y-96288218D01*
X197030307Y-96236335D01*
X197030309Y-96236334D01*
X197035617Y-96234912D01*
X197041615Y-96232115D01*
X197222284Y-96147868D01*
X197222287Y-96147866D01*
X197227265Y-96145545D01*
X197400483Y-96024257D01*
X197550008Y-95874732D01*
X197671296Y-95701514D01*
X197686475Y-95668964D01*
X197758340Y-95514848D01*
X197758341Y-95514847D01*
X197760663Y-95509866D01*
X197762133Y-95504382D01*
X197769000Y-95478752D01*
X197805952Y-95418129D01*
X197869813Y-95387108D01*
X197940307Y-95395536D01*
X197995054Y-95440739D01*
X198012414Y-95478752D01*
X198019282Y-95504382D01*
X198020751Y-95509866D01*
X198023073Y-95514847D01*
X198023074Y-95514848D01*
X198094940Y-95668964D01*
X198110118Y-95701514D01*
X198231406Y-95874732D01*
X198380931Y-96024257D01*
X198554149Y-96145545D01*
X198559127Y-96147866D01*
X198559130Y-96147868D01*
X198739799Y-96232115D01*
X198745797Y-96234912D01*
X198751105Y-96236334D01*
X198751107Y-96236335D01*
X198944737Y-96288218D01*
X198944739Y-96288218D01*
X198950052Y-96289642D01*
X199160707Y-96308072D01*
X199371362Y-96289642D01*
X199376675Y-96288218D01*
X199376677Y-96288218D01*
X199570307Y-96236335D01*
X199570309Y-96236334D01*
X199575617Y-96234912D01*
X199581615Y-96232115D01*
X199762284Y-96147868D01*
X199762287Y-96147866D01*
X199767265Y-96145545D01*
X199940483Y-96024257D01*
X200090008Y-95874732D01*
X200211296Y-95701514D01*
X200251305Y-95615713D01*
X200298222Y-95562429D01*
X200366499Y-95542968D01*
X200434459Y-95563510D01*
X200480525Y-95617532D01*
X200491500Y-95668964D01*
X200491500Y-117380948D01*
X200471498Y-117449069D01*
X200417842Y-117495562D01*
X200347568Y-117505666D01*
X200282988Y-117476172D01*
X200251305Y-117434198D01*
X200213619Y-117353379D01*
X200213617Y-117353376D01*
X200211296Y-117348398D01*
X200090008Y-117175180D01*
X199940483Y-117025655D01*
X199767265Y-116904367D01*
X199762287Y-116902046D01*
X199762284Y-116902044D01*
X199580599Y-116817323D01*
X199580598Y-116817322D01*
X199575617Y-116815000D01*
X199570309Y-116813578D01*
X199570307Y-116813577D01*
X199376677Y-116761694D01*
X199376675Y-116761694D01*
X199371362Y-116760270D01*
X199160707Y-116741840D01*
X198950052Y-116760270D01*
X198944739Y-116761694D01*
X198944737Y-116761694D01*
X198751107Y-116813577D01*
X198751105Y-116813578D01*
X198745797Y-116815000D01*
X198740816Y-116817322D01*
X198740815Y-116817323D01*
X198559130Y-116902044D01*
X198559127Y-116902046D01*
X198554149Y-116904367D01*
X198380931Y-117025655D01*
X198231406Y-117175180D01*
X198110118Y-117348398D01*
X198107797Y-117353376D01*
X198107795Y-117353379D01*
X198023074Y-117535064D01*
X198020751Y-117540046D01*
X198019329Y-117545354D01*
X198019328Y-117545356D01*
X198012414Y-117571160D01*
X197975462Y-117631783D01*
X197911601Y-117662804D01*
X197841107Y-117654376D01*
X197786360Y-117609173D01*
X197769000Y-117571160D01*
X197762086Y-117545356D01*
X197762085Y-117545354D01*
X197760663Y-117540046D01*
X197758340Y-117535064D01*
X197673619Y-117353379D01*
X197673617Y-117353376D01*
X197671296Y-117348398D01*
X197550008Y-117175180D01*
X197400483Y-117025655D01*
X197227265Y-116904367D01*
X197222287Y-116902046D01*
X197222284Y-116902044D01*
X197040599Y-116817323D01*
X197040598Y-116817322D01*
X197035617Y-116815000D01*
X197030309Y-116813578D01*
X197030307Y-116813577D01*
X196836677Y-116761694D01*
X196836675Y-116761694D01*
X196831362Y-116760270D01*
X196620707Y-116741840D01*
X196410052Y-116760270D01*
X196404739Y-116761694D01*
X196404737Y-116761694D01*
X196211107Y-116813577D01*
X196211105Y-116813578D01*
X196205797Y-116815000D01*
X196200816Y-116817322D01*
X196200815Y-116817323D01*
X196019130Y-116902044D01*
X196019127Y-116902046D01*
X196014149Y-116904367D01*
X195840931Y-117025655D01*
X195691406Y-117175180D01*
X195570118Y-117348398D01*
X195567797Y-117353376D01*
X195567795Y-117353379D01*
X195483074Y-117535064D01*
X195480751Y-117540046D01*
X195479329Y-117545354D01*
X195479328Y-117545356D01*
X195472414Y-117571160D01*
X195435462Y-117631783D01*
X195371601Y-117662804D01*
X195301107Y-117654376D01*
X195246360Y-117609173D01*
X195229000Y-117571160D01*
X195222086Y-117545356D01*
X195222085Y-117545354D01*
X195220663Y-117540046D01*
X195218340Y-117535064D01*
X195133619Y-117353379D01*
X195133617Y-117353376D01*
X195131296Y-117348398D01*
X195010008Y-117175180D01*
X194860483Y-117025655D01*
X194687265Y-116904367D01*
X194682287Y-116902046D01*
X194682284Y-116902044D01*
X194500599Y-116817323D01*
X194500598Y-116817322D01*
X194495617Y-116815000D01*
X194490309Y-116813578D01*
X194490307Y-116813577D01*
X194296677Y-116761694D01*
X194296675Y-116761694D01*
X194291362Y-116760270D01*
X194080707Y-116741840D01*
X193870052Y-116760270D01*
X193864739Y-116761694D01*
X193864737Y-116761694D01*
X193671107Y-116813577D01*
X193671105Y-116813578D01*
X193665797Y-116815000D01*
X193660816Y-116817322D01*
X193660815Y-116817323D01*
X193479130Y-116902044D01*
X193479127Y-116902046D01*
X193474149Y-116904367D01*
X193300931Y-117025655D01*
X193151406Y-117175180D01*
X193030118Y-117348398D01*
X193027797Y-117353376D01*
X193027795Y-117353379D01*
X192943074Y-117535064D01*
X192940751Y-117540046D01*
X192939329Y-117545354D01*
X192939328Y-117545356D01*
X192932414Y-117571160D01*
X192895462Y-117631783D01*
X192831601Y-117662804D01*
X192761107Y-117654376D01*
X192706360Y-117609173D01*
X192689000Y-117571160D01*
X192682086Y-117545356D01*
X192682085Y-117545354D01*
X192680663Y-117540046D01*
X192678340Y-117535064D01*
X192593619Y-117353379D01*
X192593617Y-117353376D01*
X192591296Y-117348398D01*
X192470008Y-117175180D01*
X192320483Y-117025655D01*
X192147265Y-116904367D01*
X192142287Y-116902046D01*
X192142284Y-116902044D01*
X191960599Y-116817323D01*
X191960598Y-116817322D01*
X191955617Y-116815000D01*
X191950309Y-116813578D01*
X191950307Y-116813577D01*
X191756677Y-116761694D01*
X191756675Y-116761694D01*
X191751362Y-116760270D01*
X191540707Y-116741840D01*
X191330052Y-116760270D01*
X191324739Y-116761694D01*
X191324737Y-116761694D01*
X191131107Y-116813577D01*
X191131105Y-116813578D01*
X191125797Y-116815000D01*
X191120816Y-116817322D01*
X191120815Y-116817323D01*
X190939130Y-116902044D01*
X190939127Y-116902046D01*
X190934149Y-116904367D01*
X190760931Y-117025655D01*
X190611406Y-117175180D01*
X190490118Y-117348398D01*
X190487797Y-117353376D01*
X190487795Y-117353379D01*
X190403074Y-117535064D01*
X190400751Y-117540046D01*
X190399329Y-117545354D01*
X190399328Y-117545356D01*
X190392414Y-117571160D01*
X190355462Y-117631783D01*
X190291601Y-117662804D01*
X190221107Y-117654376D01*
X190166360Y-117609173D01*
X190149000Y-117571160D01*
X190142086Y-117545356D01*
X190142085Y-117545354D01*
X190140663Y-117540046D01*
X190138340Y-117535064D01*
X190053619Y-117353379D01*
X190053617Y-117353376D01*
X190051296Y-117348398D01*
X189930008Y-117175180D01*
X189780483Y-117025655D01*
X189607265Y-116904367D01*
X189602287Y-116902046D01*
X189602284Y-116902044D01*
X189420599Y-116817323D01*
X189420598Y-116817322D01*
X189415617Y-116815000D01*
X189410309Y-116813578D01*
X189410307Y-116813577D01*
X189216677Y-116761694D01*
X189216675Y-116761694D01*
X189211362Y-116760270D01*
X189000707Y-116741840D01*
X188790052Y-116760270D01*
X188784739Y-116761694D01*
X188784737Y-116761694D01*
X188591107Y-116813577D01*
X188591105Y-116813578D01*
X188585797Y-116815000D01*
X188580816Y-116817322D01*
X188580815Y-116817323D01*
X188399130Y-116902044D01*
X188399127Y-116902046D01*
X188394149Y-116904367D01*
X188220931Y-117025655D01*
X188071406Y-117175180D01*
X187950118Y-117348398D01*
X187947797Y-117353376D01*
X187947795Y-117353379D01*
X187863074Y-117535064D01*
X187860751Y-117540046D01*
X187859329Y-117545354D01*
X187859328Y-117545356D01*
X187852414Y-117571160D01*
X187815462Y-117631783D01*
X187751601Y-117662804D01*
X187681107Y-117654376D01*
X187626360Y-117609173D01*
X187609000Y-117571160D01*
X187602086Y-117545356D01*
X187602085Y-117545354D01*
X187600663Y-117540046D01*
X187598340Y-117535064D01*
X187513619Y-117353379D01*
X187513617Y-117353376D01*
X187511296Y-117348398D01*
X187390008Y-117175180D01*
X187240483Y-117025655D01*
X187067265Y-116904367D01*
X187062287Y-116902046D01*
X187062284Y-116902044D01*
X186880599Y-116817323D01*
X186880598Y-116817322D01*
X186875617Y-116815000D01*
X186870309Y-116813578D01*
X186870307Y-116813577D01*
X186676677Y-116761694D01*
X186676675Y-116761694D01*
X186671362Y-116760270D01*
X186460707Y-116741840D01*
X186250052Y-116760270D01*
X186244739Y-116761694D01*
X186244737Y-116761694D01*
X186051107Y-116813577D01*
X186051105Y-116813578D01*
X186045797Y-116815000D01*
X186040816Y-116817322D01*
X186040815Y-116817323D01*
X185859130Y-116902044D01*
X185859127Y-116902046D01*
X185854149Y-116904367D01*
X185680931Y-117025655D01*
X185531406Y-117175180D01*
X185410118Y-117348398D01*
X185407797Y-117353376D01*
X185407795Y-117353379D01*
X185323074Y-117535064D01*
X185320751Y-117540046D01*
X185319329Y-117545354D01*
X185319328Y-117545356D01*
X185312414Y-117571160D01*
X185275462Y-117631783D01*
X185211601Y-117662804D01*
X185141107Y-117654376D01*
X185086360Y-117609173D01*
X185069000Y-117571160D01*
X185062086Y-117545356D01*
X185062085Y-117545354D01*
X185060663Y-117540046D01*
X185058340Y-117535064D01*
X184973619Y-117353379D01*
X184973617Y-117353376D01*
X184971296Y-117348398D01*
X184850008Y-117175180D01*
X184700483Y-117025655D01*
X184527265Y-116904367D01*
X184522287Y-116902046D01*
X184522284Y-116902044D01*
X184340599Y-116817323D01*
X184340598Y-116817322D01*
X184335617Y-116815000D01*
X184330309Y-116813578D01*
X184330307Y-116813577D01*
X184136677Y-116761694D01*
X184136675Y-116761694D01*
X184131362Y-116760270D01*
X183920707Y-116741840D01*
X183710052Y-116760270D01*
X183704739Y-116761694D01*
X183704737Y-116761694D01*
X183511107Y-116813577D01*
X183511105Y-116813578D01*
X183505797Y-116815000D01*
X183500816Y-116817322D01*
X183500815Y-116817323D01*
X183319130Y-116902044D01*
X183319127Y-116902046D01*
X183314149Y-116904367D01*
X183140931Y-117025655D01*
X182991406Y-117175180D01*
X182870118Y-117348398D01*
X182867797Y-117353376D01*
X182867795Y-117353379D01*
X182783074Y-117535064D01*
X182780751Y-117540046D01*
X182779329Y-117545354D01*
X182779328Y-117545356D01*
X182772414Y-117571160D01*
X182735462Y-117631783D01*
X182671601Y-117662804D01*
X182601107Y-117654376D01*
X182546360Y-117609173D01*
X182529000Y-117571160D01*
X182522086Y-117545356D01*
X182522085Y-117545354D01*
X182520663Y-117540046D01*
X182518340Y-117535064D01*
X182433619Y-117353379D01*
X182433617Y-117353376D01*
X182431296Y-117348398D01*
X182310008Y-117175180D01*
X182160483Y-117025655D01*
X181987265Y-116904367D01*
X181982287Y-116902046D01*
X181982284Y-116902044D01*
X181800599Y-116817323D01*
X181800598Y-116817322D01*
X181795617Y-116815000D01*
X181790309Y-116813578D01*
X181790307Y-116813577D01*
X181596677Y-116761694D01*
X181596675Y-116761694D01*
X181591362Y-116760270D01*
X181380707Y-116741840D01*
X181170052Y-116760270D01*
X181164739Y-116761694D01*
X181164737Y-116761694D01*
X180971107Y-116813577D01*
X180971105Y-116813578D01*
X180965797Y-116815000D01*
X180960816Y-116817322D01*
X180960815Y-116817323D01*
X180779130Y-116902044D01*
X180779127Y-116902046D01*
X180774149Y-116904367D01*
X180600931Y-117025655D01*
X180451406Y-117175180D01*
X180330118Y-117348398D01*
X180327797Y-117353376D01*
X180327795Y-117353379D01*
X180243074Y-117535064D01*
X180240751Y-117540046D01*
X180239329Y-117545354D01*
X180239328Y-117545356D01*
X180232414Y-117571160D01*
X180195462Y-117631783D01*
X180131601Y-117662804D01*
X180061107Y-117654376D01*
X180006360Y-117609173D01*
X179989000Y-117571160D01*
X179982086Y-117545356D01*
X179982085Y-117545354D01*
X179980663Y-117540046D01*
X179978340Y-117535064D01*
X179893619Y-117353379D01*
X179893617Y-117353376D01*
X179891296Y-117348398D01*
X179770008Y-117175180D01*
X179620483Y-117025655D01*
X179447265Y-116904367D01*
X179442287Y-116902046D01*
X179442284Y-116902044D01*
X179260599Y-116817323D01*
X179260598Y-116817322D01*
X179255617Y-116815000D01*
X179250309Y-116813578D01*
X179250307Y-116813577D01*
X179056677Y-116761694D01*
X179056675Y-116761694D01*
X179051362Y-116760270D01*
X178840707Y-116741840D01*
X178630052Y-116760270D01*
X178624739Y-116761694D01*
X178624737Y-116761694D01*
X178431107Y-116813577D01*
X178431105Y-116813578D01*
X178425797Y-116815000D01*
X178420816Y-116817322D01*
X178420815Y-116817323D01*
X178239130Y-116902044D01*
X178239127Y-116902046D01*
X178234149Y-116904367D01*
X178060931Y-117025655D01*
X177911406Y-117175180D01*
X177790118Y-117348398D01*
X177787797Y-117353376D01*
X177787795Y-117353379D01*
X177703074Y-117535064D01*
X177700751Y-117540046D01*
X177699329Y-117545354D01*
X177699328Y-117545356D01*
X177692414Y-117571160D01*
X177655462Y-117631783D01*
X177591601Y-117662804D01*
X177521107Y-117654376D01*
X177466360Y-117609173D01*
X177449000Y-117571160D01*
X177442086Y-117545356D01*
X177442085Y-117545354D01*
X177440663Y-117540046D01*
X177438340Y-117535064D01*
X177353619Y-117353379D01*
X177353617Y-117353376D01*
X177351296Y-117348398D01*
X177230008Y-117175180D01*
X177080483Y-117025655D01*
X176907265Y-116904367D01*
X176902287Y-116902046D01*
X176902284Y-116902044D01*
X176720599Y-116817323D01*
X176720598Y-116817322D01*
X176715617Y-116815000D01*
X176710309Y-116813578D01*
X176710307Y-116813577D01*
X176516677Y-116761694D01*
X176516675Y-116761694D01*
X176511362Y-116760270D01*
X176300707Y-116741840D01*
X176090052Y-116760270D01*
X176084739Y-116761694D01*
X176084737Y-116761694D01*
X175891107Y-116813577D01*
X175891105Y-116813578D01*
X175885797Y-116815000D01*
X175880816Y-116817322D01*
X175880815Y-116817323D01*
X175699130Y-116902044D01*
X175699127Y-116902046D01*
X175694149Y-116904367D01*
X175520931Y-117025655D01*
X175371406Y-117175180D01*
X175250118Y-117348398D01*
X175247797Y-117353376D01*
X175247795Y-117353379D01*
X175163074Y-117535064D01*
X175160751Y-117540046D01*
X175106021Y-117744301D01*
X175087591Y-117954956D01*
X175106021Y-118165611D01*
X175160751Y-118369866D01*
X175163073Y-118374847D01*
X175163074Y-118374848D01*
X175234940Y-118528964D01*
X175250118Y-118561514D01*
X175371406Y-118734732D01*
X175520931Y-118884257D01*
X175694149Y-119005545D01*
X175699127Y-119007866D01*
X175699130Y-119007868D01*
X175880815Y-119092589D01*
X175885797Y-119094912D01*
X175891104Y-119096334D01*
X175891115Y-119096338D01*
X175917878Y-119103509D01*
X175978500Y-119140460D01*
X176009522Y-119204321D01*
X176001093Y-119274816D01*
X175955889Y-119329562D01*
X175917877Y-119346922D01*
X175891281Y-119354048D01*
X175880984Y-119357797D01*
X175699384Y-119442477D01*
X175689896Y-119447955D01*
X175659459Y-119469267D01*
X175651084Y-119479744D01*
X175658153Y-119493192D01*
X176287895Y-120122934D01*
X176301839Y-120130548D01*
X176303672Y-120130417D01*
X176310287Y-120126166D01*
X176943983Y-119492470D01*
X176950413Y-119480695D01*
X176941117Y-119468680D01*
X176911518Y-119447955D01*
X176902030Y-119442477D01*
X176720430Y-119357797D01*
X176710133Y-119354048D01*
X176683537Y-119346922D01*
X176622914Y-119309970D01*
X176591893Y-119246110D01*
X176600321Y-119175615D01*
X176645524Y-119120868D01*
X176683536Y-119103509D01*
X176710299Y-119096338D01*
X176710310Y-119096334D01*
X176715617Y-119094912D01*
X176720599Y-119092589D01*
X176902284Y-119007868D01*
X176902287Y-119007866D01*
X176907265Y-119005545D01*
X177080483Y-118884257D01*
X177230008Y-118734732D01*
X177351296Y-118561514D01*
X177366475Y-118528964D01*
X177438340Y-118374848D01*
X177438341Y-118374847D01*
X177440663Y-118369866D01*
X177449000Y-118338752D01*
X177485952Y-118278129D01*
X177549813Y-118247108D01*
X177620307Y-118255536D01*
X177675054Y-118300739D01*
X177692414Y-118338752D01*
X177700751Y-118369866D01*
X177703073Y-118374847D01*
X177703074Y-118374848D01*
X177774940Y-118528964D01*
X177790118Y-118561514D01*
X177911406Y-118734732D01*
X178060931Y-118884257D01*
X178234149Y-119005545D01*
X178239127Y-119007866D01*
X178239130Y-119007868D01*
X178420815Y-119092589D01*
X178425797Y-119094912D01*
X178431105Y-119096334D01*
X178431107Y-119096335D01*
X178456911Y-119103249D01*
X178517534Y-119140201D01*
X178548555Y-119204062D01*
X178540127Y-119274556D01*
X178494924Y-119329303D01*
X178456911Y-119346663D01*
X178431107Y-119353577D01*
X178431105Y-119353578D01*
X178425797Y-119355000D01*
X178420816Y-119357322D01*
X178420815Y-119357323D01*
X178239130Y-119442044D01*
X178239127Y-119442046D01*
X178234149Y-119444367D01*
X178060931Y-119565655D01*
X177911406Y-119715180D01*
X177790118Y-119888398D01*
X177787797Y-119893376D01*
X177787795Y-119893379D01*
X177703074Y-120075064D01*
X177700751Y-120080046D01*
X177699329Y-120085353D01*
X177699325Y-120085364D01*
X177692154Y-120112127D01*
X177655203Y-120172749D01*
X177591342Y-120203771D01*
X177520847Y-120195342D01*
X177466101Y-120150138D01*
X177448741Y-120112126D01*
X177441615Y-120085530D01*
X177437866Y-120075233D01*
X177353186Y-119893633D01*
X177347708Y-119884145D01*
X177326396Y-119853708D01*
X177315919Y-119845333D01*
X177302471Y-119852402D01*
X176389802Y-120765071D01*
X176327490Y-120799097D01*
X176256675Y-120794032D01*
X176211612Y-120765071D01*
X175298221Y-119851680D01*
X175286446Y-119845250D01*
X175274431Y-119854546D01*
X175253706Y-119884145D01*
X175248228Y-119893633D01*
X175163548Y-120075233D01*
X175159800Y-120085527D01*
X175107938Y-120279078D01*
X175106036Y-120289865D01*
X175088572Y-120489481D01*
X175088572Y-120500431D01*
X175106036Y-120700047D01*
X175107938Y-120710834D01*
X175159800Y-120904385D01*
X175163548Y-120914679D01*
X175248228Y-121096279D01*
X175253705Y-121105767D01*
X175368632Y-121269898D01*
X175379215Y-121282509D01*
X175377778Y-121283715D01*
X175407813Y-121338717D01*
X175402748Y-121409532D01*
X175360201Y-121466368D01*
X175293681Y-121491179D01*
X175284692Y-121491500D01*
X158634500Y-121491500D01*
X158566379Y-121471498D01*
X158519886Y-121417842D01*
X158508500Y-121365500D01*
X158508500Y-114339888D01*
X164510027Y-114339888D01*
X164547299Y-114583464D01*
X164623853Y-114817682D01*
X164737633Y-115036252D01*
X164740736Y-115040385D01*
X164740738Y-115040388D01*
X164882479Y-115229168D01*
X164885584Y-115233303D01*
X165063731Y-115403545D01*
X165068003Y-115406459D01*
X165068004Y-115406460D01*
X165263011Y-115539485D01*
X165263016Y-115539488D01*
X165267291Y-115542404D01*
X165271980Y-115544580D01*
X165271986Y-115544584D01*
X165486106Y-115643975D01*
X165486111Y-115643977D01*
X165490797Y-115646152D01*
X165495775Y-115647532D01*
X165495779Y-115647534D01*
X165723274Y-115710623D01*
X165728247Y-115712002D01*
X165834864Y-115723396D01*
X165926071Y-115733144D01*
X165926079Y-115733144D01*
X165929406Y-115733500D01*
X168052469Y-115733500D01*
X168055042Y-115733288D01*
X168055053Y-115733288D01*
X168230432Y-115718869D01*
X168230438Y-115718868D01*
X168235583Y-115718445D01*
X168355077Y-115688430D01*
X168469559Y-115659675D01*
X168469563Y-115659674D01*
X168474570Y-115658416D01*
X168479303Y-115656358D01*
X168479306Y-115656357D01*
X168695807Y-115562220D01*
X168695810Y-115562218D01*
X168700544Y-115560160D01*
X168704878Y-115557356D01*
X168704882Y-115557354D01*
X168903092Y-115429126D01*
X168903098Y-115429121D01*
X168907436Y-115426315D01*
X168929257Y-115406460D01*
X168965402Y-115373570D01*
X169089690Y-115260477D01*
X169092889Y-115256426D01*
X169092893Y-115256422D01*
X169239205Y-115071157D01*
X169242410Y-115067099D01*
X169361497Y-114851375D01*
X169443750Y-114619097D01*
X169486963Y-114376505D01*
X169489973Y-114130112D01*
X169452701Y-113886536D01*
X169376147Y-113652318D01*
X169262367Y-113433748D01*
X169239207Y-113402901D01*
X169117521Y-113240832D01*
X169117519Y-113240830D01*
X169114416Y-113236697D01*
X168936269Y-113066455D01*
X168907994Y-113047167D01*
X168736989Y-112930515D01*
X168736984Y-112930512D01*
X168732709Y-112927596D01*
X168728020Y-112925420D01*
X168728014Y-112925416D01*
X168513894Y-112826025D01*
X168513889Y-112826023D01*
X168509203Y-112823848D01*
X168504225Y-112822468D01*
X168504221Y-112822466D01*
X168276726Y-112759377D01*
X168276725Y-112759377D01*
X168271753Y-112757998D01*
X168165136Y-112746604D01*
X168073929Y-112736856D01*
X168073921Y-112736856D01*
X168070594Y-112736500D01*
X165947531Y-112736500D01*
X165944958Y-112736712D01*
X165944947Y-112736712D01*
X165769568Y-112751131D01*
X165769562Y-112751132D01*
X165764417Y-112751555D01*
X165644924Y-112781569D01*
X165530441Y-112810325D01*
X165530437Y-112810326D01*
X165525430Y-112811584D01*
X165520697Y-112813642D01*
X165520694Y-112813643D01*
X165304193Y-112907780D01*
X165304190Y-112907782D01*
X165299456Y-112909840D01*
X165295122Y-112912644D01*
X165295118Y-112912646D01*
X165096908Y-113040874D01*
X165096902Y-113040879D01*
X165092564Y-113043685D01*
X165088739Y-113047165D01*
X165088737Y-113047167D01*
X165034598Y-113096430D01*
X164910310Y-113209523D01*
X164907111Y-113213574D01*
X164907107Y-113213578D01*
X164798861Y-113350643D01*
X164757590Y-113402901D01*
X164638503Y-113618625D01*
X164556250Y-113850903D01*
X164513037Y-114093495D01*
X164510027Y-114339888D01*
X158508500Y-114339888D01*
X158508500Y-110269669D01*
X164512001Y-110269669D01*
X164512371Y-110276490D01*
X164517895Y-110327352D01*
X164521521Y-110342604D01*
X164566676Y-110463054D01*
X164575214Y-110478649D01*
X164651715Y-110580724D01*
X164664276Y-110593285D01*
X164766351Y-110669786D01*
X164781946Y-110678324D01*
X164902394Y-110723478D01*
X164917649Y-110727105D01*
X164968514Y-110732631D01*
X164975328Y-110733000D01*
X166727885Y-110733000D01*
X166743124Y-110728525D01*
X166744329Y-110727135D01*
X166746000Y-110719452D01*
X166746000Y-110714884D01*
X167254000Y-110714884D01*
X167258475Y-110730123D01*
X167259865Y-110731328D01*
X167267548Y-110732999D01*
X169024669Y-110732999D01*
X169031490Y-110732629D01*
X169082352Y-110727105D01*
X169097604Y-110723479D01*
X169218054Y-110678324D01*
X169233649Y-110669786D01*
X169335724Y-110593285D01*
X169348285Y-110580724D01*
X169424786Y-110478649D01*
X169433324Y-110463054D01*
X169478478Y-110342606D01*
X169482105Y-110327351D01*
X169487631Y-110276486D01*
X169488000Y-110269672D01*
X169488000Y-110000000D01*
X179066502Y-110000000D01*
X179086457Y-110228087D01*
X179087881Y-110233400D01*
X179087881Y-110233402D01*
X179099427Y-110276490D01*
X179145716Y-110449243D01*
X179148039Y-110454224D01*
X179148039Y-110454225D01*
X179240151Y-110651762D01*
X179240154Y-110651767D01*
X179242477Y-110656749D01*
X179373802Y-110844300D01*
X179535700Y-111006198D01*
X179540208Y-111009355D01*
X179540211Y-111009357D01*
X179618389Y-111064098D01*
X179723251Y-111137523D01*
X179728233Y-111139846D01*
X179728238Y-111139849D01*
X179925775Y-111231961D01*
X179930757Y-111234284D01*
X179936065Y-111235706D01*
X179936067Y-111235707D01*
X180146598Y-111292119D01*
X180146600Y-111292119D01*
X180151913Y-111293543D01*
X180380000Y-111313498D01*
X180608087Y-111293543D01*
X180613400Y-111292119D01*
X180613402Y-111292119D01*
X180823933Y-111235707D01*
X180823935Y-111235706D01*
X180829243Y-111234284D01*
X180834225Y-111231961D01*
X181031762Y-111139849D01*
X181031767Y-111139846D01*
X181036749Y-111137523D01*
X181141611Y-111064098D01*
X181219789Y-111009357D01*
X181219792Y-111009355D01*
X181224300Y-111006198D01*
X181386198Y-110844300D01*
X181517523Y-110656749D01*
X181519846Y-110651767D01*
X181519849Y-110651762D01*
X181611961Y-110454225D01*
X181611961Y-110454224D01*
X181614284Y-110449243D01*
X181660574Y-110276490D01*
X181672119Y-110233402D01*
X181672119Y-110233400D01*
X181673543Y-110228087D01*
X181693498Y-110000000D01*
X194306502Y-110000000D01*
X194326457Y-110228087D01*
X194327881Y-110233400D01*
X194327881Y-110233402D01*
X194339427Y-110276490D01*
X194385716Y-110449243D01*
X194388039Y-110454224D01*
X194388039Y-110454225D01*
X194480151Y-110651762D01*
X194480154Y-110651767D01*
X194482477Y-110656749D01*
X194613802Y-110844300D01*
X194775700Y-111006198D01*
X194780208Y-111009355D01*
X194780211Y-111009357D01*
X194858389Y-111064098D01*
X194963251Y-111137523D01*
X194968233Y-111139846D01*
X194968238Y-111139849D01*
X195165775Y-111231961D01*
X195170757Y-111234284D01*
X195176065Y-111235706D01*
X195176067Y-111235707D01*
X195386598Y-111292119D01*
X195386600Y-111292119D01*
X195391913Y-111293543D01*
X195620000Y-111313498D01*
X195848087Y-111293543D01*
X195853400Y-111292119D01*
X195853402Y-111292119D01*
X196063933Y-111235707D01*
X196063935Y-111235706D01*
X196069243Y-111234284D01*
X196074225Y-111231961D01*
X196271762Y-111139849D01*
X196271767Y-111139846D01*
X196276749Y-111137523D01*
X196381611Y-111064098D01*
X196459789Y-111009357D01*
X196459792Y-111009355D01*
X196464300Y-111006198D01*
X196626198Y-110844300D01*
X196757523Y-110656749D01*
X196759846Y-110651767D01*
X196759849Y-110651762D01*
X196851961Y-110454225D01*
X196851961Y-110454224D01*
X196854284Y-110449243D01*
X196900574Y-110276490D01*
X196912119Y-110233402D01*
X196912119Y-110233400D01*
X196913543Y-110228087D01*
X196933498Y-110000000D01*
X196913543Y-109771913D01*
X196854284Y-109550757D01*
X196831804Y-109502548D01*
X196759849Y-109348238D01*
X196759846Y-109348233D01*
X196757523Y-109343251D01*
X196626198Y-109155700D01*
X196464300Y-108993802D01*
X196459792Y-108990645D01*
X196459789Y-108990643D01*
X196381611Y-108935902D01*
X196276749Y-108862477D01*
X196271767Y-108860154D01*
X196271762Y-108860151D01*
X196074225Y-108768039D01*
X196074224Y-108768039D01*
X196069243Y-108765716D01*
X196063935Y-108764294D01*
X196063933Y-108764293D01*
X195853402Y-108707881D01*
X195853400Y-108707881D01*
X195848087Y-108706457D01*
X195620000Y-108686502D01*
X195391913Y-108706457D01*
X195386600Y-108707881D01*
X195386598Y-108707881D01*
X195176067Y-108764293D01*
X195176065Y-108764294D01*
X195170757Y-108765716D01*
X195165776Y-108768039D01*
X195165775Y-108768039D01*
X194968238Y-108860151D01*
X194968233Y-108860154D01*
X194963251Y-108862477D01*
X194858389Y-108935902D01*
X194780211Y-108990643D01*
X194780208Y-108990645D01*
X194775700Y-108993802D01*
X194613802Y-109155700D01*
X194482477Y-109343251D01*
X194480154Y-109348233D01*
X194480151Y-109348238D01*
X194408196Y-109502548D01*
X194385716Y-109550757D01*
X194326457Y-109771913D01*
X194306502Y-110000000D01*
X181693498Y-110000000D01*
X181673543Y-109771913D01*
X181614284Y-109550757D01*
X181591804Y-109502548D01*
X181519849Y-109348238D01*
X181519846Y-109348233D01*
X181517523Y-109343251D01*
X181386198Y-109155700D01*
X181224300Y-108993802D01*
X181219792Y-108990645D01*
X181219789Y-108990643D01*
X181141611Y-108935902D01*
X181036749Y-108862477D01*
X181031767Y-108860154D01*
X181031762Y-108860151D01*
X180834225Y-108768039D01*
X180834224Y-108768039D01*
X180829243Y-108765716D01*
X180823935Y-108764294D01*
X180823933Y-108764293D01*
X180613402Y-108707881D01*
X180613400Y-108707881D01*
X180608087Y-108706457D01*
X180380000Y-108686502D01*
X180151913Y-108706457D01*
X180146600Y-108707881D01*
X180146598Y-108707881D01*
X179936067Y-108764293D01*
X179936065Y-108764294D01*
X179930757Y-108765716D01*
X179925776Y-108768039D01*
X179925775Y-108768039D01*
X179728238Y-108860151D01*
X179728233Y-108860154D01*
X179723251Y-108862477D01*
X179618389Y-108935902D01*
X179540211Y-108990643D01*
X179540208Y-108990645D01*
X179535700Y-108993802D01*
X179373802Y-109155700D01*
X179242477Y-109343251D01*
X179240154Y-109348233D01*
X179240151Y-109348238D01*
X179168196Y-109502548D01*
X179145716Y-109550757D01*
X179086457Y-109771913D01*
X179066502Y-110000000D01*
X169488000Y-110000000D01*
X169488000Y-109507115D01*
X169483525Y-109491876D01*
X169482135Y-109490671D01*
X169474452Y-109489000D01*
X167272115Y-109489000D01*
X167256876Y-109493475D01*
X167255671Y-109494865D01*
X167254000Y-109502548D01*
X167254000Y-110714884D01*
X166746000Y-110714884D01*
X166746000Y-109507115D01*
X166741525Y-109491876D01*
X166740135Y-109490671D01*
X166732452Y-109489000D01*
X164530116Y-109489000D01*
X164514877Y-109493475D01*
X164513672Y-109494865D01*
X164512001Y-109502548D01*
X164512001Y-110269669D01*
X158508500Y-110269669D01*
X158508500Y-108962885D01*
X164512000Y-108962885D01*
X164516475Y-108978124D01*
X164517865Y-108979329D01*
X164525548Y-108981000D01*
X166727885Y-108981000D01*
X166743124Y-108976525D01*
X166744329Y-108975135D01*
X166746000Y-108967452D01*
X166746000Y-108962885D01*
X167254000Y-108962885D01*
X167258475Y-108978124D01*
X167259865Y-108979329D01*
X167267548Y-108981000D01*
X169469884Y-108981000D01*
X169485123Y-108976525D01*
X169486328Y-108975135D01*
X169487999Y-108967452D01*
X169487999Y-108200331D01*
X169487629Y-108193510D01*
X169482105Y-108142648D01*
X169478479Y-108127396D01*
X169433324Y-108006946D01*
X169424786Y-107991351D01*
X169348285Y-107889276D01*
X169335724Y-107876715D01*
X169233649Y-107800214D01*
X169218054Y-107791676D01*
X169097606Y-107746522D01*
X169082351Y-107742895D01*
X169031486Y-107737369D01*
X169024672Y-107737000D01*
X167272115Y-107737000D01*
X167256876Y-107741475D01*
X167255671Y-107742865D01*
X167254000Y-107750548D01*
X167254000Y-108962885D01*
X166746000Y-108962885D01*
X166746000Y-107755116D01*
X166741525Y-107739877D01*
X166740135Y-107738672D01*
X166732452Y-107737001D01*
X164975331Y-107737001D01*
X164968510Y-107737371D01*
X164917648Y-107742895D01*
X164902396Y-107746521D01*
X164781946Y-107791676D01*
X164766351Y-107800214D01*
X164664276Y-107876715D01*
X164651715Y-107889276D01*
X164575214Y-107991351D01*
X164566676Y-108006946D01*
X164521522Y-108127394D01*
X164517895Y-108142649D01*
X164512369Y-108193514D01*
X164512000Y-108200328D01*
X164512000Y-108962885D01*
X158508500Y-108962885D01*
X158508500Y-102839888D01*
X164510027Y-102839888D01*
X164547299Y-103083464D01*
X164623853Y-103317682D01*
X164626241Y-103322270D01*
X164626243Y-103322274D01*
X164643751Y-103355906D01*
X164737633Y-103536252D01*
X164740736Y-103540385D01*
X164740738Y-103540388D01*
X164821075Y-103647386D01*
X164885584Y-103733303D01*
X165063731Y-103903545D01*
X165068003Y-103906459D01*
X165068004Y-103906460D01*
X165263011Y-104039485D01*
X165263016Y-104039488D01*
X165267291Y-104042404D01*
X165271980Y-104044580D01*
X165271986Y-104044584D01*
X165486106Y-104143975D01*
X165486111Y-104143977D01*
X165490797Y-104146152D01*
X165495775Y-104147532D01*
X165495779Y-104147534D01*
X165723274Y-104210623D01*
X165728247Y-104212002D01*
X165834864Y-104223396D01*
X165926071Y-104233144D01*
X165926079Y-104233144D01*
X165929406Y-104233500D01*
X168052469Y-104233500D01*
X168055042Y-104233288D01*
X168055053Y-104233288D01*
X168230432Y-104218869D01*
X168230438Y-104218868D01*
X168235583Y-104218445D01*
X168355077Y-104188430D01*
X168469559Y-104159675D01*
X168469563Y-104159674D01*
X168474570Y-104158416D01*
X168479303Y-104156358D01*
X168479306Y-104156357D01*
X168695807Y-104062220D01*
X168695810Y-104062218D01*
X168700544Y-104060160D01*
X168704878Y-104057356D01*
X168704882Y-104057354D01*
X168903092Y-103929126D01*
X168903098Y-103929121D01*
X168907436Y-103926315D01*
X168929257Y-103906460D01*
X169044541Y-103801559D01*
X169089690Y-103760477D01*
X169092889Y-103756426D01*
X169092893Y-103756422D01*
X169239205Y-103571157D01*
X169242410Y-103567099D01*
X169361497Y-103351375D01*
X169443750Y-103119097D01*
X169472664Y-102956780D01*
X169486057Y-102881593D01*
X169486057Y-102881589D01*
X169486963Y-102876505D01*
X169489973Y-102630112D01*
X169471217Y-102507537D01*
X179066502Y-102507537D01*
X179086457Y-102735624D01*
X179087881Y-102740937D01*
X179087881Y-102740939D01*
X179125570Y-102881593D01*
X179145716Y-102956780D01*
X179148039Y-102961761D01*
X179148039Y-102961762D01*
X179240151Y-103159299D01*
X179240154Y-103159304D01*
X179242477Y-103164286D01*
X179245634Y-103168794D01*
X179353102Y-103322274D01*
X179373802Y-103351837D01*
X179535700Y-103513735D01*
X179540208Y-103516892D01*
X179540211Y-103516894D01*
X179573764Y-103540388D01*
X179723251Y-103645060D01*
X179728233Y-103647383D01*
X179728238Y-103647386D01*
X179903622Y-103729168D01*
X179930757Y-103741821D01*
X179936065Y-103743243D01*
X179936067Y-103743244D01*
X180146598Y-103799656D01*
X180146600Y-103799656D01*
X180151913Y-103801080D01*
X180380000Y-103821035D01*
X180608087Y-103801080D01*
X180613400Y-103799656D01*
X180613402Y-103799656D01*
X180823933Y-103743244D01*
X180823935Y-103743243D01*
X180829243Y-103741821D01*
X180856378Y-103729168D01*
X181031762Y-103647386D01*
X181031767Y-103647383D01*
X181036749Y-103645060D01*
X181186236Y-103540388D01*
X181219789Y-103516894D01*
X181219792Y-103516892D01*
X181224300Y-103513735D01*
X181386198Y-103351837D01*
X181406899Y-103322274D01*
X181514366Y-103168794D01*
X181517523Y-103164286D01*
X181519846Y-103159304D01*
X181519849Y-103159299D01*
X181611961Y-102961762D01*
X181611961Y-102961761D01*
X181614284Y-102956780D01*
X181634431Y-102881593D01*
X181672119Y-102740939D01*
X181672119Y-102740937D01*
X181673543Y-102735624D01*
X181693498Y-102507537D01*
X194306502Y-102507537D01*
X194326457Y-102735624D01*
X194327881Y-102740937D01*
X194327881Y-102740939D01*
X194365570Y-102881593D01*
X194385716Y-102956780D01*
X194388039Y-102961761D01*
X194388039Y-102961762D01*
X194480151Y-103159299D01*
X194480154Y-103159304D01*
X194482477Y-103164286D01*
X194485634Y-103168794D01*
X194593102Y-103322274D01*
X194613802Y-103351837D01*
X194775700Y-103513735D01*
X194780208Y-103516892D01*
X194780211Y-103516894D01*
X194813764Y-103540388D01*
X194963251Y-103645060D01*
X194968233Y-103647383D01*
X194968238Y-103647386D01*
X195143622Y-103729168D01*
X195170757Y-103741821D01*
X195176065Y-103743243D01*
X195176067Y-103743244D01*
X195386598Y-103799656D01*
X195386600Y-103799656D01*
X195391913Y-103801080D01*
X195620000Y-103821035D01*
X195848087Y-103801080D01*
X195853400Y-103799656D01*
X195853402Y-103799656D01*
X196063933Y-103743244D01*
X196063935Y-103743243D01*
X196069243Y-103741821D01*
X196096378Y-103729168D01*
X196271762Y-103647386D01*
X196271767Y-103647383D01*
X196276749Y-103645060D01*
X196426236Y-103540388D01*
X196459789Y-103516894D01*
X196459792Y-103516892D01*
X196464300Y-103513735D01*
X196626198Y-103351837D01*
X196646899Y-103322274D01*
X196754366Y-103168794D01*
X196757523Y-103164286D01*
X196759846Y-103159304D01*
X196759849Y-103159299D01*
X196851961Y-102961762D01*
X196851961Y-102961761D01*
X196854284Y-102956780D01*
X196874431Y-102881593D01*
X196912119Y-102740939D01*
X196912119Y-102740937D01*
X196913543Y-102735624D01*
X196933498Y-102507537D01*
X196913543Y-102279450D01*
X196879478Y-102152318D01*
X196855707Y-102063604D01*
X196855706Y-102063602D01*
X196854284Y-102058294D01*
X196794279Y-101929612D01*
X196759849Y-101855775D01*
X196759846Y-101855770D01*
X196757523Y-101850788D01*
X196626198Y-101663237D01*
X196464300Y-101501339D01*
X196459792Y-101498182D01*
X196459789Y-101498180D01*
X196355871Y-101425416D01*
X196276749Y-101370014D01*
X196271767Y-101367691D01*
X196271762Y-101367688D01*
X196074225Y-101275576D01*
X196074224Y-101275576D01*
X196069243Y-101273253D01*
X196063935Y-101271831D01*
X196063933Y-101271830D01*
X195853402Y-101215418D01*
X195853400Y-101215418D01*
X195848087Y-101213994D01*
X195620000Y-101194039D01*
X195391913Y-101213994D01*
X195386600Y-101215418D01*
X195386598Y-101215418D01*
X195176067Y-101271830D01*
X195176065Y-101271831D01*
X195170757Y-101273253D01*
X195165776Y-101275576D01*
X195165775Y-101275576D01*
X194968238Y-101367688D01*
X194968233Y-101367691D01*
X194963251Y-101370014D01*
X194884129Y-101425416D01*
X194780211Y-101498180D01*
X194780208Y-101498182D01*
X194775700Y-101501339D01*
X194613802Y-101663237D01*
X194482477Y-101850788D01*
X194480154Y-101855770D01*
X194480151Y-101855775D01*
X194445721Y-101929612D01*
X194385716Y-102058294D01*
X194384294Y-102063602D01*
X194384293Y-102063604D01*
X194360522Y-102152318D01*
X194326457Y-102279450D01*
X194306502Y-102507537D01*
X181693498Y-102507537D01*
X181673543Y-102279450D01*
X181639478Y-102152318D01*
X181615707Y-102063604D01*
X181615706Y-102063602D01*
X181614284Y-102058294D01*
X181554279Y-101929612D01*
X181519849Y-101855775D01*
X181519846Y-101855770D01*
X181517523Y-101850788D01*
X181386198Y-101663237D01*
X181224300Y-101501339D01*
X181219792Y-101498182D01*
X181219789Y-101498180D01*
X181115871Y-101425416D01*
X181036749Y-101370014D01*
X181031767Y-101367691D01*
X181031762Y-101367688D01*
X180834225Y-101275576D01*
X180834224Y-101275576D01*
X180829243Y-101273253D01*
X180823935Y-101271831D01*
X180823933Y-101271830D01*
X180613402Y-101215418D01*
X180613400Y-101215418D01*
X180608087Y-101213994D01*
X180380000Y-101194039D01*
X180151913Y-101213994D01*
X180146600Y-101215418D01*
X180146598Y-101215418D01*
X179936067Y-101271830D01*
X179936065Y-101271831D01*
X179930757Y-101273253D01*
X179925776Y-101275576D01*
X179925775Y-101275576D01*
X179728238Y-101367688D01*
X179728233Y-101367691D01*
X179723251Y-101370014D01*
X179644129Y-101425416D01*
X179540211Y-101498180D01*
X179540208Y-101498182D01*
X179535700Y-101501339D01*
X179373802Y-101663237D01*
X179242477Y-101850788D01*
X179240154Y-101855770D01*
X179240151Y-101855775D01*
X179205721Y-101929612D01*
X179145716Y-102058294D01*
X179144294Y-102063602D01*
X179144293Y-102063604D01*
X179120522Y-102152318D01*
X179086457Y-102279450D01*
X179066502Y-102507537D01*
X169471217Y-102507537D01*
X169452701Y-102386536D01*
X169376147Y-102152318D01*
X169327202Y-102058294D01*
X169264756Y-101938337D01*
X169264755Y-101938336D01*
X169262367Y-101933748D01*
X169239207Y-101902901D01*
X169117521Y-101740832D01*
X169117519Y-101740830D01*
X169114416Y-101736697D01*
X168936269Y-101566455D01*
X168907994Y-101547167D01*
X168736989Y-101430515D01*
X168736984Y-101430512D01*
X168732709Y-101427596D01*
X168728020Y-101425420D01*
X168728014Y-101425416D01*
X168513894Y-101326025D01*
X168513889Y-101326023D01*
X168509203Y-101323848D01*
X168504225Y-101322468D01*
X168504221Y-101322466D01*
X168276726Y-101259377D01*
X168276725Y-101259377D01*
X168271753Y-101257998D01*
X168165136Y-101246604D01*
X168073929Y-101236856D01*
X168073921Y-101236856D01*
X168070594Y-101236500D01*
X165947531Y-101236500D01*
X165944958Y-101236712D01*
X165944947Y-101236712D01*
X165769568Y-101251131D01*
X165769562Y-101251132D01*
X165764417Y-101251555D01*
X165678033Y-101273253D01*
X165530441Y-101310325D01*
X165530437Y-101310326D01*
X165525430Y-101311584D01*
X165520697Y-101313642D01*
X165520694Y-101313643D01*
X165304193Y-101407780D01*
X165304190Y-101407782D01*
X165299456Y-101409840D01*
X165295122Y-101412644D01*
X165295118Y-101412646D01*
X165096908Y-101540874D01*
X165096902Y-101540879D01*
X165092564Y-101543685D01*
X165088739Y-101547165D01*
X165088737Y-101547167D01*
X165034598Y-101596430D01*
X164910310Y-101709523D01*
X164907111Y-101713574D01*
X164907107Y-101713578D01*
X164802306Y-101846280D01*
X164757590Y-101902901D01*
X164638503Y-102118625D01*
X164556250Y-102350903D01*
X164513037Y-102593495D01*
X164510027Y-102839888D01*
X158508500Y-102839888D01*
X158508500Y-98769669D01*
X164512001Y-98769669D01*
X164512371Y-98776490D01*
X164517895Y-98827352D01*
X164521521Y-98842604D01*
X164566676Y-98963054D01*
X164575214Y-98978649D01*
X164651715Y-99080724D01*
X164664276Y-99093285D01*
X164766351Y-99169786D01*
X164781946Y-99178324D01*
X164902394Y-99223478D01*
X164917649Y-99227105D01*
X164968514Y-99232631D01*
X164975328Y-99233000D01*
X166727885Y-99233000D01*
X166743124Y-99228525D01*
X166744329Y-99227135D01*
X166746000Y-99219452D01*
X166746000Y-99214884D01*
X167254000Y-99214884D01*
X167258475Y-99230123D01*
X167259865Y-99231328D01*
X167267548Y-99232999D01*
X169024669Y-99232999D01*
X169031490Y-99232629D01*
X169082352Y-99227105D01*
X169097604Y-99223479D01*
X169218054Y-99178324D01*
X169233649Y-99169786D01*
X169335724Y-99093285D01*
X169348285Y-99080724D01*
X169424786Y-98978649D01*
X169433324Y-98963054D01*
X169478478Y-98842606D01*
X169482105Y-98827351D01*
X169487631Y-98776486D01*
X169488000Y-98769672D01*
X169488000Y-98007115D01*
X169483525Y-97991876D01*
X169482135Y-97990671D01*
X169474452Y-97989000D01*
X167272115Y-97989000D01*
X167256876Y-97993475D01*
X167255671Y-97994865D01*
X167254000Y-98002548D01*
X167254000Y-99214884D01*
X166746000Y-99214884D01*
X166746000Y-98007115D01*
X166741525Y-97991876D01*
X166740135Y-97990671D01*
X166732452Y-97989000D01*
X164530116Y-97989000D01*
X164514877Y-97993475D01*
X164513672Y-97994865D01*
X164512001Y-98002548D01*
X164512001Y-98769669D01*
X158508500Y-98769669D01*
X158508500Y-97462885D01*
X164512000Y-97462885D01*
X164516475Y-97478124D01*
X164517865Y-97479329D01*
X164525548Y-97481000D01*
X166727885Y-97481000D01*
X166743124Y-97476525D01*
X166744329Y-97475135D01*
X166746000Y-97467452D01*
X166746000Y-97462885D01*
X167254000Y-97462885D01*
X167258475Y-97478124D01*
X167259865Y-97479329D01*
X167267548Y-97481000D01*
X169469884Y-97481000D01*
X169485123Y-97476525D01*
X169486328Y-97475135D01*
X169487999Y-97467452D01*
X169487999Y-96700331D01*
X169487629Y-96693510D01*
X169482105Y-96642648D01*
X169478479Y-96627396D01*
X169433324Y-96506946D01*
X169424786Y-96491351D01*
X169348285Y-96389276D01*
X169335724Y-96376715D01*
X169233649Y-96300214D01*
X169218054Y-96291676D01*
X169097606Y-96246522D01*
X169082351Y-96242895D01*
X169031486Y-96237369D01*
X169024672Y-96237000D01*
X167272115Y-96237000D01*
X167256876Y-96241475D01*
X167255671Y-96242865D01*
X167254000Y-96250548D01*
X167254000Y-97462885D01*
X166746000Y-97462885D01*
X166746000Y-96255116D01*
X166741525Y-96239877D01*
X166740135Y-96238672D01*
X166732452Y-96237001D01*
X164975331Y-96237001D01*
X164968510Y-96237371D01*
X164917648Y-96242895D01*
X164902396Y-96246521D01*
X164781946Y-96291676D01*
X164766351Y-96300214D01*
X164664276Y-96376715D01*
X164651715Y-96389276D01*
X164575214Y-96491351D01*
X164566676Y-96506946D01*
X164521522Y-96627394D01*
X164517895Y-96642649D01*
X164512369Y-96693514D01*
X164512000Y-96700328D01*
X164512000Y-97462885D01*
X158508500Y-97462885D01*
X158508500Y-92560431D01*
X175088572Y-92560431D01*
X175106036Y-92760047D01*
X175107938Y-92770834D01*
X175159800Y-92964385D01*
X175163548Y-92974679D01*
X175248228Y-93156279D01*
X175253706Y-93165767D01*
X175275018Y-93196204D01*
X175285495Y-93204579D01*
X175298943Y-93197510D01*
X175928685Y-92567768D01*
X175936299Y-92553824D01*
X175936168Y-92551991D01*
X175931917Y-92545376D01*
X175298221Y-91911680D01*
X175286446Y-91905250D01*
X175274431Y-91914546D01*
X175253706Y-91944145D01*
X175248228Y-91953633D01*
X175163548Y-92135233D01*
X175159800Y-92145527D01*
X175107938Y-92339078D01*
X175106036Y-92349865D01*
X175088572Y-92549481D01*
X175088572Y-92560431D01*
X158508500Y-92560431D01*
X158508500Y-91634500D01*
X158528502Y-91566379D01*
X158582158Y-91519886D01*
X158634500Y-91508500D01*
X175561271Y-91508500D01*
X175629392Y-91528502D01*
G37*
%TD.AperFunction*%
%TD*%
M02*
