%TF.GenerationSoftware,KiCad,Pcbnew,(6.0.9)*%
%TF.CreationDate,2022-12-29T11:35:20+01:00*%
%TF.ProjectId,bed_occupacy_sensor,6265645f-6f63-4637-9570-6163795f7365,rev?*%
%TF.SameCoordinates,Original*%
%TF.FileFunction,Soldermask,Bot*%
%TF.FilePolarity,Negative*%
%FSLAX46Y46*%
G04 Gerber Fmt 4.6, Leading zero omitted, Abs format (unit mm)*
G04 Created by KiCad (PCBNEW (6.0.9)) date 2022-12-29 11:35:20*
%MOMM*%
%LPD*%
G01*
G04 APERTURE LIST*
%ADD10O,1.600000X1.600000*%
%ADD11C,1.600000*%
%ADD12C,1.400000*%
%ADD13R,3.960000X1.980000*%
%ADD14O,3.960000X1.980000*%
G04 APERTURE END LIST*
D10*
%TO.C,R2*%
X180380000Y-110000000D03*
D11*
X195620000Y-110000000D03*
%TD*%
D12*
%TO.C,U1*%
X176300707Y-120494956D03*
X176300707Y-117954956D03*
X178840707Y-120494956D03*
X178840707Y-117954956D03*
X181380707Y-120494956D03*
X181380707Y-117954956D03*
X183920707Y-120494956D03*
X183920707Y-117954956D03*
X186460707Y-120494956D03*
X186460707Y-117954956D03*
X189000707Y-120494956D03*
X189000707Y-117954956D03*
X191540707Y-120494956D03*
X191540707Y-117954956D03*
X194080707Y-120494956D03*
X194080707Y-117954956D03*
X196620707Y-120494956D03*
X196620707Y-117954956D03*
X199160707Y-120494956D03*
X199160707Y-117954956D03*
X176300707Y-95094956D03*
X176300707Y-92554956D03*
X178840707Y-95094956D03*
X178840707Y-92554956D03*
X181380707Y-95094956D03*
X181380707Y-92554956D03*
X183920707Y-95094956D03*
X183920707Y-92554956D03*
X186460707Y-95094956D03*
X186460707Y-92554956D03*
X189000707Y-95094956D03*
X189000707Y-92554956D03*
X191540707Y-95094956D03*
X191540707Y-92554956D03*
X194080707Y-95094956D03*
X194080707Y-92554956D03*
X196620707Y-95094956D03*
X196620707Y-92554956D03*
X199160707Y-95094956D03*
X199160707Y-92554956D03*
%TD*%
D13*
%TO.C,J1*%
X167000000Y-97735000D03*
D14*
X167000000Y-102735000D03*
%TD*%
D13*
%TO.C,J2*%
X167000000Y-109235000D03*
D14*
X167000000Y-114235000D03*
%TD*%
D10*
%TO.C,R1*%
X180380000Y-102507537D03*
D11*
X195620000Y-102507537D03*
%TD*%
M02*
