%TF.GenerationSoftware,KiCad,Pcbnew,(6.0.9)*%
%TF.CreationDate,2022-12-04T10:48:40+01:00*%
%TF.ProjectId,bed_occupacy_sensor,6265645f-6f63-4637-9570-6163795f7365,rev?*%
%TF.SameCoordinates,Original*%
%TF.FileFunction,Copper,L1,Top*%
%TF.FilePolarity,Positive*%
%FSLAX46Y46*%
G04 Gerber Fmt 4.6, Leading zero omitted, Abs format (unit mm)*
G04 Created by KiCad (PCBNEW (6.0.9)) date 2022-12-04 10:48:40*
%MOMM*%
%LPD*%
G01*
G04 APERTURE LIST*
%ADD10C,0.300000*%
%TA.AperFunction,NonConductor*%
%ADD11C,0.300000*%
%TD*%
%TA.AperFunction,NonConductor*%
%ADD12C,0.200000*%
%TD*%
%TA.AperFunction,ComponentPad*%
%ADD13C,1.600000*%
%TD*%
%TA.AperFunction,ComponentPad*%
%ADD14O,1.600000X1.600000*%
%TD*%
%TA.AperFunction,ComponentPad*%
%ADD15R,3.960000X1.980000*%
%TD*%
%TA.AperFunction,ComponentPad*%
%ADD16O,3.960000X1.980000*%
%TD*%
%TA.AperFunction,ComponentPad*%
%ADD17C,1.400000*%
%TD*%
%TA.AperFunction,Conductor*%
%ADD18C,0.250000*%
%TD*%
G04 APERTURE END LIST*
D10*
D11*
X209878571Y-113859285D02*
X210878571Y-113859285D01*
X209307142Y-114216428D02*
X210378571Y-114573571D01*
X210378571Y-113645000D01*
X209378571Y-112359285D02*
X209378571Y-113073571D01*
X210092857Y-113145000D01*
X210021428Y-113073571D01*
X209950000Y-112930714D01*
X209950000Y-112573571D01*
X210021428Y-112430714D01*
X210092857Y-112359285D01*
X210235714Y-112287857D01*
X210592857Y-112287857D01*
X210735714Y-112359285D01*
X210807142Y-112430714D01*
X210878571Y-112573571D01*
X210878571Y-112930714D01*
X210807142Y-113073571D01*
X210735714Y-113145000D01*
X210807142Y-111573571D02*
X210878571Y-111573571D01*
X211021428Y-111645000D01*
X211092857Y-111716428D01*
X209378571Y-110645000D02*
X209378571Y-110502142D01*
X209450000Y-110359285D01*
X209521428Y-110287857D01*
X209664285Y-110216428D01*
X209950000Y-110145000D01*
X210307142Y-110145000D01*
X210592857Y-110216428D01*
X210735714Y-110287857D01*
X210807142Y-110359285D01*
X210878571Y-110502142D01*
X210878571Y-110645000D01*
X210807142Y-110787857D01*
X210735714Y-110859285D01*
X210592857Y-110930714D01*
X210307142Y-111002142D01*
X209950000Y-111002142D01*
X209664285Y-110930714D01*
X209521428Y-110859285D01*
X209450000Y-110787857D01*
X209378571Y-110645000D01*
X209378571Y-109216428D02*
X209378571Y-109073571D01*
X209450000Y-108930714D01*
X209521428Y-108859285D01*
X209664285Y-108787857D01*
X209950000Y-108716428D01*
X210307142Y-108716428D01*
X210592857Y-108787857D01*
X210735714Y-108859285D01*
X210807142Y-108930714D01*
X210878571Y-109073571D01*
X210878571Y-109216428D01*
X210807142Y-109359285D01*
X210735714Y-109430714D01*
X210592857Y-109502142D01*
X210307142Y-109573571D01*
X209950000Y-109573571D01*
X209664285Y-109502142D01*
X209521428Y-109430714D01*
X209450000Y-109359285D01*
X209378571Y-109216428D01*
X209378571Y-107787857D02*
X209378571Y-107645000D01*
X209450000Y-107502142D01*
X209521428Y-107430714D01*
X209664285Y-107359285D01*
X209950000Y-107287857D01*
X210307142Y-107287857D01*
X210592857Y-107359285D01*
X210735714Y-107430714D01*
X210807142Y-107502142D01*
X210878571Y-107645000D01*
X210878571Y-107787857D01*
X210807142Y-107930714D01*
X210735714Y-108002142D01*
X210592857Y-108073571D01*
X210307142Y-108145000D01*
X209950000Y-108145000D01*
X209664285Y-108073571D01*
X209521428Y-108002142D01*
X209450000Y-107930714D01*
X209378571Y-107787857D01*
X209378571Y-106359285D02*
X209378571Y-106216428D01*
X209450000Y-106073571D01*
X209521428Y-106002142D01*
X209664285Y-105930714D01*
X209950000Y-105859285D01*
X210307142Y-105859285D01*
X210592857Y-105930714D01*
X210735714Y-106002142D01*
X210807142Y-106073571D01*
X210878571Y-106216428D01*
X210878571Y-106359285D01*
X210807142Y-106502142D01*
X210735714Y-106573571D01*
X210592857Y-106645000D01*
X210307142Y-106716428D01*
X209950000Y-106716428D01*
X209664285Y-106645000D01*
X209521428Y-106573571D01*
X209450000Y-106502142D01*
X209378571Y-106359285D01*
X210878571Y-104073571D02*
X209878571Y-104073571D01*
X210021428Y-104073571D02*
X209950000Y-104002142D01*
X209878571Y-103859285D01*
X209878571Y-103645000D01*
X209950000Y-103502142D01*
X210092857Y-103430714D01*
X210878571Y-103430714D01*
X210092857Y-103430714D02*
X209950000Y-103359285D01*
X209878571Y-103216428D01*
X209878571Y-103002142D01*
X209950000Y-102859285D01*
X210092857Y-102787857D01*
X210878571Y-102787857D01*
X210878571Y-102073571D02*
X209878571Y-102073571D01*
X210021428Y-102073571D02*
X209950000Y-102002142D01*
X209878571Y-101859285D01*
X209878571Y-101645000D01*
X209950000Y-101502142D01*
X210092857Y-101430714D01*
X210878571Y-101430714D01*
X210092857Y-101430714D02*
X209950000Y-101359285D01*
X209878571Y-101216428D01*
X209878571Y-101002142D01*
X209950000Y-100859285D01*
X210092857Y-100787857D01*
X210878571Y-100787857D01*
D12*
X206180000Y-85145000D02*
X212586420Y-85145000D01*
X206180000Y-130145000D02*
X212586420Y-130145000D01*
X212000000Y-85145000D02*
X212000000Y-130145000D01*
X212000000Y-85145000D02*
X212000000Y-130145000D01*
X212000000Y-85145000D02*
X211413579Y-86271504D01*
X212000000Y-85145000D02*
X212586421Y-86271504D01*
X212000000Y-130145000D02*
X212586421Y-129018496D01*
X212000000Y-130145000D02*
X211413579Y-129018496D01*
D10*
D11*
X172037142Y-78378571D02*
X171322857Y-78378571D01*
X171251428Y-79092857D01*
X171322857Y-79021428D01*
X171465714Y-78950000D01*
X171822857Y-78950000D01*
X171965714Y-79021428D01*
X172037142Y-79092857D01*
X172108571Y-79235714D01*
X172108571Y-79592857D01*
X172037142Y-79735714D01*
X171965714Y-79807142D01*
X171822857Y-79878571D01*
X171465714Y-79878571D01*
X171322857Y-79807142D01*
X171251428Y-79735714D01*
X173465714Y-78378571D02*
X172751428Y-78378571D01*
X172680000Y-79092857D01*
X172751428Y-79021428D01*
X172894285Y-78950000D01*
X173251428Y-78950000D01*
X173394285Y-79021428D01*
X173465714Y-79092857D01*
X173537142Y-79235714D01*
X173537142Y-79592857D01*
X173465714Y-79735714D01*
X173394285Y-79807142D01*
X173251428Y-79878571D01*
X172894285Y-79878571D01*
X172751428Y-79807142D01*
X172680000Y-79735714D01*
X174251428Y-79807142D02*
X174251428Y-79878571D01*
X174180000Y-80021428D01*
X174108571Y-80092857D01*
X175180000Y-78378571D02*
X175322857Y-78378571D01*
X175465714Y-78450000D01*
X175537142Y-78521428D01*
X175608571Y-78664285D01*
X175680000Y-78950000D01*
X175680000Y-79307142D01*
X175608571Y-79592857D01*
X175537142Y-79735714D01*
X175465714Y-79807142D01*
X175322857Y-79878571D01*
X175180000Y-79878571D01*
X175037142Y-79807142D01*
X174965714Y-79735714D01*
X174894285Y-79592857D01*
X174822857Y-79307142D01*
X174822857Y-78950000D01*
X174894285Y-78664285D01*
X174965714Y-78521428D01*
X175037142Y-78450000D01*
X175180000Y-78378571D01*
X176608571Y-78378571D02*
X176751428Y-78378571D01*
X176894285Y-78450000D01*
X176965714Y-78521428D01*
X177037142Y-78664285D01*
X177108571Y-78950000D01*
X177108571Y-79307142D01*
X177037142Y-79592857D01*
X176965714Y-79735714D01*
X176894285Y-79807142D01*
X176751428Y-79878571D01*
X176608571Y-79878571D01*
X176465714Y-79807142D01*
X176394285Y-79735714D01*
X176322857Y-79592857D01*
X176251428Y-79307142D01*
X176251428Y-78950000D01*
X176322857Y-78664285D01*
X176394285Y-78521428D01*
X176465714Y-78450000D01*
X176608571Y-78378571D01*
X178037142Y-78378571D02*
X178180000Y-78378571D01*
X178322857Y-78450000D01*
X178394285Y-78521428D01*
X178465714Y-78664285D01*
X178537142Y-78950000D01*
X178537142Y-79307142D01*
X178465714Y-79592857D01*
X178394285Y-79735714D01*
X178322857Y-79807142D01*
X178180000Y-79878571D01*
X178037142Y-79878571D01*
X177894285Y-79807142D01*
X177822857Y-79735714D01*
X177751428Y-79592857D01*
X177680000Y-79307142D01*
X177680000Y-78950000D01*
X177751428Y-78664285D01*
X177822857Y-78521428D01*
X177894285Y-78450000D01*
X178037142Y-78378571D01*
X179465714Y-78378571D02*
X179608571Y-78378571D01*
X179751428Y-78450000D01*
X179822857Y-78521428D01*
X179894285Y-78664285D01*
X179965714Y-78950000D01*
X179965714Y-79307142D01*
X179894285Y-79592857D01*
X179822857Y-79735714D01*
X179751428Y-79807142D01*
X179608571Y-79878571D01*
X179465714Y-79878571D01*
X179322857Y-79807142D01*
X179251428Y-79735714D01*
X179180000Y-79592857D01*
X179108571Y-79307142D01*
X179108571Y-78950000D01*
X179180000Y-78664285D01*
X179251428Y-78521428D01*
X179322857Y-78450000D01*
X179465714Y-78378571D01*
X181751428Y-79878571D02*
X181751428Y-78878571D01*
X181751428Y-79021428D02*
X181822857Y-78950000D01*
X181965714Y-78878571D01*
X182180000Y-78878571D01*
X182322857Y-78950000D01*
X182394285Y-79092857D01*
X182394285Y-79878571D01*
X182394285Y-79092857D02*
X182465714Y-78950000D01*
X182608571Y-78878571D01*
X182822857Y-78878571D01*
X182965714Y-78950000D01*
X183037142Y-79092857D01*
X183037142Y-79878571D01*
X183751428Y-79878571D02*
X183751428Y-78878571D01*
X183751428Y-79021428D02*
X183822857Y-78950000D01*
X183965714Y-78878571D01*
X184180000Y-78878571D01*
X184322857Y-78950000D01*
X184394285Y-79092857D01*
X184394285Y-79878571D01*
X184394285Y-79092857D02*
X184465714Y-78950000D01*
X184608571Y-78878571D01*
X184822857Y-78878571D01*
X184965714Y-78950000D01*
X185037142Y-79092857D01*
X185037142Y-79878571D01*
D12*
X150680000Y-84645000D02*
X150680000Y-80413580D01*
X205680000Y-84645000D02*
X205680000Y-80413580D01*
X150680000Y-81000000D02*
X205680000Y-81000000D01*
X150680000Y-81000000D02*
X205680000Y-81000000D01*
X150680000Y-81000000D02*
X151806504Y-81586421D01*
X150680000Y-81000000D02*
X151806504Y-80413579D01*
X205680000Y-81000000D02*
X204553496Y-80413579D01*
X205680000Y-81000000D02*
X204553496Y-81586421D01*
D13*
%TO.P,R1,1*%
%TO.N,/+3V3*%
X185000000Y-113620000D03*
D14*
%TO.P,R1,2*%
%TO.N,/SIDE_A*%
X185000000Y-98380000D03*
%TD*%
D13*
%TO.P,R2,1*%
%TO.N,/+3V3*%
X192620000Y-113620000D03*
D14*
%TO.P,R2,2*%
%TO.N,/SIDE_B*%
X192620000Y-98380000D03*
%TD*%
D15*
%TO.P,J1,1,Pin_1*%
%TO.N,/GND*%
X164680000Y-98380000D03*
D16*
%TO.P,J1,2,Pin_2*%
%TO.N,/SIDE_A*%
X164680000Y-103380000D03*
%TD*%
D15*
%TO.P,J2,1,Pin_1*%
%TO.N,/GND*%
X164680000Y-111080000D03*
D16*
%TO.P,J2,2,Pin_2*%
%TO.N,/SIDE_B*%
X164680000Y-116080000D03*
%TD*%
D17*
%TO.P,U1,1,GND*%
%TO.N,/GND*%
X175330000Y-94050000D03*
%TO.P,U1,2,RST*%
%TO.N,unconnected-(U1-Pad2)*%
X177870000Y-94050000D03*
%TO.P,U1,3,NC*%
%TO.N,unconnected-(U1-Pad3)*%
X175330000Y-96590000D03*
%TO.P,U1,4,IO_36/SVP/A0*%
%TO.N,unconnected-(U1-Pad4)*%
X177870000Y-96590000D03*
%TO.P,U1,5,IO_39/SVN*%
%TO.N,unconnected-(U1-Pad5)*%
X175330000Y-99130000D03*
%TO.P,U1,6,IO_26/D0*%
%TO.N,unconnected-(U1-Pad6)*%
X177870000Y-99130000D03*
%TO.P,U1,7,IO_35*%
%TO.N,/SIDE_A*%
X175330000Y-101670000D03*
%TO.P,U1,8,IO_18/D5*%
%TO.N,unconnected-(U1-Pad8)*%
X177870000Y-101670000D03*
%TO.P,U1,9,IO_33*%
%TO.N,unconnected-(U1-Pad9)*%
X175330000Y-104210000D03*
%TO.P,U1,10,IO_19/D6*%
%TO.N,unconnected-(U1-Pad10)*%
X177870000Y-104210000D03*
%TO.P,U1,11,IO_34*%
%TO.N,/SIDE_B*%
X175330000Y-106750000D03*
%TO.P,U1,12,IO_23/D7*%
%TO.N,unconnected-(U1-Pad12)*%
X177870000Y-106750000D03*
%TO.P,U1,13,IO_14/TMS*%
%TO.N,unconnected-(U1-Pad13)*%
X175330000Y-109290000D03*
%TO.P,U1,14,IO_05/D8*%
%TO.N,unconnected-(U1-Pad14)*%
X177870000Y-109290000D03*
%TO.P,U1,15,NC*%
%TO.N,unconnected-(U1-Pad15)*%
X175330000Y-111830000D03*
%TO.P,U1,16,3V3*%
%TO.N,/+3V3*%
X177870000Y-111830000D03*
%TO.P,U1,17,IO_09/SD2*%
%TO.N,unconnected-(U1-Pad17)*%
X175330000Y-114370000D03*
%TO.P,U1,18,IO_13/TCK*%
%TO.N,unconnected-(U1-Pad18)*%
X177870000Y-114370000D03*
%TO.P,U1,19,CMD*%
%TO.N,unconnected-(U1-Pad19)*%
X175330000Y-116910000D03*
%TO.P,U1,20,IO_10/SD3*%
%TO.N,unconnected-(U1-Pad20)*%
X177870000Y-116910000D03*
%TO.P,U1,21,TXD*%
%TO.N,unconnected-(U1-Pad21)*%
X200730000Y-94050000D03*
%TO.P,U1,22,GND*%
%TO.N,/GND*%
X203270000Y-94050000D03*
%TO.P,U1,23,RXD*%
%TO.N,unconnected-(U1-Pad23)*%
X200730000Y-96590000D03*
%TO.P,U1,24,IO_27*%
%TO.N,unconnected-(U1-Pad24)*%
X203270000Y-96590000D03*
%TO.P,U1,25,IO_22/D1/SCL*%
%TO.N,unconnected-(U1-Pad25)*%
X200730000Y-99130000D03*
%TO.P,U1,26,IO_25*%
%TO.N,unconnected-(U1-Pad26)*%
X203270000Y-99130000D03*
%TO.P,U1,27,IO_21/D2/SDA*%
%TO.N,unconnected-(U1-Pad27)*%
X200730000Y-101670000D03*
%TO.P,U1,28,IO_32*%
%TO.N,unconnected-(U1-Pad28)*%
X203270000Y-101670000D03*
%TO.P,U1,29,IO_17/D3*%
%TO.N,unconnected-(U1-Pad29)*%
X200730000Y-104210000D03*
%TO.P,U1,30,IO_12/TDI*%
%TO.N,unconnected-(U1-Pad30)*%
X203270000Y-104210000D03*
%TO.P,U1,31,IO_16/D4*%
%TO.N,unconnected-(U1-Pad31)*%
X200730000Y-106750000D03*
%TO.P,U1,32,IO_04*%
%TO.N,unconnected-(U1-Pad32)*%
X203270000Y-106750000D03*
%TO.P,U1,33,GND*%
%TO.N,/GND*%
X200730000Y-109290000D03*
%TO.P,U1,34,IO_00*%
%TO.N,unconnected-(U1-Pad34)*%
X203270000Y-109290000D03*
%TO.P,U1,35,VCC_(USB)*%
%TO.N,unconnected-(U1-Pad35)*%
X200730000Y-111830000D03*
%TO.P,U1,36,IO_02*%
%TO.N,unconnected-(U1-Pad36)*%
X203270000Y-111830000D03*
%TO.P,U1,37,TD0*%
%TO.N,unconnected-(U1-Pad37)*%
X200730000Y-114370000D03*
%TO.P,U1,38,SD1*%
%TO.N,unconnected-(U1-Pad38)*%
X203270000Y-114370000D03*
%TO.P,U1,39,SD0*%
%TO.N,unconnected-(U1-Pad39)*%
X200730000Y-116910000D03*
%TO.P,U1,40,CLK*%
%TO.N,unconnected-(U1-Pad40)*%
X203270000Y-116910000D03*
%TD*%
D18*
%TO.N,/+3V3*%
X192620000Y-113620000D02*
X185000000Y-113620000D01*
%TO.N,/SIDE_B*%
X195160000Y-98380000D02*
X192620000Y-98380000D01*
X195160000Y-116160000D02*
X195160000Y-98380000D01*
X164680000Y-121240000D02*
X164680000Y-116080000D01*
X188489009Y-116160000D02*
X183409009Y-121240000D01*
X183409009Y-121240000D02*
X164680000Y-121240000D01*
X195160000Y-116160000D02*
X188489009Y-116160000D01*
X172300000Y-113620000D02*
X172300000Y-109780000D01*
X169840000Y-116080000D02*
X172300000Y-113620000D01*
X172300000Y-109780000D02*
X175330000Y-106750000D01*
X164680000Y-116080000D02*
X169840000Y-116080000D01*
%TO.N,/+3V3*%
X183210000Y-111830000D02*
X185000000Y-113620000D01*
X177870000Y-111830000D02*
X183210000Y-111830000D01*
%TO.N,/SIDE_A*%
X176845000Y-100155000D02*
X183225000Y-100155000D01*
X183225000Y-100155000D02*
X185000000Y-98380000D01*
X175330000Y-101670000D02*
X176845000Y-100155000D01*
X164875000Y-103185000D02*
X173815000Y-103185000D01*
X164680000Y-103380000D02*
X164875000Y-103185000D01*
X173815000Y-103185000D02*
X175330000Y-101670000D01*
%TD*%
%TA.AperFunction,Conductor*%
%TO.N,/GND*%
G36*
X174655141Y-93020002D02*
G01*
X174676115Y-93036905D01*
X175317188Y-93677978D01*
X175331132Y-93685592D01*
X175332965Y-93685461D01*
X175339580Y-93681210D01*
X175983885Y-93036905D01*
X176046197Y-93002879D01*
X176072980Y-93000000D01*
X176906733Y-93000000D01*
X176974854Y-93020002D01*
X177021347Y-93073658D01*
X177031451Y-93143932D01*
X177001957Y-93208512D01*
X176995828Y-93215095D01*
X176940699Y-93270224D01*
X176819411Y-93443442D01*
X176730044Y-93635090D01*
X176728622Y-93640397D01*
X176728618Y-93640408D01*
X176721447Y-93667171D01*
X176684496Y-93727793D01*
X176620635Y-93758815D01*
X176550140Y-93750386D01*
X176495394Y-93705182D01*
X176478034Y-93667170D01*
X176470908Y-93640574D01*
X176467159Y-93630277D01*
X176382479Y-93448677D01*
X176377001Y-93439189D01*
X176355689Y-93408752D01*
X176345212Y-93400377D01*
X176331764Y-93407446D01*
X175702022Y-94037188D01*
X175694408Y-94051132D01*
X175694539Y-94052965D01*
X175698790Y-94059580D01*
X176332486Y-94693276D01*
X176344261Y-94699706D01*
X176356276Y-94690410D01*
X176377001Y-94660811D01*
X176382479Y-94651323D01*
X176467159Y-94469723D01*
X176470908Y-94459426D01*
X176478034Y-94432830D01*
X176514986Y-94372207D01*
X176578846Y-94341186D01*
X176649341Y-94349614D01*
X176704088Y-94394817D01*
X176721447Y-94432829D01*
X176728618Y-94459592D01*
X176728621Y-94459600D01*
X176730044Y-94464910D01*
X176819411Y-94656558D01*
X176940699Y-94829776D01*
X177090224Y-94979301D01*
X177263442Y-95100589D01*
X177268420Y-95102910D01*
X177268423Y-95102912D01*
X177449092Y-95187159D01*
X177455090Y-95189956D01*
X177460398Y-95191378D01*
X177460400Y-95191379D01*
X177486204Y-95198293D01*
X177546827Y-95235245D01*
X177577848Y-95299106D01*
X177569420Y-95369600D01*
X177524217Y-95424347D01*
X177486204Y-95441707D01*
X177460400Y-95448621D01*
X177460398Y-95448622D01*
X177455090Y-95450044D01*
X177450109Y-95452366D01*
X177450108Y-95452367D01*
X177268423Y-95537088D01*
X177268420Y-95537090D01*
X177263442Y-95539411D01*
X177090224Y-95660699D01*
X176940699Y-95810224D01*
X176819411Y-95983442D01*
X176730044Y-96175090D01*
X176728622Y-96180398D01*
X176728621Y-96180400D01*
X176721707Y-96206204D01*
X176684755Y-96266827D01*
X176620894Y-96297848D01*
X176550400Y-96289420D01*
X176495653Y-96244217D01*
X176478293Y-96206204D01*
X176471379Y-96180400D01*
X176471378Y-96180398D01*
X176469956Y-96175090D01*
X176380589Y-95983442D01*
X176259301Y-95810224D01*
X176109776Y-95660699D01*
X175936558Y-95539411D01*
X175931580Y-95537090D01*
X175931577Y-95537088D01*
X175749892Y-95452367D01*
X175749891Y-95452366D01*
X175744910Y-95450044D01*
X175739603Y-95448622D01*
X175739592Y-95448618D01*
X175712829Y-95441447D01*
X175652207Y-95404496D01*
X175621185Y-95340635D01*
X175629614Y-95270140D01*
X175674818Y-95215394D01*
X175712830Y-95198034D01*
X175739426Y-95190908D01*
X175749723Y-95187159D01*
X175931323Y-95102479D01*
X175940811Y-95097001D01*
X175971248Y-95075689D01*
X175979623Y-95065212D01*
X175972554Y-95051764D01*
X175342812Y-94422022D01*
X175328868Y-94414408D01*
X175327035Y-94414539D01*
X175320420Y-94418790D01*
X174686724Y-95052486D01*
X174680294Y-95064261D01*
X174689590Y-95076276D01*
X174719189Y-95097001D01*
X174728677Y-95102479D01*
X174910277Y-95187159D01*
X174920574Y-95190908D01*
X174947170Y-95198034D01*
X175007793Y-95234986D01*
X175038814Y-95298846D01*
X175030386Y-95369341D01*
X174985183Y-95424088D01*
X174947171Y-95441447D01*
X174920408Y-95448618D01*
X174920397Y-95448622D01*
X174915090Y-95450044D01*
X174910109Y-95452366D01*
X174910108Y-95452367D01*
X174728423Y-95537088D01*
X174728420Y-95537090D01*
X174723442Y-95539411D01*
X174550224Y-95660699D01*
X174400699Y-95810224D01*
X174279411Y-95983442D01*
X174190044Y-96175090D01*
X174135314Y-96379345D01*
X174116884Y-96590000D01*
X174135314Y-96800655D01*
X174136738Y-96805968D01*
X174136738Y-96805970D01*
X174161965Y-96900116D01*
X174190044Y-97004910D01*
X174192366Y-97009891D01*
X174192367Y-97009892D01*
X174227847Y-97085978D01*
X174279411Y-97196558D01*
X174400699Y-97369776D01*
X174550224Y-97519301D01*
X174723442Y-97640589D01*
X174728420Y-97642910D01*
X174728423Y-97642912D01*
X174900711Y-97723251D01*
X174915090Y-97729956D01*
X174920398Y-97731378D01*
X174920400Y-97731379D01*
X174946204Y-97738293D01*
X175006827Y-97775245D01*
X175037848Y-97839106D01*
X175029420Y-97909600D01*
X174984217Y-97964347D01*
X174946204Y-97981707D01*
X174920400Y-97988621D01*
X174920398Y-97988622D01*
X174915090Y-97990044D01*
X174910109Y-97992366D01*
X174910108Y-97992367D01*
X174728423Y-98077088D01*
X174728420Y-98077090D01*
X174723442Y-98079411D01*
X174550224Y-98200699D01*
X174400699Y-98350224D01*
X174279411Y-98523442D01*
X174277090Y-98528420D01*
X174277088Y-98528423D01*
X174226516Y-98636876D01*
X174190044Y-98715090D01*
X174188622Y-98720398D01*
X174188621Y-98720400D01*
X174159457Y-98829243D01*
X174135314Y-98919345D01*
X174116884Y-99130000D01*
X174135314Y-99340655D01*
X174136738Y-99345968D01*
X174136738Y-99345970D01*
X174187798Y-99536526D01*
X174190044Y-99544910D01*
X174192366Y-99549891D01*
X174192367Y-99549892D01*
X174259332Y-99693498D01*
X174279411Y-99736558D01*
X174400699Y-99909776D01*
X174550224Y-100059301D01*
X174723442Y-100180589D01*
X174728420Y-100182910D01*
X174728423Y-100182912D01*
X174910108Y-100267633D01*
X174915090Y-100269956D01*
X174920398Y-100271378D01*
X174920400Y-100271379D01*
X174946204Y-100278293D01*
X175006827Y-100315245D01*
X175037848Y-100379106D01*
X175029420Y-100449600D01*
X174984217Y-100504347D01*
X174946204Y-100521707D01*
X174920400Y-100528621D01*
X174920398Y-100528622D01*
X174915090Y-100530044D01*
X174910109Y-100532366D01*
X174910108Y-100532367D01*
X174728423Y-100617088D01*
X174728420Y-100617090D01*
X174723442Y-100619411D01*
X174550224Y-100740699D01*
X174400699Y-100890224D01*
X174279411Y-101063442D01*
X174190044Y-101255090D01*
X174188622Y-101260398D01*
X174188621Y-101260400D01*
X174136738Y-101454030D01*
X174135314Y-101459345D01*
X174116884Y-101670000D01*
X174117363Y-101675475D01*
X174134835Y-101875175D01*
X174135314Y-101880655D01*
X174136736Y-101885961D01*
X174137547Y-101890561D01*
X174129679Y-101961121D01*
X174102557Y-102001538D01*
X173589500Y-102514595D01*
X173527188Y-102548621D01*
X173500405Y-102551500D01*
X166984866Y-102551500D01*
X166916745Y-102531498D01*
X166884106Y-102501153D01*
X166797521Y-102385832D01*
X166797519Y-102385829D01*
X166794416Y-102381697D01*
X166616269Y-102211455D01*
X166587994Y-102192167D01*
X166416989Y-102075515D01*
X166416984Y-102075512D01*
X166412709Y-102072596D01*
X166408020Y-102070420D01*
X166408014Y-102070416D01*
X166193894Y-101971025D01*
X166193889Y-101971023D01*
X166189203Y-101968848D01*
X166184225Y-101967468D01*
X166184221Y-101967466D01*
X165956726Y-101904377D01*
X165956725Y-101904377D01*
X165951753Y-101902998D01*
X165835379Y-101890561D01*
X165753929Y-101881856D01*
X165753921Y-101881856D01*
X165750594Y-101881500D01*
X163627531Y-101881500D01*
X163624958Y-101881712D01*
X163624947Y-101881712D01*
X163449568Y-101896131D01*
X163449562Y-101896132D01*
X163444417Y-101896555D01*
X163324923Y-101926570D01*
X163210441Y-101955325D01*
X163210437Y-101955326D01*
X163205430Y-101956584D01*
X163200697Y-101958642D01*
X163200694Y-101958643D01*
X162984193Y-102052780D01*
X162984190Y-102052782D01*
X162979456Y-102054840D01*
X162975122Y-102057644D01*
X162975118Y-102057646D01*
X162776908Y-102185874D01*
X162776902Y-102185879D01*
X162772564Y-102188685D01*
X162768739Y-102192165D01*
X162768737Y-102192167D01*
X162714598Y-102241430D01*
X162590310Y-102354523D01*
X162587111Y-102358574D01*
X162587107Y-102358578D01*
X162518647Y-102445264D01*
X162437590Y-102547901D01*
X162318503Y-102763625D01*
X162236250Y-102995903D01*
X162193037Y-103238495D01*
X162190027Y-103484888D01*
X162227299Y-103728464D01*
X162303853Y-103962682D01*
X162306241Y-103967270D01*
X162306243Y-103967274D01*
X162321392Y-103996375D01*
X162417633Y-104181252D01*
X162420736Y-104185385D01*
X162420738Y-104185388D01*
X162562479Y-104374168D01*
X162565584Y-104378303D01*
X162743731Y-104548545D01*
X162748003Y-104551459D01*
X162748004Y-104551460D01*
X162943011Y-104684485D01*
X162943016Y-104684488D01*
X162947291Y-104687404D01*
X162951980Y-104689580D01*
X162951986Y-104689584D01*
X163166106Y-104788975D01*
X163166111Y-104788977D01*
X163170797Y-104791152D01*
X163175775Y-104792532D01*
X163175779Y-104792534D01*
X163403274Y-104855623D01*
X163408247Y-104857002D01*
X163514864Y-104868396D01*
X163606071Y-104878144D01*
X163606079Y-104878144D01*
X163609406Y-104878500D01*
X165732469Y-104878500D01*
X165735042Y-104878288D01*
X165735053Y-104878288D01*
X165910432Y-104863869D01*
X165910438Y-104863868D01*
X165915583Y-104863445D01*
X166084314Y-104821063D01*
X166149559Y-104804675D01*
X166149563Y-104804674D01*
X166154570Y-104803416D01*
X166159303Y-104801358D01*
X166159306Y-104801357D01*
X166375807Y-104707220D01*
X166375810Y-104707218D01*
X166380544Y-104705160D01*
X166384878Y-104702356D01*
X166384882Y-104702354D01*
X166583092Y-104574126D01*
X166583098Y-104574121D01*
X166587436Y-104571315D01*
X166604506Y-104555783D01*
X166747168Y-104425970D01*
X166769690Y-104405477D01*
X166772889Y-104401426D01*
X166772893Y-104401422D01*
X166919205Y-104216157D01*
X166922410Y-104212099D01*
X166968108Y-104129318D01*
X167038996Y-104000906D01*
X167038997Y-104000903D01*
X167041497Y-103996375D01*
X167074761Y-103902440D01*
X167116353Y-103844904D01*
X167182451Y-103818988D01*
X167193533Y-103818500D01*
X173736233Y-103818500D01*
X173747416Y-103819027D01*
X173754909Y-103820702D01*
X173762835Y-103820453D01*
X173762836Y-103820453D01*
X173822986Y-103818562D01*
X173826945Y-103818500D01*
X173854856Y-103818500D01*
X173858791Y-103818003D01*
X173858856Y-103817995D01*
X173870693Y-103817062D01*
X173902951Y-103816048D01*
X173906970Y-103815922D01*
X173914889Y-103815673D01*
X173934343Y-103810021D01*
X173953700Y-103806013D01*
X173965930Y-103804468D01*
X173965931Y-103804468D01*
X173973797Y-103803474D01*
X173981167Y-103800556D01*
X173988848Y-103798584D01*
X173989235Y-103800090D01*
X174050972Y-103794436D01*
X174113950Y-103827213D01*
X174149210Y-103888835D01*
X174148354Y-103950678D01*
X174136739Y-103994023D01*
X174136738Y-103994030D01*
X174135314Y-103999345D01*
X174116884Y-104210000D01*
X174135314Y-104420655D01*
X174190044Y-104624910D01*
X174192366Y-104629891D01*
X174192367Y-104629892D01*
X174273283Y-104803416D01*
X174279411Y-104816558D01*
X174400699Y-104989776D01*
X174550224Y-105139301D01*
X174723442Y-105260589D01*
X174728420Y-105262910D01*
X174728423Y-105262912D01*
X174910108Y-105347633D01*
X174915090Y-105349956D01*
X174920398Y-105351378D01*
X174920400Y-105351379D01*
X174946204Y-105358293D01*
X175006827Y-105395245D01*
X175037848Y-105459106D01*
X175029420Y-105529600D01*
X174984217Y-105584347D01*
X174946204Y-105601707D01*
X174920400Y-105608621D01*
X174920398Y-105608622D01*
X174915090Y-105610044D01*
X174910109Y-105612366D01*
X174910108Y-105612367D01*
X174728423Y-105697088D01*
X174728420Y-105697090D01*
X174723442Y-105699411D01*
X174550224Y-105820699D01*
X174400699Y-105970224D01*
X174279411Y-106143442D01*
X174190044Y-106335090D01*
X174135314Y-106539345D01*
X174116884Y-106750000D01*
X174117363Y-106755475D01*
X174134835Y-106955175D01*
X174135314Y-106960655D01*
X174136736Y-106965961D01*
X174137547Y-106970561D01*
X174129679Y-107041121D01*
X174102557Y-107081538D01*
X171907747Y-109276348D01*
X171899461Y-109283888D01*
X171892982Y-109288000D01*
X171887557Y-109293777D01*
X171846357Y-109337651D01*
X171843602Y-109340493D01*
X171823865Y-109360230D01*
X171821385Y-109363427D01*
X171813682Y-109372447D01*
X171783414Y-109404679D01*
X171779595Y-109411625D01*
X171779593Y-109411628D01*
X171773652Y-109422434D01*
X171762801Y-109438953D01*
X171750386Y-109454959D01*
X171747241Y-109462228D01*
X171747238Y-109462232D01*
X171732826Y-109495537D01*
X171727609Y-109506187D01*
X171706305Y-109544940D01*
X171704334Y-109552615D01*
X171704334Y-109552616D01*
X171701267Y-109564562D01*
X171694863Y-109583266D01*
X171686819Y-109601855D01*
X171685580Y-109609678D01*
X171685577Y-109609688D01*
X171679901Y-109645524D01*
X171677495Y-109657144D01*
X171676243Y-109662022D01*
X171666500Y-109699970D01*
X171666500Y-109720224D01*
X171664949Y-109739934D01*
X171661780Y-109759943D01*
X171662526Y-109767835D01*
X171665941Y-109803961D01*
X171666500Y-109815819D01*
X171666500Y-113305405D01*
X171646498Y-113373526D01*
X171629595Y-113394500D01*
X169614500Y-115409595D01*
X169552188Y-115443621D01*
X169525405Y-115446500D01*
X167106151Y-115446500D01*
X167038030Y-115426498D01*
X166994390Y-115378683D01*
X166942367Y-115278748D01*
X166919207Y-115247901D01*
X166797521Y-115085832D01*
X166797519Y-115085830D01*
X166794416Y-115081697D01*
X166616269Y-114911455D01*
X166587994Y-114892167D01*
X166416989Y-114775515D01*
X166416984Y-114775512D01*
X166412709Y-114772596D01*
X166408020Y-114770420D01*
X166408014Y-114770416D01*
X166193894Y-114671025D01*
X166193889Y-114671023D01*
X166189203Y-114668848D01*
X166184225Y-114667468D01*
X166184221Y-114667466D01*
X165956726Y-114604377D01*
X165956725Y-114604377D01*
X165951753Y-114602998D01*
X165845136Y-114591604D01*
X165753929Y-114581856D01*
X165753921Y-114581856D01*
X165750594Y-114581500D01*
X163627531Y-114581500D01*
X163624958Y-114581712D01*
X163624947Y-114581712D01*
X163449568Y-114596131D01*
X163449562Y-114596132D01*
X163444417Y-114596555D01*
X163341917Y-114622301D01*
X163210441Y-114655325D01*
X163210437Y-114655326D01*
X163205430Y-114656584D01*
X163200697Y-114658642D01*
X163200694Y-114658643D01*
X162984193Y-114752780D01*
X162984190Y-114752782D01*
X162979456Y-114754840D01*
X162975122Y-114757644D01*
X162975118Y-114757646D01*
X162776908Y-114885874D01*
X162776902Y-114885879D01*
X162772564Y-114888685D01*
X162768739Y-114892165D01*
X162768737Y-114892167D01*
X162723841Y-114933019D01*
X162590310Y-115054523D01*
X162587111Y-115058574D01*
X162587107Y-115058578D01*
X162518647Y-115145264D01*
X162437590Y-115247901D01*
X162407472Y-115302460D01*
X162327957Y-115446500D01*
X162318503Y-115463625D01*
X162236250Y-115695903D01*
X162193037Y-115938495D01*
X162192974Y-115943658D01*
X162190623Y-116136138D01*
X162190027Y-116184888D01*
X162227299Y-116428464D01*
X162303853Y-116662682D01*
X162306241Y-116667270D01*
X162306243Y-116667274D01*
X162367360Y-116784679D01*
X162417633Y-116881252D01*
X162420736Y-116885385D01*
X162420738Y-116885388D01*
X162562479Y-117074168D01*
X162565584Y-117078303D01*
X162743731Y-117248545D01*
X162748003Y-117251459D01*
X162748004Y-117251460D01*
X162943011Y-117384485D01*
X162943016Y-117384488D01*
X162947291Y-117387404D01*
X162951980Y-117389580D01*
X162951986Y-117389584D01*
X163166106Y-117488975D01*
X163166111Y-117488977D01*
X163170797Y-117491152D01*
X163175775Y-117492532D01*
X163175779Y-117492534D01*
X163403274Y-117555623D01*
X163408247Y-117557002D01*
X163514864Y-117568396D01*
X163606071Y-117578144D01*
X163606079Y-117578144D01*
X163609406Y-117578500D01*
X163920500Y-117578500D01*
X163988621Y-117598502D01*
X164035114Y-117652158D01*
X164046500Y-117704500D01*
X164046500Y-121168207D01*
X164044268Y-121191816D01*
X164042725Y-121199906D01*
X164043223Y-121207817D01*
X164046251Y-121255951D01*
X164046500Y-121263862D01*
X164046500Y-121279856D01*
X164048506Y-121295730D01*
X164049248Y-121303590D01*
X164052775Y-121359650D01*
X164055225Y-121367191D01*
X164055321Y-121367487D01*
X164060494Y-121390631D01*
X164060532Y-121390935D01*
X164060533Y-121390940D01*
X164061526Y-121398797D01*
X164064442Y-121406162D01*
X164064443Y-121406166D01*
X164082199Y-121451011D01*
X164084871Y-121458430D01*
X164102236Y-121511875D01*
X164106486Y-121518571D01*
X164106486Y-121518572D01*
X164106650Y-121518831D01*
X164117415Y-121539958D01*
X164117529Y-121540246D01*
X164117532Y-121540251D01*
X164120448Y-121547617D01*
X164125104Y-121554025D01*
X164125107Y-121554031D01*
X164153458Y-121593052D01*
X164157901Y-121599589D01*
X164188000Y-121647018D01*
X164193778Y-121652444D01*
X164193779Y-121652445D01*
X164194007Y-121652659D01*
X164209688Y-121670446D01*
X164214528Y-121677107D01*
X164220637Y-121682161D01*
X164220638Y-121682162D01*
X164257796Y-121712903D01*
X164263730Y-121718134D01*
X164298898Y-121751158D01*
X164298901Y-121751160D01*
X164304679Y-121756586D01*
X164311903Y-121760558D01*
X164331506Y-121773881D01*
X164331746Y-121774080D01*
X164331753Y-121774084D01*
X164337856Y-121779133D01*
X164371342Y-121794890D01*
X164388676Y-121803047D01*
X164395708Y-121806629D01*
X164444940Y-121833695D01*
X164452615Y-121835665D01*
X164452621Y-121835668D01*
X164452919Y-121835744D01*
X164475228Y-121843776D01*
X164475503Y-121843906D01*
X164475511Y-121843909D01*
X164482682Y-121847283D01*
X164537849Y-121857806D01*
X164545558Y-121859529D01*
X164579551Y-121868257D01*
X164592293Y-121871529D01*
X164592294Y-121871529D01*
X164599970Y-121873500D01*
X164608207Y-121873500D01*
X164631816Y-121875732D01*
X164632119Y-121875790D01*
X164632123Y-121875790D01*
X164639906Y-121877275D01*
X164695951Y-121873749D01*
X164703862Y-121873500D01*
X183330242Y-121873500D01*
X183341425Y-121874027D01*
X183348918Y-121875702D01*
X183356844Y-121875453D01*
X183356845Y-121875453D01*
X183416995Y-121873562D01*
X183420954Y-121873500D01*
X183448865Y-121873500D01*
X183452800Y-121873003D01*
X183452865Y-121872995D01*
X183464702Y-121872062D01*
X183496960Y-121871048D01*
X183500979Y-121870922D01*
X183508898Y-121870673D01*
X183528352Y-121865021D01*
X183547709Y-121861013D01*
X183559939Y-121859468D01*
X183559940Y-121859468D01*
X183567806Y-121858474D01*
X183575177Y-121855555D01*
X183575179Y-121855555D01*
X183608921Y-121842196D01*
X183620151Y-121838351D01*
X183654992Y-121828229D01*
X183654993Y-121828229D01*
X183662602Y-121826018D01*
X183669421Y-121821985D01*
X183669426Y-121821983D01*
X183680037Y-121815707D01*
X183697785Y-121807012D01*
X183716626Y-121799552D01*
X183752396Y-121773564D01*
X183762316Y-121767048D01*
X183793544Y-121748580D01*
X183793547Y-121748578D01*
X183800371Y-121744542D01*
X183814692Y-121730221D01*
X183829726Y-121717380D01*
X183839703Y-121710131D01*
X183846116Y-121705472D01*
X183874307Y-121671395D01*
X183882297Y-121662616D01*
X188714509Y-116830405D01*
X188776821Y-116796379D01*
X188803604Y-116793500D01*
X195088207Y-116793500D01*
X195111816Y-116795732D01*
X195112119Y-116795790D01*
X195112123Y-116795790D01*
X195119906Y-116797275D01*
X195175951Y-116793749D01*
X195183862Y-116793500D01*
X195199856Y-116793500D01*
X195215730Y-116791494D01*
X195223590Y-116790752D01*
X195251049Y-116789024D01*
X195271737Y-116787723D01*
X195271738Y-116787723D01*
X195279650Y-116787225D01*
X195287191Y-116784775D01*
X195287487Y-116784679D01*
X195310631Y-116779506D01*
X195310935Y-116779468D01*
X195310940Y-116779467D01*
X195318797Y-116778474D01*
X195326162Y-116775558D01*
X195326166Y-116775557D01*
X195371011Y-116757801D01*
X195378430Y-116755129D01*
X195431875Y-116737764D01*
X195438572Y-116733514D01*
X195438831Y-116733350D01*
X195459958Y-116722585D01*
X195460246Y-116722471D01*
X195460251Y-116722468D01*
X195467617Y-116719552D01*
X195474025Y-116714896D01*
X195474031Y-116714893D01*
X195513052Y-116686542D01*
X195519589Y-116682099D01*
X195567018Y-116652000D01*
X195572659Y-116645993D01*
X195590446Y-116630312D01*
X195590691Y-116630134D01*
X195590693Y-116630132D01*
X195597107Y-116625472D01*
X195602162Y-116619362D01*
X195632903Y-116582204D01*
X195638134Y-116576270D01*
X195671158Y-116541102D01*
X195671160Y-116541099D01*
X195676586Y-116535321D01*
X195680558Y-116528097D01*
X195693881Y-116508494D01*
X195694080Y-116508254D01*
X195694084Y-116508247D01*
X195699133Y-116502144D01*
X195723047Y-116451324D01*
X195726629Y-116444292D01*
X195753695Y-116395060D01*
X195755665Y-116387385D01*
X195755668Y-116387379D01*
X195755744Y-116387081D01*
X195763776Y-116364772D01*
X195763906Y-116364497D01*
X195763909Y-116364489D01*
X195767283Y-116357318D01*
X195777806Y-116302151D01*
X195779532Y-116294429D01*
X195791529Y-116247707D01*
X195791529Y-116247706D01*
X195793500Y-116240030D01*
X195793500Y-116231793D01*
X195795732Y-116208184D01*
X195795790Y-116207881D01*
X195795790Y-116207877D01*
X195797275Y-116200094D01*
X195793749Y-116144049D01*
X195793500Y-116136138D01*
X195793500Y-109295475D01*
X199517865Y-109295475D01*
X199535329Y-109495091D01*
X199537231Y-109505878D01*
X199589093Y-109699429D01*
X199592841Y-109709723D01*
X199677521Y-109891323D01*
X199682999Y-109900811D01*
X199704311Y-109931248D01*
X199714788Y-109939623D01*
X199728236Y-109932554D01*
X200357978Y-109302812D01*
X200365592Y-109288868D01*
X200365461Y-109287035D01*
X200361210Y-109280420D01*
X199727514Y-108646724D01*
X199715739Y-108640294D01*
X199703724Y-108649590D01*
X199682999Y-108679189D01*
X199677521Y-108688677D01*
X199592841Y-108870277D01*
X199589093Y-108880571D01*
X199537231Y-109074122D01*
X199535329Y-109084909D01*
X199517865Y-109284525D01*
X199517865Y-109295475D01*
X195793500Y-109295475D01*
X195793500Y-98451793D01*
X195795732Y-98428184D01*
X195795790Y-98427881D01*
X195795790Y-98427877D01*
X195797275Y-98420094D01*
X195793749Y-98364049D01*
X195793500Y-98356138D01*
X195793500Y-98340144D01*
X195791494Y-98324270D01*
X195790751Y-98316402D01*
X195787723Y-98268263D01*
X195787723Y-98268262D01*
X195787225Y-98260350D01*
X195784679Y-98252513D01*
X195779506Y-98229369D01*
X195779468Y-98229065D01*
X195779467Y-98229060D01*
X195778474Y-98221203D01*
X195775558Y-98213838D01*
X195775557Y-98213834D01*
X195757801Y-98168989D01*
X195755129Y-98161570D01*
X195737764Y-98108125D01*
X195733514Y-98101428D01*
X195733350Y-98101169D01*
X195722585Y-98080042D01*
X195722471Y-98079754D01*
X195722468Y-98079749D01*
X195719552Y-98072383D01*
X195714896Y-98065975D01*
X195714893Y-98065969D01*
X195686542Y-98026948D01*
X195682092Y-98020401D01*
X195652000Y-97972982D01*
X195645993Y-97967341D01*
X195630312Y-97949554D01*
X195630134Y-97949309D01*
X195630132Y-97949307D01*
X195625472Y-97942893D01*
X195616311Y-97935314D01*
X195582204Y-97907097D01*
X195576270Y-97901866D01*
X195541102Y-97868842D01*
X195541099Y-97868840D01*
X195535321Y-97863414D01*
X195528097Y-97859442D01*
X195508494Y-97846119D01*
X195508254Y-97845920D01*
X195508247Y-97845916D01*
X195502144Y-97840867D01*
X195451324Y-97816953D01*
X195444292Y-97813371D01*
X195395060Y-97786305D01*
X195387385Y-97784335D01*
X195387379Y-97784332D01*
X195387081Y-97784256D01*
X195364772Y-97776224D01*
X195364497Y-97776094D01*
X195364489Y-97776091D01*
X195357318Y-97772717D01*
X195302151Y-97762194D01*
X195294442Y-97760471D01*
X195260449Y-97751743D01*
X195247707Y-97748471D01*
X195247706Y-97748471D01*
X195240030Y-97746500D01*
X195231793Y-97746500D01*
X195208184Y-97744268D01*
X195207881Y-97744210D01*
X195207877Y-97744210D01*
X195200094Y-97742725D01*
X195144049Y-97746251D01*
X195136138Y-97746500D01*
X193839394Y-97746500D01*
X193771273Y-97726498D01*
X193736181Y-97692771D01*
X193629357Y-97540211D01*
X193629355Y-97540208D01*
X193626198Y-97535700D01*
X193464300Y-97373802D01*
X193459792Y-97370645D01*
X193459789Y-97370643D01*
X193341261Y-97287649D01*
X193276749Y-97242477D01*
X193271767Y-97240154D01*
X193271762Y-97240151D01*
X193074225Y-97148039D01*
X193074224Y-97148039D01*
X193069243Y-97145716D01*
X193063935Y-97144294D01*
X193063933Y-97144293D01*
X192853402Y-97087881D01*
X192853400Y-97087881D01*
X192848087Y-97086457D01*
X192620000Y-97066502D01*
X192391913Y-97086457D01*
X192386600Y-97087881D01*
X192386598Y-97087881D01*
X192176067Y-97144293D01*
X192176065Y-97144294D01*
X192170757Y-97145716D01*
X192165776Y-97148039D01*
X192165775Y-97148039D01*
X191968238Y-97240151D01*
X191968233Y-97240154D01*
X191963251Y-97242477D01*
X191898739Y-97287649D01*
X191780211Y-97370643D01*
X191780208Y-97370645D01*
X191775700Y-97373802D01*
X191613802Y-97535700D01*
X191482477Y-97723251D01*
X191480154Y-97728233D01*
X191480151Y-97728238D01*
X191392185Y-97916884D01*
X191385716Y-97930757D01*
X191384294Y-97936065D01*
X191384293Y-97936067D01*
X191336171Y-98115661D01*
X191326457Y-98151913D01*
X191306502Y-98380000D01*
X191326457Y-98608087D01*
X191327881Y-98613400D01*
X191327881Y-98613402D01*
X191379710Y-98806827D01*
X191385716Y-98829243D01*
X191388039Y-98834224D01*
X191388039Y-98834225D01*
X191480151Y-99031762D01*
X191480154Y-99031767D01*
X191482477Y-99036749D01*
X191613802Y-99224300D01*
X191775700Y-99386198D01*
X191780208Y-99389355D01*
X191780211Y-99389357D01*
X191816365Y-99414672D01*
X191963251Y-99517523D01*
X191968233Y-99519846D01*
X191968238Y-99519849D01*
X192165775Y-99611961D01*
X192170757Y-99614284D01*
X192176065Y-99615706D01*
X192176067Y-99615707D01*
X192386598Y-99672119D01*
X192386600Y-99672119D01*
X192391913Y-99673543D01*
X192620000Y-99693498D01*
X192848087Y-99673543D01*
X192853400Y-99672119D01*
X192853402Y-99672119D01*
X193063933Y-99615707D01*
X193063935Y-99615706D01*
X193069243Y-99614284D01*
X193074225Y-99611961D01*
X193271762Y-99519849D01*
X193271767Y-99519846D01*
X193276749Y-99517523D01*
X193423635Y-99414672D01*
X193459789Y-99389357D01*
X193459792Y-99389355D01*
X193464300Y-99386198D01*
X193626198Y-99224300D01*
X193692228Y-99130000D01*
X193736181Y-99067229D01*
X193791638Y-99022901D01*
X193839394Y-99013500D01*
X194400500Y-99013500D01*
X194468621Y-99033502D01*
X194515114Y-99087158D01*
X194526500Y-99139500D01*
X194526500Y-115400500D01*
X194506498Y-115468621D01*
X194452842Y-115515114D01*
X194400500Y-115526500D01*
X188567776Y-115526500D01*
X188556593Y-115525973D01*
X188549100Y-115524298D01*
X188541174Y-115524547D01*
X188541173Y-115524547D01*
X188481010Y-115526438D01*
X188477052Y-115526500D01*
X188449153Y-115526500D01*
X188445163Y-115527004D01*
X188433329Y-115527936D01*
X188389120Y-115529326D01*
X188381506Y-115531538D01*
X188381501Y-115531539D01*
X188369668Y-115534977D01*
X188350305Y-115538988D01*
X188330212Y-115541526D01*
X188322845Y-115544443D01*
X188322840Y-115544444D01*
X188289101Y-115557802D01*
X188277874Y-115561646D01*
X188235416Y-115573982D01*
X188228590Y-115578019D01*
X188217981Y-115584293D01*
X188200233Y-115592988D01*
X188181392Y-115600448D01*
X188174976Y-115605110D01*
X188174975Y-115605110D01*
X188145622Y-115626436D01*
X188135702Y-115632952D01*
X188104474Y-115651420D01*
X188104471Y-115651422D01*
X188097647Y-115655458D01*
X188083326Y-115669779D01*
X188068293Y-115682619D01*
X188051902Y-115694528D01*
X188046851Y-115700634D01*
X188023711Y-115728605D01*
X188015721Y-115737384D01*
X183183509Y-120569595D01*
X183121197Y-120603621D01*
X183094414Y-120606500D01*
X165439500Y-120606500D01*
X165371379Y-120586498D01*
X165324886Y-120532842D01*
X165313500Y-120480500D01*
X165313500Y-117704500D01*
X165333502Y-117636379D01*
X165387158Y-117589886D01*
X165439500Y-117578500D01*
X165732469Y-117578500D01*
X165735042Y-117578288D01*
X165735053Y-117578288D01*
X165910432Y-117563869D01*
X165910438Y-117563868D01*
X165915583Y-117563445D01*
X166084314Y-117521063D01*
X166149559Y-117504675D01*
X166149563Y-117504674D01*
X166154570Y-117503416D01*
X166159303Y-117501358D01*
X166159306Y-117501357D01*
X166375807Y-117407220D01*
X166375810Y-117407218D01*
X166380544Y-117405160D01*
X166384878Y-117402356D01*
X166384882Y-117402354D01*
X166583092Y-117274126D01*
X166583098Y-117274121D01*
X166587436Y-117271315D01*
X166604506Y-117255783D01*
X166747168Y-117125970D01*
X166769690Y-117105477D01*
X166772889Y-117101426D01*
X166772893Y-117101422D01*
X166919205Y-116916157D01*
X166922410Y-116912099D01*
X166996104Y-116778603D01*
X167046534Y-116728636D01*
X167106410Y-116713500D01*
X169761233Y-116713500D01*
X169772416Y-116714027D01*
X169779909Y-116715702D01*
X169787835Y-116715453D01*
X169787836Y-116715453D01*
X169847986Y-116713562D01*
X169851945Y-116713500D01*
X169879856Y-116713500D01*
X169883791Y-116713003D01*
X169883856Y-116712995D01*
X169895693Y-116712062D01*
X169927951Y-116711048D01*
X169931970Y-116710922D01*
X169939889Y-116710673D01*
X169959343Y-116705021D01*
X169978700Y-116701013D01*
X169990930Y-116699468D01*
X169990931Y-116699468D01*
X169998797Y-116698474D01*
X170006168Y-116695555D01*
X170006170Y-116695555D01*
X170039912Y-116682196D01*
X170051142Y-116678351D01*
X170085983Y-116668229D01*
X170085984Y-116668229D01*
X170093593Y-116666018D01*
X170100412Y-116661985D01*
X170100417Y-116661983D01*
X170111028Y-116655707D01*
X170128776Y-116647012D01*
X170147617Y-116639552D01*
X170177491Y-116617848D01*
X170183387Y-116613564D01*
X170193307Y-116607048D01*
X170224535Y-116588580D01*
X170224538Y-116588578D01*
X170231362Y-116584542D01*
X170245683Y-116570221D01*
X170260717Y-116557380D01*
X170270694Y-116550131D01*
X170277107Y-116545472D01*
X170305298Y-116511395D01*
X170313288Y-116502616D01*
X172692247Y-114123657D01*
X172700537Y-114116113D01*
X172707018Y-114112000D01*
X172753659Y-114062332D01*
X172756413Y-114059491D01*
X172776134Y-114039770D01*
X172778612Y-114036575D01*
X172786318Y-114027553D01*
X172811158Y-114001101D01*
X172816586Y-113995321D01*
X172826346Y-113977568D01*
X172837199Y-113961045D01*
X172844753Y-113951306D01*
X172849613Y-113945041D01*
X172867176Y-113904457D01*
X172872383Y-113893827D01*
X172893695Y-113855060D01*
X172895666Y-113847383D01*
X172895668Y-113847378D01*
X172898732Y-113835442D01*
X172905138Y-113816730D01*
X172910034Y-113805417D01*
X172913181Y-113798145D01*
X172918678Y-113763442D01*
X172920097Y-113754481D01*
X172922504Y-113742860D01*
X172931528Y-113707711D01*
X172931528Y-113707710D01*
X172933500Y-113700030D01*
X172933500Y-113679769D01*
X172935051Y-113660058D01*
X172936979Y-113647885D01*
X172938219Y-113640057D01*
X172934059Y-113596046D01*
X172933500Y-113584189D01*
X172933500Y-110094594D01*
X172953502Y-110026473D01*
X172970405Y-110005499D01*
X173913417Y-109062487D01*
X173975729Y-109028461D01*
X174046544Y-109033526D01*
X174103380Y-109076073D01*
X174128191Y-109142593D01*
X174128033Y-109162563D01*
X174116884Y-109290000D01*
X174135314Y-109500655D01*
X174136738Y-109505968D01*
X174136738Y-109505970D01*
X174188575Y-109699426D01*
X174190044Y-109704910D01*
X174192366Y-109709891D01*
X174192367Y-109709892D01*
X174212056Y-109752114D01*
X174279411Y-109896558D01*
X174400699Y-110069776D01*
X174550224Y-110219301D01*
X174723442Y-110340589D01*
X174728420Y-110342910D01*
X174728423Y-110342912D01*
X174909092Y-110427159D01*
X174915090Y-110429956D01*
X174920398Y-110431378D01*
X174920400Y-110431379D01*
X174946204Y-110438293D01*
X175006827Y-110475245D01*
X175037848Y-110539106D01*
X175029420Y-110609600D01*
X174984217Y-110664347D01*
X174946204Y-110681707D01*
X174920400Y-110688621D01*
X174920398Y-110688622D01*
X174915090Y-110690044D01*
X174910109Y-110692366D01*
X174910108Y-110692367D01*
X174728423Y-110777088D01*
X174728420Y-110777090D01*
X174723442Y-110779411D01*
X174550224Y-110900699D01*
X174400699Y-111050224D01*
X174279411Y-111223442D01*
X174277090Y-111228420D01*
X174277088Y-111228423D01*
X174192367Y-111410108D01*
X174190044Y-111415090D01*
X174135314Y-111619345D01*
X174116884Y-111830000D01*
X174135314Y-112040655D01*
X174136738Y-112045968D01*
X174136738Y-112045970D01*
X174156973Y-112121486D01*
X174190044Y-112244910D01*
X174192366Y-112249891D01*
X174192367Y-112249892D01*
X174235999Y-112343460D01*
X174279411Y-112436558D01*
X174400699Y-112609776D01*
X174550224Y-112759301D01*
X174723442Y-112880589D01*
X174728420Y-112882910D01*
X174728423Y-112882912D01*
X174900711Y-112963251D01*
X174915090Y-112969956D01*
X174920398Y-112971378D01*
X174920400Y-112971379D01*
X174946204Y-112978293D01*
X175006827Y-113015245D01*
X175037848Y-113079106D01*
X175029420Y-113149600D01*
X174984217Y-113204347D01*
X174946204Y-113221707D01*
X174920400Y-113228621D01*
X174920398Y-113228622D01*
X174915090Y-113230044D01*
X174910109Y-113232366D01*
X174910108Y-113232367D01*
X174728423Y-113317088D01*
X174728420Y-113317090D01*
X174723442Y-113319411D01*
X174550224Y-113440699D01*
X174400699Y-113590224D01*
X174279411Y-113763442D01*
X174277090Y-113768420D01*
X174277088Y-113768423D01*
X174240271Y-113847378D01*
X174190044Y-113955090D01*
X174188622Y-113960398D01*
X174188621Y-113960400D01*
X174136738Y-114154030D01*
X174135314Y-114159345D01*
X174116884Y-114370000D01*
X174135314Y-114580655D01*
X174136738Y-114585968D01*
X174136738Y-114585970D01*
X174187527Y-114775515D01*
X174190044Y-114784910D01*
X174192366Y-114789891D01*
X174192367Y-114789892D01*
X174259332Y-114933498D01*
X174279411Y-114976558D01*
X174400699Y-115149776D01*
X174550224Y-115299301D01*
X174723442Y-115420589D01*
X174728420Y-115422910D01*
X174728423Y-115422912D01*
X174910108Y-115507633D01*
X174915090Y-115509956D01*
X174920398Y-115511378D01*
X174920400Y-115511379D01*
X174946204Y-115518293D01*
X175006827Y-115555245D01*
X175037848Y-115619106D01*
X175029420Y-115689600D01*
X174984217Y-115744347D01*
X174946204Y-115761707D01*
X174920400Y-115768621D01*
X174920398Y-115768622D01*
X174915090Y-115770044D01*
X174910109Y-115772366D01*
X174910108Y-115772367D01*
X174728423Y-115857088D01*
X174728420Y-115857090D01*
X174723442Y-115859411D01*
X174550224Y-115980699D01*
X174400699Y-116130224D01*
X174279411Y-116303442D01*
X174277090Y-116308420D01*
X174277088Y-116308423D01*
X174236689Y-116395060D01*
X174190044Y-116495090D01*
X174188622Y-116500398D01*
X174188621Y-116500400D01*
X174136738Y-116694030D01*
X174135314Y-116699345D01*
X174116884Y-116910000D01*
X174135314Y-117120655D01*
X174190044Y-117324910D01*
X174192366Y-117329891D01*
X174192367Y-117329892D01*
X174273283Y-117503416D01*
X174279411Y-117516558D01*
X174400699Y-117689776D01*
X174550224Y-117839301D01*
X174723442Y-117960589D01*
X174728420Y-117962910D01*
X174728423Y-117962912D01*
X174910108Y-118047633D01*
X174915090Y-118049956D01*
X174920398Y-118051378D01*
X174920400Y-118051379D01*
X175114030Y-118103262D01*
X175114032Y-118103262D01*
X175119345Y-118104686D01*
X175330000Y-118123116D01*
X175540655Y-118104686D01*
X175545968Y-118103262D01*
X175545970Y-118103262D01*
X175739600Y-118051379D01*
X175739602Y-118051378D01*
X175744910Y-118049956D01*
X175749892Y-118047633D01*
X175931577Y-117962912D01*
X175931580Y-117962910D01*
X175936558Y-117960589D01*
X176109776Y-117839301D01*
X176259301Y-117689776D01*
X176380589Y-117516558D01*
X176386718Y-117503416D01*
X176467633Y-117329892D01*
X176467634Y-117329891D01*
X176469956Y-117324910D01*
X176478293Y-117293796D01*
X176515245Y-117233173D01*
X176579106Y-117202152D01*
X176649600Y-117210580D01*
X176704347Y-117255783D01*
X176721707Y-117293796D01*
X176730044Y-117324910D01*
X176732366Y-117329891D01*
X176732367Y-117329892D01*
X176813283Y-117503416D01*
X176819411Y-117516558D01*
X176940699Y-117689776D01*
X177090224Y-117839301D01*
X177263442Y-117960589D01*
X177268420Y-117962910D01*
X177268423Y-117962912D01*
X177450108Y-118047633D01*
X177455090Y-118049956D01*
X177460398Y-118051378D01*
X177460400Y-118051379D01*
X177654030Y-118103262D01*
X177654032Y-118103262D01*
X177659345Y-118104686D01*
X177870000Y-118123116D01*
X178080655Y-118104686D01*
X178085968Y-118103262D01*
X178085970Y-118103262D01*
X178279600Y-118051379D01*
X178279602Y-118051378D01*
X178284910Y-118049956D01*
X178289892Y-118047633D01*
X178471577Y-117962912D01*
X178471580Y-117962910D01*
X178476558Y-117960589D01*
X178649776Y-117839301D01*
X178799301Y-117689776D01*
X178920589Y-117516558D01*
X178926718Y-117503416D01*
X179007633Y-117329892D01*
X179007634Y-117329891D01*
X179009956Y-117324910D01*
X179064686Y-117120655D01*
X179083116Y-116910000D01*
X179064686Y-116699345D01*
X179063262Y-116694030D01*
X179011379Y-116500400D01*
X179011378Y-116500398D01*
X179009956Y-116495090D01*
X178963311Y-116395060D01*
X178922912Y-116308423D01*
X178922910Y-116308420D01*
X178920589Y-116303442D01*
X178799301Y-116130224D01*
X178649776Y-115980699D01*
X178476558Y-115859411D01*
X178471580Y-115857090D01*
X178471577Y-115857088D01*
X178289892Y-115772367D01*
X178289891Y-115772366D01*
X178284910Y-115770044D01*
X178279602Y-115768622D01*
X178279600Y-115768621D01*
X178253796Y-115761707D01*
X178193173Y-115724755D01*
X178162152Y-115660894D01*
X178170580Y-115590400D01*
X178215783Y-115535653D01*
X178253796Y-115518293D01*
X178279600Y-115511379D01*
X178279602Y-115511378D01*
X178284910Y-115509956D01*
X178289892Y-115507633D01*
X178471577Y-115422912D01*
X178471580Y-115422910D01*
X178476558Y-115420589D01*
X178649776Y-115299301D01*
X178799301Y-115149776D01*
X178920589Y-114976558D01*
X178940669Y-114933498D01*
X179007633Y-114789892D01*
X179007634Y-114789891D01*
X179009956Y-114784910D01*
X179012474Y-114775515D01*
X179063262Y-114585970D01*
X179063262Y-114585968D01*
X179064686Y-114580655D01*
X179083116Y-114370000D01*
X179064686Y-114159345D01*
X179063262Y-114154030D01*
X179011379Y-113960400D01*
X179011378Y-113960398D01*
X179009956Y-113955090D01*
X178959729Y-113847378D01*
X178922912Y-113768423D01*
X178922910Y-113768420D01*
X178920589Y-113763442D01*
X178799301Y-113590224D01*
X178649776Y-113440699D01*
X178476558Y-113319411D01*
X178471580Y-113317090D01*
X178471577Y-113317088D01*
X178289892Y-113232367D01*
X178289891Y-113232366D01*
X178284910Y-113230044D01*
X178279602Y-113228622D01*
X178279600Y-113228621D01*
X178253796Y-113221707D01*
X178193173Y-113184755D01*
X178162152Y-113120894D01*
X178170580Y-113050400D01*
X178215783Y-112995653D01*
X178253796Y-112978293D01*
X178279600Y-112971379D01*
X178279602Y-112971378D01*
X178284910Y-112969956D01*
X178299289Y-112963251D01*
X178471577Y-112882912D01*
X178471580Y-112882910D01*
X178476558Y-112880589D01*
X178649776Y-112759301D01*
X178799301Y-112609776D01*
X178864102Y-112517230D01*
X178919559Y-112472901D01*
X178967315Y-112463500D01*
X182895406Y-112463500D01*
X182963527Y-112483502D01*
X182984501Y-112500405D01*
X183690848Y-113206752D01*
X183724874Y-113269064D01*
X183723459Y-113328459D01*
X183707882Y-113386591D01*
X183707881Y-113386598D01*
X183706457Y-113391913D01*
X183686502Y-113620000D01*
X183706457Y-113848087D01*
X183707881Y-113853400D01*
X183707881Y-113853402D01*
X183759710Y-114046827D01*
X183765716Y-114069243D01*
X183768039Y-114074224D01*
X183768039Y-114074225D01*
X183860151Y-114271762D01*
X183860154Y-114271767D01*
X183862477Y-114276749D01*
X183993802Y-114464300D01*
X184155700Y-114626198D01*
X184160208Y-114629355D01*
X184160211Y-114629357D01*
X184216610Y-114668848D01*
X184343251Y-114757523D01*
X184348233Y-114759846D01*
X184348238Y-114759849D01*
X184545775Y-114851961D01*
X184550757Y-114854284D01*
X184556065Y-114855706D01*
X184556067Y-114855707D01*
X184766598Y-114912119D01*
X184766600Y-114912119D01*
X184771913Y-114913543D01*
X185000000Y-114933498D01*
X185228087Y-114913543D01*
X185233400Y-114912119D01*
X185233402Y-114912119D01*
X185443933Y-114855707D01*
X185443935Y-114855706D01*
X185449243Y-114854284D01*
X185454225Y-114851961D01*
X185651762Y-114759849D01*
X185651767Y-114759846D01*
X185656749Y-114757523D01*
X185783390Y-114668848D01*
X185839789Y-114629357D01*
X185839792Y-114629355D01*
X185844300Y-114626198D01*
X186006198Y-114464300D01*
X186072228Y-114370000D01*
X186116181Y-114307229D01*
X186171638Y-114262901D01*
X186219394Y-114253500D01*
X191400606Y-114253500D01*
X191468727Y-114273502D01*
X191503819Y-114307229D01*
X191547772Y-114370000D01*
X191613802Y-114464300D01*
X191775700Y-114626198D01*
X191780208Y-114629355D01*
X191780211Y-114629357D01*
X191836610Y-114668848D01*
X191963251Y-114757523D01*
X191968233Y-114759846D01*
X191968238Y-114759849D01*
X192165775Y-114851961D01*
X192170757Y-114854284D01*
X192176065Y-114855706D01*
X192176067Y-114855707D01*
X192386598Y-114912119D01*
X192386600Y-114912119D01*
X192391913Y-114913543D01*
X192620000Y-114933498D01*
X192848087Y-114913543D01*
X192853400Y-114912119D01*
X192853402Y-114912119D01*
X193063933Y-114855707D01*
X193063935Y-114855706D01*
X193069243Y-114854284D01*
X193074225Y-114851961D01*
X193271762Y-114759849D01*
X193271767Y-114759846D01*
X193276749Y-114757523D01*
X193403390Y-114668848D01*
X193459789Y-114629357D01*
X193459792Y-114629355D01*
X193464300Y-114626198D01*
X193626198Y-114464300D01*
X193757523Y-114276749D01*
X193759846Y-114271767D01*
X193759849Y-114271762D01*
X193851961Y-114074225D01*
X193851961Y-114074224D01*
X193854284Y-114069243D01*
X193860291Y-114046827D01*
X193912119Y-113853402D01*
X193912119Y-113853400D01*
X193913543Y-113848087D01*
X193933498Y-113620000D01*
X193913543Y-113391913D01*
X193908616Y-113373526D01*
X193855707Y-113176067D01*
X193855706Y-113176065D01*
X193854284Y-113170757D01*
X193847815Y-113156884D01*
X193759849Y-112968238D01*
X193759846Y-112968233D01*
X193757523Y-112963251D01*
X193626198Y-112775700D01*
X193464300Y-112613802D01*
X193459792Y-112610645D01*
X193459789Y-112610643D01*
X193322891Y-112514786D01*
X193276749Y-112482477D01*
X193271767Y-112480154D01*
X193271762Y-112480151D01*
X193074225Y-112388039D01*
X193074224Y-112388039D01*
X193069243Y-112385716D01*
X193063935Y-112384294D01*
X193063933Y-112384293D01*
X192853402Y-112327881D01*
X192853400Y-112327881D01*
X192848087Y-112326457D01*
X192620000Y-112306502D01*
X192391913Y-112326457D01*
X192386600Y-112327881D01*
X192386598Y-112327881D01*
X192176067Y-112384293D01*
X192176065Y-112384294D01*
X192170757Y-112385716D01*
X192165776Y-112388039D01*
X192165775Y-112388039D01*
X191968238Y-112480151D01*
X191968233Y-112480154D01*
X191963251Y-112482477D01*
X191917109Y-112514786D01*
X191780211Y-112610643D01*
X191780208Y-112610645D01*
X191775700Y-112613802D01*
X191613802Y-112775700D01*
X191610645Y-112780208D01*
X191610643Y-112780211D01*
X191503819Y-112932771D01*
X191448362Y-112977099D01*
X191400606Y-112986500D01*
X186219394Y-112986500D01*
X186151273Y-112966498D01*
X186116181Y-112932771D01*
X186009357Y-112780211D01*
X186009355Y-112780208D01*
X186006198Y-112775700D01*
X185844300Y-112613802D01*
X185839792Y-112610645D01*
X185839789Y-112610643D01*
X185702891Y-112514786D01*
X185656749Y-112482477D01*
X185651767Y-112480154D01*
X185651762Y-112480151D01*
X185454225Y-112388039D01*
X185454224Y-112388039D01*
X185449243Y-112385716D01*
X185443935Y-112384294D01*
X185443933Y-112384293D01*
X185233402Y-112327881D01*
X185233400Y-112327881D01*
X185228087Y-112326457D01*
X185000000Y-112306502D01*
X184771913Y-112326457D01*
X184708458Y-112343460D01*
X184637482Y-112341770D01*
X184586753Y-112310848D01*
X183713652Y-111437747D01*
X183706112Y-111429461D01*
X183702000Y-111422982D01*
X183688291Y-111410108D01*
X183652349Y-111376357D01*
X183649507Y-111373602D01*
X183629770Y-111353865D01*
X183626573Y-111351385D01*
X183617551Y-111343680D01*
X183585321Y-111313414D01*
X183578375Y-111309595D01*
X183578372Y-111309593D01*
X183567566Y-111303652D01*
X183551047Y-111292801D01*
X183550583Y-111292441D01*
X183535041Y-111280386D01*
X183527772Y-111277241D01*
X183527768Y-111277238D01*
X183494463Y-111262826D01*
X183483813Y-111257609D01*
X183445060Y-111236305D01*
X183425437Y-111231267D01*
X183406734Y-111224863D01*
X183395420Y-111219967D01*
X183395419Y-111219967D01*
X183388145Y-111216819D01*
X183380322Y-111215580D01*
X183380312Y-111215577D01*
X183344476Y-111209901D01*
X183332856Y-111207495D01*
X183297711Y-111198472D01*
X183297710Y-111198472D01*
X183290030Y-111196500D01*
X183269776Y-111196500D01*
X183250065Y-111194949D01*
X183237886Y-111193020D01*
X183230057Y-111191780D01*
X183222165Y-111192526D01*
X183186039Y-111195941D01*
X183174181Y-111196500D01*
X178967315Y-111196500D01*
X178899194Y-111176498D01*
X178864102Y-111142770D01*
X178802460Y-111054736D01*
X178799301Y-111050224D01*
X178649776Y-110900699D01*
X178476558Y-110779411D01*
X178471580Y-110777090D01*
X178471577Y-110777088D01*
X178289892Y-110692367D01*
X178289891Y-110692366D01*
X178284910Y-110690044D01*
X178279602Y-110688622D01*
X178279600Y-110688621D01*
X178253796Y-110681707D01*
X178193173Y-110644755D01*
X178162152Y-110580894D01*
X178170580Y-110510400D01*
X178215783Y-110455653D01*
X178253796Y-110438293D01*
X178279600Y-110431379D01*
X178279602Y-110431378D01*
X178284910Y-110429956D01*
X178290908Y-110427159D01*
X178471577Y-110342912D01*
X178471580Y-110342910D01*
X178476558Y-110340589D01*
X178649776Y-110219301D01*
X178799301Y-110069776D01*
X178920589Y-109896558D01*
X178987945Y-109752114D01*
X179007633Y-109709892D01*
X179007634Y-109709891D01*
X179009956Y-109704910D01*
X179011426Y-109699426D01*
X179063262Y-109505970D01*
X179063262Y-109505968D01*
X179064686Y-109500655D01*
X179083116Y-109290000D01*
X179064686Y-109079345D01*
X179042849Y-108997848D01*
X179011379Y-108880400D01*
X179011378Y-108880398D01*
X179009956Y-108875090D01*
X178920589Y-108683442D01*
X178799301Y-108510224D01*
X178649776Y-108360699D01*
X178476558Y-108239411D01*
X178471580Y-108237090D01*
X178471577Y-108237088D01*
X178289892Y-108152367D01*
X178289891Y-108152366D01*
X178284910Y-108150044D01*
X178279602Y-108148622D01*
X178279600Y-108148621D01*
X178253796Y-108141707D01*
X178193173Y-108104755D01*
X178162152Y-108040894D01*
X178170580Y-107970400D01*
X178215783Y-107915653D01*
X178253796Y-107898293D01*
X178279600Y-107891379D01*
X178279602Y-107891378D01*
X178284910Y-107889956D01*
X178289892Y-107887633D01*
X178471577Y-107802912D01*
X178471580Y-107802910D01*
X178476558Y-107800589D01*
X178649776Y-107679301D01*
X178799301Y-107529776D01*
X178920589Y-107356558D01*
X179009956Y-107164910D01*
X179032296Y-107081538D01*
X179063262Y-106965970D01*
X179063262Y-106965968D01*
X179064686Y-106960655D01*
X179083116Y-106750000D01*
X179064686Y-106539345D01*
X179009956Y-106335090D01*
X178920589Y-106143442D01*
X178799301Y-105970224D01*
X178649776Y-105820699D01*
X178476558Y-105699411D01*
X178471580Y-105697090D01*
X178471577Y-105697088D01*
X178289892Y-105612367D01*
X178289891Y-105612366D01*
X178284910Y-105610044D01*
X178279602Y-105608622D01*
X178279600Y-105608621D01*
X178253796Y-105601707D01*
X178193173Y-105564755D01*
X178162152Y-105500894D01*
X178170580Y-105430400D01*
X178215783Y-105375653D01*
X178253796Y-105358293D01*
X178279600Y-105351379D01*
X178279602Y-105351378D01*
X178284910Y-105349956D01*
X178289892Y-105347633D01*
X178471577Y-105262912D01*
X178471580Y-105262910D01*
X178476558Y-105260589D01*
X178649776Y-105139301D01*
X178799301Y-104989776D01*
X178920589Y-104816558D01*
X178926718Y-104803416D01*
X179007633Y-104629892D01*
X179007634Y-104629891D01*
X179009956Y-104624910D01*
X179064686Y-104420655D01*
X179083116Y-104210000D01*
X179064686Y-103999345D01*
X179054862Y-103962682D01*
X179011379Y-103800400D01*
X179011378Y-103800398D01*
X179009956Y-103795090D01*
X178976504Y-103723352D01*
X178922912Y-103608423D01*
X178922910Y-103608420D01*
X178920589Y-103603442D01*
X178799301Y-103430224D01*
X178649776Y-103280699D01*
X178476558Y-103159411D01*
X178471580Y-103157090D01*
X178471577Y-103157088D01*
X178289892Y-103072367D01*
X178289891Y-103072366D01*
X178284910Y-103070044D01*
X178279602Y-103068622D01*
X178279600Y-103068621D01*
X178253796Y-103061707D01*
X178193173Y-103024755D01*
X178162152Y-102960894D01*
X178170580Y-102890400D01*
X178215783Y-102835653D01*
X178253796Y-102818293D01*
X178279600Y-102811379D01*
X178279602Y-102811378D01*
X178284910Y-102809956D01*
X178289892Y-102807633D01*
X178471577Y-102722912D01*
X178471580Y-102722910D01*
X178476558Y-102720589D01*
X178649776Y-102599301D01*
X178799301Y-102449776D01*
X178920589Y-102276558D01*
X178952307Y-102208540D01*
X179007633Y-102089892D01*
X179007634Y-102089891D01*
X179009956Y-102084910D01*
X179012474Y-102075515D01*
X179063262Y-101885970D01*
X179063262Y-101885968D01*
X179064686Y-101880655D01*
X179083116Y-101670000D01*
X179064686Y-101459345D01*
X179063262Y-101454030D01*
X179011379Y-101260400D01*
X179011378Y-101260398D01*
X179009956Y-101255090D01*
X178920589Y-101063442D01*
X178866903Y-100986770D01*
X178844215Y-100919496D01*
X178861500Y-100850636D01*
X178913270Y-100802052D01*
X178970116Y-100788500D01*
X183146233Y-100788500D01*
X183157416Y-100789027D01*
X183164909Y-100790702D01*
X183172835Y-100790453D01*
X183172836Y-100790453D01*
X183232986Y-100788562D01*
X183236945Y-100788500D01*
X183264856Y-100788500D01*
X183268791Y-100788003D01*
X183268856Y-100787995D01*
X183280693Y-100787062D01*
X183312951Y-100786048D01*
X183316970Y-100785922D01*
X183324889Y-100785673D01*
X183344343Y-100780021D01*
X183363700Y-100776013D01*
X183375930Y-100774468D01*
X183375931Y-100774468D01*
X183383797Y-100773474D01*
X183391168Y-100770555D01*
X183391170Y-100770555D01*
X183424912Y-100757196D01*
X183436142Y-100753351D01*
X183470983Y-100743229D01*
X183470984Y-100743229D01*
X183478593Y-100741018D01*
X183485412Y-100736985D01*
X183485417Y-100736983D01*
X183496028Y-100730707D01*
X183513776Y-100722012D01*
X183532617Y-100714552D01*
X183568387Y-100688564D01*
X183578307Y-100682048D01*
X183609535Y-100663580D01*
X183609538Y-100663578D01*
X183616362Y-100659542D01*
X183630683Y-100645221D01*
X183645717Y-100632380D01*
X183655694Y-100625131D01*
X183662107Y-100620472D01*
X183690298Y-100586395D01*
X183698288Y-100577616D01*
X184586752Y-99689152D01*
X184649064Y-99655126D01*
X184708459Y-99656541D01*
X184766591Y-99672118D01*
X184766602Y-99672120D01*
X184771913Y-99673543D01*
X185000000Y-99693498D01*
X185228087Y-99673543D01*
X185233400Y-99672119D01*
X185233402Y-99672119D01*
X185443933Y-99615707D01*
X185443935Y-99615706D01*
X185449243Y-99614284D01*
X185454225Y-99611961D01*
X185651762Y-99519849D01*
X185651767Y-99519846D01*
X185656749Y-99517523D01*
X185803635Y-99414672D01*
X185839789Y-99389357D01*
X185839792Y-99389355D01*
X185844300Y-99386198D01*
X186006198Y-99224300D01*
X186137523Y-99036749D01*
X186139846Y-99031767D01*
X186139849Y-99031762D01*
X186231961Y-98834225D01*
X186231961Y-98834224D01*
X186234284Y-98829243D01*
X186240291Y-98806827D01*
X186292119Y-98613402D01*
X186292119Y-98613400D01*
X186293543Y-98608087D01*
X186313498Y-98380000D01*
X186293543Y-98151913D01*
X186283829Y-98115661D01*
X186235707Y-97936067D01*
X186235706Y-97936065D01*
X186234284Y-97930757D01*
X186227815Y-97916884D01*
X186139849Y-97728238D01*
X186139846Y-97728233D01*
X186137523Y-97723251D01*
X186006198Y-97535700D01*
X185844300Y-97373802D01*
X185839792Y-97370645D01*
X185839789Y-97370643D01*
X185721261Y-97287649D01*
X185656749Y-97242477D01*
X185651767Y-97240154D01*
X185651762Y-97240151D01*
X185454225Y-97148039D01*
X185454224Y-97148039D01*
X185449243Y-97145716D01*
X185443935Y-97144294D01*
X185443933Y-97144293D01*
X185233402Y-97087881D01*
X185233400Y-97087881D01*
X185228087Y-97086457D01*
X185000000Y-97066502D01*
X184771913Y-97086457D01*
X184766600Y-97087881D01*
X184766598Y-97087881D01*
X184556067Y-97144293D01*
X184556065Y-97144294D01*
X184550757Y-97145716D01*
X184545776Y-97148039D01*
X184545775Y-97148039D01*
X184348238Y-97240151D01*
X184348233Y-97240154D01*
X184343251Y-97242477D01*
X184278739Y-97287649D01*
X184160211Y-97370643D01*
X184160208Y-97370645D01*
X184155700Y-97373802D01*
X183993802Y-97535700D01*
X183862477Y-97723251D01*
X183860154Y-97728233D01*
X183860151Y-97728238D01*
X183772185Y-97916884D01*
X183765716Y-97930757D01*
X183764294Y-97936065D01*
X183764293Y-97936067D01*
X183716171Y-98115661D01*
X183706457Y-98151913D01*
X183686502Y-98380000D01*
X183706457Y-98608087D01*
X183707879Y-98613392D01*
X183707881Y-98613406D01*
X183723459Y-98671539D01*
X183721771Y-98742516D01*
X183690848Y-98793248D01*
X183344595Y-99139500D01*
X182999499Y-99484596D01*
X182937187Y-99518621D01*
X182910404Y-99521500D01*
X179180435Y-99521500D01*
X179112314Y-99501498D01*
X179065821Y-99447842D01*
X179055717Y-99377568D01*
X179058729Y-99362887D01*
X179063261Y-99345974D01*
X179063262Y-99345970D01*
X179064686Y-99340655D01*
X179083116Y-99130000D01*
X179064686Y-98919345D01*
X179040543Y-98829243D01*
X179011379Y-98720400D01*
X179011378Y-98720398D01*
X179009956Y-98715090D01*
X178973484Y-98636876D01*
X178922912Y-98528423D01*
X178922910Y-98528420D01*
X178920589Y-98523442D01*
X178799301Y-98350224D01*
X178649776Y-98200699D01*
X178476558Y-98079411D01*
X178471580Y-98077090D01*
X178471577Y-98077088D01*
X178289892Y-97992367D01*
X178289891Y-97992366D01*
X178284910Y-97990044D01*
X178279602Y-97988622D01*
X178279600Y-97988621D01*
X178253796Y-97981707D01*
X178193173Y-97944755D01*
X178162152Y-97880894D01*
X178170580Y-97810400D01*
X178215783Y-97755653D01*
X178253796Y-97738293D01*
X178279600Y-97731379D01*
X178279602Y-97731378D01*
X178284910Y-97729956D01*
X178299289Y-97723251D01*
X178471577Y-97642912D01*
X178471580Y-97642910D01*
X178476558Y-97640589D01*
X178649776Y-97519301D01*
X178799301Y-97369776D01*
X178920589Y-97196558D01*
X178972154Y-97085978D01*
X179007633Y-97009892D01*
X179007634Y-97009891D01*
X179009956Y-97004910D01*
X179038036Y-96900116D01*
X179063262Y-96805970D01*
X179063262Y-96805968D01*
X179064686Y-96800655D01*
X179083116Y-96590000D01*
X179064686Y-96379345D01*
X179009956Y-96175090D01*
X178920589Y-95983442D01*
X178799301Y-95810224D01*
X178649776Y-95660699D01*
X178476558Y-95539411D01*
X178471580Y-95537090D01*
X178471577Y-95537088D01*
X178289892Y-95452367D01*
X178289891Y-95452366D01*
X178284910Y-95450044D01*
X178279602Y-95448622D01*
X178279600Y-95448621D01*
X178253796Y-95441707D01*
X178193173Y-95404755D01*
X178162152Y-95340894D01*
X178170580Y-95270400D01*
X178215783Y-95215653D01*
X178253796Y-95198293D01*
X178279600Y-95191379D01*
X178279602Y-95191378D01*
X178284910Y-95189956D01*
X178290908Y-95187159D01*
X178471577Y-95102912D01*
X178471580Y-95102910D01*
X178476558Y-95100589D01*
X178649776Y-94979301D01*
X178799301Y-94829776D01*
X178920589Y-94656558D01*
X179009956Y-94464910D01*
X179011426Y-94459426D01*
X179063262Y-94265970D01*
X179063262Y-94265968D01*
X179064686Y-94260655D01*
X179083116Y-94050000D01*
X179064686Y-93839345D01*
X179043108Y-93758814D01*
X179011379Y-93640400D01*
X179011378Y-93640398D01*
X179009956Y-93635090D01*
X178920589Y-93443442D01*
X178799301Y-93270224D01*
X178744172Y-93215095D01*
X178710146Y-93152783D01*
X178715211Y-93081968D01*
X178757758Y-93025132D01*
X178824278Y-93000321D01*
X178833267Y-93000000D01*
X199766733Y-93000000D01*
X199834854Y-93020002D01*
X199881347Y-93073658D01*
X199891451Y-93143932D01*
X199861957Y-93208512D01*
X199855828Y-93215095D01*
X199800699Y-93270224D01*
X199679411Y-93443442D01*
X199590044Y-93635090D01*
X199588622Y-93640398D01*
X199588621Y-93640400D01*
X199556892Y-93758814D01*
X199535314Y-93839345D01*
X199516884Y-94050000D01*
X199535314Y-94260655D01*
X199536738Y-94265968D01*
X199536738Y-94265970D01*
X199588575Y-94459426D01*
X199590044Y-94464910D01*
X199679411Y-94656558D01*
X199800699Y-94829776D01*
X199950224Y-94979301D01*
X200123442Y-95100589D01*
X200128420Y-95102910D01*
X200128423Y-95102912D01*
X200309092Y-95187159D01*
X200315090Y-95189956D01*
X200320398Y-95191378D01*
X200320400Y-95191379D01*
X200346204Y-95198293D01*
X200406827Y-95235245D01*
X200437848Y-95299106D01*
X200429420Y-95369600D01*
X200384217Y-95424347D01*
X200346204Y-95441707D01*
X200320400Y-95448621D01*
X200320398Y-95448622D01*
X200315090Y-95450044D01*
X200310109Y-95452366D01*
X200310108Y-95452367D01*
X200128423Y-95537088D01*
X200128420Y-95537090D01*
X200123442Y-95539411D01*
X199950224Y-95660699D01*
X199800699Y-95810224D01*
X199679411Y-95983442D01*
X199590044Y-96175090D01*
X199535314Y-96379345D01*
X199516884Y-96590000D01*
X199535314Y-96800655D01*
X199536738Y-96805968D01*
X199536738Y-96805970D01*
X199561965Y-96900116D01*
X199590044Y-97004910D01*
X199592366Y-97009891D01*
X199592367Y-97009892D01*
X199627847Y-97085978D01*
X199679411Y-97196558D01*
X199800699Y-97369776D01*
X199950224Y-97519301D01*
X200123442Y-97640589D01*
X200128420Y-97642910D01*
X200128423Y-97642912D01*
X200300711Y-97723251D01*
X200315090Y-97729956D01*
X200320398Y-97731378D01*
X200320400Y-97731379D01*
X200346204Y-97738293D01*
X200406827Y-97775245D01*
X200437848Y-97839106D01*
X200429420Y-97909600D01*
X200384217Y-97964347D01*
X200346204Y-97981707D01*
X200320400Y-97988621D01*
X200320398Y-97988622D01*
X200315090Y-97990044D01*
X200310109Y-97992366D01*
X200310108Y-97992367D01*
X200128423Y-98077088D01*
X200128420Y-98077090D01*
X200123442Y-98079411D01*
X199950224Y-98200699D01*
X199800699Y-98350224D01*
X199679411Y-98523442D01*
X199677090Y-98528420D01*
X199677088Y-98528423D01*
X199626516Y-98636876D01*
X199590044Y-98715090D01*
X199588622Y-98720398D01*
X199588621Y-98720400D01*
X199559457Y-98829243D01*
X199535314Y-98919345D01*
X199516884Y-99130000D01*
X199535314Y-99340655D01*
X199536738Y-99345968D01*
X199536738Y-99345970D01*
X199587798Y-99536526D01*
X199590044Y-99544910D01*
X199592366Y-99549891D01*
X199592367Y-99549892D01*
X199659332Y-99693498D01*
X199679411Y-99736558D01*
X199800699Y-99909776D01*
X199950224Y-100059301D01*
X200123442Y-100180589D01*
X200128420Y-100182910D01*
X200128423Y-100182912D01*
X200310108Y-100267633D01*
X200315090Y-100269956D01*
X200320398Y-100271378D01*
X200320400Y-100271379D01*
X200346204Y-100278293D01*
X200406827Y-100315245D01*
X200437848Y-100379106D01*
X200429420Y-100449600D01*
X200384217Y-100504347D01*
X200346204Y-100521707D01*
X200320400Y-100528621D01*
X200320398Y-100528622D01*
X200315090Y-100530044D01*
X200310109Y-100532366D01*
X200310108Y-100532367D01*
X200128423Y-100617088D01*
X200128420Y-100617090D01*
X200123442Y-100619411D01*
X199950224Y-100740699D01*
X199800699Y-100890224D01*
X199679411Y-101063442D01*
X199590044Y-101255090D01*
X199588622Y-101260398D01*
X199588621Y-101260400D01*
X199536738Y-101454030D01*
X199535314Y-101459345D01*
X199516884Y-101670000D01*
X199535314Y-101880655D01*
X199536738Y-101885968D01*
X199536738Y-101885970D01*
X199587527Y-102075515D01*
X199590044Y-102084910D01*
X199592366Y-102089891D01*
X199592367Y-102089892D01*
X199647694Y-102208540D01*
X199679411Y-102276558D01*
X199800699Y-102449776D01*
X199950224Y-102599301D01*
X200123442Y-102720589D01*
X200128420Y-102722910D01*
X200128423Y-102722912D01*
X200310108Y-102807633D01*
X200315090Y-102809956D01*
X200320398Y-102811378D01*
X200320400Y-102811379D01*
X200346204Y-102818293D01*
X200406827Y-102855245D01*
X200437848Y-102919106D01*
X200429420Y-102989600D01*
X200384217Y-103044347D01*
X200346204Y-103061707D01*
X200320400Y-103068621D01*
X200320398Y-103068622D01*
X200315090Y-103070044D01*
X200310109Y-103072366D01*
X200310108Y-103072367D01*
X200128423Y-103157088D01*
X200128420Y-103157090D01*
X200123442Y-103159411D01*
X199950224Y-103280699D01*
X199800699Y-103430224D01*
X199679411Y-103603442D01*
X199677090Y-103608420D01*
X199677088Y-103608423D01*
X199623496Y-103723352D01*
X199590044Y-103795090D01*
X199588622Y-103800398D01*
X199588621Y-103800400D01*
X199545138Y-103962682D01*
X199535314Y-103999345D01*
X199516884Y-104210000D01*
X199535314Y-104420655D01*
X199590044Y-104624910D01*
X199592366Y-104629891D01*
X199592367Y-104629892D01*
X199673283Y-104803416D01*
X199679411Y-104816558D01*
X199800699Y-104989776D01*
X199950224Y-105139301D01*
X200123442Y-105260589D01*
X200128420Y-105262910D01*
X200128423Y-105262912D01*
X200310108Y-105347633D01*
X200315090Y-105349956D01*
X200320398Y-105351378D01*
X200320400Y-105351379D01*
X200346204Y-105358293D01*
X200406827Y-105395245D01*
X200437848Y-105459106D01*
X200429420Y-105529600D01*
X200384217Y-105584347D01*
X200346204Y-105601707D01*
X200320400Y-105608621D01*
X200320398Y-105608622D01*
X200315090Y-105610044D01*
X200310109Y-105612366D01*
X200310108Y-105612367D01*
X200128423Y-105697088D01*
X200128420Y-105697090D01*
X200123442Y-105699411D01*
X199950224Y-105820699D01*
X199800699Y-105970224D01*
X199679411Y-106143442D01*
X199590044Y-106335090D01*
X199535314Y-106539345D01*
X199516884Y-106750000D01*
X199535314Y-106960655D01*
X199536738Y-106965968D01*
X199536738Y-106965970D01*
X199567705Y-107081538D01*
X199590044Y-107164910D01*
X199679411Y-107356558D01*
X199800699Y-107529776D01*
X199950224Y-107679301D01*
X200123442Y-107800589D01*
X200128420Y-107802910D01*
X200128423Y-107802912D01*
X200310108Y-107887633D01*
X200315090Y-107889956D01*
X200320397Y-107891378D01*
X200320408Y-107891382D01*
X200347171Y-107898553D01*
X200407793Y-107935504D01*
X200438815Y-107999365D01*
X200430386Y-108069860D01*
X200385182Y-108124606D01*
X200347170Y-108141966D01*
X200320574Y-108149092D01*
X200310277Y-108152841D01*
X200128677Y-108237521D01*
X200119189Y-108242999D01*
X200088752Y-108264311D01*
X200080377Y-108274788D01*
X200087446Y-108288236D01*
X200717188Y-108917978D01*
X200731132Y-108925592D01*
X200732965Y-108925461D01*
X200739580Y-108921210D01*
X201373276Y-108287514D01*
X201379706Y-108275739D01*
X201370410Y-108263724D01*
X201340811Y-108242999D01*
X201331323Y-108237521D01*
X201149723Y-108152841D01*
X201139426Y-108149092D01*
X201112830Y-108141966D01*
X201052207Y-108105014D01*
X201021186Y-108041154D01*
X201029614Y-107970659D01*
X201074817Y-107915912D01*
X201112829Y-107898553D01*
X201139592Y-107891382D01*
X201139603Y-107891378D01*
X201144910Y-107889956D01*
X201149892Y-107887633D01*
X201331577Y-107802912D01*
X201331580Y-107802910D01*
X201336558Y-107800589D01*
X201509776Y-107679301D01*
X201659301Y-107529776D01*
X201780589Y-107356558D01*
X201869956Y-107164910D01*
X201878293Y-107133796D01*
X201915245Y-107073173D01*
X201979106Y-107042152D01*
X202049600Y-107050580D01*
X202104347Y-107095783D01*
X202121707Y-107133796D01*
X202130044Y-107164910D01*
X202219411Y-107356558D01*
X202340699Y-107529776D01*
X202490224Y-107679301D01*
X202663442Y-107800589D01*
X202668420Y-107802910D01*
X202668423Y-107802912D01*
X202850108Y-107887633D01*
X202855090Y-107889956D01*
X202860398Y-107891378D01*
X202860400Y-107891379D01*
X202886204Y-107898293D01*
X202946827Y-107935245D01*
X202977848Y-107999106D01*
X202969420Y-108069600D01*
X202924217Y-108124347D01*
X202886204Y-108141707D01*
X202860400Y-108148621D01*
X202860398Y-108148622D01*
X202855090Y-108150044D01*
X202850109Y-108152366D01*
X202850108Y-108152367D01*
X202668423Y-108237088D01*
X202668420Y-108237090D01*
X202663442Y-108239411D01*
X202490224Y-108360699D01*
X202340699Y-108510224D01*
X202219411Y-108683442D01*
X202130044Y-108875090D01*
X202128622Y-108880397D01*
X202128618Y-108880408D01*
X202121447Y-108907171D01*
X202084496Y-108967793D01*
X202020635Y-108998815D01*
X201950140Y-108990386D01*
X201895394Y-108945182D01*
X201878034Y-108907170D01*
X201870908Y-108880574D01*
X201867159Y-108870277D01*
X201782479Y-108688677D01*
X201777001Y-108679189D01*
X201755689Y-108648752D01*
X201745212Y-108640377D01*
X201731764Y-108647446D01*
X201102022Y-109277188D01*
X201094408Y-109291132D01*
X201094539Y-109292965D01*
X201098790Y-109299580D01*
X201732486Y-109933276D01*
X201744261Y-109939706D01*
X201756276Y-109930410D01*
X201777001Y-109900811D01*
X201782479Y-109891323D01*
X201867159Y-109709723D01*
X201870908Y-109699426D01*
X201878034Y-109672830D01*
X201914986Y-109612207D01*
X201978846Y-109581186D01*
X202049341Y-109589614D01*
X202104088Y-109634817D01*
X202121447Y-109672829D01*
X202128618Y-109699592D01*
X202128621Y-109699600D01*
X202130044Y-109704910D01*
X202132366Y-109709891D01*
X202132367Y-109709892D01*
X202152056Y-109752114D01*
X202219411Y-109896558D01*
X202340699Y-110069776D01*
X202490224Y-110219301D01*
X202663442Y-110340589D01*
X202668420Y-110342910D01*
X202668423Y-110342912D01*
X202849092Y-110427159D01*
X202855090Y-110429956D01*
X202860398Y-110431378D01*
X202860400Y-110431379D01*
X202886204Y-110438293D01*
X202946827Y-110475245D01*
X202977848Y-110539106D01*
X202969420Y-110609600D01*
X202924217Y-110664347D01*
X202886204Y-110681707D01*
X202860400Y-110688621D01*
X202860398Y-110688622D01*
X202855090Y-110690044D01*
X202850109Y-110692366D01*
X202850108Y-110692367D01*
X202668423Y-110777088D01*
X202668420Y-110777090D01*
X202663442Y-110779411D01*
X202490224Y-110900699D01*
X202340699Y-111050224D01*
X202219411Y-111223442D01*
X202217090Y-111228420D01*
X202217088Y-111228423D01*
X202132367Y-111410108D01*
X202130044Y-111415090D01*
X202128622Y-111420398D01*
X202128621Y-111420400D01*
X202121707Y-111446204D01*
X202084755Y-111506827D01*
X202020894Y-111537848D01*
X201950400Y-111529420D01*
X201895653Y-111484217D01*
X201878293Y-111446204D01*
X201871379Y-111420400D01*
X201871378Y-111420398D01*
X201869956Y-111415090D01*
X201867633Y-111410108D01*
X201782912Y-111228423D01*
X201782910Y-111228420D01*
X201780589Y-111223442D01*
X201659301Y-111050224D01*
X201509776Y-110900699D01*
X201336558Y-110779411D01*
X201331580Y-110777090D01*
X201331577Y-110777088D01*
X201149892Y-110692367D01*
X201149891Y-110692366D01*
X201144910Y-110690044D01*
X201139603Y-110688622D01*
X201139592Y-110688618D01*
X201112829Y-110681447D01*
X201052207Y-110644496D01*
X201021185Y-110580635D01*
X201029614Y-110510140D01*
X201074818Y-110455394D01*
X201112830Y-110438034D01*
X201139426Y-110430908D01*
X201149723Y-110427159D01*
X201331323Y-110342479D01*
X201340811Y-110337001D01*
X201371248Y-110315689D01*
X201379623Y-110305212D01*
X201372554Y-110291764D01*
X200742812Y-109662022D01*
X200728868Y-109654408D01*
X200727035Y-109654539D01*
X200720420Y-109658790D01*
X200086724Y-110292486D01*
X200080294Y-110304261D01*
X200089590Y-110316276D01*
X200119189Y-110337001D01*
X200128677Y-110342479D01*
X200310277Y-110427159D01*
X200320574Y-110430908D01*
X200347170Y-110438034D01*
X200407793Y-110474986D01*
X200438814Y-110538846D01*
X200430386Y-110609341D01*
X200385183Y-110664088D01*
X200347171Y-110681447D01*
X200320408Y-110688618D01*
X200320397Y-110688622D01*
X200315090Y-110690044D01*
X200310109Y-110692366D01*
X200310108Y-110692367D01*
X200128423Y-110777088D01*
X200128420Y-110777090D01*
X200123442Y-110779411D01*
X199950224Y-110900699D01*
X199800699Y-111050224D01*
X199679411Y-111223442D01*
X199677090Y-111228420D01*
X199677088Y-111228423D01*
X199592367Y-111410108D01*
X199590044Y-111415090D01*
X199535314Y-111619345D01*
X199516884Y-111830000D01*
X199535314Y-112040655D01*
X199536738Y-112045968D01*
X199536738Y-112045970D01*
X199556973Y-112121486D01*
X199590044Y-112244910D01*
X199592366Y-112249891D01*
X199592367Y-112249892D01*
X199635999Y-112343460D01*
X199679411Y-112436558D01*
X199800699Y-112609776D01*
X199950224Y-112759301D01*
X200123442Y-112880589D01*
X200128420Y-112882910D01*
X200128423Y-112882912D01*
X200300711Y-112963251D01*
X200315090Y-112969956D01*
X200320398Y-112971378D01*
X200320400Y-112971379D01*
X200346204Y-112978293D01*
X200406827Y-113015245D01*
X200437848Y-113079106D01*
X200429420Y-113149600D01*
X200384217Y-113204347D01*
X200346204Y-113221707D01*
X200320400Y-113228621D01*
X200320398Y-113228622D01*
X200315090Y-113230044D01*
X200310109Y-113232366D01*
X200310108Y-113232367D01*
X200128423Y-113317088D01*
X200128420Y-113317090D01*
X200123442Y-113319411D01*
X199950224Y-113440699D01*
X199800699Y-113590224D01*
X199679411Y-113763442D01*
X199677090Y-113768420D01*
X199677088Y-113768423D01*
X199640271Y-113847378D01*
X199590044Y-113955090D01*
X199588622Y-113960398D01*
X199588621Y-113960400D01*
X199536738Y-114154030D01*
X199535314Y-114159345D01*
X199516884Y-114370000D01*
X199535314Y-114580655D01*
X199536738Y-114585968D01*
X199536738Y-114585970D01*
X199587527Y-114775515D01*
X199590044Y-114784910D01*
X199592366Y-114789891D01*
X199592367Y-114789892D01*
X199659332Y-114933498D01*
X199679411Y-114976558D01*
X199800699Y-115149776D01*
X199950224Y-115299301D01*
X200123442Y-115420589D01*
X200128420Y-115422910D01*
X200128423Y-115422912D01*
X200310108Y-115507633D01*
X200315090Y-115509956D01*
X200320398Y-115511378D01*
X200320400Y-115511379D01*
X200346204Y-115518293D01*
X200406827Y-115555245D01*
X200437848Y-115619106D01*
X200429420Y-115689600D01*
X200384217Y-115744347D01*
X200346204Y-115761707D01*
X200320400Y-115768621D01*
X200320398Y-115768622D01*
X200315090Y-115770044D01*
X200310109Y-115772366D01*
X200310108Y-115772367D01*
X200128423Y-115857088D01*
X200128420Y-115857090D01*
X200123442Y-115859411D01*
X199950224Y-115980699D01*
X199800699Y-116130224D01*
X199679411Y-116303442D01*
X199677090Y-116308420D01*
X199677088Y-116308423D01*
X199636689Y-116395060D01*
X199590044Y-116495090D01*
X199588622Y-116500398D01*
X199588621Y-116500400D01*
X199536738Y-116694030D01*
X199535314Y-116699345D01*
X199516884Y-116910000D01*
X199535314Y-117120655D01*
X199590044Y-117324910D01*
X199592366Y-117329891D01*
X199592367Y-117329892D01*
X199673283Y-117503416D01*
X199679411Y-117516558D01*
X199800699Y-117689776D01*
X199950224Y-117839301D01*
X200123442Y-117960589D01*
X200128420Y-117962910D01*
X200128423Y-117962912D01*
X200310108Y-118047633D01*
X200315090Y-118049956D01*
X200320398Y-118051378D01*
X200320400Y-118051379D01*
X200514030Y-118103262D01*
X200514032Y-118103262D01*
X200519345Y-118104686D01*
X200730000Y-118123116D01*
X200940655Y-118104686D01*
X200945968Y-118103262D01*
X200945970Y-118103262D01*
X201139600Y-118051379D01*
X201139602Y-118051378D01*
X201144910Y-118049956D01*
X201149892Y-118047633D01*
X201331577Y-117962912D01*
X201331580Y-117962910D01*
X201336558Y-117960589D01*
X201509776Y-117839301D01*
X201659301Y-117689776D01*
X201780589Y-117516558D01*
X201786718Y-117503416D01*
X201867633Y-117329892D01*
X201867634Y-117329891D01*
X201869956Y-117324910D01*
X201878293Y-117293796D01*
X201915245Y-117233173D01*
X201979106Y-117202152D01*
X202049600Y-117210580D01*
X202104347Y-117255783D01*
X202121707Y-117293796D01*
X202130044Y-117324910D01*
X202132366Y-117329891D01*
X202132367Y-117329892D01*
X202213283Y-117503416D01*
X202219411Y-117516558D01*
X202340699Y-117689776D01*
X202490224Y-117839301D01*
X202663442Y-117960589D01*
X202668420Y-117962910D01*
X202668423Y-117962912D01*
X202850108Y-118047633D01*
X202855090Y-118049956D01*
X202860398Y-118051378D01*
X202860400Y-118051379D01*
X203054030Y-118103262D01*
X203054032Y-118103262D01*
X203059345Y-118104686D01*
X203270000Y-118123116D01*
X203480655Y-118104686D01*
X203485968Y-118103262D01*
X203485970Y-118103262D01*
X203679600Y-118051379D01*
X203679602Y-118051378D01*
X203684910Y-118049956D01*
X203689892Y-118047633D01*
X203871577Y-117962912D01*
X203871580Y-117962910D01*
X203876558Y-117960589D01*
X204049776Y-117839301D01*
X204199301Y-117689776D01*
X204320589Y-117516558D01*
X204326718Y-117503416D01*
X204407633Y-117329892D01*
X204407634Y-117329891D01*
X204409956Y-117324910D01*
X204464686Y-117120655D01*
X204483116Y-116910000D01*
X204464686Y-116699345D01*
X204463262Y-116694030D01*
X204411379Y-116500400D01*
X204411378Y-116500398D01*
X204409956Y-116495090D01*
X204363311Y-116395060D01*
X204322912Y-116308423D01*
X204322910Y-116308420D01*
X204320589Y-116303442D01*
X204199301Y-116130224D01*
X204049776Y-115980699D01*
X203876558Y-115859411D01*
X203871580Y-115857090D01*
X203871577Y-115857088D01*
X203689892Y-115772367D01*
X203689891Y-115772366D01*
X203684910Y-115770044D01*
X203679602Y-115768622D01*
X203679600Y-115768621D01*
X203653796Y-115761707D01*
X203593173Y-115724755D01*
X203562152Y-115660894D01*
X203570580Y-115590400D01*
X203615783Y-115535653D01*
X203653796Y-115518293D01*
X203679600Y-115511379D01*
X203679602Y-115511378D01*
X203684910Y-115509956D01*
X203689892Y-115507633D01*
X203871577Y-115422912D01*
X203871580Y-115422910D01*
X203876558Y-115420589D01*
X204049776Y-115299301D01*
X204199301Y-115149776D01*
X204320589Y-114976558D01*
X204340669Y-114933498D01*
X204407633Y-114789892D01*
X204407634Y-114789891D01*
X204409956Y-114784910D01*
X204412474Y-114775515D01*
X204463262Y-114585970D01*
X204463262Y-114585968D01*
X204464686Y-114580655D01*
X204483116Y-114370000D01*
X204464686Y-114159345D01*
X204463262Y-114154030D01*
X204411379Y-113960400D01*
X204411378Y-113960398D01*
X204409956Y-113955090D01*
X204359729Y-113847378D01*
X204322912Y-113768423D01*
X204322910Y-113768420D01*
X204320589Y-113763442D01*
X204199301Y-113590224D01*
X204049776Y-113440699D01*
X203876558Y-113319411D01*
X203871580Y-113317090D01*
X203871577Y-113317088D01*
X203689892Y-113232367D01*
X203689891Y-113232366D01*
X203684910Y-113230044D01*
X203679602Y-113228622D01*
X203679600Y-113228621D01*
X203653796Y-113221707D01*
X203593173Y-113184755D01*
X203562152Y-113120894D01*
X203570580Y-113050400D01*
X203615783Y-112995653D01*
X203653796Y-112978293D01*
X203679600Y-112971379D01*
X203679602Y-112971378D01*
X203684910Y-112969956D01*
X203699289Y-112963251D01*
X203871577Y-112882912D01*
X203871580Y-112882910D01*
X203876558Y-112880589D01*
X204049776Y-112759301D01*
X204199301Y-112609776D01*
X204320589Y-112436558D01*
X204364002Y-112343460D01*
X204407633Y-112249892D01*
X204407634Y-112249891D01*
X204409956Y-112244910D01*
X204443028Y-112121486D01*
X204463262Y-112045970D01*
X204463262Y-112045968D01*
X204464686Y-112040655D01*
X204483116Y-111830000D01*
X204464686Y-111619345D01*
X204409956Y-111415090D01*
X204407633Y-111410108D01*
X204322912Y-111228423D01*
X204322910Y-111228420D01*
X204320589Y-111223442D01*
X204199301Y-111050224D01*
X204049776Y-110900699D01*
X203876558Y-110779411D01*
X203871580Y-110777090D01*
X203871577Y-110777088D01*
X203689892Y-110692367D01*
X203689891Y-110692366D01*
X203684910Y-110690044D01*
X203679602Y-110688622D01*
X203679600Y-110688621D01*
X203653796Y-110681707D01*
X203593173Y-110644755D01*
X203562152Y-110580894D01*
X203570580Y-110510400D01*
X203615783Y-110455653D01*
X203653796Y-110438293D01*
X203679600Y-110431379D01*
X203679602Y-110431378D01*
X203684910Y-110429956D01*
X203690908Y-110427159D01*
X203871577Y-110342912D01*
X203871580Y-110342910D01*
X203876558Y-110340589D01*
X204049776Y-110219301D01*
X204199301Y-110069776D01*
X204320589Y-109896558D01*
X204387945Y-109752114D01*
X204407633Y-109709892D01*
X204407634Y-109709891D01*
X204409956Y-109704910D01*
X204411426Y-109699426D01*
X204463262Y-109505970D01*
X204463262Y-109505968D01*
X204464686Y-109500655D01*
X204483116Y-109290000D01*
X204464686Y-109079345D01*
X204442849Y-108997848D01*
X204411379Y-108880400D01*
X204411378Y-108880398D01*
X204409956Y-108875090D01*
X204320589Y-108683442D01*
X204199301Y-108510224D01*
X204049776Y-108360699D01*
X203876558Y-108239411D01*
X203871580Y-108237090D01*
X203871577Y-108237088D01*
X203689892Y-108152367D01*
X203689891Y-108152366D01*
X203684910Y-108150044D01*
X203679602Y-108148622D01*
X203679600Y-108148621D01*
X203653796Y-108141707D01*
X203593173Y-108104755D01*
X203562152Y-108040894D01*
X203570580Y-107970400D01*
X203615783Y-107915653D01*
X203653796Y-107898293D01*
X203679600Y-107891379D01*
X203679602Y-107891378D01*
X203684910Y-107889956D01*
X203689892Y-107887633D01*
X203871577Y-107802912D01*
X203871580Y-107802910D01*
X203876558Y-107800589D01*
X204049776Y-107679301D01*
X204199301Y-107529776D01*
X204320589Y-107356558D01*
X204409956Y-107164910D01*
X204432296Y-107081538D01*
X204463262Y-106965970D01*
X204463262Y-106965968D01*
X204464686Y-106960655D01*
X204483116Y-106750000D01*
X204464686Y-106539345D01*
X204409956Y-106335090D01*
X204320589Y-106143442D01*
X204199301Y-105970224D01*
X204049776Y-105820699D01*
X203876558Y-105699411D01*
X203871580Y-105697090D01*
X203871577Y-105697088D01*
X203689892Y-105612367D01*
X203689891Y-105612366D01*
X203684910Y-105610044D01*
X203679602Y-105608622D01*
X203679600Y-105608621D01*
X203653796Y-105601707D01*
X203593173Y-105564755D01*
X203562152Y-105500894D01*
X203570580Y-105430400D01*
X203615783Y-105375653D01*
X203653796Y-105358293D01*
X203679600Y-105351379D01*
X203679602Y-105351378D01*
X203684910Y-105349956D01*
X203689892Y-105347633D01*
X203871577Y-105262912D01*
X203871580Y-105262910D01*
X203876558Y-105260589D01*
X204049776Y-105139301D01*
X204199301Y-104989776D01*
X204320589Y-104816558D01*
X204326718Y-104803416D01*
X204407633Y-104629892D01*
X204407634Y-104629891D01*
X204409956Y-104624910D01*
X204464686Y-104420655D01*
X204483116Y-104210000D01*
X204464686Y-103999345D01*
X204454862Y-103962682D01*
X204411379Y-103800400D01*
X204411378Y-103800398D01*
X204409956Y-103795090D01*
X204376504Y-103723352D01*
X204322912Y-103608423D01*
X204322910Y-103608420D01*
X204320589Y-103603442D01*
X204199301Y-103430224D01*
X204049776Y-103280699D01*
X203876558Y-103159411D01*
X203871580Y-103157090D01*
X203871577Y-103157088D01*
X203689892Y-103072367D01*
X203689891Y-103072366D01*
X203684910Y-103070044D01*
X203679602Y-103068622D01*
X203679600Y-103068621D01*
X203653796Y-103061707D01*
X203593173Y-103024755D01*
X203562152Y-102960894D01*
X203570580Y-102890400D01*
X203615783Y-102835653D01*
X203653796Y-102818293D01*
X203679600Y-102811379D01*
X203679602Y-102811378D01*
X203684910Y-102809956D01*
X203689892Y-102807633D01*
X203871577Y-102722912D01*
X203871580Y-102722910D01*
X203876558Y-102720589D01*
X204049776Y-102599301D01*
X204199301Y-102449776D01*
X204320589Y-102276558D01*
X204352307Y-102208540D01*
X204407633Y-102089892D01*
X204407634Y-102089891D01*
X204409956Y-102084910D01*
X204412474Y-102075515D01*
X204463262Y-101885970D01*
X204463262Y-101885968D01*
X204464686Y-101880655D01*
X204483116Y-101670000D01*
X204464686Y-101459345D01*
X204463262Y-101454030D01*
X204411379Y-101260400D01*
X204411378Y-101260398D01*
X204409956Y-101255090D01*
X204320589Y-101063442D01*
X204199301Y-100890224D01*
X204049776Y-100740699D01*
X203876558Y-100619411D01*
X203871580Y-100617090D01*
X203871577Y-100617088D01*
X203689892Y-100532367D01*
X203689891Y-100532366D01*
X203684910Y-100530044D01*
X203679602Y-100528622D01*
X203679600Y-100528621D01*
X203653796Y-100521707D01*
X203593173Y-100484755D01*
X203562152Y-100420894D01*
X203570580Y-100350400D01*
X203615783Y-100295653D01*
X203653796Y-100278293D01*
X203679600Y-100271379D01*
X203679602Y-100271378D01*
X203684910Y-100269956D01*
X203689892Y-100267633D01*
X203871577Y-100182912D01*
X203871580Y-100182910D01*
X203876558Y-100180589D01*
X204049776Y-100059301D01*
X204199301Y-99909776D01*
X204320589Y-99736558D01*
X204340669Y-99693498D01*
X204407633Y-99549892D01*
X204407634Y-99549891D01*
X204409956Y-99544910D01*
X204412203Y-99536526D01*
X204463262Y-99345970D01*
X204463262Y-99345968D01*
X204464686Y-99340655D01*
X204483116Y-99130000D01*
X204464686Y-98919345D01*
X204440543Y-98829243D01*
X204411379Y-98720400D01*
X204411378Y-98720398D01*
X204409956Y-98715090D01*
X204373484Y-98636876D01*
X204322912Y-98528423D01*
X204322910Y-98528420D01*
X204320589Y-98523442D01*
X204199301Y-98350224D01*
X204049776Y-98200699D01*
X203876558Y-98079411D01*
X203871580Y-98077090D01*
X203871577Y-98077088D01*
X203689892Y-97992367D01*
X203689891Y-97992366D01*
X203684910Y-97990044D01*
X203679602Y-97988622D01*
X203679600Y-97988621D01*
X203653796Y-97981707D01*
X203593173Y-97944755D01*
X203562152Y-97880894D01*
X203570580Y-97810400D01*
X203615783Y-97755653D01*
X203653796Y-97738293D01*
X203679600Y-97731379D01*
X203679602Y-97731378D01*
X203684910Y-97729956D01*
X203699289Y-97723251D01*
X203871577Y-97642912D01*
X203871580Y-97642910D01*
X203876558Y-97640589D01*
X204049776Y-97519301D01*
X204199301Y-97369776D01*
X204320589Y-97196558D01*
X204372154Y-97085978D01*
X204407633Y-97009892D01*
X204407634Y-97009891D01*
X204409956Y-97004910D01*
X204438036Y-96900116D01*
X204463262Y-96805970D01*
X204463262Y-96805968D01*
X204464686Y-96800655D01*
X204483116Y-96590000D01*
X204464686Y-96379345D01*
X204409956Y-96175090D01*
X204320589Y-95983442D01*
X204199301Y-95810224D01*
X204049776Y-95660699D01*
X203876558Y-95539411D01*
X203871580Y-95537090D01*
X203871577Y-95537088D01*
X203689892Y-95452367D01*
X203689891Y-95452366D01*
X203684910Y-95450044D01*
X203679603Y-95448622D01*
X203679592Y-95448618D01*
X203652829Y-95441447D01*
X203592207Y-95404496D01*
X203561185Y-95340635D01*
X203569614Y-95270140D01*
X203614818Y-95215394D01*
X203652830Y-95198034D01*
X203679426Y-95190908D01*
X203689723Y-95187159D01*
X203871323Y-95102479D01*
X203880811Y-95097001D01*
X203911248Y-95075689D01*
X203919623Y-95065212D01*
X203912554Y-95051764D01*
X203282812Y-94422022D01*
X203268868Y-94414408D01*
X203267035Y-94414539D01*
X203260420Y-94418790D01*
X202626724Y-95052486D01*
X202620294Y-95064261D01*
X202629590Y-95076276D01*
X202659189Y-95097001D01*
X202668677Y-95102479D01*
X202850277Y-95187159D01*
X202860574Y-95190908D01*
X202887170Y-95198034D01*
X202947793Y-95234986D01*
X202978814Y-95298846D01*
X202970386Y-95369341D01*
X202925183Y-95424088D01*
X202887171Y-95441447D01*
X202860408Y-95448618D01*
X202860397Y-95448622D01*
X202855090Y-95450044D01*
X202850109Y-95452366D01*
X202850108Y-95452367D01*
X202668423Y-95537088D01*
X202668420Y-95537090D01*
X202663442Y-95539411D01*
X202490224Y-95660699D01*
X202340699Y-95810224D01*
X202219411Y-95983442D01*
X202130044Y-96175090D01*
X202128622Y-96180398D01*
X202128621Y-96180400D01*
X202121707Y-96206204D01*
X202084755Y-96266827D01*
X202020894Y-96297848D01*
X201950400Y-96289420D01*
X201895653Y-96244217D01*
X201878293Y-96206204D01*
X201871379Y-96180400D01*
X201871378Y-96180398D01*
X201869956Y-96175090D01*
X201780589Y-95983442D01*
X201659301Y-95810224D01*
X201509776Y-95660699D01*
X201336558Y-95539411D01*
X201331580Y-95537090D01*
X201331577Y-95537088D01*
X201149892Y-95452367D01*
X201149891Y-95452366D01*
X201144910Y-95450044D01*
X201139602Y-95448622D01*
X201139600Y-95448621D01*
X201113796Y-95441707D01*
X201053173Y-95404755D01*
X201022152Y-95340894D01*
X201030580Y-95270400D01*
X201075783Y-95215653D01*
X201113796Y-95198293D01*
X201139600Y-95191379D01*
X201139602Y-95191378D01*
X201144910Y-95189956D01*
X201150908Y-95187159D01*
X201331577Y-95102912D01*
X201331580Y-95102910D01*
X201336558Y-95100589D01*
X201509776Y-94979301D01*
X201659301Y-94829776D01*
X201780589Y-94656558D01*
X201869956Y-94464910D01*
X201871379Y-94459600D01*
X201871382Y-94459592D01*
X201878553Y-94432829D01*
X201915504Y-94372207D01*
X201979365Y-94341185D01*
X202049860Y-94349614D01*
X202104606Y-94394818D01*
X202121966Y-94432830D01*
X202129092Y-94459426D01*
X202132841Y-94469723D01*
X202217521Y-94651323D01*
X202222999Y-94660811D01*
X202244311Y-94691248D01*
X202254788Y-94699623D01*
X202268236Y-94692554D01*
X202897978Y-94062812D01*
X202904356Y-94051132D01*
X203634408Y-94051132D01*
X203634539Y-94052965D01*
X203638790Y-94059580D01*
X204272486Y-94693276D01*
X204284261Y-94699706D01*
X204296276Y-94690410D01*
X204317001Y-94660811D01*
X204322479Y-94651323D01*
X204407159Y-94469723D01*
X204410907Y-94459429D01*
X204462769Y-94265878D01*
X204464671Y-94255091D01*
X204482135Y-94055475D01*
X204482135Y-94044525D01*
X204464671Y-93844909D01*
X204462769Y-93834122D01*
X204410907Y-93640571D01*
X204407159Y-93630277D01*
X204322479Y-93448677D01*
X204317001Y-93439189D01*
X204295689Y-93408752D01*
X204285212Y-93400377D01*
X204271764Y-93407446D01*
X203642022Y-94037188D01*
X203634408Y-94051132D01*
X202904356Y-94051132D01*
X202905592Y-94048868D01*
X202905461Y-94047035D01*
X202901210Y-94040420D01*
X202267514Y-93406724D01*
X202255739Y-93400294D01*
X202243724Y-93409590D01*
X202222999Y-93439189D01*
X202217521Y-93448677D01*
X202132841Y-93630277D01*
X202129092Y-93640574D01*
X202121966Y-93667170D01*
X202085014Y-93727793D01*
X202021154Y-93758814D01*
X201950659Y-93750386D01*
X201895912Y-93705183D01*
X201878553Y-93667171D01*
X201871382Y-93640408D01*
X201871378Y-93640397D01*
X201869956Y-93635090D01*
X201780589Y-93443442D01*
X201659301Y-93270224D01*
X201604172Y-93215095D01*
X201570146Y-93152783D01*
X201575211Y-93081968D01*
X201617758Y-93025132D01*
X201684278Y-93000321D01*
X201693267Y-93000000D01*
X202527020Y-93000000D01*
X202595141Y-93020002D01*
X202616115Y-93036905D01*
X203257188Y-93677978D01*
X203271132Y-93685592D01*
X203272965Y-93685461D01*
X203279580Y-93681210D01*
X203923885Y-93036905D01*
X203986197Y-93002879D01*
X204012980Y-93000000D01*
X204874000Y-93000000D01*
X204942121Y-93020002D01*
X204988614Y-93073658D01*
X205000000Y-93126000D01*
X205000000Y-123874000D01*
X204979998Y-123942121D01*
X204926342Y-123988614D01*
X204874000Y-124000000D01*
X157126000Y-124000000D01*
X157057879Y-123979998D01*
X157011386Y-123926342D01*
X157000000Y-123874000D01*
X157000000Y-112114669D01*
X162192001Y-112114669D01*
X162192371Y-112121490D01*
X162197895Y-112172352D01*
X162201521Y-112187604D01*
X162246676Y-112308054D01*
X162255214Y-112323649D01*
X162331715Y-112425724D01*
X162344276Y-112438285D01*
X162446351Y-112514786D01*
X162461946Y-112523324D01*
X162582394Y-112568478D01*
X162597649Y-112572105D01*
X162648514Y-112577631D01*
X162655328Y-112578000D01*
X164407885Y-112578000D01*
X164423124Y-112573525D01*
X164424329Y-112572135D01*
X164426000Y-112564452D01*
X164426000Y-112559884D01*
X164934000Y-112559884D01*
X164938475Y-112575123D01*
X164939865Y-112576328D01*
X164947548Y-112577999D01*
X166704669Y-112577999D01*
X166711490Y-112577629D01*
X166762352Y-112572105D01*
X166777604Y-112568479D01*
X166898054Y-112523324D01*
X166913649Y-112514786D01*
X167015724Y-112438285D01*
X167028285Y-112425724D01*
X167104786Y-112323649D01*
X167113324Y-112308054D01*
X167158478Y-112187606D01*
X167162105Y-112172351D01*
X167167631Y-112121486D01*
X167168000Y-112114672D01*
X167168000Y-111352115D01*
X167163525Y-111336876D01*
X167162135Y-111335671D01*
X167154452Y-111334000D01*
X164952115Y-111334000D01*
X164936876Y-111338475D01*
X164935671Y-111339865D01*
X164934000Y-111347548D01*
X164934000Y-112559884D01*
X164426000Y-112559884D01*
X164426000Y-111352115D01*
X164421525Y-111336876D01*
X164420135Y-111335671D01*
X164412452Y-111334000D01*
X162210116Y-111334000D01*
X162194877Y-111338475D01*
X162193672Y-111339865D01*
X162192001Y-111347548D01*
X162192001Y-112114669D01*
X157000000Y-112114669D01*
X157000000Y-110807885D01*
X162192000Y-110807885D01*
X162196475Y-110823124D01*
X162197865Y-110824329D01*
X162205548Y-110826000D01*
X164407885Y-110826000D01*
X164423124Y-110821525D01*
X164424329Y-110820135D01*
X164426000Y-110812452D01*
X164426000Y-110807885D01*
X164934000Y-110807885D01*
X164938475Y-110823124D01*
X164939865Y-110824329D01*
X164947548Y-110826000D01*
X167149884Y-110826000D01*
X167165123Y-110821525D01*
X167166328Y-110820135D01*
X167167999Y-110812452D01*
X167167999Y-110045331D01*
X167167629Y-110038510D01*
X167162105Y-109987648D01*
X167158479Y-109972396D01*
X167113324Y-109851946D01*
X167104786Y-109836351D01*
X167028285Y-109734276D01*
X167015724Y-109721715D01*
X166913649Y-109645214D01*
X166898054Y-109636676D01*
X166777606Y-109591522D01*
X166762351Y-109587895D01*
X166711486Y-109582369D01*
X166704672Y-109582000D01*
X164952115Y-109582000D01*
X164936876Y-109586475D01*
X164935671Y-109587865D01*
X164934000Y-109595548D01*
X164934000Y-110807885D01*
X164426000Y-110807885D01*
X164426000Y-109600116D01*
X164421525Y-109584877D01*
X164420135Y-109583672D01*
X164412452Y-109582001D01*
X162655331Y-109582001D01*
X162648510Y-109582371D01*
X162597648Y-109587895D01*
X162582396Y-109591521D01*
X162461946Y-109636676D01*
X162446351Y-109645214D01*
X162344276Y-109721715D01*
X162331715Y-109734276D01*
X162255214Y-109836351D01*
X162246676Y-109851946D01*
X162201522Y-109972394D01*
X162197895Y-109987649D01*
X162192369Y-110038514D01*
X162192000Y-110045328D01*
X162192000Y-110807885D01*
X157000000Y-110807885D01*
X157000000Y-99414669D01*
X162192001Y-99414669D01*
X162192371Y-99421490D01*
X162197895Y-99472352D01*
X162201521Y-99487604D01*
X162246676Y-99608054D01*
X162255214Y-99623649D01*
X162331715Y-99725724D01*
X162344276Y-99738285D01*
X162446351Y-99814786D01*
X162461946Y-99823324D01*
X162582394Y-99868478D01*
X162597649Y-99872105D01*
X162648514Y-99877631D01*
X162655328Y-99878000D01*
X164407885Y-99878000D01*
X164423124Y-99873525D01*
X164424329Y-99872135D01*
X164426000Y-99864452D01*
X164426000Y-99859884D01*
X164934000Y-99859884D01*
X164938475Y-99875123D01*
X164939865Y-99876328D01*
X164947548Y-99877999D01*
X166704669Y-99877999D01*
X166711490Y-99877629D01*
X166762352Y-99872105D01*
X166777604Y-99868479D01*
X166898054Y-99823324D01*
X166913649Y-99814786D01*
X167015724Y-99738285D01*
X167028285Y-99725724D01*
X167104786Y-99623649D01*
X167113324Y-99608054D01*
X167158478Y-99487606D01*
X167162105Y-99472351D01*
X167167631Y-99421486D01*
X167168000Y-99414672D01*
X167168000Y-98652115D01*
X167163525Y-98636876D01*
X167162135Y-98635671D01*
X167154452Y-98634000D01*
X164952115Y-98634000D01*
X164936876Y-98638475D01*
X164935671Y-98639865D01*
X164934000Y-98647548D01*
X164934000Y-99859884D01*
X164426000Y-99859884D01*
X164426000Y-98652115D01*
X164421525Y-98636876D01*
X164420135Y-98635671D01*
X164412452Y-98634000D01*
X162210116Y-98634000D01*
X162194877Y-98638475D01*
X162193672Y-98639865D01*
X162192001Y-98647548D01*
X162192001Y-99414669D01*
X157000000Y-99414669D01*
X157000000Y-98107885D01*
X162192000Y-98107885D01*
X162196475Y-98123124D01*
X162197865Y-98124329D01*
X162205548Y-98126000D01*
X164407885Y-98126000D01*
X164423124Y-98121525D01*
X164424329Y-98120135D01*
X164426000Y-98112452D01*
X164426000Y-98107885D01*
X164934000Y-98107885D01*
X164938475Y-98123124D01*
X164939865Y-98124329D01*
X164947548Y-98126000D01*
X167149884Y-98126000D01*
X167165123Y-98121525D01*
X167166328Y-98120135D01*
X167167999Y-98112452D01*
X167167999Y-97345331D01*
X167167629Y-97338510D01*
X167162105Y-97287648D01*
X167158479Y-97272396D01*
X167113324Y-97151946D01*
X167104786Y-97136351D01*
X167028285Y-97034276D01*
X167015724Y-97021715D01*
X166913649Y-96945214D01*
X166898054Y-96936676D01*
X166777606Y-96891522D01*
X166762351Y-96887895D01*
X166711486Y-96882369D01*
X166704672Y-96882000D01*
X164952115Y-96882000D01*
X164936876Y-96886475D01*
X164935671Y-96887865D01*
X164934000Y-96895548D01*
X164934000Y-98107885D01*
X164426000Y-98107885D01*
X164426000Y-96900116D01*
X164421525Y-96884877D01*
X164420135Y-96883672D01*
X164412452Y-96882001D01*
X162655331Y-96882001D01*
X162648510Y-96882371D01*
X162597648Y-96887895D01*
X162582396Y-96891521D01*
X162461946Y-96936676D01*
X162446351Y-96945214D01*
X162344276Y-97021715D01*
X162331715Y-97034276D01*
X162255214Y-97136351D01*
X162246676Y-97151946D01*
X162201522Y-97272394D01*
X162197895Y-97287649D01*
X162192369Y-97338514D01*
X162192000Y-97345328D01*
X162192000Y-98107885D01*
X157000000Y-98107885D01*
X157000000Y-94055475D01*
X174117865Y-94055475D01*
X174135329Y-94255091D01*
X174137231Y-94265878D01*
X174189093Y-94459429D01*
X174192841Y-94469723D01*
X174277521Y-94651323D01*
X174282999Y-94660811D01*
X174304311Y-94691248D01*
X174314788Y-94699623D01*
X174328236Y-94692554D01*
X174957978Y-94062812D01*
X174965592Y-94048868D01*
X174965461Y-94047035D01*
X174961210Y-94040420D01*
X174327514Y-93406724D01*
X174315739Y-93400294D01*
X174303724Y-93409590D01*
X174282999Y-93439189D01*
X174277521Y-93448677D01*
X174192841Y-93630277D01*
X174189093Y-93640571D01*
X174137231Y-93834122D01*
X174135329Y-93844909D01*
X174117865Y-94044525D01*
X174117865Y-94055475D01*
X157000000Y-94055475D01*
X157000000Y-93126000D01*
X157020002Y-93057879D01*
X157073658Y-93011386D01*
X157126000Y-93000000D01*
X174587020Y-93000000D01*
X174655141Y-93020002D01*
G37*
%TD.AperFunction*%
%TD*%
M02*
